%TF.GenerationSoftware,KiCad,Pcbnew,7.0.11-7.0.11~ubuntu22.04.1*%
%TF.CreationDate,2024-10-19T21:35:02+01:00*%
%TF.ProjectId,MS20-VCF,4d533230-2d56-4434-962e-6b696361645f,rev?*%
%TF.SameCoordinates,Original*%
%TF.FileFunction,Drillmap*%
%TF.FilePolarity,Positive*%
%FSLAX45Y45*%
G04 Gerber Fmt 4.5, Leading zero omitted, Abs format (unit mm)*
G04 Created by KiCad (PCBNEW 7.0.11-7.0.11~ubuntu22.04.1) date 2024-10-19 21:35:02*
%MOMM*%
%LPD*%
G01*
G04 APERTURE LIST*
%ADD10C,0.050000*%
%ADD11C,0.200000*%
%ADD12C,0.100000*%
%ADD13C,0.122000*%
%ADD14C,0.142000*%
%ADD15C,0.143000*%
G04 APERTURE END LIST*
D10*
X8500000Y-3650000D02*
X8500000Y-14650000D01*
X3500000Y-3650000D02*
X8500000Y-3650000D01*
X3500000Y-3650000D02*
X3500000Y-14650000D01*
X3500000Y-14650000D02*
X8500000Y-14650000D01*
D11*
D12*
X4504112Y-7195047D02*
X4544112Y-7235047D01*
X4544112Y-7195047D02*
X4504112Y-7235047D01*
X4580000Y-7130000D02*
X4620000Y-7170000D01*
X4620000Y-7130000D02*
X4580000Y-7170000D01*
X4605050Y-7770500D02*
X4645050Y-7810500D01*
X4645050Y-7770500D02*
X4605050Y-7810500D01*
X4670000Y-7550000D02*
X4710000Y-7590000D01*
X4710000Y-7550000D02*
X4670000Y-7590000D01*
X5599539Y-7802457D02*
X5639539Y-7842457D01*
X5639539Y-7802457D02*
X5599539Y-7842457D01*
X6320000Y-7370000D02*
X6360000Y-7410000D01*
X6360000Y-7370000D02*
X6320000Y-7410000D01*
X3682000Y-12600000D02*
G75*
G03*
X3602000Y-12600000I-40000J0D01*
G01*
X3602000Y-12600000D02*
G75*
G03*
X3682000Y-12600000I40000J0D01*
G01*
X3750000Y-5980000D02*
G75*
G03*
X3670000Y-5980000I-40000J0D01*
G01*
X3670000Y-5980000D02*
G75*
G03*
X3750000Y-5980000I40000J0D01*
G01*
X4080000Y-4430000D02*
G75*
G03*
X4000000Y-4430000I-40000J0D01*
G01*
X4000000Y-4430000D02*
G75*
G03*
X4080000Y-4430000I40000J0D01*
G01*
X4080000Y-4740000D02*
G75*
G03*
X4000000Y-4740000I-40000J0D01*
G01*
X4000000Y-4740000D02*
G75*
G03*
X4080000Y-4740000I40000J0D01*
G01*
X4080000Y-5050000D02*
G75*
G03*
X4000000Y-5050000I-40000J0D01*
G01*
X4000000Y-5050000D02*
G75*
G03*
X4080000Y-5050000I40000J0D01*
G01*
X4080000Y-5360000D02*
G75*
G03*
X4000000Y-5360000I-40000J0D01*
G01*
X4000000Y-5360000D02*
G75*
G03*
X4080000Y-5360000I40000J0D01*
G01*
X4080000Y-5670000D02*
G75*
G03*
X4000000Y-5670000I-40000J0D01*
G01*
X4000000Y-5670000D02*
G75*
G03*
X4080000Y-5670000I40000J0D01*
G01*
X4080000Y-8280000D02*
G75*
G03*
X4000000Y-8280000I-40000J0D01*
G01*
X4000000Y-8280000D02*
G75*
G03*
X4080000Y-8280000I40000J0D01*
G01*
X4110000Y-7410000D02*
G75*
G03*
X4030000Y-7410000I-40000J0D01*
G01*
X4030000Y-7410000D02*
G75*
G03*
X4110000Y-7410000I40000J0D01*
G01*
X4110000Y-7910000D02*
G75*
G03*
X4030000Y-7910000I-40000J0D01*
G01*
X4030000Y-7910000D02*
G75*
G03*
X4110000Y-7910000I40000J0D01*
G01*
X4132000Y-6600000D02*
G75*
G03*
X4052000Y-6600000I-40000J0D01*
G01*
X4052000Y-6600000D02*
G75*
G03*
X4132000Y-6600000I40000J0D01*
G01*
X4390000Y-6920000D02*
G75*
G03*
X4310000Y-6920000I-40000J0D01*
G01*
X4310000Y-6920000D02*
G75*
G03*
X4390000Y-6920000I40000J0D01*
G01*
X4698000Y-12600000D02*
G75*
G03*
X4618000Y-12600000I-40000J0D01*
G01*
X4618000Y-12600000D02*
G75*
G03*
X4698000Y-12600000I40000J0D01*
G01*
X4730000Y-9150000D02*
G75*
G03*
X4650000Y-9150000I-40000J0D01*
G01*
X4650000Y-9150000D02*
G75*
G03*
X4730000Y-9150000I40000J0D01*
G01*
X4730000Y-10166000D02*
G75*
G03*
X4650000Y-10166000I-40000J0D01*
G01*
X4650000Y-10166000D02*
G75*
G03*
X4730000Y-10166000I40000J0D01*
G01*
X4740000Y-8600000D02*
G75*
G03*
X4660000Y-8600000I-40000J0D01*
G01*
X4660000Y-8600000D02*
G75*
G03*
X4740000Y-8600000I40000J0D01*
G01*
X4766000Y-5980000D02*
G75*
G03*
X4686000Y-5980000I-40000J0D01*
G01*
X4686000Y-5980000D02*
G75*
G03*
X4766000Y-5980000I40000J0D01*
G01*
X4890000Y-6920000D02*
G75*
G03*
X4810000Y-6920000I-40000J0D01*
G01*
X4810000Y-6920000D02*
G75*
G03*
X4890000Y-6920000I40000J0D01*
G01*
X5040000Y-9150000D02*
G75*
G03*
X4960000Y-9150000I-40000J0D01*
G01*
X4960000Y-9150000D02*
G75*
G03*
X5040000Y-9150000I40000J0D01*
G01*
X5040000Y-10166000D02*
G75*
G03*
X4960000Y-10166000I-40000J0D01*
G01*
X4960000Y-10166000D02*
G75*
G03*
X5040000Y-10166000I40000J0D01*
G01*
X5096000Y-4430000D02*
G75*
G03*
X5016000Y-4430000I-40000J0D01*
G01*
X5016000Y-4430000D02*
G75*
G03*
X5096000Y-4430000I40000J0D01*
G01*
X5096000Y-4740000D02*
G75*
G03*
X5016000Y-4740000I-40000J0D01*
G01*
X5016000Y-4740000D02*
G75*
G03*
X5096000Y-4740000I40000J0D01*
G01*
X5096000Y-5050000D02*
G75*
G03*
X5016000Y-5050000I-40000J0D01*
G01*
X5016000Y-5050000D02*
G75*
G03*
X5096000Y-5050000I40000J0D01*
G01*
X5096000Y-5360000D02*
G75*
G03*
X5016000Y-5360000I-40000J0D01*
G01*
X5016000Y-5360000D02*
G75*
G03*
X5096000Y-5360000I40000J0D01*
G01*
X5096000Y-5670000D02*
G75*
G03*
X5016000Y-5670000I-40000J0D01*
G01*
X5016000Y-5670000D02*
G75*
G03*
X5096000Y-5670000I40000J0D01*
G01*
X5096000Y-8280000D02*
G75*
G03*
X5016000Y-8280000I-40000J0D01*
G01*
X5016000Y-8280000D02*
G75*
G03*
X5096000Y-8280000I40000J0D01*
G01*
X5148000Y-6600000D02*
G75*
G03*
X5068000Y-6600000I-40000J0D01*
G01*
X5068000Y-6600000D02*
G75*
G03*
X5148000Y-6600000I40000J0D01*
G01*
X5170000Y-7410000D02*
G75*
G03*
X5090000Y-7410000I-40000J0D01*
G01*
X5090000Y-7410000D02*
G75*
G03*
X5170000Y-7410000I40000J0D01*
G01*
X5170000Y-7910000D02*
G75*
G03*
X5090000Y-7910000I-40000J0D01*
G01*
X5090000Y-7910000D02*
G75*
G03*
X5170000Y-7910000I40000J0D01*
G01*
X5190000Y-12400000D02*
G75*
G03*
X5110000Y-12400000I-40000J0D01*
G01*
X5110000Y-12400000D02*
G75*
G03*
X5190000Y-12400000I40000J0D01*
G01*
X5240000Y-8600000D02*
G75*
G03*
X5160000Y-8600000I-40000J0D01*
G01*
X5160000Y-8600000D02*
G75*
G03*
X5240000Y-8600000I40000J0D01*
G01*
X5390000Y-12400000D02*
G75*
G03*
X5310000Y-12400000I-40000J0D01*
G01*
X5310000Y-12400000D02*
G75*
G03*
X5390000Y-12400000I40000J0D01*
G01*
X5440000Y-5984000D02*
G75*
G03*
X5360000Y-5984000I-40000J0D01*
G01*
X5360000Y-5984000D02*
G75*
G03*
X5440000Y-5984000I40000J0D01*
G01*
X5440000Y-7000000D02*
G75*
G03*
X5360000Y-7000000I-40000J0D01*
G01*
X5360000Y-7000000D02*
G75*
G03*
X5440000Y-7000000I40000J0D01*
G01*
X5482000Y-10200000D02*
G75*
G03*
X5402000Y-10200000I-40000J0D01*
G01*
X5402000Y-10200000D02*
G75*
G03*
X5482000Y-10200000I40000J0D01*
G01*
X5482000Y-10510000D02*
G75*
G03*
X5402000Y-10510000I-40000J0D01*
G01*
X5402000Y-10510000D02*
G75*
G03*
X5482000Y-10510000I40000J0D01*
G01*
X5534489Y-8250000D02*
G75*
G03*
X5454489Y-8250000I-40000J0D01*
G01*
X5454489Y-8250000D02*
G75*
G03*
X5534489Y-8250000I40000J0D01*
G01*
X5734489Y-8250000D02*
G75*
G03*
X5654489Y-8250000I-40000J0D01*
G01*
X5654489Y-8250000D02*
G75*
G03*
X5734489Y-8250000I40000J0D01*
G01*
X5790000Y-5984000D02*
G75*
G03*
X5710000Y-5984000I-40000J0D01*
G01*
X5710000Y-5984000D02*
G75*
G03*
X5790000Y-5984000I40000J0D01*
G01*
X5790000Y-7000000D02*
G75*
G03*
X5710000Y-7000000I-40000J0D01*
G01*
X5710000Y-7000000D02*
G75*
G03*
X5790000Y-7000000I40000J0D01*
G01*
X6140000Y-5984000D02*
G75*
G03*
X6060000Y-5984000I-40000J0D01*
G01*
X6060000Y-5984000D02*
G75*
G03*
X6140000Y-5984000I40000J0D01*
G01*
X6140000Y-7000000D02*
G75*
G03*
X6060000Y-7000000I-40000J0D01*
G01*
X6060000Y-7000000D02*
G75*
G03*
X6140000Y-7000000I40000J0D01*
G01*
X6140000Y-7292000D02*
G75*
G03*
X6060000Y-7292000I-40000J0D01*
G01*
X6060000Y-7292000D02*
G75*
G03*
X6140000Y-7292000I40000J0D01*
G01*
X6140000Y-8308000D02*
G75*
G03*
X6060000Y-8308000I-40000J0D01*
G01*
X6060000Y-8308000D02*
G75*
G03*
X6140000Y-8308000I40000J0D01*
G01*
X6422000Y-6220000D02*
G75*
G03*
X6342000Y-6220000I-40000J0D01*
G01*
X6342000Y-6220000D02*
G75*
G03*
X6422000Y-6220000I40000J0D01*
G01*
X6498000Y-10200000D02*
G75*
G03*
X6418000Y-10200000I-40000J0D01*
G01*
X6418000Y-10200000D02*
G75*
G03*
X6498000Y-10200000I40000J0D01*
G01*
X6498000Y-10510000D02*
G75*
G03*
X6418000Y-10510000I-40000J0D01*
G01*
X6418000Y-10510000D02*
G75*
G03*
X6498000Y-10510000I40000J0D01*
G01*
X6685511Y-13100000D02*
G75*
G03*
X6605511Y-13100000I-40000J0D01*
G01*
X6605511Y-13100000D02*
G75*
G03*
X6685511Y-13100000I40000J0D01*
G01*
X6720000Y-6976000D02*
G75*
G03*
X6640000Y-6976000I-40000J0D01*
G01*
X6640000Y-6976000D02*
G75*
G03*
X6720000Y-6976000I40000J0D01*
G01*
X6720000Y-7230000D02*
G75*
G03*
X6640000Y-7230000I-40000J0D01*
G01*
X6640000Y-7230000D02*
G75*
G03*
X6720000Y-7230000I40000J0D01*
G01*
X6720000Y-7484000D02*
G75*
G03*
X6640000Y-7484000I-40000J0D01*
G01*
X6640000Y-7484000D02*
G75*
G03*
X6720000Y-7484000I40000J0D01*
G01*
X6870000Y-4914000D02*
G75*
G03*
X6790000Y-4914000I-40000J0D01*
G01*
X6790000Y-4914000D02*
G75*
G03*
X6870000Y-4914000I40000J0D01*
G01*
X6870000Y-5930000D02*
G75*
G03*
X6790000Y-5930000I-40000J0D01*
G01*
X6790000Y-5930000D02*
G75*
G03*
X6870000Y-5930000I40000J0D01*
G01*
X6885511Y-13100000D02*
G75*
G03*
X6805511Y-13100000I-40000J0D01*
G01*
X6805511Y-13100000D02*
G75*
G03*
X6885511Y-13100000I40000J0D01*
G01*
X6890000Y-9460000D02*
G75*
G03*
X6810000Y-9460000I-40000J0D01*
G01*
X6810000Y-9460000D02*
G75*
G03*
X6890000Y-9460000I40000J0D01*
G01*
X6920000Y-8380000D02*
G75*
G03*
X6840000Y-8380000I-40000J0D01*
G01*
X6840000Y-8380000D02*
G75*
G03*
X6920000Y-8380000I40000J0D01*
G01*
X6920000Y-8634000D02*
G75*
G03*
X6840000Y-8634000I-40000J0D01*
G01*
X6840000Y-8634000D02*
G75*
G03*
X6920000Y-8634000I40000J0D01*
G01*
X6920000Y-8888000D02*
G75*
G03*
X6840000Y-8888000I-40000J0D01*
G01*
X6840000Y-8888000D02*
G75*
G03*
X6920000Y-8888000I40000J0D01*
G01*
X6920000Y-9142000D02*
G75*
G03*
X6840000Y-9142000I-40000J0D01*
G01*
X6840000Y-9142000D02*
G75*
G03*
X6920000Y-9142000I40000J0D01*
G01*
X7130000Y-6976000D02*
G75*
G03*
X7050000Y-6976000I-40000J0D01*
G01*
X7050000Y-6976000D02*
G75*
G03*
X7130000Y-6976000I40000J0D01*
G01*
X7130000Y-7230000D02*
G75*
G03*
X7050000Y-7230000I-40000J0D01*
G01*
X7050000Y-7230000D02*
G75*
G03*
X7130000Y-7230000I40000J0D01*
G01*
X7130000Y-7484000D02*
G75*
G03*
X7050000Y-7484000I-40000J0D01*
G01*
X7050000Y-7484000D02*
G75*
G03*
X7130000Y-7484000I40000J0D01*
G01*
X7210000Y-8060000D02*
G75*
G03*
X7130000Y-8060000I-40000J0D01*
G01*
X7130000Y-8060000D02*
G75*
G03*
X7210000Y-8060000I40000J0D01*
G01*
X7290000Y-3784000D02*
G75*
G03*
X7210000Y-3784000I-40000J0D01*
G01*
X7210000Y-3784000D02*
G75*
G03*
X7290000Y-3784000I40000J0D01*
G01*
X7290000Y-4546000D02*
G75*
G03*
X7210000Y-4546000I-40000J0D01*
G01*
X7210000Y-4546000D02*
G75*
G03*
X7290000Y-4546000I40000J0D01*
G01*
X7290000Y-4824000D02*
G75*
G03*
X7210000Y-4824000I-40000J0D01*
G01*
X7210000Y-4824000D02*
G75*
G03*
X7290000Y-4824000I40000J0D01*
G01*
X7290000Y-5586000D02*
G75*
G03*
X7210000Y-5586000I-40000J0D01*
G01*
X7210000Y-5586000D02*
G75*
G03*
X7290000Y-5586000I40000J0D01*
G01*
X7390000Y-9460000D02*
G75*
G03*
X7310000Y-9460000I-40000J0D01*
G01*
X7310000Y-9460000D02*
G75*
G03*
X7390000Y-9460000I40000J0D01*
G01*
X7438000Y-6220000D02*
G75*
G03*
X7358000Y-6220000I-40000J0D01*
G01*
X7358000Y-6220000D02*
G75*
G03*
X7438000Y-6220000I40000J0D01*
G01*
X7550000Y-3784000D02*
G75*
G03*
X7470000Y-3784000I-40000J0D01*
G01*
X7470000Y-3784000D02*
G75*
G03*
X7550000Y-3784000I40000J0D01*
G01*
X7550000Y-4546000D02*
G75*
G03*
X7470000Y-4546000I-40000J0D01*
G01*
X7470000Y-4546000D02*
G75*
G03*
X7550000Y-4546000I40000J0D01*
G01*
X7550000Y-4824000D02*
G75*
G03*
X7470000Y-4824000I-40000J0D01*
G01*
X7470000Y-4824000D02*
G75*
G03*
X7550000Y-4824000I40000J0D01*
G01*
X7550000Y-5586000D02*
G75*
G03*
X7470000Y-5586000I-40000J0D01*
G01*
X7470000Y-5586000D02*
G75*
G03*
X7550000Y-5586000I40000J0D01*
G01*
X7682000Y-8380000D02*
G75*
G03*
X7602000Y-8380000I-40000J0D01*
G01*
X7602000Y-8380000D02*
G75*
G03*
X7682000Y-8380000I40000J0D01*
G01*
X7682000Y-8634000D02*
G75*
G03*
X7602000Y-8634000I-40000J0D01*
G01*
X7602000Y-8634000D02*
G75*
G03*
X7682000Y-8634000I40000J0D01*
G01*
X7682000Y-8888000D02*
G75*
G03*
X7602000Y-8888000I-40000J0D01*
G01*
X7602000Y-8888000D02*
G75*
G03*
X7682000Y-8888000I40000J0D01*
G01*
X7682000Y-9142000D02*
G75*
G03*
X7602000Y-9142000I-40000J0D01*
G01*
X7602000Y-9142000D02*
G75*
G03*
X7682000Y-9142000I40000J0D01*
G01*
X7710000Y-8060000D02*
G75*
G03*
X7630000Y-8060000I-40000J0D01*
G01*
X7630000Y-8060000D02*
G75*
G03*
X7710000Y-8060000I40000J0D01*
G01*
X7730000Y-13232000D02*
G75*
G03*
X7650000Y-13232000I-40000J0D01*
G01*
X7650000Y-13232000D02*
G75*
G03*
X7730000Y-13232000I40000J0D01*
G01*
X7730000Y-14248000D02*
G75*
G03*
X7650000Y-14248000I-40000J0D01*
G01*
X7650000Y-14248000D02*
G75*
G03*
X7730000Y-14248000I40000J0D01*
G01*
X7810000Y-3784000D02*
G75*
G03*
X7730000Y-3784000I-40000J0D01*
G01*
X7730000Y-3784000D02*
G75*
G03*
X7810000Y-3784000I40000J0D01*
G01*
X7810000Y-4546000D02*
G75*
G03*
X7730000Y-4546000I-40000J0D01*
G01*
X7730000Y-4546000D02*
G75*
G03*
X7810000Y-4546000I40000J0D01*
G01*
X7810000Y-4824000D02*
G75*
G03*
X7730000Y-4824000I-40000J0D01*
G01*
X7730000Y-4824000D02*
G75*
G03*
X7810000Y-4824000I40000J0D01*
G01*
X7810000Y-5586000D02*
G75*
G03*
X7730000Y-5586000I-40000J0D01*
G01*
X7730000Y-5586000D02*
G75*
G03*
X7810000Y-5586000I40000J0D01*
G01*
X8000000Y-7622000D02*
G75*
G03*
X7920000Y-7622000I-40000J0D01*
G01*
X7920000Y-7622000D02*
G75*
G03*
X8000000Y-7622000I40000J0D01*
G01*
X8000000Y-8638000D02*
G75*
G03*
X7920000Y-8638000I-40000J0D01*
G01*
X7920000Y-8638000D02*
G75*
G03*
X8000000Y-8638000I40000J0D01*
G01*
X8143000Y-3916000D02*
G75*
G03*
X8063000Y-3916000I-40000J0D01*
G01*
X8063000Y-3916000D02*
G75*
G03*
X8143000Y-3916000I40000J0D01*
G01*
X8143000Y-4170000D02*
G75*
G03*
X8063000Y-4170000I-40000J0D01*
G01*
X8063000Y-4170000D02*
G75*
G03*
X8143000Y-4170000I40000J0D01*
G01*
X8143000Y-4424000D02*
G75*
G03*
X8063000Y-4424000I-40000J0D01*
G01*
X8063000Y-4424000D02*
G75*
G03*
X8143000Y-4424000I40000J0D01*
G01*
X8143000Y-4970000D02*
G75*
G03*
X8063000Y-4970000I-40000J0D01*
G01*
X8063000Y-4970000D02*
G75*
G03*
X8143000Y-4970000I40000J0D01*
G01*
X8143000Y-5224000D02*
G75*
G03*
X8063000Y-5224000I-40000J0D01*
G01*
X8063000Y-5224000D02*
G75*
G03*
X8143000Y-5224000I40000J0D01*
G01*
X8143000Y-5478000D02*
G75*
G03*
X8063000Y-5478000I-40000J0D01*
G01*
X8063000Y-5478000D02*
G75*
G03*
X8143000Y-5478000I40000J0D01*
G01*
X8300000Y-6212000D02*
G75*
G03*
X8220000Y-6212000I-40000J0D01*
G01*
X8220000Y-6212000D02*
G75*
G03*
X8300000Y-6212000I40000J0D01*
G01*
X8300000Y-7228000D02*
G75*
G03*
X8220000Y-7228000I-40000J0D01*
G01*
X8220000Y-7228000D02*
G75*
G03*
X8300000Y-7228000I40000J0D01*
G01*
X8330000Y-8680000D02*
G75*
G03*
X8250000Y-8680000I-40000J0D01*
G01*
X8250000Y-8680000D02*
G75*
G03*
X8330000Y-8680000I40000J0D01*
G01*
X8330000Y-9180000D02*
G75*
G03*
X8250000Y-9180000I-40000J0D01*
G01*
X8250000Y-9180000D02*
G75*
G03*
X8330000Y-9180000I40000J0D01*
G01*
X8140000Y-14188500D02*
X8140000Y-14278500D01*
X8095000Y-14233500D02*
X8185000Y-14233500D01*
X8140000Y-14442500D02*
X8140000Y-14532500D01*
X8095000Y-14487500D02*
X8185000Y-14487500D01*
X3985356Y-12340356D02*
X3985356Y-12269644D01*
X3914644Y-12269644D01*
X3914644Y-12340356D01*
X3985356Y-12340356D01*
X4235356Y-12340356D02*
X4235356Y-12269644D01*
X4164644Y-12269644D01*
X4164644Y-12340356D01*
X4235356Y-12340356D01*
X4485356Y-12340356D02*
X4485356Y-12269644D01*
X4414644Y-12269644D01*
X4414644Y-12340356D01*
X4485356Y-12340356D01*
X4870356Y-13285356D02*
X4870356Y-13214644D01*
X4799644Y-13214644D01*
X4799644Y-13285356D01*
X4870356Y-13285356D01*
X5527856Y-14060106D02*
X5527856Y-13989394D01*
X5457144Y-13989394D01*
X5457144Y-14060106D01*
X5527856Y-14060106D01*
X5527856Y-14314106D02*
X5527856Y-14243394D01*
X5457144Y-14243394D01*
X5457144Y-14314106D01*
X5527856Y-14314106D01*
X5781856Y-14060106D02*
X5781856Y-13989394D01*
X5711144Y-13989394D01*
X5711144Y-14060106D01*
X5781856Y-14060106D01*
X5781856Y-14314106D02*
X5781856Y-14243394D01*
X5711144Y-14243394D01*
X5711144Y-14314106D01*
X5781856Y-14314106D01*
X5785356Y-5640356D02*
X5785356Y-5569644D01*
X5714644Y-5569644D01*
X5714644Y-5640356D01*
X5785356Y-5640356D01*
X5785356Y-9940356D02*
X5785356Y-9869644D01*
X5714644Y-9869644D01*
X5714644Y-9940356D01*
X5785356Y-9940356D01*
X6035356Y-5640356D02*
X6035356Y-5569644D01*
X5964644Y-5569644D01*
X5964644Y-5640356D01*
X6035356Y-5640356D01*
X6035356Y-9940356D02*
X6035356Y-9869644D01*
X5964644Y-9869644D01*
X5964644Y-9940356D01*
X6035356Y-9940356D01*
X6035856Y-14060106D02*
X6035856Y-13989394D01*
X5965144Y-13989394D01*
X5965144Y-14060106D01*
X6035856Y-14060106D01*
X6035856Y-14314106D02*
X6035856Y-14243394D01*
X5965144Y-14243394D01*
X5965144Y-14314106D01*
X6035856Y-14314106D01*
X6140356Y-13285356D02*
X6140356Y-13214644D01*
X6069644Y-13214644D01*
X6069644Y-13285356D01*
X6140356Y-13285356D01*
X6285356Y-5640356D02*
X6285356Y-5569644D01*
X6214644Y-5569644D01*
X6214644Y-5640356D01*
X6285356Y-5640356D01*
X6285356Y-9940356D02*
X6285356Y-9869644D01*
X6214644Y-9869644D01*
X6214644Y-9940356D01*
X6285356Y-9940356D01*
X6289856Y-14060106D02*
X6289856Y-13989394D01*
X6219144Y-13989394D01*
X6219144Y-14060106D01*
X6289856Y-14060106D01*
X6289856Y-14314106D02*
X6289856Y-14243394D01*
X6219144Y-14243394D01*
X6219144Y-14314106D01*
X6289856Y-14314106D01*
X6543856Y-14060106D02*
X6543856Y-13989394D01*
X6473144Y-13989394D01*
X6473144Y-14060106D01*
X6543856Y-14060106D01*
X6543856Y-14314106D02*
X6543856Y-14243394D01*
X6473144Y-14243394D01*
X6473144Y-14314106D01*
X6543856Y-14314106D01*
X7335356Y-13285356D02*
X7335356Y-13214644D01*
X7264644Y-13214644D01*
X7264644Y-13285356D01*
X7335356Y-13285356D01*
X7335356Y-14555356D02*
X7335356Y-14484644D01*
X7264644Y-14484644D01*
X7264644Y-14555356D01*
X7335356Y-14555356D01*
X7595356Y-11665356D02*
X7595356Y-11594644D01*
X7524644Y-11594644D01*
X7524644Y-11665356D01*
X7595356Y-11665356D01*
X7620000Y-11580000D02*
X7500000Y-11580000D01*
X7500000Y-11580000D02*
G75*
G03*
X7500000Y-11680000I0J-50000D01*
G01*
X7500000Y-11680000D02*
X7620000Y-11680000D01*
X7620000Y-11680000D02*
G75*
G03*
X7620000Y-11580000I0J50000D01*
G01*
X7595356Y-12135356D02*
X7595356Y-12064644D01*
X7524644Y-12064644D01*
X7524644Y-12135356D01*
X7595356Y-12135356D01*
X7620000Y-12050000D02*
X7500000Y-12050000D01*
X7500000Y-12050000D02*
G75*
G03*
X7500000Y-12150000I0J-50000D01*
G01*
X7500000Y-12150000D02*
X7620000Y-12150000D01*
X7620000Y-12150000D02*
G75*
G03*
X7620000Y-12050000I0J50000D01*
G01*
X7595356Y-12605356D02*
X7595356Y-12534644D01*
X7524644Y-12534644D01*
X7524644Y-12605356D01*
X7595356Y-12605356D01*
X7620000Y-12520000D02*
X7500000Y-12520000D01*
X7500000Y-12520000D02*
G75*
G03*
X7500000Y-12620000I0J-50000D01*
G01*
X7500000Y-12620000D02*
X7620000Y-12620000D01*
X7620000Y-12620000D02*
G75*
G03*
X7620000Y-12520000I0J50000D01*
G01*
X8075356Y-11665356D02*
X8075356Y-11594644D01*
X8004644Y-11594644D01*
X8004644Y-11665356D01*
X8075356Y-11665356D01*
X8100000Y-11580000D02*
X7980000Y-11580000D01*
X7980000Y-11580000D02*
G75*
G03*
X7980000Y-11680000I0J-50000D01*
G01*
X7980000Y-11680000D02*
X8100000Y-11680000D01*
X8100000Y-11680000D02*
G75*
G03*
X8100000Y-11580000I0J50000D01*
G01*
X8075356Y-12135356D02*
X8075356Y-12064644D01*
X8004644Y-12064644D01*
X8004644Y-12135356D01*
X8075356Y-12135356D01*
X8100000Y-12050000D02*
X7980000Y-12050000D01*
X7980000Y-12050000D02*
G75*
G03*
X7980000Y-12150000I0J-50000D01*
G01*
X7980000Y-12150000D02*
X8100000Y-12150000D01*
X8100000Y-12150000D02*
G75*
G03*
X8100000Y-12050000I0J50000D01*
G01*
X8075356Y-12605356D02*
X8075356Y-12534644D01*
X8004644Y-12534644D01*
X8004644Y-12605356D01*
X8075356Y-12605356D01*
X8100000Y-12520000D02*
X7980000Y-12520000D01*
X7980000Y-12520000D02*
G75*
G03*
X7980000Y-12620000I0J-50000D01*
G01*
X7980000Y-12620000D02*
X8100000Y-12620000D01*
X8100000Y-12620000D02*
G75*
G03*
X8100000Y-12520000I0J50000D01*
G01*
D13*
X4000000Y-9533000D02*
X4061000Y-9472000D01*
X4000000Y-9411000D01*
X3939000Y-9472000D01*
X4000000Y-9533000D01*
X4200000Y-13011000D02*
X4261000Y-12950000D01*
X4200000Y-12889000D01*
X4139000Y-12950000D01*
X4200000Y-13011000D01*
X8000000Y-9521000D02*
X8061000Y-9460000D01*
X8000000Y-9399000D01*
X7939000Y-9460000D01*
X8000000Y-9521000D01*
D14*
X3929000Y-9711000D02*
X4071000Y-9853000D01*
X4071000Y-9711000D02*
X3929000Y-9853000D01*
X4071000Y-9782000D02*
G75*
G03*
X3929000Y-9782000I-71000J0D01*
G01*
X3929000Y-9782000D02*
G75*
G03*
X4071000Y-9782000I71000J0D01*
G01*
X4129000Y-13189000D02*
X4271000Y-13331000D01*
X4271000Y-13189000D02*
X4129000Y-13331000D01*
X4271000Y-13260000D02*
G75*
G03*
X4129000Y-13260000I-71000J0D01*
G01*
X4129000Y-13260000D02*
G75*
G03*
X4271000Y-13260000I71000J0D01*
G01*
X7929000Y-9699000D02*
X8071000Y-9841000D01*
X8071000Y-9699000D02*
X7929000Y-9841000D01*
X8071000Y-9770000D02*
G75*
G03*
X7929000Y-9770000I-71000J0D01*
G01*
X7929000Y-9770000D02*
G75*
G03*
X8071000Y-9770000I71000J0D01*
G01*
D15*
X3928500Y-10540500D02*
X4071500Y-10683500D01*
X4071500Y-10540500D02*
X3928500Y-10683500D01*
X4000000Y-10540500D02*
X4000000Y-10683500D01*
X3928500Y-10612000D02*
X4071500Y-10612000D01*
X4128500Y-14018500D02*
X4271500Y-14161500D01*
X4271500Y-14018500D02*
X4128500Y-14161500D01*
X4200000Y-14018500D02*
X4200000Y-14161500D01*
X4128500Y-14090000D02*
X4271500Y-14090000D01*
X7928500Y-10528500D02*
X8071500Y-10671500D01*
X8071500Y-10528500D02*
X7928500Y-10671500D01*
X8000000Y-10528500D02*
X8000000Y-10671500D01*
X7928500Y-10600000D02*
X8071500Y-10600000D01*
D11*
X3758277Y-14963984D02*
X3758277Y-14763984D01*
X3758277Y-14763984D02*
X3805896Y-14763984D01*
X3805896Y-14763984D02*
X3834467Y-14773508D01*
X3834467Y-14773508D02*
X3853515Y-14792555D01*
X3853515Y-14792555D02*
X3863039Y-14811603D01*
X3863039Y-14811603D02*
X3872562Y-14849698D01*
X3872562Y-14849698D02*
X3872562Y-14878269D01*
X3872562Y-14878269D02*
X3863039Y-14916365D01*
X3863039Y-14916365D02*
X3853515Y-14935412D01*
X3853515Y-14935412D02*
X3834467Y-14954460D01*
X3834467Y-14954460D02*
X3805896Y-14963984D01*
X3805896Y-14963984D02*
X3758277Y-14963984D01*
X3958277Y-14963984D02*
X3958277Y-14830650D01*
X3958277Y-14868746D02*
X3967801Y-14849698D01*
X3967801Y-14849698D02*
X3977324Y-14840174D01*
X3977324Y-14840174D02*
X3996372Y-14830650D01*
X3996372Y-14830650D02*
X4015420Y-14830650D01*
X4082086Y-14963984D02*
X4082086Y-14830650D01*
X4082086Y-14763984D02*
X4072562Y-14773508D01*
X4072562Y-14773508D02*
X4082086Y-14783031D01*
X4082086Y-14783031D02*
X4091610Y-14773508D01*
X4091610Y-14773508D02*
X4082086Y-14763984D01*
X4082086Y-14763984D02*
X4082086Y-14783031D01*
X4205896Y-14963984D02*
X4186848Y-14954460D01*
X4186848Y-14954460D02*
X4177324Y-14935412D01*
X4177324Y-14935412D02*
X4177324Y-14763984D01*
X4310658Y-14963984D02*
X4291610Y-14954460D01*
X4291610Y-14954460D02*
X4282086Y-14935412D01*
X4282086Y-14935412D02*
X4282086Y-14763984D01*
X4539229Y-14963984D02*
X4539229Y-14763984D01*
X4539229Y-14763984D02*
X4605896Y-14906841D01*
X4605896Y-14906841D02*
X4672563Y-14763984D01*
X4672563Y-14763984D02*
X4672563Y-14963984D01*
X4853515Y-14963984D02*
X4853515Y-14859222D01*
X4853515Y-14859222D02*
X4843991Y-14840174D01*
X4843991Y-14840174D02*
X4824944Y-14830650D01*
X4824944Y-14830650D02*
X4786848Y-14830650D01*
X4786848Y-14830650D02*
X4767801Y-14840174D01*
X4853515Y-14954460D02*
X4834467Y-14963984D01*
X4834467Y-14963984D02*
X4786848Y-14963984D01*
X4786848Y-14963984D02*
X4767801Y-14954460D01*
X4767801Y-14954460D02*
X4758277Y-14935412D01*
X4758277Y-14935412D02*
X4758277Y-14916365D01*
X4758277Y-14916365D02*
X4767801Y-14897317D01*
X4767801Y-14897317D02*
X4786848Y-14887793D01*
X4786848Y-14887793D02*
X4834467Y-14887793D01*
X4834467Y-14887793D02*
X4853515Y-14878269D01*
X4948753Y-14830650D02*
X4948753Y-15030650D01*
X4948753Y-14840174D02*
X4967801Y-14830650D01*
X4967801Y-14830650D02*
X5005896Y-14830650D01*
X5005896Y-14830650D02*
X5024944Y-14840174D01*
X5024944Y-14840174D02*
X5034467Y-14849698D01*
X5034467Y-14849698D02*
X5043991Y-14868746D01*
X5043991Y-14868746D02*
X5043991Y-14925888D01*
X5043991Y-14925888D02*
X5034467Y-14944936D01*
X5034467Y-14944936D02*
X5024944Y-14954460D01*
X5024944Y-14954460D02*
X5005896Y-14963984D01*
X5005896Y-14963984D02*
X4967801Y-14963984D01*
X4967801Y-14963984D02*
X4948753Y-14954460D01*
X5129705Y-14944936D02*
X5139229Y-14954460D01*
X5139229Y-14954460D02*
X5129705Y-14963984D01*
X5129705Y-14963984D02*
X5120182Y-14954460D01*
X5120182Y-14954460D02*
X5129705Y-14944936D01*
X5129705Y-14944936D02*
X5129705Y-14963984D01*
X5129705Y-14840174D02*
X5139229Y-14849698D01*
X5139229Y-14849698D02*
X5129705Y-14859222D01*
X5129705Y-14859222D02*
X5120182Y-14849698D01*
X5120182Y-14849698D02*
X5129705Y-14840174D01*
X5129705Y-14840174D02*
X5129705Y-14859222D01*
D12*
X3457500Y-15272500D02*
X3497500Y-15312500D01*
X3497500Y-15272500D02*
X3457500Y-15312500D01*
D11*
X3796372Y-15183984D02*
X3815420Y-15183984D01*
X3815420Y-15183984D02*
X3834467Y-15193508D01*
X3834467Y-15193508D02*
X3843991Y-15203031D01*
X3843991Y-15203031D02*
X3853515Y-15222079D01*
X3853515Y-15222079D02*
X3863039Y-15260174D01*
X3863039Y-15260174D02*
X3863039Y-15307793D01*
X3863039Y-15307793D02*
X3853515Y-15345888D01*
X3853515Y-15345888D02*
X3843991Y-15364936D01*
X3843991Y-15364936D02*
X3834467Y-15374460D01*
X3834467Y-15374460D02*
X3815420Y-15383984D01*
X3815420Y-15383984D02*
X3796372Y-15383984D01*
X3796372Y-15383984D02*
X3777324Y-15374460D01*
X3777324Y-15374460D02*
X3767801Y-15364936D01*
X3767801Y-15364936D02*
X3758277Y-15345888D01*
X3758277Y-15345888D02*
X3748753Y-15307793D01*
X3748753Y-15307793D02*
X3748753Y-15260174D01*
X3748753Y-15260174D02*
X3758277Y-15222079D01*
X3758277Y-15222079D02*
X3767801Y-15203031D01*
X3767801Y-15203031D02*
X3777324Y-15193508D01*
X3777324Y-15193508D02*
X3796372Y-15183984D01*
X3948753Y-15364936D02*
X3958277Y-15374460D01*
X3958277Y-15374460D02*
X3948753Y-15383984D01*
X3948753Y-15383984D02*
X3939229Y-15374460D01*
X3939229Y-15374460D02*
X3948753Y-15364936D01*
X3948753Y-15364936D02*
X3948753Y-15383984D01*
X4129705Y-15250650D02*
X4129705Y-15383984D01*
X4082086Y-15174460D02*
X4034467Y-15317317D01*
X4034467Y-15317317D02*
X4158277Y-15317317D01*
X4272563Y-15183984D02*
X4291610Y-15183984D01*
X4291610Y-15183984D02*
X4310658Y-15193508D01*
X4310658Y-15193508D02*
X4320182Y-15203031D01*
X4320182Y-15203031D02*
X4329705Y-15222079D01*
X4329705Y-15222079D02*
X4339229Y-15260174D01*
X4339229Y-15260174D02*
X4339229Y-15307793D01*
X4339229Y-15307793D02*
X4329705Y-15345888D01*
X4329705Y-15345888D02*
X4320182Y-15364936D01*
X4320182Y-15364936D02*
X4310658Y-15374460D01*
X4310658Y-15374460D02*
X4291610Y-15383984D01*
X4291610Y-15383984D02*
X4272563Y-15383984D01*
X4272563Y-15383984D02*
X4253515Y-15374460D01*
X4253515Y-15374460D02*
X4243991Y-15364936D01*
X4243991Y-15364936D02*
X4234467Y-15345888D01*
X4234467Y-15345888D02*
X4224944Y-15307793D01*
X4224944Y-15307793D02*
X4224944Y-15260174D01*
X4224944Y-15260174D02*
X4234467Y-15222079D01*
X4234467Y-15222079D02*
X4243991Y-15203031D01*
X4243991Y-15203031D02*
X4253515Y-15193508D01*
X4253515Y-15193508D02*
X4272563Y-15183984D01*
X4463039Y-15183984D02*
X4482086Y-15183984D01*
X4482086Y-15183984D02*
X4501134Y-15193508D01*
X4501134Y-15193508D02*
X4510658Y-15203031D01*
X4510658Y-15203031D02*
X4520182Y-15222079D01*
X4520182Y-15222079D02*
X4529705Y-15260174D01*
X4529705Y-15260174D02*
X4529705Y-15307793D01*
X4529705Y-15307793D02*
X4520182Y-15345888D01*
X4520182Y-15345888D02*
X4510658Y-15364936D01*
X4510658Y-15364936D02*
X4501134Y-15374460D01*
X4501134Y-15374460D02*
X4482086Y-15383984D01*
X4482086Y-15383984D02*
X4463039Y-15383984D01*
X4463039Y-15383984D02*
X4443991Y-15374460D01*
X4443991Y-15374460D02*
X4434467Y-15364936D01*
X4434467Y-15364936D02*
X4424944Y-15345888D01*
X4424944Y-15345888D02*
X4415420Y-15307793D01*
X4415420Y-15307793D02*
X4415420Y-15260174D01*
X4415420Y-15260174D02*
X4424944Y-15222079D01*
X4424944Y-15222079D02*
X4434467Y-15203031D01*
X4434467Y-15203031D02*
X4443991Y-15193508D01*
X4443991Y-15193508D02*
X4463039Y-15183984D01*
X4615420Y-15383984D02*
X4615420Y-15250650D01*
X4615420Y-15269698D02*
X4624944Y-15260174D01*
X4624944Y-15260174D02*
X4643991Y-15250650D01*
X4643991Y-15250650D02*
X4672563Y-15250650D01*
X4672563Y-15250650D02*
X4691610Y-15260174D01*
X4691610Y-15260174D02*
X4701134Y-15279222D01*
X4701134Y-15279222D02*
X4701134Y-15383984D01*
X4701134Y-15279222D02*
X4710658Y-15260174D01*
X4710658Y-15260174D02*
X4729705Y-15250650D01*
X4729705Y-15250650D02*
X4758277Y-15250650D01*
X4758277Y-15250650D02*
X4777325Y-15260174D01*
X4777325Y-15260174D02*
X4786848Y-15279222D01*
X4786848Y-15279222D02*
X4786848Y-15383984D01*
X4882086Y-15383984D02*
X4882086Y-15250650D01*
X4882086Y-15269698D02*
X4891610Y-15260174D01*
X4891610Y-15260174D02*
X4910658Y-15250650D01*
X4910658Y-15250650D02*
X4939229Y-15250650D01*
X4939229Y-15250650D02*
X4958277Y-15260174D01*
X4958277Y-15260174D02*
X4967801Y-15279222D01*
X4967801Y-15279222D02*
X4967801Y-15383984D01*
X4967801Y-15279222D02*
X4977325Y-15260174D01*
X4977325Y-15260174D02*
X4996372Y-15250650D01*
X4996372Y-15250650D02*
X5024944Y-15250650D01*
X5024944Y-15250650D02*
X5043991Y-15260174D01*
X5043991Y-15260174D02*
X5053515Y-15279222D01*
X5053515Y-15279222D02*
X5053515Y-15383984D01*
X5443991Y-15174460D02*
X5272563Y-15431603D01*
X5701134Y-15183984D02*
X5720182Y-15183984D01*
X5720182Y-15183984D02*
X5739229Y-15193508D01*
X5739229Y-15193508D02*
X5748753Y-15203031D01*
X5748753Y-15203031D02*
X5758277Y-15222079D01*
X5758277Y-15222079D02*
X5767801Y-15260174D01*
X5767801Y-15260174D02*
X5767801Y-15307793D01*
X5767801Y-15307793D02*
X5758277Y-15345888D01*
X5758277Y-15345888D02*
X5748753Y-15364936D01*
X5748753Y-15364936D02*
X5739229Y-15374460D01*
X5739229Y-15374460D02*
X5720182Y-15383984D01*
X5720182Y-15383984D02*
X5701134Y-15383984D01*
X5701134Y-15383984D02*
X5682086Y-15374460D01*
X5682086Y-15374460D02*
X5672563Y-15364936D01*
X5672563Y-15364936D02*
X5663039Y-15345888D01*
X5663039Y-15345888D02*
X5653515Y-15307793D01*
X5653515Y-15307793D02*
X5653515Y-15260174D01*
X5653515Y-15260174D02*
X5663039Y-15222079D01*
X5663039Y-15222079D02*
X5672563Y-15203031D01*
X5672563Y-15203031D02*
X5682086Y-15193508D01*
X5682086Y-15193508D02*
X5701134Y-15183984D01*
X5853515Y-15364936D02*
X5863039Y-15374460D01*
X5863039Y-15374460D02*
X5853515Y-15383984D01*
X5853515Y-15383984D02*
X5843991Y-15374460D01*
X5843991Y-15374460D02*
X5853515Y-15364936D01*
X5853515Y-15364936D02*
X5853515Y-15383984D01*
X5986848Y-15183984D02*
X6005896Y-15183984D01*
X6005896Y-15183984D02*
X6024944Y-15193508D01*
X6024944Y-15193508D02*
X6034467Y-15203031D01*
X6034467Y-15203031D02*
X6043991Y-15222079D01*
X6043991Y-15222079D02*
X6053515Y-15260174D01*
X6053515Y-15260174D02*
X6053515Y-15307793D01*
X6053515Y-15307793D02*
X6043991Y-15345888D01*
X6043991Y-15345888D02*
X6034467Y-15364936D01*
X6034467Y-15364936D02*
X6024944Y-15374460D01*
X6024944Y-15374460D02*
X6005896Y-15383984D01*
X6005896Y-15383984D02*
X5986848Y-15383984D01*
X5986848Y-15383984D02*
X5967801Y-15374460D01*
X5967801Y-15374460D02*
X5958277Y-15364936D01*
X5958277Y-15364936D02*
X5948753Y-15345888D01*
X5948753Y-15345888D02*
X5939229Y-15307793D01*
X5939229Y-15307793D02*
X5939229Y-15260174D01*
X5939229Y-15260174D02*
X5948753Y-15222079D01*
X5948753Y-15222079D02*
X5958277Y-15203031D01*
X5958277Y-15203031D02*
X5967801Y-15193508D01*
X5967801Y-15193508D02*
X5986848Y-15183984D01*
X6243991Y-15383984D02*
X6129706Y-15383984D01*
X6186848Y-15383984D02*
X6186848Y-15183984D01*
X6186848Y-15183984D02*
X6167801Y-15212555D01*
X6167801Y-15212555D02*
X6148753Y-15231603D01*
X6148753Y-15231603D02*
X6129706Y-15241127D01*
X6424944Y-15183984D02*
X6329706Y-15183984D01*
X6329706Y-15183984D02*
X6320182Y-15279222D01*
X6320182Y-15279222D02*
X6329706Y-15269698D01*
X6329706Y-15269698D02*
X6348753Y-15260174D01*
X6348753Y-15260174D02*
X6396372Y-15260174D01*
X6396372Y-15260174D02*
X6415420Y-15269698D01*
X6415420Y-15269698D02*
X6424944Y-15279222D01*
X6424944Y-15279222D02*
X6434467Y-15298269D01*
X6434467Y-15298269D02*
X6434467Y-15345888D01*
X6434467Y-15345888D02*
X6424944Y-15364936D01*
X6424944Y-15364936D02*
X6415420Y-15374460D01*
X6415420Y-15374460D02*
X6396372Y-15383984D01*
X6396372Y-15383984D02*
X6348753Y-15383984D01*
X6348753Y-15383984D02*
X6329706Y-15374460D01*
X6329706Y-15374460D02*
X6320182Y-15364936D01*
X6501134Y-15183984D02*
X6634467Y-15183984D01*
X6634467Y-15183984D02*
X6548753Y-15383984D01*
X6701134Y-15183984D02*
X6701134Y-15222079D01*
X6777325Y-15183984D02*
X6777325Y-15222079D01*
X7072563Y-15460174D02*
X7063039Y-15450650D01*
X7063039Y-15450650D02*
X7043991Y-15422079D01*
X7043991Y-15422079D02*
X7034468Y-15403031D01*
X7034468Y-15403031D02*
X7024944Y-15374460D01*
X7024944Y-15374460D02*
X7015420Y-15326841D01*
X7015420Y-15326841D02*
X7015420Y-15288746D01*
X7015420Y-15288746D02*
X7024944Y-15241127D01*
X7024944Y-15241127D02*
X7034468Y-15212555D01*
X7034468Y-15212555D02*
X7043991Y-15193508D01*
X7043991Y-15193508D02*
X7063039Y-15164936D01*
X7063039Y-15164936D02*
X7072563Y-15155412D01*
X7234468Y-15183984D02*
X7196372Y-15183984D01*
X7196372Y-15183984D02*
X7177325Y-15193508D01*
X7177325Y-15193508D02*
X7167801Y-15203031D01*
X7167801Y-15203031D02*
X7148753Y-15231603D01*
X7148753Y-15231603D02*
X7139229Y-15269698D01*
X7139229Y-15269698D02*
X7139229Y-15345888D01*
X7139229Y-15345888D02*
X7148753Y-15364936D01*
X7148753Y-15364936D02*
X7158277Y-15374460D01*
X7158277Y-15374460D02*
X7177325Y-15383984D01*
X7177325Y-15383984D02*
X7215420Y-15383984D01*
X7215420Y-15383984D02*
X7234468Y-15374460D01*
X7234468Y-15374460D02*
X7243991Y-15364936D01*
X7243991Y-15364936D02*
X7253515Y-15345888D01*
X7253515Y-15345888D02*
X7253515Y-15298269D01*
X7253515Y-15298269D02*
X7243991Y-15279222D01*
X7243991Y-15279222D02*
X7234468Y-15269698D01*
X7234468Y-15269698D02*
X7215420Y-15260174D01*
X7215420Y-15260174D02*
X7177325Y-15260174D01*
X7177325Y-15260174D02*
X7158277Y-15269698D01*
X7158277Y-15269698D02*
X7148753Y-15279222D01*
X7148753Y-15279222D02*
X7139229Y-15298269D01*
X7491610Y-15383984D02*
X7491610Y-15183984D01*
X7577325Y-15383984D02*
X7577325Y-15279222D01*
X7577325Y-15279222D02*
X7567801Y-15260174D01*
X7567801Y-15260174D02*
X7548753Y-15250650D01*
X7548753Y-15250650D02*
X7520182Y-15250650D01*
X7520182Y-15250650D02*
X7501134Y-15260174D01*
X7501134Y-15260174D02*
X7491610Y-15269698D01*
X7701134Y-15383984D02*
X7682087Y-15374460D01*
X7682087Y-15374460D02*
X7672563Y-15364936D01*
X7672563Y-15364936D02*
X7663039Y-15345888D01*
X7663039Y-15345888D02*
X7663039Y-15288746D01*
X7663039Y-15288746D02*
X7672563Y-15269698D01*
X7672563Y-15269698D02*
X7682087Y-15260174D01*
X7682087Y-15260174D02*
X7701134Y-15250650D01*
X7701134Y-15250650D02*
X7729706Y-15250650D01*
X7729706Y-15250650D02*
X7748753Y-15260174D01*
X7748753Y-15260174D02*
X7758277Y-15269698D01*
X7758277Y-15269698D02*
X7767801Y-15288746D01*
X7767801Y-15288746D02*
X7767801Y-15345888D01*
X7767801Y-15345888D02*
X7758277Y-15364936D01*
X7758277Y-15364936D02*
X7748753Y-15374460D01*
X7748753Y-15374460D02*
X7729706Y-15383984D01*
X7729706Y-15383984D02*
X7701134Y-15383984D01*
X7882087Y-15383984D02*
X7863039Y-15374460D01*
X7863039Y-15374460D02*
X7853515Y-15355412D01*
X7853515Y-15355412D02*
X7853515Y-15183984D01*
X8034468Y-15374460D02*
X8015420Y-15383984D01*
X8015420Y-15383984D02*
X7977325Y-15383984D01*
X7977325Y-15383984D02*
X7958277Y-15374460D01*
X7958277Y-15374460D02*
X7948753Y-15355412D01*
X7948753Y-15355412D02*
X7948753Y-15279222D01*
X7948753Y-15279222D02*
X7958277Y-15260174D01*
X7958277Y-15260174D02*
X7977325Y-15250650D01*
X7977325Y-15250650D02*
X8015420Y-15250650D01*
X8015420Y-15250650D02*
X8034468Y-15260174D01*
X8034468Y-15260174D02*
X8043991Y-15279222D01*
X8043991Y-15279222D02*
X8043991Y-15298269D01*
X8043991Y-15298269D02*
X7948753Y-15317317D01*
X8120182Y-15374460D02*
X8139230Y-15383984D01*
X8139230Y-15383984D02*
X8177325Y-15383984D01*
X8177325Y-15383984D02*
X8196372Y-15374460D01*
X8196372Y-15374460D02*
X8205896Y-15355412D01*
X8205896Y-15355412D02*
X8205896Y-15345888D01*
X8205896Y-15345888D02*
X8196372Y-15326841D01*
X8196372Y-15326841D02*
X8177325Y-15317317D01*
X8177325Y-15317317D02*
X8148753Y-15317317D01*
X8148753Y-15317317D02*
X8129706Y-15307793D01*
X8129706Y-15307793D02*
X8120182Y-15288746D01*
X8120182Y-15288746D02*
X8120182Y-15279222D01*
X8120182Y-15279222D02*
X8129706Y-15260174D01*
X8129706Y-15260174D02*
X8148753Y-15250650D01*
X8148753Y-15250650D02*
X8177325Y-15250650D01*
X8177325Y-15250650D02*
X8196372Y-15260174D01*
X8272563Y-15460174D02*
X8282087Y-15450650D01*
X8282087Y-15450650D02*
X8301134Y-15422079D01*
X8301134Y-15422079D02*
X8310658Y-15403031D01*
X8310658Y-15403031D02*
X8320182Y-15374460D01*
X8320182Y-15374460D02*
X8329706Y-15326841D01*
X8329706Y-15326841D02*
X8329706Y-15288746D01*
X8329706Y-15288746D02*
X8320182Y-15241127D01*
X8320182Y-15241127D02*
X8310658Y-15212555D01*
X8310658Y-15212555D02*
X8301134Y-15193508D01*
X8301134Y-15193508D02*
X8282087Y-15164936D01*
X8282087Y-15164936D02*
X8272563Y-15155412D01*
D12*
X3497500Y-15556500D02*
G75*
G03*
X3417500Y-15556500I-40000J0D01*
G01*
X3417500Y-15556500D02*
G75*
G03*
X3497500Y-15556500I40000J0D01*
G01*
D11*
X3796372Y-15447984D02*
X3815420Y-15447984D01*
X3815420Y-15447984D02*
X3834467Y-15457508D01*
X3834467Y-15457508D02*
X3843991Y-15467031D01*
X3843991Y-15467031D02*
X3853515Y-15486079D01*
X3853515Y-15486079D02*
X3863039Y-15524174D01*
X3863039Y-15524174D02*
X3863039Y-15571793D01*
X3863039Y-15571793D02*
X3853515Y-15609888D01*
X3853515Y-15609888D02*
X3843991Y-15628936D01*
X3843991Y-15628936D02*
X3834467Y-15638460D01*
X3834467Y-15638460D02*
X3815420Y-15647984D01*
X3815420Y-15647984D02*
X3796372Y-15647984D01*
X3796372Y-15647984D02*
X3777324Y-15638460D01*
X3777324Y-15638460D02*
X3767801Y-15628936D01*
X3767801Y-15628936D02*
X3758277Y-15609888D01*
X3758277Y-15609888D02*
X3748753Y-15571793D01*
X3748753Y-15571793D02*
X3748753Y-15524174D01*
X3748753Y-15524174D02*
X3758277Y-15486079D01*
X3758277Y-15486079D02*
X3767801Y-15467031D01*
X3767801Y-15467031D02*
X3777324Y-15457508D01*
X3777324Y-15457508D02*
X3796372Y-15447984D01*
X3948753Y-15628936D02*
X3958277Y-15638460D01*
X3958277Y-15638460D02*
X3948753Y-15647984D01*
X3948753Y-15647984D02*
X3939229Y-15638460D01*
X3939229Y-15638460D02*
X3948753Y-15628936D01*
X3948753Y-15628936D02*
X3948753Y-15647984D01*
X4072562Y-15533698D02*
X4053515Y-15524174D01*
X4053515Y-15524174D02*
X4043991Y-15514650D01*
X4043991Y-15514650D02*
X4034467Y-15495603D01*
X4034467Y-15495603D02*
X4034467Y-15486079D01*
X4034467Y-15486079D02*
X4043991Y-15467031D01*
X4043991Y-15467031D02*
X4053515Y-15457508D01*
X4053515Y-15457508D02*
X4072562Y-15447984D01*
X4072562Y-15447984D02*
X4110658Y-15447984D01*
X4110658Y-15447984D02*
X4129705Y-15457508D01*
X4129705Y-15457508D02*
X4139229Y-15467031D01*
X4139229Y-15467031D02*
X4148753Y-15486079D01*
X4148753Y-15486079D02*
X4148753Y-15495603D01*
X4148753Y-15495603D02*
X4139229Y-15514650D01*
X4139229Y-15514650D02*
X4129705Y-15524174D01*
X4129705Y-15524174D02*
X4110658Y-15533698D01*
X4110658Y-15533698D02*
X4072562Y-15533698D01*
X4072562Y-15533698D02*
X4053515Y-15543222D01*
X4053515Y-15543222D02*
X4043991Y-15552746D01*
X4043991Y-15552746D02*
X4034467Y-15571793D01*
X4034467Y-15571793D02*
X4034467Y-15609888D01*
X4034467Y-15609888D02*
X4043991Y-15628936D01*
X4043991Y-15628936D02*
X4053515Y-15638460D01*
X4053515Y-15638460D02*
X4072562Y-15647984D01*
X4072562Y-15647984D02*
X4110658Y-15647984D01*
X4110658Y-15647984D02*
X4129705Y-15638460D01*
X4129705Y-15638460D02*
X4139229Y-15628936D01*
X4139229Y-15628936D02*
X4148753Y-15609888D01*
X4148753Y-15609888D02*
X4148753Y-15571793D01*
X4148753Y-15571793D02*
X4139229Y-15552746D01*
X4139229Y-15552746D02*
X4129705Y-15543222D01*
X4129705Y-15543222D02*
X4110658Y-15533698D01*
X4272563Y-15447984D02*
X4291610Y-15447984D01*
X4291610Y-15447984D02*
X4310658Y-15457508D01*
X4310658Y-15457508D02*
X4320182Y-15467031D01*
X4320182Y-15467031D02*
X4329705Y-15486079D01*
X4329705Y-15486079D02*
X4339229Y-15524174D01*
X4339229Y-15524174D02*
X4339229Y-15571793D01*
X4339229Y-15571793D02*
X4329705Y-15609888D01*
X4329705Y-15609888D02*
X4320182Y-15628936D01*
X4320182Y-15628936D02*
X4310658Y-15638460D01*
X4310658Y-15638460D02*
X4291610Y-15647984D01*
X4291610Y-15647984D02*
X4272563Y-15647984D01*
X4272563Y-15647984D02*
X4253515Y-15638460D01*
X4253515Y-15638460D02*
X4243991Y-15628936D01*
X4243991Y-15628936D02*
X4234467Y-15609888D01*
X4234467Y-15609888D02*
X4224944Y-15571793D01*
X4224944Y-15571793D02*
X4224944Y-15524174D01*
X4224944Y-15524174D02*
X4234467Y-15486079D01*
X4234467Y-15486079D02*
X4243991Y-15467031D01*
X4243991Y-15467031D02*
X4253515Y-15457508D01*
X4253515Y-15457508D02*
X4272563Y-15447984D01*
X4463039Y-15447984D02*
X4482086Y-15447984D01*
X4482086Y-15447984D02*
X4501134Y-15457508D01*
X4501134Y-15457508D02*
X4510658Y-15467031D01*
X4510658Y-15467031D02*
X4520182Y-15486079D01*
X4520182Y-15486079D02*
X4529705Y-15524174D01*
X4529705Y-15524174D02*
X4529705Y-15571793D01*
X4529705Y-15571793D02*
X4520182Y-15609888D01*
X4520182Y-15609888D02*
X4510658Y-15628936D01*
X4510658Y-15628936D02*
X4501134Y-15638460D01*
X4501134Y-15638460D02*
X4482086Y-15647984D01*
X4482086Y-15647984D02*
X4463039Y-15647984D01*
X4463039Y-15647984D02*
X4443991Y-15638460D01*
X4443991Y-15638460D02*
X4434467Y-15628936D01*
X4434467Y-15628936D02*
X4424944Y-15609888D01*
X4424944Y-15609888D02*
X4415420Y-15571793D01*
X4415420Y-15571793D02*
X4415420Y-15524174D01*
X4415420Y-15524174D02*
X4424944Y-15486079D01*
X4424944Y-15486079D02*
X4434467Y-15467031D01*
X4434467Y-15467031D02*
X4443991Y-15457508D01*
X4443991Y-15457508D02*
X4463039Y-15447984D01*
X4615420Y-15647984D02*
X4615420Y-15514650D01*
X4615420Y-15533698D02*
X4624944Y-15524174D01*
X4624944Y-15524174D02*
X4643991Y-15514650D01*
X4643991Y-15514650D02*
X4672563Y-15514650D01*
X4672563Y-15514650D02*
X4691610Y-15524174D01*
X4691610Y-15524174D02*
X4701134Y-15543222D01*
X4701134Y-15543222D02*
X4701134Y-15647984D01*
X4701134Y-15543222D02*
X4710658Y-15524174D01*
X4710658Y-15524174D02*
X4729705Y-15514650D01*
X4729705Y-15514650D02*
X4758277Y-15514650D01*
X4758277Y-15514650D02*
X4777325Y-15524174D01*
X4777325Y-15524174D02*
X4786848Y-15543222D01*
X4786848Y-15543222D02*
X4786848Y-15647984D01*
X4882086Y-15647984D02*
X4882086Y-15514650D01*
X4882086Y-15533698D02*
X4891610Y-15524174D01*
X4891610Y-15524174D02*
X4910658Y-15514650D01*
X4910658Y-15514650D02*
X4939229Y-15514650D01*
X4939229Y-15514650D02*
X4958277Y-15524174D01*
X4958277Y-15524174D02*
X4967801Y-15543222D01*
X4967801Y-15543222D02*
X4967801Y-15647984D01*
X4967801Y-15543222D02*
X4977325Y-15524174D01*
X4977325Y-15524174D02*
X4996372Y-15514650D01*
X4996372Y-15514650D02*
X5024944Y-15514650D01*
X5024944Y-15514650D02*
X5043991Y-15524174D01*
X5043991Y-15524174D02*
X5053515Y-15543222D01*
X5053515Y-15543222D02*
X5053515Y-15647984D01*
X5443991Y-15438460D02*
X5272563Y-15695603D01*
X5701134Y-15447984D02*
X5720182Y-15447984D01*
X5720182Y-15447984D02*
X5739229Y-15457508D01*
X5739229Y-15457508D02*
X5748753Y-15467031D01*
X5748753Y-15467031D02*
X5758277Y-15486079D01*
X5758277Y-15486079D02*
X5767801Y-15524174D01*
X5767801Y-15524174D02*
X5767801Y-15571793D01*
X5767801Y-15571793D02*
X5758277Y-15609888D01*
X5758277Y-15609888D02*
X5748753Y-15628936D01*
X5748753Y-15628936D02*
X5739229Y-15638460D01*
X5739229Y-15638460D02*
X5720182Y-15647984D01*
X5720182Y-15647984D02*
X5701134Y-15647984D01*
X5701134Y-15647984D02*
X5682086Y-15638460D01*
X5682086Y-15638460D02*
X5672563Y-15628936D01*
X5672563Y-15628936D02*
X5663039Y-15609888D01*
X5663039Y-15609888D02*
X5653515Y-15571793D01*
X5653515Y-15571793D02*
X5653515Y-15524174D01*
X5653515Y-15524174D02*
X5663039Y-15486079D01*
X5663039Y-15486079D02*
X5672563Y-15467031D01*
X5672563Y-15467031D02*
X5682086Y-15457508D01*
X5682086Y-15457508D02*
X5701134Y-15447984D01*
X5853515Y-15628936D02*
X5863039Y-15638460D01*
X5863039Y-15638460D02*
X5853515Y-15647984D01*
X5853515Y-15647984D02*
X5843991Y-15638460D01*
X5843991Y-15638460D02*
X5853515Y-15628936D01*
X5853515Y-15628936D02*
X5853515Y-15647984D01*
X5986848Y-15447984D02*
X6005896Y-15447984D01*
X6005896Y-15447984D02*
X6024944Y-15457508D01*
X6024944Y-15457508D02*
X6034467Y-15467031D01*
X6034467Y-15467031D02*
X6043991Y-15486079D01*
X6043991Y-15486079D02*
X6053515Y-15524174D01*
X6053515Y-15524174D02*
X6053515Y-15571793D01*
X6053515Y-15571793D02*
X6043991Y-15609888D01*
X6043991Y-15609888D02*
X6034467Y-15628936D01*
X6034467Y-15628936D02*
X6024944Y-15638460D01*
X6024944Y-15638460D02*
X6005896Y-15647984D01*
X6005896Y-15647984D02*
X5986848Y-15647984D01*
X5986848Y-15647984D02*
X5967801Y-15638460D01*
X5967801Y-15638460D02*
X5958277Y-15628936D01*
X5958277Y-15628936D02*
X5948753Y-15609888D01*
X5948753Y-15609888D02*
X5939229Y-15571793D01*
X5939229Y-15571793D02*
X5939229Y-15524174D01*
X5939229Y-15524174D02*
X5948753Y-15486079D01*
X5948753Y-15486079D02*
X5958277Y-15467031D01*
X5958277Y-15467031D02*
X5967801Y-15457508D01*
X5967801Y-15457508D02*
X5986848Y-15447984D01*
X6120182Y-15447984D02*
X6243991Y-15447984D01*
X6243991Y-15447984D02*
X6177325Y-15524174D01*
X6177325Y-15524174D02*
X6205896Y-15524174D01*
X6205896Y-15524174D02*
X6224944Y-15533698D01*
X6224944Y-15533698D02*
X6234467Y-15543222D01*
X6234467Y-15543222D02*
X6243991Y-15562269D01*
X6243991Y-15562269D02*
X6243991Y-15609888D01*
X6243991Y-15609888D02*
X6234467Y-15628936D01*
X6234467Y-15628936D02*
X6224944Y-15638460D01*
X6224944Y-15638460D02*
X6205896Y-15647984D01*
X6205896Y-15647984D02*
X6148753Y-15647984D01*
X6148753Y-15647984D02*
X6129706Y-15638460D01*
X6129706Y-15638460D02*
X6120182Y-15628936D01*
X6434467Y-15647984D02*
X6320182Y-15647984D01*
X6377325Y-15647984D02*
X6377325Y-15447984D01*
X6377325Y-15447984D02*
X6358277Y-15476555D01*
X6358277Y-15476555D02*
X6339229Y-15495603D01*
X6339229Y-15495603D02*
X6320182Y-15505127D01*
X6615420Y-15447984D02*
X6520182Y-15447984D01*
X6520182Y-15447984D02*
X6510658Y-15543222D01*
X6510658Y-15543222D02*
X6520182Y-15533698D01*
X6520182Y-15533698D02*
X6539229Y-15524174D01*
X6539229Y-15524174D02*
X6586848Y-15524174D01*
X6586848Y-15524174D02*
X6605896Y-15533698D01*
X6605896Y-15533698D02*
X6615420Y-15543222D01*
X6615420Y-15543222D02*
X6624944Y-15562269D01*
X6624944Y-15562269D02*
X6624944Y-15609888D01*
X6624944Y-15609888D02*
X6615420Y-15628936D01*
X6615420Y-15628936D02*
X6605896Y-15638460D01*
X6605896Y-15638460D02*
X6586848Y-15647984D01*
X6586848Y-15647984D02*
X6539229Y-15647984D01*
X6539229Y-15647984D02*
X6520182Y-15638460D01*
X6520182Y-15638460D02*
X6510658Y-15628936D01*
X6701134Y-15447984D02*
X6701134Y-15486079D01*
X6777325Y-15447984D02*
X6777325Y-15486079D01*
X7072563Y-15724174D02*
X7063039Y-15714650D01*
X7063039Y-15714650D02*
X7043991Y-15686079D01*
X7043991Y-15686079D02*
X7034468Y-15667031D01*
X7034468Y-15667031D02*
X7024944Y-15638460D01*
X7024944Y-15638460D02*
X7015420Y-15590841D01*
X7015420Y-15590841D02*
X7015420Y-15552746D01*
X7015420Y-15552746D02*
X7024944Y-15505127D01*
X7024944Y-15505127D02*
X7034468Y-15476555D01*
X7034468Y-15476555D02*
X7043991Y-15457508D01*
X7043991Y-15457508D02*
X7063039Y-15428936D01*
X7063039Y-15428936D02*
X7072563Y-15419412D01*
X7158277Y-15647984D02*
X7196372Y-15647984D01*
X7196372Y-15647984D02*
X7215420Y-15638460D01*
X7215420Y-15638460D02*
X7224944Y-15628936D01*
X7224944Y-15628936D02*
X7243991Y-15600365D01*
X7243991Y-15600365D02*
X7253515Y-15562269D01*
X7253515Y-15562269D02*
X7253515Y-15486079D01*
X7253515Y-15486079D02*
X7243991Y-15467031D01*
X7243991Y-15467031D02*
X7234468Y-15457508D01*
X7234468Y-15457508D02*
X7215420Y-15447984D01*
X7215420Y-15447984D02*
X7177325Y-15447984D01*
X7177325Y-15447984D02*
X7158277Y-15457508D01*
X7158277Y-15457508D02*
X7148753Y-15467031D01*
X7148753Y-15467031D02*
X7139229Y-15486079D01*
X7139229Y-15486079D02*
X7139229Y-15533698D01*
X7139229Y-15533698D02*
X7148753Y-15552746D01*
X7148753Y-15552746D02*
X7158277Y-15562269D01*
X7158277Y-15562269D02*
X7177325Y-15571793D01*
X7177325Y-15571793D02*
X7215420Y-15571793D01*
X7215420Y-15571793D02*
X7234468Y-15562269D01*
X7234468Y-15562269D02*
X7243991Y-15552746D01*
X7243991Y-15552746D02*
X7253515Y-15533698D01*
X7424944Y-15447984D02*
X7386848Y-15447984D01*
X7386848Y-15447984D02*
X7367801Y-15457508D01*
X7367801Y-15457508D02*
X7358277Y-15467031D01*
X7358277Y-15467031D02*
X7339229Y-15495603D01*
X7339229Y-15495603D02*
X7329706Y-15533698D01*
X7329706Y-15533698D02*
X7329706Y-15609888D01*
X7329706Y-15609888D02*
X7339229Y-15628936D01*
X7339229Y-15628936D02*
X7348753Y-15638460D01*
X7348753Y-15638460D02*
X7367801Y-15647984D01*
X7367801Y-15647984D02*
X7405896Y-15647984D01*
X7405896Y-15647984D02*
X7424944Y-15638460D01*
X7424944Y-15638460D02*
X7434468Y-15628936D01*
X7434468Y-15628936D02*
X7443991Y-15609888D01*
X7443991Y-15609888D02*
X7443991Y-15562269D01*
X7443991Y-15562269D02*
X7434468Y-15543222D01*
X7434468Y-15543222D02*
X7424944Y-15533698D01*
X7424944Y-15533698D02*
X7405896Y-15524174D01*
X7405896Y-15524174D02*
X7367801Y-15524174D01*
X7367801Y-15524174D02*
X7348753Y-15533698D01*
X7348753Y-15533698D02*
X7339229Y-15543222D01*
X7339229Y-15543222D02*
X7329706Y-15562269D01*
X7682087Y-15647984D02*
X7682087Y-15447984D01*
X7767801Y-15647984D02*
X7767801Y-15543222D01*
X7767801Y-15543222D02*
X7758277Y-15524174D01*
X7758277Y-15524174D02*
X7739230Y-15514650D01*
X7739230Y-15514650D02*
X7710658Y-15514650D01*
X7710658Y-15514650D02*
X7691610Y-15524174D01*
X7691610Y-15524174D02*
X7682087Y-15533698D01*
X7891610Y-15647984D02*
X7872563Y-15638460D01*
X7872563Y-15638460D02*
X7863039Y-15628936D01*
X7863039Y-15628936D02*
X7853515Y-15609888D01*
X7853515Y-15609888D02*
X7853515Y-15552746D01*
X7853515Y-15552746D02*
X7863039Y-15533698D01*
X7863039Y-15533698D02*
X7872563Y-15524174D01*
X7872563Y-15524174D02*
X7891610Y-15514650D01*
X7891610Y-15514650D02*
X7920182Y-15514650D01*
X7920182Y-15514650D02*
X7939230Y-15524174D01*
X7939230Y-15524174D02*
X7948753Y-15533698D01*
X7948753Y-15533698D02*
X7958277Y-15552746D01*
X7958277Y-15552746D02*
X7958277Y-15609888D01*
X7958277Y-15609888D02*
X7948753Y-15628936D01*
X7948753Y-15628936D02*
X7939230Y-15638460D01*
X7939230Y-15638460D02*
X7920182Y-15647984D01*
X7920182Y-15647984D02*
X7891610Y-15647984D01*
X8072563Y-15647984D02*
X8053515Y-15638460D01*
X8053515Y-15638460D02*
X8043991Y-15619412D01*
X8043991Y-15619412D02*
X8043991Y-15447984D01*
X8224944Y-15638460D02*
X8205896Y-15647984D01*
X8205896Y-15647984D02*
X8167801Y-15647984D01*
X8167801Y-15647984D02*
X8148753Y-15638460D01*
X8148753Y-15638460D02*
X8139230Y-15619412D01*
X8139230Y-15619412D02*
X8139230Y-15543222D01*
X8139230Y-15543222D02*
X8148753Y-15524174D01*
X8148753Y-15524174D02*
X8167801Y-15514650D01*
X8167801Y-15514650D02*
X8205896Y-15514650D01*
X8205896Y-15514650D02*
X8224944Y-15524174D01*
X8224944Y-15524174D02*
X8234468Y-15543222D01*
X8234468Y-15543222D02*
X8234468Y-15562269D01*
X8234468Y-15562269D02*
X8139230Y-15581317D01*
X8310658Y-15638460D02*
X8329706Y-15647984D01*
X8329706Y-15647984D02*
X8367801Y-15647984D01*
X8367801Y-15647984D02*
X8386849Y-15638460D01*
X8386849Y-15638460D02*
X8396373Y-15619412D01*
X8396373Y-15619412D02*
X8396373Y-15609888D01*
X8396373Y-15609888D02*
X8386849Y-15590841D01*
X8386849Y-15590841D02*
X8367801Y-15581317D01*
X8367801Y-15581317D02*
X8339230Y-15581317D01*
X8339230Y-15581317D02*
X8320182Y-15571793D01*
X8320182Y-15571793D02*
X8310658Y-15552746D01*
X8310658Y-15552746D02*
X8310658Y-15543222D01*
X8310658Y-15543222D02*
X8320182Y-15524174D01*
X8320182Y-15524174D02*
X8339230Y-15514650D01*
X8339230Y-15514650D02*
X8367801Y-15514650D01*
X8367801Y-15514650D02*
X8386849Y-15524174D01*
X8463039Y-15724174D02*
X8472563Y-15714650D01*
X8472563Y-15714650D02*
X8491611Y-15686079D01*
X8491611Y-15686079D02*
X8501134Y-15667031D01*
X8501134Y-15667031D02*
X8510658Y-15638460D01*
X8510658Y-15638460D02*
X8520182Y-15590841D01*
X8520182Y-15590841D02*
X8520182Y-15552746D01*
X8520182Y-15552746D02*
X8510658Y-15505127D01*
X8510658Y-15505127D02*
X8501134Y-15476555D01*
X8501134Y-15476555D02*
X8491611Y-15457508D01*
X8491611Y-15457508D02*
X8472563Y-15428936D01*
X8472563Y-15428936D02*
X8463039Y-15419412D01*
D12*
X3452500Y-15775500D02*
X3452500Y-15865500D01*
X3407500Y-15820500D02*
X3497500Y-15820500D01*
D11*
X3796372Y-15711984D02*
X3815420Y-15711984D01*
X3815420Y-15711984D02*
X3834467Y-15721508D01*
X3834467Y-15721508D02*
X3843991Y-15731031D01*
X3843991Y-15731031D02*
X3853515Y-15750079D01*
X3853515Y-15750079D02*
X3863039Y-15788174D01*
X3863039Y-15788174D02*
X3863039Y-15835793D01*
X3863039Y-15835793D02*
X3853515Y-15873888D01*
X3853515Y-15873888D02*
X3843991Y-15892936D01*
X3843991Y-15892936D02*
X3834467Y-15902460D01*
X3834467Y-15902460D02*
X3815420Y-15911984D01*
X3815420Y-15911984D02*
X3796372Y-15911984D01*
X3796372Y-15911984D02*
X3777324Y-15902460D01*
X3777324Y-15902460D02*
X3767801Y-15892936D01*
X3767801Y-15892936D02*
X3758277Y-15873888D01*
X3758277Y-15873888D02*
X3748753Y-15835793D01*
X3748753Y-15835793D02*
X3748753Y-15788174D01*
X3748753Y-15788174D02*
X3758277Y-15750079D01*
X3758277Y-15750079D02*
X3767801Y-15731031D01*
X3767801Y-15731031D02*
X3777324Y-15721508D01*
X3777324Y-15721508D02*
X3796372Y-15711984D01*
X3948753Y-15892936D02*
X3958277Y-15902460D01*
X3958277Y-15902460D02*
X3948753Y-15911984D01*
X3948753Y-15911984D02*
X3939229Y-15902460D01*
X3939229Y-15902460D02*
X3948753Y-15892936D01*
X3948753Y-15892936D02*
X3948753Y-15911984D01*
X4053515Y-15911984D02*
X4091610Y-15911984D01*
X4091610Y-15911984D02*
X4110658Y-15902460D01*
X4110658Y-15902460D02*
X4120182Y-15892936D01*
X4120182Y-15892936D02*
X4139229Y-15864365D01*
X4139229Y-15864365D02*
X4148753Y-15826269D01*
X4148753Y-15826269D02*
X4148753Y-15750079D01*
X4148753Y-15750079D02*
X4139229Y-15731031D01*
X4139229Y-15731031D02*
X4129705Y-15721508D01*
X4129705Y-15721508D02*
X4110658Y-15711984D01*
X4110658Y-15711984D02*
X4072562Y-15711984D01*
X4072562Y-15711984D02*
X4053515Y-15721508D01*
X4053515Y-15721508D02*
X4043991Y-15731031D01*
X4043991Y-15731031D02*
X4034467Y-15750079D01*
X4034467Y-15750079D02*
X4034467Y-15797698D01*
X4034467Y-15797698D02*
X4043991Y-15816746D01*
X4043991Y-15816746D02*
X4053515Y-15826269D01*
X4053515Y-15826269D02*
X4072562Y-15835793D01*
X4072562Y-15835793D02*
X4110658Y-15835793D01*
X4110658Y-15835793D02*
X4129705Y-15826269D01*
X4129705Y-15826269D02*
X4139229Y-15816746D01*
X4139229Y-15816746D02*
X4148753Y-15797698D01*
X4272563Y-15711984D02*
X4291610Y-15711984D01*
X4291610Y-15711984D02*
X4310658Y-15721508D01*
X4310658Y-15721508D02*
X4320182Y-15731031D01*
X4320182Y-15731031D02*
X4329705Y-15750079D01*
X4329705Y-15750079D02*
X4339229Y-15788174D01*
X4339229Y-15788174D02*
X4339229Y-15835793D01*
X4339229Y-15835793D02*
X4329705Y-15873888D01*
X4329705Y-15873888D02*
X4320182Y-15892936D01*
X4320182Y-15892936D02*
X4310658Y-15902460D01*
X4310658Y-15902460D02*
X4291610Y-15911984D01*
X4291610Y-15911984D02*
X4272563Y-15911984D01*
X4272563Y-15911984D02*
X4253515Y-15902460D01*
X4253515Y-15902460D02*
X4243991Y-15892936D01*
X4243991Y-15892936D02*
X4234467Y-15873888D01*
X4234467Y-15873888D02*
X4224944Y-15835793D01*
X4224944Y-15835793D02*
X4224944Y-15788174D01*
X4224944Y-15788174D02*
X4234467Y-15750079D01*
X4234467Y-15750079D02*
X4243991Y-15731031D01*
X4243991Y-15731031D02*
X4253515Y-15721508D01*
X4253515Y-15721508D02*
X4272563Y-15711984D01*
X4463039Y-15711984D02*
X4482086Y-15711984D01*
X4482086Y-15711984D02*
X4501134Y-15721508D01*
X4501134Y-15721508D02*
X4510658Y-15731031D01*
X4510658Y-15731031D02*
X4520182Y-15750079D01*
X4520182Y-15750079D02*
X4529705Y-15788174D01*
X4529705Y-15788174D02*
X4529705Y-15835793D01*
X4529705Y-15835793D02*
X4520182Y-15873888D01*
X4520182Y-15873888D02*
X4510658Y-15892936D01*
X4510658Y-15892936D02*
X4501134Y-15902460D01*
X4501134Y-15902460D02*
X4482086Y-15911984D01*
X4482086Y-15911984D02*
X4463039Y-15911984D01*
X4463039Y-15911984D02*
X4443991Y-15902460D01*
X4443991Y-15902460D02*
X4434467Y-15892936D01*
X4434467Y-15892936D02*
X4424944Y-15873888D01*
X4424944Y-15873888D02*
X4415420Y-15835793D01*
X4415420Y-15835793D02*
X4415420Y-15788174D01*
X4415420Y-15788174D02*
X4424944Y-15750079D01*
X4424944Y-15750079D02*
X4434467Y-15731031D01*
X4434467Y-15731031D02*
X4443991Y-15721508D01*
X4443991Y-15721508D02*
X4463039Y-15711984D01*
X4615420Y-15911984D02*
X4615420Y-15778650D01*
X4615420Y-15797698D02*
X4624944Y-15788174D01*
X4624944Y-15788174D02*
X4643991Y-15778650D01*
X4643991Y-15778650D02*
X4672563Y-15778650D01*
X4672563Y-15778650D02*
X4691610Y-15788174D01*
X4691610Y-15788174D02*
X4701134Y-15807222D01*
X4701134Y-15807222D02*
X4701134Y-15911984D01*
X4701134Y-15807222D02*
X4710658Y-15788174D01*
X4710658Y-15788174D02*
X4729705Y-15778650D01*
X4729705Y-15778650D02*
X4758277Y-15778650D01*
X4758277Y-15778650D02*
X4777325Y-15788174D01*
X4777325Y-15788174D02*
X4786848Y-15807222D01*
X4786848Y-15807222D02*
X4786848Y-15911984D01*
X4882086Y-15911984D02*
X4882086Y-15778650D01*
X4882086Y-15797698D02*
X4891610Y-15788174D01*
X4891610Y-15788174D02*
X4910658Y-15778650D01*
X4910658Y-15778650D02*
X4939229Y-15778650D01*
X4939229Y-15778650D02*
X4958277Y-15788174D01*
X4958277Y-15788174D02*
X4967801Y-15807222D01*
X4967801Y-15807222D02*
X4967801Y-15911984D01*
X4967801Y-15807222D02*
X4977325Y-15788174D01*
X4977325Y-15788174D02*
X4996372Y-15778650D01*
X4996372Y-15778650D02*
X5024944Y-15778650D01*
X5024944Y-15778650D02*
X5043991Y-15788174D01*
X5043991Y-15788174D02*
X5053515Y-15807222D01*
X5053515Y-15807222D02*
X5053515Y-15911984D01*
X5443991Y-15702460D02*
X5272563Y-15959603D01*
X5701134Y-15711984D02*
X5720182Y-15711984D01*
X5720182Y-15711984D02*
X5739229Y-15721508D01*
X5739229Y-15721508D02*
X5748753Y-15731031D01*
X5748753Y-15731031D02*
X5758277Y-15750079D01*
X5758277Y-15750079D02*
X5767801Y-15788174D01*
X5767801Y-15788174D02*
X5767801Y-15835793D01*
X5767801Y-15835793D02*
X5758277Y-15873888D01*
X5758277Y-15873888D02*
X5748753Y-15892936D01*
X5748753Y-15892936D02*
X5739229Y-15902460D01*
X5739229Y-15902460D02*
X5720182Y-15911984D01*
X5720182Y-15911984D02*
X5701134Y-15911984D01*
X5701134Y-15911984D02*
X5682086Y-15902460D01*
X5682086Y-15902460D02*
X5672563Y-15892936D01*
X5672563Y-15892936D02*
X5663039Y-15873888D01*
X5663039Y-15873888D02*
X5653515Y-15835793D01*
X5653515Y-15835793D02*
X5653515Y-15788174D01*
X5653515Y-15788174D02*
X5663039Y-15750079D01*
X5663039Y-15750079D02*
X5672563Y-15731031D01*
X5672563Y-15731031D02*
X5682086Y-15721508D01*
X5682086Y-15721508D02*
X5701134Y-15711984D01*
X5853515Y-15892936D02*
X5863039Y-15902460D01*
X5863039Y-15902460D02*
X5853515Y-15911984D01*
X5853515Y-15911984D02*
X5843991Y-15902460D01*
X5843991Y-15902460D02*
X5853515Y-15892936D01*
X5853515Y-15892936D02*
X5853515Y-15911984D01*
X5986848Y-15711984D02*
X6005896Y-15711984D01*
X6005896Y-15711984D02*
X6024944Y-15721508D01*
X6024944Y-15721508D02*
X6034467Y-15731031D01*
X6034467Y-15731031D02*
X6043991Y-15750079D01*
X6043991Y-15750079D02*
X6053515Y-15788174D01*
X6053515Y-15788174D02*
X6053515Y-15835793D01*
X6053515Y-15835793D02*
X6043991Y-15873888D01*
X6043991Y-15873888D02*
X6034467Y-15892936D01*
X6034467Y-15892936D02*
X6024944Y-15902460D01*
X6024944Y-15902460D02*
X6005896Y-15911984D01*
X6005896Y-15911984D02*
X5986848Y-15911984D01*
X5986848Y-15911984D02*
X5967801Y-15902460D01*
X5967801Y-15902460D02*
X5958277Y-15892936D01*
X5958277Y-15892936D02*
X5948753Y-15873888D01*
X5948753Y-15873888D02*
X5939229Y-15835793D01*
X5939229Y-15835793D02*
X5939229Y-15788174D01*
X5939229Y-15788174D02*
X5948753Y-15750079D01*
X5948753Y-15750079D02*
X5958277Y-15731031D01*
X5958277Y-15731031D02*
X5967801Y-15721508D01*
X5967801Y-15721508D02*
X5986848Y-15711984D01*
X6120182Y-15711984D02*
X6243991Y-15711984D01*
X6243991Y-15711984D02*
X6177325Y-15788174D01*
X6177325Y-15788174D02*
X6205896Y-15788174D01*
X6205896Y-15788174D02*
X6224944Y-15797698D01*
X6224944Y-15797698D02*
X6234467Y-15807222D01*
X6234467Y-15807222D02*
X6243991Y-15826269D01*
X6243991Y-15826269D02*
X6243991Y-15873888D01*
X6243991Y-15873888D02*
X6234467Y-15892936D01*
X6234467Y-15892936D02*
X6224944Y-15902460D01*
X6224944Y-15902460D02*
X6205896Y-15911984D01*
X6205896Y-15911984D02*
X6148753Y-15911984D01*
X6148753Y-15911984D02*
X6129706Y-15902460D01*
X6129706Y-15902460D02*
X6120182Y-15892936D01*
X6424944Y-15711984D02*
X6329706Y-15711984D01*
X6329706Y-15711984D02*
X6320182Y-15807222D01*
X6320182Y-15807222D02*
X6329706Y-15797698D01*
X6329706Y-15797698D02*
X6348753Y-15788174D01*
X6348753Y-15788174D02*
X6396372Y-15788174D01*
X6396372Y-15788174D02*
X6415420Y-15797698D01*
X6415420Y-15797698D02*
X6424944Y-15807222D01*
X6424944Y-15807222D02*
X6434467Y-15826269D01*
X6434467Y-15826269D02*
X6434467Y-15873888D01*
X6434467Y-15873888D02*
X6424944Y-15892936D01*
X6424944Y-15892936D02*
X6415420Y-15902460D01*
X6415420Y-15902460D02*
X6396372Y-15911984D01*
X6396372Y-15911984D02*
X6348753Y-15911984D01*
X6348753Y-15911984D02*
X6329706Y-15902460D01*
X6329706Y-15902460D02*
X6320182Y-15892936D01*
X6605896Y-15778650D02*
X6605896Y-15911984D01*
X6558277Y-15702460D02*
X6510658Y-15845317D01*
X6510658Y-15845317D02*
X6634467Y-15845317D01*
X6701134Y-15711984D02*
X6701134Y-15750079D01*
X6777325Y-15711984D02*
X6777325Y-15750079D01*
X7072563Y-15988174D02*
X7063039Y-15978650D01*
X7063039Y-15978650D02*
X7043991Y-15950079D01*
X7043991Y-15950079D02*
X7034468Y-15931031D01*
X7034468Y-15931031D02*
X7024944Y-15902460D01*
X7024944Y-15902460D02*
X7015420Y-15854841D01*
X7015420Y-15854841D02*
X7015420Y-15816746D01*
X7015420Y-15816746D02*
X7024944Y-15769127D01*
X7024944Y-15769127D02*
X7034468Y-15740555D01*
X7034468Y-15740555D02*
X7043991Y-15721508D01*
X7043991Y-15721508D02*
X7063039Y-15692936D01*
X7063039Y-15692936D02*
X7072563Y-15683412D01*
X7139229Y-15731031D02*
X7148753Y-15721508D01*
X7148753Y-15721508D02*
X7167801Y-15711984D01*
X7167801Y-15711984D02*
X7215420Y-15711984D01*
X7215420Y-15711984D02*
X7234468Y-15721508D01*
X7234468Y-15721508D02*
X7243991Y-15731031D01*
X7243991Y-15731031D02*
X7253515Y-15750079D01*
X7253515Y-15750079D02*
X7253515Y-15769127D01*
X7253515Y-15769127D02*
X7243991Y-15797698D01*
X7243991Y-15797698D02*
X7129706Y-15911984D01*
X7129706Y-15911984D02*
X7253515Y-15911984D01*
X7491610Y-15911984D02*
X7491610Y-15711984D01*
X7577325Y-15911984D02*
X7577325Y-15807222D01*
X7577325Y-15807222D02*
X7567801Y-15788174D01*
X7567801Y-15788174D02*
X7548753Y-15778650D01*
X7548753Y-15778650D02*
X7520182Y-15778650D01*
X7520182Y-15778650D02*
X7501134Y-15788174D01*
X7501134Y-15788174D02*
X7491610Y-15797698D01*
X7701134Y-15911984D02*
X7682087Y-15902460D01*
X7682087Y-15902460D02*
X7672563Y-15892936D01*
X7672563Y-15892936D02*
X7663039Y-15873888D01*
X7663039Y-15873888D02*
X7663039Y-15816746D01*
X7663039Y-15816746D02*
X7672563Y-15797698D01*
X7672563Y-15797698D02*
X7682087Y-15788174D01*
X7682087Y-15788174D02*
X7701134Y-15778650D01*
X7701134Y-15778650D02*
X7729706Y-15778650D01*
X7729706Y-15778650D02*
X7748753Y-15788174D01*
X7748753Y-15788174D02*
X7758277Y-15797698D01*
X7758277Y-15797698D02*
X7767801Y-15816746D01*
X7767801Y-15816746D02*
X7767801Y-15873888D01*
X7767801Y-15873888D02*
X7758277Y-15892936D01*
X7758277Y-15892936D02*
X7748753Y-15902460D01*
X7748753Y-15902460D02*
X7729706Y-15911984D01*
X7729706Y-15911984D02*
X7701134Y-15911984D01*
X7882087Y-15911984D02*
X7863039Y-15902460D01*
X7863039Y-15902460D02*
X7853515Y-15883412D01*
X7853515Y-15883412D02*
X7853515Y-15711984D01*
X8034468Y-15902460D02*
X8015420Y-15911984D01*
X8015420Y-15911984D02*
X7977325Y-15911984D01*
X7977325Y-15911984D02*
X7958277Y-15902460D01*
X7958277Y-15902460D02*
X7948753Y-15883412D01*
X7948753Y-15883412D02*
X7948753Y-15807222D01*
X7948753Y-15807222D02*
X7958277Y-15788174D01*
X7958277Y-15788174D02*
X7977325Y-15778650D01*
X7977325Y-15778650D02*
X8015420Y-15778650D01*
X8015420Y-15778650D02*
X8034468Y-15788174D01*
X8034468Y-15788174D02*
X8043991Y-15807222D01*
X8043991Y-15807222D02*
X8043991Y-15826269D01*
X8043991Y-15826269D02*
X7948753Y-15845317D01*
X8120182Y-15902460D02*
X8139230Y-15911984D01*
X8139230Y-15911984D02*
X8177325Y-15911984D01*
X8177325Y-15911984D02*
X8196372Y-15902460D01*
X8196372Y-15902460D02*
X8205896Y-15883412D01*
X8205896Y-15883412D02*
X8205896Y-15873888D01*
X8205896Y-15873888D02*
X8196372Y-15854841D01*
X8196372Y-15854841D02*
X8177325Y-15845317D01*
X8177325Y-15845317D02*
X8148753Y-15845317D01*
X8148753Y-15845317D02*
X8129706Y-15835793D01*
X8129706Y-15835793D02*
X8120182Y-15816746D01*
X8120182Y-15816746D02*
X8120182Y-15807222D01*
X8120182Y-15807222D02*
X8129706Y-15788174D01*
X8129706Y-15788174D02*
X8148753Y-15778650D01*
X8148753Y-15778650D02*
X8177325Y-15778650D01*
X8177325Y-15778650D02*
X8196372Y-15788174D01*
X8272563Y-15988174D02*
X8282087Y-15978650D01*
X8282087Y-15978650D02*
X8301134Y-15950079D01*
X8301134Y-15950079D02*
X8310658Y-15931031D01*
X8310658Y-15931031D02*
X8320182Y-15902460D01*
X8320182Y-15902460D02*
X8329706Y-15854841D01*
X8329706Y-15854841D02*
X8329706Y-15816746D01*
X8329706Y-15816746D02*
X8320182Y-15769127D01*
X8320182Y-15769127D02*
X8310658Y-15740555D01*
X8310658Y-15740555D02*
X8301134Y-15721508D01*
X8301134Y-15721508D02*
X8282087Y-15692936D01*
X8282087Y-15692936D02*
X8272563Y-15683412D01*
D12*
X3482856Y-16119856D02*
X3482856Y-16049144D01*
X3412144Y-16049144D01*
X3412144Y-16119856D01*
X3482856Y-16119856D01*
D11*
X3863039Y-16175984D02*
X3748753Y-16175984D01*
X3805896Y-16175984D02*
X3805896Y-15975984D01*
X3805896Y-15975984D02*
X3786848Y-16004555D01*
X3786848Y-16004555D02*
X3767801Y-16023603D01*
X3767801Y-16023603D02*
X3748753Y-16033127D01*
X3948753Y-16156936D02*
X3958277Y-16166460D01*
X3958277Y-16166460D02*
X3948753Y-16175984D01*
X3948753Y-16175984D02*
X3939229Y-16166460D01*
X3939229Y-16166460D02*
X3948753Y-16156936D01*
X3948753Y-16156936D02*
X3948753Y-16175984D01*
X4082086Y-15975984D02*
X4101134Y-15975984D01*
X4101134Y-15975984D02*
X4120182Y-15985508D01*
X4120182Y-15985508D02*
X4129705Y-15995031D01*
X4129705Y-15995031D02*
X4139229Y-16014079D01*
X4139229Y-16014079D02*
X4148753Y-16052174D01*
X4148753Y-16052174D02*
X4148753Y-16099793D01*
X4148753Y-16099793D02*
X4139229Y-16137888D01*
X4139229Y-16137888D02*
X4129705Y-16156936D01*
X4129705Y-16156936D02*
X4120182Y-16166460D01*
X4120182Y-16166460D02*
X4101134Y-16175984D01*
X4101134Y-16175984D02*
X4082086Y-16175984D01*
X4082086Y-16175984D02*
X4063039Y-16166460D01*
X4063039Y-16166460D02*
X4053515Y-16156936D01*
X4053515Y-16156936D02*
X4043991Y-16137888D01*
X4043991Y-16137888D02*
X4034467Y-16099793D01*
X4034467Y-16099793D02*
X4034467Y-16052174D01*
X4034467Y-16052174D02*
X4043991Y-16014079D01*
X4043991Y-16014079D02*
X4053515Y-15995031D01*
X4053515Y-15995031D02*
X4063039Y-15985508D01*
X4063039Y-15985508D02*
X4082086Y-15975984D01*
X4272563Y-15975984D02*
X4291610Y-15975984D01*
X4291610Y-15975984D02*
X4310658Y-15985508D01*
X4310658Y-15985508D02*
X4320182Y-15995031D01*
X4320182Y-15995031D02*
X4329705Y-16014079D01*
X4329705Y-16014079D02*
X4339229Y-16052174D01*
X4339229Y-16052174D02*
X4339229Y-16099793D01*
X4339229Y-16099793D02*
X4329705Y-16137888D01*
X4329705Y-16137888D02*
X4320182Y-16156936D01*
X4320182Y-16156936D02*
X4310658Y-16166460D01*
X4310658Y-16166460D02*
X4291610Y-16175984D01*
X4291610Y-16175984D02*
X4272563Y-16175984D01*
X4272563Y-16175984D02*
X4253515Y-16166460D01*
X4253515Y-16166460D02*
X4243991Y-16156936D01*
X4243991Y-16156936D02*
X4234467Y-16137888D01*
X4234467Y-16137888D02*
X4224944Y-16099793D01*
X4224944Y-16099793D02*
X4224944Y-16052174D01*
X4224944Y-16052174D02*
X4234467Y-16014079D01*
X4234467Y-16014079D02*
X4243991Y-15995031D01*
X4243991Y-15995031D02*
X4253515Y-15985508D01*
X4253515Y-15985508D02*
X4272563Y-15975984D01*
X4463039Y-15975984D02*
X4482086Y-15975984D01*
X4482086Y-15975984D02*
X4501134Y-15985508D01*
X4501134Y-15985508D02*
X4510658Y-15995031D01*
X4510658Y-15995031D02*
X4520182Y-16014079D01*
X4520182Y-16014079D02*
X4529705Y-16052174D01*
X4529705Y-16052174D02*
X4529705Y-16099793D01*
X4529705Y-16099793D02*
X4520182Y-16137888D01*
X4520182Y-16137888D02*
X4510658Y-16156936D01*
X4510658Y-16156936D02*
X4501134Y-16166460D01*
X4501134Y-16166460D02*
X4482086Y-16175984D01*
X4482086Y-16175984D02*
X4463039Y-16175984D01*
X4463039Y-16175984D02*
X4443991Y-16166460D01*
X4443991Y-16166460D02*
X4434467Y-16156936D01*
X4434467Y-16156936D02*
X4424944Y-16137888D01*
X4424944Y-16137888D02*
X4415420Y-16099793D01*
X4415420Y-16099793D02*
X4415420Y-16052174D01*
X4415420Y-16052174D02*
X4424944Y-16014079D01*
X4424944Y-16014079D02*
X4434467Y-15995031D01*
X4434467Y-15995031D02*
X4443991Y-15985508D01*
X4443991Y-15985508D02*
X4463039Y-15975984D01*
X4615420Y-16175984D02*
X4615420Y-16042650D01*
X4615420Y-16061698D02*
X4624944Y-16052174D01*
X4624944Y-16052174D02*
X4643991Y-16042650D01*
X4643991Y-16042650D02*
X4672563Y-16042650D01*
X4672563Y-16042650D02*
X4691610Y-16052174D01*
X4691610Y-16052174D02*
X4701134Y-16071222D01*
X4701134Y-16071222D02*
X4701134Y-16175984D01*
X4701134Y-16071222D02*
X4710658Y-16052174D01*
X4710658Y-16052174D02*
X4729705Y-16042650D01*
X4729705Y-16042650D02*
X4758277Y-16042650D01*
X4758277Y-16042650D02*
X4777325Y-16052174D01*
X4777325Y-16052174D02*
X4786848Y-16071222D01*
X4786848Y-16071222D02*
X4786848Y-16175984D01*
X4882086Y-16175984D02*
X4882086Y-16042650D01*
X4882086Y-16061698D02*
X4891610Y-16052174D01*
X4891610Y-16052174D02*
X4910658Y-16042650D01*
X4910658Y-16042650D02*
X4939229Y-16042650D01*
X4939229Y-16042650D02*
X4958277Y-16052174D01*
X4958277Y-16052174D02*
X4967801Y-16071222D01*
X4967801Y-16071222D02*
X4967801Y-16175984D01*
X4967801Y-16071222D02*
X4977325Y-16052174D01*
X4977325Y-16052174D02*
X4996372Y-16042650D01*
X4996372Y-16042650D02*
X5024944Y-16042650D01*
X5024944Y-16042650D02*
X5043991Y-16052174D01*
X5043991Y-16052174D02*
X5053515Y-16071222D01*
X5053515Y-16071222D02*
X5053515Y-16175984D01*
X5443991Y-15966460D02*
X5272563Y-16223603D01*
X5701134Y-15975984D02*
X5720182Y-15975984D01*
X5720182Y-15975984D02*
X5739229Y-15985508D01*
X5739229Y-15985508D02*
X5748753Y-15995031D01*
X5748753Y-15995031D02*
X5758277Y-16014079D01*
X5758277Y-16014079D02*
X5767801Y-16052174D01*
X5767801Y-16052174D02*
X5767801Y-16099793D01*
X5767801Y-16099793D02*
X5758277Y-16137888D01*
X5758277Y-16137888D02*
X5748753Y-16156936D01*
X5748753Y-16156936D02*
X5739229Y-16166460D01*
X5739229Y-16166460D02*
X5720182Y-16175984D01*
X5720182Y-16175984D02*
X5701134Y-16175984D01*
X5701134Y-16175984D02*
X5682086Y-16166460D01*
X5682086Y-16166460D02*
X5672563Y-16156936D01*
X5672563Y-16156936D02*
X5663039Y-16137888D01*
X5663039Y-16137888D02*
X5653515Y-16099793D01*
X5653515Y-16099793D02*
X5653515Y-16052174D01*
X5653515Y-16052174D02*
X5663039Y-16014079D01*
X5663039Y-16014079D02*
X5672563Y-15995031D01*
X5672563Y-15995031D02*
X5682086Y-15985508D01*
X5682086Y-15985508D02*
X5701134Y-15975984D01*
X5853515Y-16156936D02*
X5863039Y-16166460D01*
X5863039Y-16166460D02*
X5853515Y-16175984D01*
X5853515Y-16175984D02*
X5843991Y-16166460D01*
X5843991Y-16166460D02*
X5853515Y-16156936D01*
X5853515Y-16156936D02*
X5853515Y-16175984D01*
X5986848Y-15975984D02*
X6005896Y-15975984D01*
X6005896Y-15975984D02*
X6024944Y-15985508D01*
X6024944Y-15985508D02*
X6034467Y-15995031D01*
X6034467Y-15995031D02*
X6043991Y-16014079D01*
X6043991Y-16014079D02*
X6053515Y-16052174D01*
X6053515Y-16052174D02*
X6053515Y-16099793D01*
X6053515Y-16099793D02*
X6043991Y-16137888D01*
X6043991Y-16137888D02*
X6034467Y-16156936D01*
X6034467Y-16156936D02*
X6024944Y-16166460D01*
X6024944Y-16166460D02*
X6005896Y-16175984D01*
X6005896Y-16175984D02*
X5986848Y-16175984D01*
X5986848Y-16175984D02*
X5967801Y-16166460D01*
X5967801Y-16166460D02*
X5958277Y-16156936D01*
X5958277Y-16156936D02*
X5948753Y-16137888D01*
X5948753Y-16137888D02*
X5939229Y-16099793D01*
X5939229Y-16099793D02*
X5939229Y-16052174D01*
X5939229Y-16052174D02*
X5948753Y-16014079D01*
X5948753Y-16014079D02*
X5958277Y-15995031D01*
X5958277Y-15995031D02*
X5967801Y-15985508D01*
X5967801Y-15985508D02*
X5986848Y-15975984D01*
X6120182Y-15975984D02*
X6243991Y-15975984D01*
X6243991Y-15975984D02*
X6177325Y-16052174D01*
X6177325Y-16052174D02*
X6205896Y-16052174D01*
X6205896Y-16052174D02*
X6224944Y-16061698D01*
X6224944Y-16061698D02*
X6234467Y-16071222D01*
X6234467Y-16071222D02*
X6243991Y-16090269D01*
X6243991Y-16090269D02*
X6243991Y-16137888D01*
X6243991Y-16137888D02*
X6234467Y-16156936D01*
X6234467Y-16156936D02*
X6224944Y-16166460D01*
X6224944Y-16166460D02*
X6205896Y-16175984D01*
X6205896Y-16175984D02*
X6148753Y-16175984D01*
X6148753Y-16175984D02*
X6129706Y-16166460D01*
X6129706Y-16166460D02*
X6120182Y-16156936D01*
X6339229Y-16175984D02*
X6377325Y-16175984D01*
X6377325Y-16175984D02*
X6396372Y-16166460D01*
X6396372Y-16166460D02*
X6405896Y-16156936D01*
X6405896Y-16156936D02*
X6424944Y-16128365D01*
X6424944Y-16128365D02*
X6434467Y-16090269D01*
X6434467Y-16090269D02*
X6434467Y-16014079D01*
X6434467Y-16014079D02*
X6424944Y-15995031D01*
X6424944Y-15995031D02*
X6415420Y-15985508D01*
X6415420Y-15985508D02*
X6396372Y-15975984D01*
X6396372Y-15975984D02*
X6358277Y-15975984D01*
X6358277Y-15975984D02*
X6339229Y-15985508D01*
X6339229Y-15985508D02*
X6329706Y-15995031D01*
X6329706Y-15995031D02*
X6320182Y-16014079D01*
X6320182Y-16014079D02*
X6320182Y-16061698D01*
X6320182Y-16061698D02*
X6329706Y-16080746D01*
X6329706Y-16080746D02*
X6339229Y-16090269D01*
X6339229Y-16090269D02*
X6358277Y-16099793D01*
X6358277Y-16099793D02*
X6396372Y-16099793D01*
X6396372Y-16099793D02*
X6415420Y-16090269D01*
X6415420Y-16090269D02*
X6424944Y-16080746D01*
X6424944Y-16080746D02*
X6434467Y-16061698D01*
X6605896Y-16042650D02*
X6605896Y-16175984D01*
X6558277Y-15966460D02*
X6510658Y-16109317D01*
X6510658Y-16109317D02*
X6634467Y-16109317D01*
X6701134Y-15975984D02*
X6701134Y-16014079D01*
X6777325Y-15975984D02*
X6777325Y-16014079D01*
X7072563Y-16252174D02*
X7063039Y-16242650D01*
X7063039Y-16242650D02*
X7043991Y-16214079D01*
X7043991Y-16214079D02*
X7034468Y-16195031D01*
X7034468Y-16195031D02*
X7024944Y-16166460D01*
X7024944Y-16166460D02*
X7015420Y-16118841D01*
X7015420Y-16118841D02*
X7015420Y-16080746D01*
X7015420Y-16080746D02*
X7024944Y-16033127D01*
X7024944Y-16033127D02*
X7034468Y-16004555D01*
X7034468Y-16004555D02*
X7043991Y-15985508D01*
X7043991Y-15985508D02*
X7063039Y-15956936D01*
X7063039Y-15956936D02*
X7072563Y-15947412D01*
X7139229Y-15995031D02*
X7148753Y-15985508D01*
X7148753Y-15985508D02*
X7167801Y-15975984D01*
X7167801Y-15975984D02*
X7215420Y-15975984D01*
X7215420Y-15975984D02*
X7234468Y-15985508D01*
X7234468Y-15985508D02*
X7243991Y-15995031D01*
X7243991Y-15995031D02*
X7253515Y-16014079D01*
X7253515Y-16014079D02*
X7253515Y-16033127D01*
X7253515Y-16033127D02*
X7243991Y-16061698D01*
X7243991Y-16061698D02*
X7129706Y-16175984D01*
X7129706Y-16175984D02*
X7253515Y-16175984D01*
X7320182Y-15975984D02*
X7443991Y-15975984D01*
X7443991Y-15975984D02*
X7377325Y-16052174D01*
X7377325Y-16052174D02*
X7405896Y-16052174D01*
X7405896Y-16052174D02*
X7424944Y-16061698D01*
X7424944Y-16061698D02*
X7434468Y-16071222D01*
X7434468Y-16071222D02*
X7443991Y-16090269D01*
X7443991Y-16090269D02*
X7443991Y-16137888D01*
X7443991Y-16137888D02*
X7434468Y-16156936D01*
X7434468Y-16156936D02*
X7424944Y-16166460D01*
X7424944Y-16166460D02*
X7405896Y-16175984D01*
X7405896Y-16175984D02*
X7348753Y-16175984D01*
X7348753Y-16175984D02*
X7329706Y-16166460D01*
X7329706Y-16166460D02*
X7320182Y-16156936D01*
X7682087Y-16175984D02*
X7682087Y-15975984D01*
X7767801Y-16175984D02*
X7767801Y-16071222D01*
X7767801Y-16071222D02*
X7758277Y-16052174D01*
X7758277Y-16052174D02*
X7739230Y-16042650D01*
X7739230Y-16042650D02*
X7710658Y-16042650D01*
X7710658Y-16042650D02*
X7691610Y-16052174D01*
X7691610Y-16052174D02*
X7682087Y-16061698D01*
X7891610Y-16175984D02*
X7872563Y-16166460D01*
X7872563Y-16166460D02*
X7863039Y-16156936D01*
X7863039Y-16156936D02*
X7853515Y-16137888D01*
X7853515Y-16137888D02*
X7853515Y-16080746D01*
X7853515Y-16080746D02*
X7863039Y-16061698D01*
X7863039Y-16061698D02*
X7872563Y-16052174D01*
X7872563Y-16052174D02*
X7891610Y-16042650D01*
X7891610Y-16042650D02*
X7920182Y-16042650D01*
X7920182Y-16042650D02*
X7939230Y-16052174D01*
X7939230Y-16052174D02*
X7948753Y-16061698D01*
X7948753Y-16061698D02*
X7958277Y-16080746D01*
X7958277Y-16080746D02*
X7958277Y-16137888D01*
X7958277Y-16137888D02*
X7948753Y-16156936D01*
X7948753Y-16156936D02*
X7939230Y-16166460D01*
X7939230Y-16166460D02*
X7920182Y-16175984D01*
X7920182Y-16175984D02*
X7891610Y-16175984D01*
X8072563Y-16175984D02*
X8053515Y-16166460D01*
X8053515Y-16166460D02*
X8043991Y-16147412D01*
X8043991Y-16147412D02*
X8043991Y-15975984D01*
X8224944Y-16166460D02*
X8205896Y-16175984D01*
X8205896Y-16175984D02*
X8167801Y-16175984D01*
X8167801Y-16175984D02*
X8148753Y-16166460D01*
X8148753Y-16166460D02*
X8139230Y-16147412D01*
X8139230Y-16147412D02*
X8139230Y-16071222D01*
X8139230Y-16071222D02*
X8148753Y-16052174D01*
X8148753Y-16052174D02*
X8167801Y-16042650D01*
X8167801Y-16042650D02*
X8205896Y-16042650D01*
X8205896Y-16042650D02*
X8224944Y-16052174D01*
X8224944Y-16052174D02*
X8234468Y-16071222D01*
X8234468Y-16071222D02*
X8234468Y-16090269D01*
X8234468Y-16090269D02*
X8139230Y-16109317D01*
X8310658Y-16166460D02*
X8329706Y-16175984D01*
X8329706Y-16175984D02*
X8367801Y-16175984D01*
X8367801Y-16175984D02*
X8386849Y-16166460D01*
X8386849Y-16166460D02*
X8396373Y-16147412D01*
X8396373Y-16147412D02*
X8396373Y-16137888D01*
X8396373Y-16137888D02*
X8386849Y-16118841D01*
X8386849Y-16118841D02*
X8367801Y-16109317D01*
X8367801Y-16109317D02*
X8339230Y-16109317D01*
X8339230Y-16109317D02*
X8320182Y-16099793D01*
X8320182Y-16099793D02*
X8310658Y-16080746D01*
X8310658Y-16080746D02*
X8310658Y-16071222D01*
X8310658Y-16071222D02*
X8320182Y-16052174D01*
X8320182Y-16052174D02*
X8339230Y-16042650D01*
X8339230Y-16042650D02*
X8367801Y-16042650D01*
X8367801Y-16042650D02*
X8386849Y-16052174D01*
X8634468Y-16099793D02*
X8786849Y-16099793D01*
X8710658Y-16175984D02*
X8710658Y-16023603D01*
X9120182Y-15975984D02*
X9082087Y-15975984D01*
X9082087Y-15975984D02*
X9063039Y-15985508D01*
X9063039Y-15985508D02*
X9053515Y-15995031D01*
X9053515Y-15995031D02*
X9034468Y-16023603D01*
X9034468Y-16023603D02*
X9024944Y-16061698D01*
X9024944Y-16061698D02*
X9024944Y-16137888D01*
X9024944Y-16137888D02*
X9034468Y-16156936D01*
X9034468Y-16156936D02*
X9043992Y-16166460D01*
X9043992Y-16166460D02*
X9063039Y-16175984D01*
X9063039Y-16175984D02*
X9101135Y-16175984D01*
X9101135Y-16175984D02*
X9120182Y-16166460D01*
X9120182Y-16166460D02*
X9129706Y-16156936D01*
X9129706Y-16156936D02*
X9139230Y-16137888D01*
X9139230Y-16137888D02*
X9139230Y-16090269D01*
X9139230Y-16090269D02*
X9129706Y-16071222D01*
X9129706Y-16071222D02*
X9120182Y-16061698D01*
X9120182Y-16061698D02*
X9101135Y-16052174D01*
X9101135Y-16052174D02*
X9063039Y-16052174D01*
X9063039Y-16052174D02*
X9043992Y-16061698D01*
X9043992Y-16061698D02*
X9034468Y-16071222D01*
X9034468Y-16071222D02*
X9024944Y-16090269D01*
X9367801Y-16166460D02*
X9386849Y-16175984D01*
X9386849Y-16175984D02*
X9424944Y-16175984D01*
X9424944Y-16175984D02*
X9443992Y-16166460D01*
X9443992Y-16166460D02*
X9453516Y-16147412D01*
X9453516Y-16147412D02*
X9453516Y-16137888D01*
X9453516Y-16137888D02*
X9443992Y-16118841D01*
X9443992Y-16118841D02*
X9424944Y-16109317D01*
X9424944Y-16109317D02*
X9396373Y-16109317D01*
X9396373Y-16109317D02*
X9377325Y-16099793D01*
X9377325Y-16099793D02*
X9367801Y-16080746D01*
X9367801Y-16080746D02*
X9367801Y-16071222D01*
X9367801Y-16071222D02*
X9377325Y-16052174D01*
X9377325Y-16052174D02*
X9396373Y-16042650D01*
X9396373Y-16042650D02*
X9424944Y-16042650D01*
X9424944Y-16042650D02*
X9443992Y-16052174D01*
X9567801Y-16175984D02*
X9548754Y-16166460D01*
X9548754Y-16166460D02*
X9539230Y-16147412D01*
X9539230Y-16147412D02*
X9539230Y-15975984D01*
X9672563Y-16175984D02*
X9653516Y-16166460D01*
X9653516Y-16166460D02*
X9643992Y-16156936D01*
X9643992Y-16156936D02*
X9634468Y-16137888D01*
X9634468Y-16137888D02*
X9634468Y-16080746D01*
X9634468Y-16080746D02*
X9643992Y-16061698D01*
X9643992Y-16061698D02*
X9653516Y-16052174D01*
X9653516Y-16052174D02*
X9672563Y-16042650D01*
X9672563Y-16042650D02*
X9701135Y-16042650D01*
X9701135Y-16042650D02*
X9720182Y-16052174D01*
X9720182Y-16052174D02*
X9729706Y-16061698D01*
X9729706Y-16061698D02*
X9739230Y-16080746D01*
X9739230Y-16080746D02*
X9739230Y-16137888D01*
X9739230Y-16137888D02*
X9729706Y-16156936D01*
X9729706Y-16156936D02*
X9720182Y-16166460D01*
X9720182Y-16166460D02*
X9701135Y-16175984D01*
X9701135Y-16175984D02*
X9672563Y-16175984D01*
X9796373Y-16042650D02*
X9872563Y-16042650D01*
X9824944Y-15975984D02*
X9824944Y-16147412D01*
X9824944Y-16147412D02*
X9834468Y-16166460D01*
X9834468Y-16166460D02*
X9853516Y-16175984D01*
X9853516Y-16175984D02*
X9872563Y-16175984D01*
X9929706Y-16166460D02*
X9948754Y-16175984D01*
X9948754Y-16175984D02*
X9986849Y-16175984D01*
X9986849Y-16175984D02*
X10005897Y-16166460D01*
X10005897Y-16166460D02*
X10015420Y-16147412D01*
X10015420Y-16147412D02*
X10015420Y-16137888D01*
X10015420Y-16137888D02*
X10005897Y-16118841D01*
X10005897Y-16118841D02*
X9986849Y-16109317D01*
X9986849Y-16109317D02*
X9958277Y-16109317D01*
X9958277Y-16109317D02*
X9939230Y-16099793D01*
X9939230Y-16099793D02*
X9929706Y-16080746D01*
X9929706Y-16080746D02*
X9929706Y-16071222D01*
X9929706Y-16071222D02*
X9939230Y-16052174D01*
X9939230Y-16052174D02*
X9958277Y-16042650D01*
X9958277Y-16042650D02*
X9986849Y-16042650D01*
X9986849Y-16042650D02*
X10005897Y-16052174D01*
X10082087Y-16252174D02*
X10091611Y-16242650D01*
X10091611Y-16242650D02*
X10110658Y-16214079D01*
X10110658Y-16214079D02*
X10120182Y-16195031D01*
X10120182Y-16195031D02*
X10129706Y-16166460D01*
X10129706Y-16166460D02*
X10139230Y-16118841D01*
X10139230Y-16118841D02*
X10139230Y-16080746D01*
X10139230Y-16080746D02*
X10129706Y-16033127D01*
X10129706Y-16033127D02*
X10120182Y-16004555D01*
X10120182Y-16004555D02*
X10110658Y-15985508D01*
X10110658Y-15985508D02*
X10091611Y-15956936D01*
X10091611Y-15956936D02*
X10082087Y-15947412D01*
D13*
X3436500Y-16409500D02*
X3497500Y-16348500D01*
X3436500Y-16287500D01*
X3375500Y-16348500D01*
X3436500Y-16409500D01*
D11*
X3863039Y-16439984D02*
X3748753Y-16439984D01*
X3805896Y-16439984D02*
X3805896Y-16239984D01*
X3805896Y-16239984D02*
X3786848Y-16268555D01*
X3786848Y-16268555D02*
X3767801Y-16287603D01*
X3767801Y-16287603D02*
X3748753Y-16297127D01*
X3948753Y-16420936D02*
X3958277Y-16430460D01*
X3958277Y-16430460D02*
X3948753Y-16439984D01*
X3948753Y-16439984D02*
X3939229Y-16430460D01*
X3939229Y-16430460D02*
X3948753Y-16420936D01*
X3948753Y-16420936D02*
X3948753Y-16439984D01*
X4034467Y-16259031D02*
X4043991Y-16249508D01*
X4043991Y-16249508D02*
X4063039Y-16239984D01*
X4063039Y-16239984D02*
X4110658Y-16239984D01*
X4110658Y-16239984D02*
X4129705Y-16249508D01*
X4129705Y-16249508D02*
X4139229Y-16259031D01*
X4139229Y-16259031D02*
X4148753Y-16278079D01*
X4148753Y-16278079D02*
X4148753Y-16297127D01*
X4148753Y-16297127D02*
X4139229Y-16325698D01*
X4139229Y-16325698D02*
X4024943Y-16439984D01*
X4024943Y-16439984D02*
X4148753Y-16439984D01*
X4224944Y-16259031D02*
X4234467Y-16249508D01*
X4234467Y-16249508D02*
X4253515Y-16239984D01*
X4253515Y-16239984D02*
X4301134Y-16239984D01*
X4301134Y-16239984D02*
X4320182Y-16249508D01*
X4320182Y-16249508D02*
X4329705Y-16259031D01*
X4329705Y-16259031D02*
X4339229Y-16278079D01*
X4339229Y-16278079D02*
X4339229Y-16297127D01*
X4339229Y-16297127D02*
X4329705Y-16325698D01*
X4329705Y-16325698D02*
X4215420Y-16439984D01*
X4215420Y-16439984D02*
X4339229Y-16439984D01*
X4463039Y-16239984D02*
X4482086Y-16239984D01*
X4482086Y-16239984D02*
X4501134Y-16249508D01*
X4501134Y-16249508D02*
X4510658Y-16259031D01*
X4510658Y-16259031D02*
X4520182Y-16278079D01*
X4520182Y-16278079D02*
X4529705Y-16316174D01*
X4529705Y-16316174D02*
X4529705Y-16363793D01*
X4529705Y-16363793D02*
X4520182Y-16401888D01*
X4520182Y-16401888D02*
X4510658Y-16420936D01*
X4510658Y-16420936D02*
X4501134Y-16430460D01*
X4501134Y-16430460D02*
X4482086Y-16439984D01*
X4482086Y-16439984D02*
X4463039Y-16439984D01*
X4463039Y-16439984D02*
X4443991Y-16430460D01*
X4443991Y-16430460D02*
X4434467Y-16420936D01*
X4434467Y-16420936D02*
X4424944Y-16401888D01*
X4424944Y-16401888D02*
X4415420Y-16363793D01*
X4415420Y-16363793D02*
X4415420Y-16316174D01*
X4415420Y-16316174D02*
X4424944Y-16278079D01*
X4424944Y-16278079D02*
X4434467Y-16259031D01*
X4434467Y-16259031D02*
X4443991Y-16249508D01*
X4443991Y-16249508D02*
X4463039Y-16239984D01*
X4615420Y-16439984D02*
X4615420Y-16306650D01*
X4615420Y-16325698D02*
X4624944Y-16316174D01*
X4624944Y-16316174D02*
X4643991Y-16306650D01*
X4643991Y-16306650D02*
X4672563Y-16306650D01*
X4672563Y-16306650D02*
X4691610Y-16316174D01*
X4691610Y-16316174D02*
X4701134Y-16335222D01*
X4701134Y-16335222D02*
X4701134Y-16439984D01*
X4701134Y-16335222D02*
X4710658Y-16316174D01*
X4710658Y-16316174D02*
X4729705Y-16306650D01*
X4729705Y-16306650D02*
X4758277Y-16306650D01*
X4758277Y-16306650D02*
X4777325Y-16316174D01*
X4777325Y-16316174D02*
X4786848Y-16335222D01*
X4786848Y-16335222D02*
X4786848Y-16439984D01*
X4882086Y-16439984D02*
X4882086Y-16306650D01*
X4882086Y-16325698D02*
X4891610Y-16316174D01*
X4891610Y-16316174D02*
X4910658Y-16306650D01*
X4910658Y-16306650D02*
X4939229Y-16306650D01*
X4939229Y-16306650D02*
X4958277Y-16316174D01*
X4958277Y-16316174D02*
X4967801Y-16335222D01*
X4967801Y-16335222D02*
X4967801Y-16439984D01*
X4967801Y-16335222D02*
X4977325Y-16316174D01*
X4977325Y-16316174D02*
X4996372Y-16306650D01*
X4996372Y-16306650D02*
X5024944Y-16306650D01*
X5024944Y-16306650D02*
X5043991Y-16316174D01*
X5043991Y-16316174D02*
X5053515Y-16335222D01*
X5053515Y-16335222D02*
X5053515Y-16439984D01*
X5443991Y-16230460D02*
X5272563Y-16487603D01*
X5701134Y-16239984D02*
X5720182Y-16239984D01*
X5720182Y-16239984D02*
X5739229Y-16249508D01*
X5739229Y-16249508D02*
X5748753Y-16259031D01*
X5748753Y-16259031D02*
X5758277Y-16278079D01*
X5758277Y-16278079D02*
X5767801Y-16316174D01*
X5767801Y-16316174D02*
X5767801Y-16363793D01*
X5767801Y-16363793D02*
X5758277Y-16401888D01*
X5758277Y-16401888D02*
X5748753Y-16420936D01*
X5748753Y-16420936D02*
X5739229Y-16430460D01*
X5739229Y-16430460D02*
X5720182Y-16439984D01*
X5720182Y-16439984D02*
X5701134Y-16439984D01*
X5701134Y-16439984D02*
X5682086Y-16430460D01*
X5682086Y-16430460D02*
X5672563Y-16420936D01*
X5672563Y-16420936D02*
X5663039Y-16401888D01*
X5663039Y-16401888D02*
X5653515Y-16363793D01*
X5653515Y-16363793D02*
X5653515Y-16316174D01*
X5653515Y-16316174D02*
X5663039Y-16278079D01*
X5663039Y-16278079D02*
X5672563Y-16259031D01*
X5672563Y-16259031D02*
X5682086Y-16249508D01*
X5682086Y-16249508D02*
X5701134Y-16239984D01*
X5853515Y-16420936D02*
X5863039Y-16430460D01*
X5863039Y-16430460D02*
X5853515Y-16439984D01*
X5853515Y-16439984D02*
X5843991Y-16430460D01*
X5843991Y-16430460D02*
X5853515Y-16420936D01*
X5853515Y-16420936D02*
X5853515Y-16439984D01*
X5986848Y-16239984D02*
X6005896Y-16239984D01*
X6005896Y-16239984D02*
X6024944Y-16249508D01*
X6024944Y-16249508D02*
X6034467Y-16259031D01*
X6034467Y-16259031D02*
X6043991Y-16278079D01*
X6043991Y-16278079D02*
X6053515Y-16316174D01*
X6053515Y-16316174D02*
X6053515Y-16363793D01*
X6053515Y-16363793D02*
X6043991Y-16401888D01*
X6043991Y-16401888D02*
X6034467Y-16420936D01*
X6034467Y-16420936D02*
X6024944Y-16430460D01*
X6024944Y-16430460D02*
X6005896Y-16439984D01*
X6005896Y-16439984D02*
X5986848Y-16439984D01*
X5986848Y-16439984D02*
X5967801Y-16430460D01*
X5967801Y-16430460D02*
X5958277Y-16420936D01*
X5958277Y-16420936D02*
X5948753Y-16401888D01*
X5948753Y-16401888D02*
X5939229Y-16363793D01*
X5939229Y-16363793D02*
X5939229Y-16316174D01*
X5939229Y-16316174D02*
X5948753Y-16278079D01*
X5948753Y-16278079D02*
X5958277Y-16259031D01*
X5958277Y-16259031D02*
X5967801Y-16249508D01*
X5967801Y-16249508D02*
X5986848Y-16239984D01*
X6224944Y-16306650D02*
X6224944Y-16439984D01*
X6177325Y-16230460D02*
X6129706Y-16373317D01*
X6129706Y-16373317D02*
X6253515Y-16373317D01*
X6358277Y-16325698D02*
X6339229Y-16316174D01*
X6339229Y-16316174D02*
X6329706Y-16306650D01*
X6329706Y-16306650D02*
X6320182Y-16287603D01*
X6320182Y-16287603D02*
X6320182Y-16278079D01*
X6320182Y-16278079D02*
X6329706Y-16259031D01*
X6329706Y-16259031D02*
X6339229Y-16249508D01*
X6339229Y-16249508D02*
X6358277Y-16239984D01*
X6358277Y-16239984D02*
X6396372Y-16239984D01*
X6396372Y-16239984D02*
X6415420Y-16249508D01*
X6415420Y-16249508D02*
X6424944Y-16259031D01*
X6424944Y-16259031D02*
X6434467Y-16278079D01*
X6434467Y-16278079D02*
X6434467Y-16287603D01*
X6434467Y-16287603D02*
X6424944Y-16306650D01*
X6424944Y-16306650D02*
X6415420Y-16316174D01*
X6415420Y-16316174D02*
X6396372Y-16325698D01*
X6396372Y-16325698D02*
X6358277Y-16325698D01*
X6358277Y-16325698D02*
X6339229Y-16335222D01*
X6339229Y-16335222D02*
X6329706Y-16344746D01*
X6329706Y-16344746D02*
X6320182Y-16363793D01*
X6320182Y-16363793D02*
X6320182Y-16401888D01*
X6320182Y-16401888D02*
X6329706Y-16420936D01*
X6329706Y-16420936D02*
X6339229Y-16430460D01*
X6339229Y-16430460D02*
X6358277Y-16439984D01*
X6358277Y-16439984D02*
X6396372Y-16439984D01*
X6396372Y-16439984D02*
X6415420Y-16430460D01*
X6415420Y-16430460D02*
X6424944Y-16420936D01*
X6424944Y-16420936D02*
X6434467Y-16401888D01*
X6434467Y-16401888D02*
X6434467Y-16363793D01*
X6434467Y-16363793D02*
X6424944Y-16344746D01*
X6424944Y-16344746D02*
X6415420Y-16335222D01*
X6415420Y-16335222D02*
X6396372Y-16325698D01*
X6558277Y-16239984D02*
X6577325Y-16239984D01*
X6577325Y-16239984D02*
X6596372Y-16249508D01*
X6596372Y-16249508D02*
X6605896Y-16259031D01*
X6605896Y-16259031D02*
X6615420Y-16278079D01*
X6615420Y-16278079D02*
X6624944Y-16316174D01*
X6624944Y-16316174D02*
X6624944Y-16363793D01*
X6624944Y-16363793D02*
X6615420Y-16401888D01*
X6615420Y-16401888D02*
X6605896Y-16420936D01*
X6605896Y-16420936D02*
X6596372Y-16430460D01*
X6596372Y-16430460D02*
X6577325Y-16439984D01*
X6577325Y-16439984D02*
X6558277Y-16439984D01*
X6558277Y-16439984D02*
X6539229Y-16430460D01*
X6539229Y-16430460D02*
X6529706Y-16420936D01*
X6529706Y-16420936D02*
X6520182Y-16401888D01*
X6520182Y-16401888D02*
X6510658Y-16363793D01*
X6510658Y-16363793D02*
X6510658Y-16316174D01*
X6510658Y-16316174D02*
X6520182Y-16278079D01*
X6520182Y-16278079D02*
X6529706Y-16259031D01*
X6529706Y-16259031D02*
X6539229Y-16249508D01*
X6539229Y-16249508D02*
X6558277Y-16239984D01*
X6701134Y-16239984D02*
X6701134Y-16278079D01*
X6777325Y-16239984D02*
X6777325Y-16278079D01*
X7072563Y-16516174D02*
X7063039Y-16506650D01*
X7063039Y-16506650D02*
X7043991Y-16478079D01*
X7043991Y-16478079D02*
X7034468Y-16459031D01*
X7034468Y-16459031D02*
X7024944Y-16430460D01*
X7024944Y-16430460D02*
X7015420Y-16382841D01*
X7015420Y-16382841D02*
X7015420Y-16344746D01*
X7015420Y-16344746D02*
X7024944Y-16297127D01*
X7024944Y-16297127D02*
X7034468Y-16268555D01*
X7034468Y-16268555D02*
X7043991Y-16249508D01*
X7043991Y-16249508D02*
X7063039Y-16220936D01*
X7063039Y-16220936D02*
X7072563Y-16211412D01*
X7129706Y-16239984D02*
X7253515Y-16239984D01*
X7253515Y-16239984D02*
X7186848Y-16316174D01*
X7186848Y-16316174D02*
X7215420Y-16316174D01*
X7215420Y-16316174D02*
X7234468Y-16325698D01*
X7234468Y-16325698D02*
X7243991Y-16335222D01*
X7243991Y-16335222D02*
X7253515Y-16354269D01*
X7253515Y-16354269D02*
X7253515Y-16401888D01*
X7253515Y-16401888D02*
X7243991Y-16420936D01*
X7243991Y-16420936D02*
X7234468Y-16430460D01*
X7234468Y-16430460D02*
X7215420Y-16439984D01*
X7215420Y-16439984D02*
X7158277Y-16439984D01*
X7158277Y-16439984D02*
X7139229Y-16430460D01*
X7139229Y-16430460D02*
X7129706Y-16420936D01*
X7491610Y-16439984D02*
X7491610Y-16239984D01*
X7577325Y-16439984D02*
X7577325Y-16335222D01*
X7577325Y-16335222D02*
X7567801Y-16316174D01*
X7567801Y-16316174D02*
X7548753Y-16306650D01*
X7548753Y-16306650D02*
X7520182Y-16306650D01*
X7520182Y-16306650D02*
X7501134Y-16316174D01*
X7501134Y-16316174D02*
X7491610Y-16325698D01*
X7701134Y-16439984D02*
X7682087Y-16430460D01*
X7682087Y-16430460D02*
X7672563Y-16420936D01*
X7672563Y-16420936D02*
X7663039Y-16401888D01*
X7663039Y-16401888D02*
X7663039Y-16344746D01*
X7663039Y-16344746D02*
X7672563Y-16325698D01*
X7672563Y-16325698D02*
X7682087Y-16316174D01*
X7682087Y-16316174D02*
X7701134Y-16306650D01*
X7701134Y-16306650D02*
X7729706Y-16306650D01*
X7729706Y-16306650D02*
X7748753Y-16316174D01*
X7748753Y-16316174D02*
X7758277Y-16325698D01*
X7758277Y-16325698D02*
X7767801Y-16344746D01*
X7767801Y-16344746D02*
X7767801Y-16401888D01*
X7767801Y-16401888D02*
X7758277Y-16420936D01*
X7758277Y-16420936D02*
X7748753Y-16430460D01*
X7748753Y-16430460D02*
X7729706Y-16439984D01*
X7729706Y-16439984D02*
X7701134Y-16439984D01*
X7882087Y-16439984D02*
X7863039Y-16430460D01*
X7863039Y-16430460D02*
X7853515Y-16411412D01*
X7853515Y-16411412D02*
X7853515Y-16239984D01*
X8034468Y-16430460D02*
X8015420Y-16439984D01*
X8015420Y-16439984D02*
X7977325Y-16439984D01*
X7977325Y-16439984D02*
X7958277Y-16430460D01*
X7958277Y-16430460D02*
X7948753Y-16411412D01*
X7948753Y-16411412D02*
X7948753Y-16335222D01*
X7948753Y-16335222D02*
X7958277Y-16316174D01*
X7958277Y-16316174D02*
X7977325Y-16306650D01*
X7977325Y-16306650D02*
X8015420Y-16306650D01*
X8015420Y-16306650D02*
X8034468Y-16316174D01*
X8034468Y-16316174D02*
X8043991Y-16335222D01*
X8043991Y-16335222D02*
X8043991Y-16354269D01*
X8043991Y-16354269D02*
X7948753Y-16373317D01*
X8120182Y-16430460D02*
X8139230Y-16439984D01*
X8139230Y-16439984D02*
X8177325Y-16439984D01*
X8177325Y-16439984D02*
X8196372Y-16430460D01*
X8196372Y-16430460D02*
X8205896Y-16411412D01*
X8205896Y-16411412D02*
X8205896Y-16401888D01*
X8205896Y-16401888D02*
X8196372Y-16382841D01*
X8196372Y-16382841D02*
X8177325Y-16373317D01*
X8177325Y-16373317D02*
X8148753Y-16373317D01*
X8148753Y-16373317D02*
X8129706Y-16363793D01*
X8129706Y-16363793D02*
X8120182Y-16344746D01*
X8120182Y-16344746D02*
X8120182Y-16335222D01*
X8120182Y-16335222D02*
X8129706Y-16316174D01*
X8129706Y-16316174D02*
X8148753Y-16306650D01*
X8148753Y-16306650D02*
X8177325Y-16306650D01*
X8177325Y-16306650D02*
X8196372Y-16316174D01*
X8272563Y-16516174D02*
X8282087Y-16506650D01*
X8282087Y-16506650D02*
X8301134Y-16478079D01*
X8301134Y-16478079D02*
X8310658Y-16459031D01*
X8310658Y-16459031D02*
X8320182Y-16430460D01*
X8320182Y-16430460D02*
X8329706Y-16382841D01*
X8329706Y-16382841D02*
X8329706Y-16344746D01*
X8329706Y-16344746D02*
X8320182Y-16297127D01*
X8320182Y-16297127D02*
X8310658Y-16268555D01*
X8310658Y-16268555D02*
X8301134Y-16249508D01*
X8301134Y-16249508D02*
X8282087Y-16220936D01*
X8282087Y-16220936D02*
X8272563Y-16211412D01*
D14*
X3355500Y-16541500D02*
X3497500Y-16683500D01*
X3497500Y-16541500D02*
X3355500Y-16683500D01*
X3497500Y-16612500D02*
G75*
G03*
X3355500Y-16612500I-71000J0D01*
G01*
X3355500Y-16612500D02*
G75*
G03*
X3497500Y-16612500I71000J0D01*
G01*
D11*
X3863039Y-16703984D02*
X3748753Y-16703984D01*
X3805896Y-16703984D02*
X3805896Y-16503984D01*
X3805896Y-16503984D02*
X3786848Y-16532555D01*
X3786848Y-16532555D02*
X3767801Y-16551603D01*
X3767801Y-16551603D02*
X3748753Y-16561127D01*
X3948753Y-16684936D02*
X3958277Y-16694460D01*
X3958277Y-16694460D02*
X3948753Y-16703984D01*
X3948753Y-16703984D02*
X3939229Y-16694460D01*
X3939229Y-16694460D02*
X3948753Y-16684936D01*
X3948753Y-16684936D02*
X3948753Y-16703984D01*
X4129705Y-16570650D02*
X4129705Y-16703984D01*
X4082086Y-16494460D02*
X4034467Y-16637317D01*
X4034467Y-16637317D02*
X4158277Y-16637317D01*
X4224944Y-16523031D02*
X4234467Y-16513508D01*
X4234467Y-16513508D02*
X4253515Y-16503984D01*
X4253515Y-16503984D02*
X4301134Y-16503984D01*
X4301134Y-16503984D02*
X4320182Y-16513508D01*
X4320182Y-16513508D02*
X4329705Y-16523031D01*
X4329705Y-16523031D02*
X4339229Y-16542079D01*
X4339229Y-16542079D02*
X4339229Y-16561127D01*
X4339229Y-16561127D02*
X4329705Y-16589698D01*
X4329705Y-16589698D02*
X4215420Y-16703984D01*
X4215420Y-16703984D02*
X4339229Y-16703984D01*
X4463039Y-16503984D02*
X4482086Y-16503984D01*
X4482086Y-16503984D02*
X4501134Y-16513508D01*
X4501134Y-16513508D02*
X4510658Y-16523031D01*
X4510658Y-16523031D02*
X4520182Y-16542079D01*
X4520182Y-16542079D02*
X4529705Y-16580174D01*
X4529705Y-16580174D02*
X4529705Y-16627793D01*
X4529705Y-16627793D02*
X4520182Y-16665888D01*
X4520182Y-16665888D02*
X4510658Y-16684936D01*
X4510658Y-16684936D02*
X4501134Y-16694460D01*
X4501134Y-16694460D02*
X4482086Y-16703984D01*
X4482086Y-16703984D02*
X4463039Y-16703984D01*
X4463039Y-16703984D02*
X4443991Y-16694460D01*
X4443991Y-16694460D02*
X4434467Y-16684936D01*
X4434467Y-16684936D02*
X4424944Y-16665888D01*
X4424944Y-16665888D02*
X4415420Y-16627793D01*
X4415420Y-16627793D02*
X4415420Y-16580174D01*
X4415420Y-16580174D02*
X4424944Y-16542079D01*
X4424944Y-16542079D02*
X4434467Y-16523031D01*
X4434467Y-16523031D02*
X4443991Y-16513508D01*
X4443991Y-16513508D02*
X4463039Y-16503984D01*
X4615420Y-16703984D02*
X4615420Y-16570650D01*
X4615420Y-16589698D02*
X4624944Y-16580174D01*
X4624944Y-16580174D02*
X4643991Y-16570650D01*
X4643991Y-16570650D02*
X4672563Y-16570650D01*
X4672563Y-16570650D02*
X4691610Y-16580174D01*
X4691610Y-16580174D02*
X4701134Y-16599222D01*
X4701134Y-16599222D02*
X4701134Y-16703984D01*
X4701134Y-16599222D02*
X4710658Y-16580174D01*
X4710658Y-16580174D02*
X4729705Y-16570650D01*
X4729705Y-16570650D02*
X4758277Y-16570650D01*
X4758277Y-16570650D02*
X4777325Y-16580174D01*
X4777325Y-16580174D02*
X4786848Y-16599222D01*
X4786848Y-16599222D02*
X4786848Y-16703984D01*
X4882086Y-16703984D02*
X4882086Y-16570650D01*
X4882086Y-16589698D02*
X4891610Y-16580174D01*
X4891610Y-16580174D02*
X4910658Y-16570650D01*
X4910658Y-16570650D02*
X4939229Y-16570650D01*
X4939229Y-16570650D02*
X4958277Y-16580174D01*
X4958277Y-16580174D02*
X4967801Y-16599222D01*
X4967801Y-16599222D02*
X4967801Y-16703984D01*
X4967801Y-16599222D02*
X4977325Y-16580174D01*
X4977325Y-16580174D02*
X4996372Y-16570650D01*
X4996372Y-16570650D02*
X5024944Y-16570650D01*
X5024944Y-16570650D02*
X5043991Y-16580174D01*
X5043991Y-16580174D02*
X5053515Y-16599222D01*
X5053515Y-16599222D02*
X5053515Y-16703984D01*
X5443991Y-16494460D02*
X5272563Y-16751603D01*
X5701134Y-16503984D02*
X5720182Y-16503984D01*
X5720182Y-16503984D02*
X5739229Y-16513508D01*
X5739229Y-16513508D02*
X5748753Y-16523031D01*
X5748753Y-16523031D02*
X5758277Y-16542079D01*
X5758277Y-16542079D02*
X5767801Y-16580174D01*
X5767801Y-16580174D02*
X5767801Y-16627793D01*
X5767801Y-16627793D02*
X5758277Y-16665888D01*
X5758277Y-16665888D02*
X5748753Y-16684936D01*
X5748753Y-16684936D02*
X5739229Y-16694460D01*
X5739229Y-16694460D02*
X5720182Y-16703984D01*
X5720182Y-16703984D02*
X5701134Y-16703984D01*
X5701134Y-16703984D02*
X5682086Y-16694460D01*
X5682086Y-16694460D02*
X5672563Y-16684936D01*
X5672563Y-16684936D02*
X5663039Y-16665888D01*
X5663039Y-16665888D02*
X5653515Y-16627793D01*
X5653515Y-16627793D02*
X5653515Y-16580174D01*
X5653515Y-16580174D02*
X5663039Y-16542079D01*
X5663039Y-16542079D02*
X5672563Y-16523031D01*
X5672563Y-16523031D02*
X5682086Y-16513508D01*
X5682086Y-16513508D02*
X5701134Y-16503984D01*
X5853515Y-16684936D02*
X5863039Y-16694460D01*
X5863039Y-16694460D02*
X5853515Y-16703984D01*
X5853515Y-16703984D02*
X5843991Y-16694460D01*
X5843991Y-16694460D02*
X5853515Y-16684936D01*
X5853515Y-16684936D02*
X5853515Y-16703984D01*
X5986848Y-16503984D02*
X6005896Y-16503984D01*
X6005896Y-16503984D02*
X6024944Y-16513508D01*
X6024944Y-16513508D02*
X6034467Y-16523031D01*
X6034467Y-16523031D02*
X6043991Y-16542079D01*
X6043991Y-16542079D02*
X6053515Y-16580174D01*
X6053515Y-16580174D02*
X6053515Y-16627793D01*
X6053515Y-16627793D02*
X6043991Y-16665888D01*
X6043991Y-16665888D02*
X6034467Y-16684936D01*
X6034467Y-16684936D02*
X6024944Y-16694460D01*
X6024944Y-16694460D02*
X6005896Y-16703984D01*
X6005896Y-16703984D02*
X5986848Y-16703984D01*
X5986848Y-16703984D02*
X5967801Y-16694460D01*
X5967801Y-16694460D02*
X5958277Y-16684936D01*
X5958277Y-16684936D02*
X5948753Y-16665888D01*
X5948753Y-16665888D02*
X5939229Y-16627793D01*
X5939229Y-16627793D02*
X5939229Y-16580174D01*
X5939229Y-16580174D02*
X5948753Y-16542079D01*
X5948753Y-16542079D02*
X5958277Y-16523031D01*
X5958277Y-16523031D02*
X5967801Y-16513508D01*
X5967801Y-16513508D02*
X5986848Y-16503984D01*
X6234467Y-16503984D02*
X6139229Y-16503984D01*
X6139229Y-16503984D02*
X6129706Y-16599222D01*
X6129706Y-16599222D02*
X6139229Y-16589698D01*
X6139229Y-16589698D02*
X6158277Y-16580174D01*
X6158277Y-16580174D02*
X6205896Y-16580174D01*
X6205896Y-16580174D02*
X6224944Y-16589698D01*
X6224944Y-16589698D02*
X6234467Y-16599222D01*
X6234467Y-16599222D02*
X6243991Y-16618269D01*
X6243991Y-16618269D02*
X6243991Y-16665888D01*
X6243991Y-16665888D02*
X6234467Y-16684936D01*
X6234467Y-16684936D02*
X6224944Y-16694460D01*
X6224944Y-16694460D02*
X6205896Y-16703984D01*
X6205896Y-16703984D02*
X6158277Y-16703984D01*
X6158277Y-16703984D02*
X6139229Y-16694460D01*
X6139229Y-16694460D02*
X6129706Y-16684936D01*
X6424944Y-16503984D02*
X6329706Y-16503984D01*
X6329706Y-16503984D02*
X6320182Y-16599222D01*
X6320182Y-16599222D02*
X6329706Y-16589698D01*
X6329706Y-16589698D02*
X6348753Y-16580174D01*
X6348753Y-16580174D02*
X6396372Y-16580174D01*
X6396372Y-16580174D02*
X6415420Y-16589698D01*
X6415420Y-16589698D02*
X6424944Y-16599222D01*
X6424944Y-16599222D02*
X6434467Y-16618269D01*
X6434467Y-16618269D02*
X6434467Y-16665888D01*
X6434467Y-16665888D02*
X6424944Y-16684936D01*
X6424944Y-16684936D02*
X6415420Y-16694460D01*
X6415420Y-16694460D02*
X6396372Y-16703984D01*
X6396372Y-16703984D02*
X6348753Y-16703984D01*
X6348753Y-16703984D02*
X6329706Y-16694460D01*
X6329706Y-16694460D02*
X6320182Y-16684936D01*
X6529706Y-16703984D02*
X6567801Y-16703984D01*
X6567801Y-16703984D02*
X6586848Y-16694460D01*
X6586848Y-16694460D02*
X6596372Y-16684936D01*
X6596372Y-16684936D02*
X6615420Y-16656365D01*
X6615420Y-16656365D02*
X6624944Y-16618269D01*
X6624944Y-16618269D02*
X6624944Y-16542079D01*
X6624944Y-16542079D02*
X6615420Y-16523031D01*
X6615420Y-16523031D02*
X6605896Y-16513508D01*
X6605896Y-16513508D02*
X6586848Y-16503984D01*
X6586848Y-16503984D02*
X6548753Y-16503984D01*
X6548753Y-16503984D02*
X6529706Y-16513508D01*
X6529706Y-16513508D02*
X6520182Y-16523031D01*
X6520182Y-16523031D02*
X6510658Y-16542079D01*
X6510658Y-16542079D02*
X6510658Y-16589698D01*
X6510658Y-16589698D02*
X6520182Y-16608746D01*
X6520182Y-16608746D02*
X6529706Y-16618269D01*
X6529706Y-16618269D02*
X6548753Y-16627793D01*
X6548753Y-16627793D02*
X6586848Y-16627793D01*
X6586848Y-16627793D02*
X6605896Y-16618269D01*
X6605896Y-16618269D02*
X6615420Y-16608746D01*
X6615420Y-16608746D02*
X6624944Y-16589698D01*
X6701134Y-16503984D02*
X6701134Y-16542079D01*
X6777325Y-16503984D02*
X6777325Y-16542079D01*
X7072563Y-16780174D02*
X7063039Y-16770650D01*
X7063039Y-16770650D02*
X7043991Y-16742079D01*
X7043991Y-16742079D02*
X7034468Y-16723031D01*
X7034468Y-16723031D02*
X7024944Y-16694460D01*
X7024944Y-16694460D02*
X7015420Y-16646841D01*
X7015420Y-16646841D02*
X7015420Y-16608746D01*
X7015420Y-16608746D02*
X7024944Y-16561127D01*
X7024944Y-16561127D02*
X7034468Y-16532555D01*
X7034468Y-16532555D02*
X7043991Y-16513508D01*
X7043991Y-16513508D02*
X7063039Y-16484936D01*
X7063039Y-16484936D02*
X7072563Y-16475412D01*
X7129706Y-16503984D02*
X7253515Y-16503984D01*
X7253515Y-16503984D02*
X7186848Y-16580174D01*
X7186848Y-16580174D02*
X7215420Y-16580174D01*
X7215420Y-16580174D02*
X7234468Y-16589698D01*
X7234468Y-16589698D02*
X7243991Y-16599222D01*
X7243991Y-16599222D02*
X7253515Y-16618269D01*
X7253515Y-16618269D02*
X7253515Y-16665888D01*
X7253515Y-16665888D02*
X7243991Y-16684936D01*
X7243991Y-16684936D02*
X7234468Y-16694460D01*
X7234468Y-16694460D02*
X7215420Y-16703984D01*
X7215420Y-16703984D02*
X7158277Y-16703984D01*
X7158277Y-16703984D02*
X7139229Y-16694460D01*
X7139229Y-16694460D02*
X7129706Y-16684936D01*
X7491610Y-16703984D02*
X7491610Y-16503984D01*
X7577325Y-16703984D02*
X7577325Y-16599222D01*
X7577325Y-16599222D02*
X7567801Y-16580174D01*
X7567801Y-16580174D02*
X7548753Y-16570650D01*
X7548753Y-16570650D02*
X7520182Y-16570650D01*
X7520182Y-16570650D02*
X7501134Y-16580174D01*
X7501134Y-16580174D02*
X7491610Y-16589698D01*
X7701134Y-16703984D02*
X7682087Y-16694460D01*
X7682087Y-16694460D02*
X7672563Y-16684936D01*
X7672563Y-16684936D02*
X7663039Y-16665888D01*
X7663039Y-16665888D02*
X7663039Y-16608746D01*
X7663039Y-16608746D02*
X7672563Y-16589698D01*
X7672563Y-16589698D02*
X7682087Y-16580174D01*
X7682087Y-16580174D02*
X7701134Y-16570650D01*
X7701134Y-16570650D02*
X7729706Y-16570650D01*
X7729706Y-16570650D02*
X7748753Y-16580174D01*
X7748753Y-16580174D02*
X7758277Y-16589698D01*
X7758277Y-16589698D02*
X7767801Y-16608746D01*
X7767801Y-16608746D02*
X7767801Y-16665888D01*
X7767801Y-16665888D02*
X7758277Y-16684936D01*
X7758277Y-16684936D02*
X7748753Y-16694460D01*
X7748753Y-16694460D02*
X7729706Y-16703984D01*
X7729706Y-16703984D02*
X7701134Y-16703984D01*
X7882087Y-16703984D02*
X7863039Y-16694460D01*
X7863039Y-16694460D02*
X7853515Y-16675412D01*
X7853515Y-16675412D02*
X7853515Y-16503984D01*
X8034468Y-16694460D02*
X8015420Y-16703984D01*
X8015420Y-16703984D02*
X7977325Y-16703984D01*
X7977325Y-16703984D02*
X7958277Y-16694460D01*
X7958277Y-16694460D02*
X7948753Y-16675412D01*
X7948753Y-16675412D02*
X7948753Y-16599222D01*
X7948753Y-16599222D02*
X7958277Y-16580174D01*
X7958277Y-16580174D02*
X7977325Y-16570650D01*
X7977325Y-16570650D02*
X8015420Y-16570650D01*
X8015420Y-16570650D02*
X8034468Y-16580174D01*
X8034468Y-16580174D02*
X8043991Y-16599222D01*
X8043991Y-16599222D02*
X8043991Y-16618269D01*
X8043991Y-16618269D02*
X7948753Y-16637317D01*
X8120182Y-16694460D02*
X8139230Y-16703984D01*
X8139230Y-16703984D02*
X8177325Y-16703984D01*
X8177325Y-16703984D02*
X8196372Y-16694460D01*
X8196372Y-16694460D02*
X8205896Y-16675412D01*
X8205896Y-16675412D02*
X8205896Y-16665888D01*
X8205896Y-16665888D02*
X8196372Y-16646841D01*
X8196372Y-16646841D02*
X8177325Y-16637317D01*
X8177325Y-16637317D02*
X8148753Y-16637317D01*
X8148753Y-16637317D02*
X8129706Y-16627793D01*
X8129706Y-16627793D02*
X8120182Y-16608746D01*
X8120182Y-16608746D02*
X8120182Y-16599222D01*
X8120182Y-16599222D02*
X8129706Y-16580174D01*
X8129706Y-16580174D02*
X8148753Y-16570650D01*
X8148753Y-16570650D02*
X8177325Y-16570650D01*
X8177325Y-16570650D02*
X8196372Y-16580174D01*
X8272563Y-16780174D02*
X8282087Y-16770650D01*
X8282087Y-16770650D02*
X8301134Y-16742079D01*
X8301134Y-16742079D02*
X8310658Y-16723031D01*
X8310658Y-16723031D02*
X8320182Y-16694460D01*
X8320182Y-16694460D02*
X8329706Y-16646841D01*
X8329706Y-16646841D02*
X8329706Y-16608746D01*
X8329706Y-16608746D02*
X8320182Y-16561127D01*
X8320182Y-16561127D02*
X8310658Y-16532555D01*
X8310658Y-16532555D02*
X8301134Y-16513508D01*
X8301134Y-16513508D02*
X8282087Y-16484936D01*
X8282087Y-16484936D02*
X8272563Y-16475412D01*
D15*
X3354500Y-16805000D02*
X3497500Y-16948000D01*
X3497500Y-16805000D02*
X3354500Y-16948000D01*
X3426000Y-16805000D02*
X3426000Y-16948000D01*
X3354500Y-16876500D02*
X3497500Y-16876500D01*
D11*
X3863039Y-16967984D02*
X3748753Y-16967984D01*
X3805896Y-16967984D02*
X3805896Y-16767984D01*
X3805896Y-16767984D02*
X3786848Y-16796555D01*
X3786848Y-16796555D02*
X3767801Y-16815603D01*
X3767801Y-16815603D02*
X3748753Y-16825127D01*
X3948753Y-16948936D02*
X3958277Y-16958460D01*
X3958277Y-16958460D02*
X3948753Y-16967984D01*
X3948753Y-16967984D02*
X3939229Y-16958460D01*
X3939229Y-16958460D02*
X3948753Y-16948936D01*
X3948753Y-16948936D02*
X3948753Y-16967984D01*
X4129705Y-16834650D02*
X4129705Y-16967984D01*
X4082086Y-16758460D02*
X4034467Y-16901317D01*
X4034467Y-16901317D02*
X4158277Y-16901317D01*
X4215420Y-16767984D02*
X4339229Y-16767984D01*
X4339229Y-16767984D02*
X4272563Y-16844174D01*
X4272563Y-16844174D02*
X4301134Y-16844174D01*
X4301134Y-16844174D02*
X4320182Y-16853698D01*
X4320182Y-16853698D02*
X4329705Y-16863222D01*
X4329705Y-16863222D02*
X4339229Y-16882270D01*
X4339229Y-16882270D02*
X4339229Y-16929889D01*
X4339229Y-16929889D02*
X4329705Y-16948936D01*
X4329705Y-16948936D02*
X4320182Y-16958460D01*
X4320182Y-16958460D02*
X4301134Y-16967984D01*
X4301134Y-16967984D02*
X4243991Y-16967984D01*
X4243991Y-16967984D02*
X4224944Y-16958460D01*
X4224944Y-16958460D02*
X4215420Y-16948936D01*
X4463039Y-16767984D02*
X4482086Y-16767984D01*
X4482086Y-16767984D02*
X4501134Y-16777508D01*
X4501134Y-16777508D02*
X4510658Y-16787031D01*
X4510658Y-16787031D02*
X4520182Y-16806079D01*
X4520182Y-16806079D02*
X4529705Y-16844174D01*
X4529705Y-16844174D02*
X4529705Y-16891793D01*
X4529705Y-16891793D02*
X4520182Y-16929889D01*
X4520182Y-16929889D02*
X4510658Y-16948936D01*
X4510658Y-16948936D02*
X4501134Y-16958460D01*
X4501134Y-16958460D02*
X4482086Y-16967984D01*
X4482086Y-16967984D02*
X4463039Y-16967984D01*
X4463039Y-16967984D02*
X4443991Y-16958460D01*
X4443991Y-16958460D02*
X4434467Y-16948936D01*
X4434467Y-16948936D02*
X4424944Y-16929889D01*
X4424944Y-16929889D02*
X4415420Y-16891793D01*
X4415420Y-16891793D02*
X4415420Y-16844174D01*
X4415420Y-16844174D02*
X4424944Y-16806079D01*
X4424944Y-16806079D02*
X4434467Y-16787031D01*
X4434467Y-16787031D02*
X4443991Y-16777508D01*
X4443991Y-16777508D02*
X4463039Y-16767984D01*
X4615420Y-16967984D02*
X4615420Y-16834650D01*
X4615420Y-16853698D02*
X4624944Y-16844174D01*
X4624944Y-16844174D02*
X4643991Y-16834650D01*
X4643991Y-16834650D02*
X4672563Y-16834650D01*
X4672563Y-16834650D02*
X4691610Y-16844174D01*
X4691610Y-16844174D02*
X4701134Y-16863222D01*
X4701134Y-16863222D02*
X4701134Y-16967984D01*
X4701134Y-16863222D02*
X4710658Y-16844174D01*
X4710658Y-16844174D02*
X4729705Y-16834650D01*
X4729705Y-16834650D02*
X4758277Y-16834650D01*
X4758277Y-16834650D02*
X4777325Y-16844174D01*
X4777325Y-16844174D02*
X4786848Y-16863222D01*
X4786848Y-16863222D02*
X4786848Y-16967984D01*
X4882086Y-16967984D02*
X4882086Y-16834650D01*
X4882086Y-16853698D02*
X4891610Y-16844174D01*
X4891610Y-16844174D02*
X4910658Y-16834650D01*
X4910658Y-16834650D02*
X4939229Y-16834650D01*
X4939229Y-16834650D02*
X4958277Y-16844174D01*
X4958277Y-16844174D02*
X4967801Y-16863222D01*
X4967801Y-16863222D02*
X4967801Y-16967984D01*
X4967801Y-16863222D02*
X4977325Y-16844174D01*
X4977325Y-16844174D02*
X4996372Y-16834650D01*
X4996372Y-16834650D02*
X5024944Y-16834650D01*
X5024944Y-16834650D02*
X5043991Y-16844174D01*
X5043991Y-16844174D02*
X5053515Y-16863222D01*
X5053515Y-16863222D02*
X5053515Y-16967984D01*
X5443991Y-16758460D02*
X5272563Y-17015603D01*
X5701134Y-16767984D02*
X5720182Y-16767984D01*
X5720182Y-16767984D02*
X5739229Y-16777508D01*
X5739229Y-16777508D02*
X5748753Y-16787031D01*
X5748753Y-16787031D02*
X5758277Y-16806079D01*
X5758277Y-16806079D02*
X5767801Y-16844174D01*
X5767801Y-16844174D02*
X5767801Y-16891793D01*
X5767801Y-16891793D02*
X5758277Y-16929889D01*
X5758277Y-16929889D02*
X5748753Y-16948936D01*
X5748753Y-16948936D02*
X5739229Y-16958460D01*
X5739229Y-16958460D02*
X5720182Y-16967984D01*
X5720182Y-16967984D02*
X5701134Y-16967984D01*
X5701134Y-16967984D02*
X5682086Y-16958460D01*
X5682086Y-16958460D02*
X5672563Y-16948936D01*
X5672563Y-16948936D02*
X5663039Y-16929889D01*
X5663039Y-16929889D02*
X5653515Y-16891793D01*
X5653515Y-16891793D02*
X5653515Y-16844174D01*
X5653515Y-16844174D02*
X5663039Y-16806079D01*
X5663039Y-16806079D02*
X5672563Y-16787031D01*
X5672563Y-16787031D02*
X5682086Y-16777508D01*
X5682086Y-16777508D02*
X5701134Y-16767984D01*
X5853515Y-16948936D02*
X5863039Y-16958460D01*
X5863039Y-16958460D02*
X5853515Y-16967984D01*
X5853515Y-16967984D02*
X5843991Y-16958460D01*
X5843991Y-16958460D02*
X5853515Y-16948936D01*
X5853515Y-16948936D02*
X5853515Y-16967984D01*
X5986848Y-16767984D02*
X6005896Y-16767984D01*
X6005896Y-16767984D02*
X6024944Y-16777508D01*
X6024944Y-16777508D02*
X6034467Y-16787031D01*
X6034467Y-16787031D02*
X6043991Y-16806079D01*
X6043991Y-16806079D02*
X6053515Y-16844174D01*
X6053515Y-16844174D02*
X6053515Y-16891793D01*
X6053515Y-16891793D02*
X6043991Y-16929889D01*
X6043991Y-16929889D02*
X6034467Y-16948936D01*
X6034467Y-16948936D02*
X6024944Y-16958460D01*
X6024944Y-16958460D02*
X6005896Y-16967984D01*
X6005896Y-16967984D02*
X5986848Y-16967984D01*
X5986848Y-16967984D02*
X5967801Y-16958460D01*
X5967801Y-16958460D02*
X5958277Y-16948936D01*
X5958277Y-16948936D02*
X5948753Y-16929889D01*
X5948753Y-16929889D02*
X5939229Y-16891793D01*
X5939229Y-16891793D02*
X5939229Y-16844174D01*
X5939229Y-16844174D02*
X5948753Y-16806079D01*
X5948753Y-16806079D02*
X5958277Y-16787031D01*
X5958277Y-16787031D02*
X5967801Y-16777508D01*
X5967801Y-16777508D02*
X5986848Y-16767984D01*
X6234467Y-16767984D02*
X6139229Y-16767984D01*
X6139229Y-16767984D02*
X6129706Y-16863222D01*
X6129706Y-16863222D02*
X6139229Y-16853698D01*
X6139229Y-16853698D02*
X6158277Y-16844174D01*
X6158277Y-16844174D02*
X6205896Y-16844174D01*
X6205896Y-16844174D02*
X6224944Y-16853698D01*
X6224944Y-16853698D02*
X6234467Y-16863222D01*
X6234467Y-16863222D02*
X6243991Y-16882270D01*
X6243991Y-16882270D02*
X6243991Y-16929889D01*
X6243991Y-16929889D02*
X6234467Y-16948936D01*
X6234467Y-16948936D02*
X6224944Y-16958460D01*
X6224944Y-16958460D02*
X6205896Y-16967984D01*
X6205896Y-16967984D02*
X6158277Y-16967984D01*
X6158277Y-16967984D02*
X6139229Y-16958460D01*
X6139229Y-16958460D02*
X6129706Y-16948936D01*
X6415420Y-16767984D02*
X6377325Y-16767984D01*
X6377325Y-16767984D02*
X6358277Y-16777508D01*
X6358277Y-16777508D02*
X6348753Y-16787031D01*
X6348753Y-16787031D02*
X6329706Y-16815603D01*
X6329706Y-16815603D02*
X6320182Y-16853698D01*
X6320182Y-16853698D02*
X6320182Y-16929889D01*
X6320182Y-16929889D02*
X6329706Y-16948936D01*
X6329706Y-16948936D02*
X6339229Y-16958460D01*
X6339229Y-16958460D02*
X6358277Y-16967984D01*
X6358277Y-16967984D02*
X6396372Y-16967984D01*
X6396372Y-16967984D02*
X6415420Y-16958460D01*
X6415420Y-16958460D02*
X6424944Y-16948936D01*
X6424944Y-16948936D02*
X6434467Y-16929889D01*
X6434467Y-16929889D02*
X6434467Y-16882270D01*
X6434467Y-16882270D02*
X6424944Y-16863222D01*
X6424944Y-16863222D02*
X6415420Y-16853698D01*
X6415420Y-16853698D02*
X6396372Y-16844174D01*
X6396372Y-16844174D02*
X6358277Y-16844174D01*
X6358277Y-16844174D02*
X6339229Y-16853698D01*
X6339229Y-16853698D02*
X6329706Y-16863222D01*
X6329706Y-16863222D02*
X6320182Y-16882270D01*
X6501134Y-16767984D02*
X6624944Y-16767984D01*
X6624944Y-16767984D02*
X6558277Y-16844174D01*
X6558277Y-16844174D02*
X6586848Y-16844174D01*
X6586848Y-16844174D02*
X6605896Y-16853698D01*
X6605896Y-16853698D02*
X6615420Y-16863222D01*
X6615420Y-16863222D02*
X6624944Y-16882270D01*
X6624944Y-16882270D02*
X6624944Y-16929889D01*
X6624944Y-16929889D02*
X6615420Y-16948936D01*
X6615420Y-16948936D02*
X6605896Y-16958460D01*
X6605896Y-16958460D02*
X6586848Y-16967984D01*
X6586848Y-16967984D02*
X6529706Y-16967984D01*
X6529706Y-16967984D02*
X6510658Y-16958460D01*
X6510658Y-16958460D02*
X6501134Y-16948936D01*
X6701134Y-16767984D02*
X6701134Y-16806079D01*
X6777325Y-16767984D02*
X6777325Y-16806079D01*
X7072563Y-17044174D02*
X7063039Y-17034650D01*
X7063039Y-17034650D02*
X7043991Y-17006079D01*
X7043991Y-17006079D02*
X7034468Y-16987031D01*
X7034468Y-16987031D02*
X7024944Y-16958460D01*
X7024944Y-16958460D02*
X7015420Y-16910841D01*
X7015420Y-16910841D02*
X7015420Y-16872746D01*
X7015420Y-16872746D02*
X7024944Y-16825127D01*
X7024944Y-16825127D02*
X7034468Y-16796555D01*
X7034468Y-16796555D02*
X7043991Y-16777508D01*
X7043991Y-16777508D02*
X7063039Y-16748936D01*
X7063039Y-16748936D02*
X7072563Y-16739412D01*
X7129706Y-16767984D02*
X7253515Y-16767984D01*
X7253515Y-16767984D02*
X7186848Y-16844174D01*
X7186848Y-16844174D02*
X7215420Y-16844174D01*
X7215420Y-16844174D02*
X7234468Y-16853698D01*
X7234468Y-16853698D02*
X7243991Y-16863222D01*
X7243991Y-16863222D02*
X7253515Y-16882270D01*
X7253515Y-16882270D02*
X7253515Y-16929889D01*
X7253515Y-16929889D02*
X7243991Y-16948936D01*
X7243991Y-16948936D02*
X7234468Y-16958460D01*
X7234468Y-16958460D02*
X7215420Y-16967984D01*
X7215420Y-16967984D02*
X7158277Y-16967984D01*
X7158277Y-16967984D02*
X7139229Y-16958460D01*
X7139229Y-16958460D02*
X7129706Y-16948936D01*
X7491610Y-16967984D02*
X7491610Y-16767984D01*
X7577325Y-16967984D02*
X7577325Y-16863222D01*
X7577325Y-16863222D02*
X7567801Y-16844174D01*
X7567801Y-16844174D02*
X7548753Y-16834650D01*
X7548753Y-16834650D02*
X7520182Y-16834650D01*
X7520182Y-16834650D02*
X7501134Y-16844174D01*
X7501134Y-16844174D02*
X7491610Y-16853698D01*
X7701134Y-16967984D02*
X7682087Y-16958460D01*
X7682087Y-16958460D02*
X7672563Y-16948936D01*
X7672563Y-16948936D02*
X7663039Y-16929889D01*
X7663039Y-16929889D02*
X7663039Y-16872746D01*
X7663039Y-16872746D02*
X7672563Y-16853698D01*
X7672563Y-16853698D02*
X7682087Y-16844174D01*
X7682087Y-16844174D02*
X7701134Y-16834650D01*
X7701134Y-16834650D02*
X7729706Y-16834650D01*
X7729706Y-16834650D02*
X7748753Y-16844174D01*
X7748753Y-16844174D02*
X7758277Y-16853698D01*
X7758277Y-16853698D02*
X7767801Y-16872746D01*
X7767801Y-16872746D02*
X7767801Y-16929889D01*
X7767801Y-16929889D02*
X7758277Y-16948936D01*
X7758277Y-16948936D02*
X7748753Y-16958460D01*
X7748753Y-16958460D02*
X7729706Y-16967984D01*
X7729706Y-16967984D02*
X7701134Y-16967984D01*
X7882087Y-16967984D02*
X7863039Y-16958460D01*
X7863039Y-16958460D02*
X7853515Y-16939412D01*
X7853515Y-16939412D02*
X7853515Y-16767984D01*
X8034468Y-16958460D02*
X8015420Y-16967984D01*
X8015420Y-16967984D02*
X7977325Y-16967984D01*
X7977325Y-16967984D02*
X7958277Y-16958460D01*
X7958277Y-16958460D02*
X7948753Y-16939412D01*
X7948753Y-16939412D02*
X7948753Y-16863222D01*
X7948753Y-16863222D02*
X7958277Y-16844174D01*
X7958277Y-16844174D02*
X7977325Y-16834650D01*
X7977325Y-16834650D02*
X8015420Y-16834650D01*
X8015420Y-16834650D02*
X8034468Y-16844174D01*
X8034468Y-16844174D02*
X8043991Y-16863222D01*
X8043991Y-16863222D02*
X8043991Y-16882270D01*
X8043991Y-16882270D02*
X7948753Y-16901317D01*
X8120182Y-16958460D02*
X8139230Y-16967984D01*
X8139230Y-16967984D02*
X8177325Y-16967984D01*
X8177325Y-16967984D02*
X8196372Y-16958460D01*
X8196372Y-16958460D02*
X8205896Y-16939412D01*
X8205896Y-16939412D02*
X8205896Y-16929889D01*
X8205896Y-16929889D02*
X8196372Y-16910841D01*
X8196372Y-16910841D02*
X8177325Y-16901317D01*
X8177325Y-16901317D02*
X8148753Y-16901317D01*
X8148753Y-16901317D02*
X8129706Y-16891793D01*
X8129706Y-16891793D02*
X8120182Y-16872746D01*
X8120182Y-16872746D02*
X8120182Y-16863222D01*
X8120182Y-16863222D02*
X8129706Y-16844174D01*
X8129706Y-16844174D02*
X8148753Y-16834650D01*
X8148753Y-16834650D02*
X8177325Y-16834650D01*
X8177325Y-16834650D02*
X8196372Y-16844174D01*
X8272563Y-17044174D02*
X8282087Y-17034650D01*
X8282087Y-17034650D02*
X8301134Y-17006079D01*
X8301134Y-17006079D02*
X8310658Y-16987031D01*
X8310658Y-16987031D02*
X8320182Y-16958460D01*
X8320182Y-16958460D02*
X8329706Y-16910841D01*
X8329706Y-16910841D02*
X8329706Y-16872746D01*
X8329706Y-16872746D02*
X8320182Y-16825127D01*
X8320182Y-16825127D02*
X8310658Y-16796555D01*
X8310658Y-16796555D02*
X8301134Y-16777508D01*
X8301134Y-16777508D02*
X8282087Y-16748936D01*
X8282087Y-16748936D02*
X8272563Y-16739412D01*
M02*
