G04 #@! TF.GenerationSoftware,KiCad,Pcbnew,7.0.11-7.0.11~ubuntu22.04.1*
G04 #@! TF.CreationDate,2024-10-19T21:35:02+01:00*
G04 #@! TF.ProjectId,MS20-VCF,4d533230-2d56-4434-962e-6b696361645f,rev?*
G04 #@! TF.SameCoordinates,Original*
G04 #@! TF.FileFunction,Legend,Bot*
G04 #@! TF.FilePolarity,Positive*
%FSLAX46Y46*%
G04 Gerber Fmt 4.6, Leading zero omitted, Abs format (unit mm)*
G04 Created by KiCad (PCBNEW 7.0.11-7.0.11~ubuntu22.04.1) date 2024-10-19 21:35:02*
%MOMM*%
%LPD*%
G01*
G04 APERTURE LIST*
%ADD10C,0.120000*%
%ADD11C,0.300000*%
%ADD12C,0.150000*%
%ADD13C,1.600000*%
%ADD14C,4.000000*%
%ADD15C,1.800000*%
%ADD16R,1.600000X1.600000*%
%ADD17O,1.600000X1.600000*%
%ADD18R,1.930000X1.830000*%
%ADD19C,2.130000*%
%ADD20R,1.500000X1.500000*%
%ADD21C,1.500000*%
%ADD22O,3.700000X2.400000*%
%ADD23R,1.800000X1.800000*%
%ADD24C,2.000000*%
%ADD25O,2.000000X2.000000*%
%ADD26C,1.700000*%
%ADD27C,1.440000*%
G04 APERTURE END LIST*
D10*
X42141421Y-81060000D02*
G75*
G03*
X41858579Y-81060000I-141421J0D01*
G01*
X41858579Y-81060000D02*
G75*
G03*
X42141421Y-81060000I141421J0D01*
G01*
D11*
X82928328Y-123571428D02*
X83999757Y-123571428D01*
X83999757Y-123571428D02*
X84214042Y-123499999D01*
X84214042Y-123499999D02*
X84356900Y-123357142D01*
X84356900Y-123357142D02*
X84428328Y-123142856D01*
X84428328Y-123142856D02*
X84428328Y-122999999D01*
X84428328Y-124999999D02*
X84428328Y-124285713D01*
X84428328Y-124285713D02*
X82928328Y-124285713D01*
X84285471Y-126357142D02*
X84356900Y-126285714D01*
X84356900Y-126285714D02*
X84428328Y-126071428D01*
X84428328Y-126071428D02*
X84428328Y-125928571D01*
X84428328Y-125928571D02*
X84356900Y-125714285D01*
X84356900Y-125714285D02*
X84214042Y-125571428D01*
X84214042Y-125571428D02*
X84071185Y-125499999D01*
X84071185Y-125499999D02*
X83785471Y-125428571D01*
X83785471Y-125428571D02*
X83571185Y-125428571D01*
X83571185Y-125428571D02*
X83285471Y-125499999D01*
X83285471Y-125499999D02*
X83142614Y-125571428D01*
X83142614Y-125571428D02*
X82999757Y-125714285D01*
X82999757Y-125714285D02*
X82928328Y-125928571D01*
X82928328Y-125928571D02*
X82928328Y-126071428D01*
X82928328Y-126071428D02*
X82999757Y-126285714D01*
X82999757Y-126285714D02*
X83071185Y-126357142D01*
X82928328Y-127428571D02*
X83999757Y-127428571D01*
X83999757Y-127428571D02*
X84214042Y-127357142D01*
X84214042Y-127357142D02*
X84356900Y-127214285D01*
X84356900Y-127214285D02*
X84428328Y-126999999D01*
X84428328Y-126999999D02*
X84428328Y-126857142D01*
X84428328Y-128857142D02*
X84428328Y-128142856D01*
X84428328Y-128142856D02*
X82928328Y-128142856D01*
X84285471Y-130214285D02*
X84356900Y-130142857D01*
X84356900Y-130142857D02*
X84428328Y-129928571D01*
X84428328Y-129928571D02*
X84428328Y-129785714D01*
X84428328Y-129785714D02*
X84356900Y-129571428D01*
X84356900Y-129571428D02*
X84214042Y-129428571D01*
X84214042Y-129428571D02*
X84071185Y-129357142D01*
X84071185Y-129357142D02*
X83785471Y-129285714D01*
X83785471Y-129285714D02*
X83571185Y-129285714D01*
X83571185Y-129285714D02*
X83285471Y-129357142D01*
X83285471Y-129357142D02*
X83142614Y-129428571D01*
X83142614Y-129428571D02*
X82999757Y-129571428D01*
X82999757Y-129571428D02*
X82928328Y-129785714D01*
X82928328Y-129785714D02*
X82928328Y-129928571D01*
X82928328Y-129928571D02*
X82999757Y-130142857D01*
X82999757Y-130142857D02*
X83071185Y-130214285D01*
X82928328Y-131285714D02*
X83999757Y-131285714D01*
X83999757Y-131285714D02*
X84214042Y-131214285D01*
X84214042Y-131214285D02*
X84356900Y-131071428D01*
X84356900Y-131071428D02*
X84428328Y-130857142D01*
X84428328Y-130857142D02*
X84428328Y-130714285D01*
X84428328Y-132714285D02*
X84428328Y-131999999D01*
X84428328Y-131999999D02*
X82928328Y-131999999D01*
X84285471Y-134071428D02*
X84356900Y-134000000D01*
X84356900Y-134000000D02*
X84428328Y-133785714D01*
X84428328Y-133785714D02*
X84428328Y-133642857D01*
X84428328Y-133642857D02*
X84356900Y-133428571D01*
X84356900Y-133428571D02*
X84214042Y-133285714D01*
X84214042Y-133285714D02*
X84071185Y-133214285D01*
X84071185Y-133214285D02*
X83785471Y-133142857D01*
X83785471Y-133142857D02*
X83571185Y-133142857D01*
X83571185Y-133142857D02*
X83285471Y-133214285D01*
X83285471Y-133214285D02*
X83142614Y-133285714D01*
X83142614Y-133285714D02*
X82999757Y-133428571D01*
X82999757Y-133428571D02*
X82928328Y-133642857D01*
X82928328Y-133642857D02*
X82928328Y-133785714D01*
X82928328Y-133785714D02*
X82999757Y-134000000D01*
X82999757Y-134000000D02*
X83071185Y-134071428D01*
X82928328Y-135142857D02*
X83999757Y-135142857D01*
X83999757Y-135142857D02*
X84214042Y-135071428D01*
X84214042Y-135071428D02*
X84356900Y-134928571D01*
X84356900Y-134928571D02*
X84428328Y-134714285D01*
X84428328Y-134714285D02*
X84428328Y-134571428D01*
X84428328Y-136571428D02*
X84428328Y-135857142D01*
X84428328Y-135857142D02*
X82928328Y-135857142D01*
X84285471Y-137928571D02*
X84356900Y-137857143D01*
X84356900Y-137857143D02*
X84428328Y-137642857D01*
X84428328Y-137642857D02*
X84428328Y-137500000D01*
X84428328Y-137500000D02*
X84356900Y-137285714D01*
X84356900Y-137285714D02*
X84214042Y-137142857D01*
X84214042Y-137142857D02*
X84071185Y-137071428D01*
X84071185Y-137071428D02*
X83785471Y-137000000D01*
X83785471Y-137000000D02*
X83571185Y-137000000D01*
X83571185Y-137000000D02*
X83285471Y-137071428D01*
X83285471Y-137071428D02*
X83142614Y-137142857D01*
X83142614Y-137142857D02*
X82999757Y-137285714D01*
X82999757Y-137285714D02*
X82928328Y-137500000D01*
X82928328Y-137500000D02*
X82928328Y-137642857D01*
X82928328Y-137642857D02*
X82999757Y-137857143D01*
X82999757Y-137857143D02*
X83071185Y-137928571D01*
D12*
X64616666Y-133659580D02*
X64664285Y-133707200D01*
X64664285Y-133707200D02*
X64807142Y-133754819D01*
X64807142Y-133754819D02*
X64902380Y-133754819D01*
X64902380Y-133754819D02*
X65045237Y-133707200D01*
X65045237Y-133707200D02*
X65140475Y-133611961D01*
X65140475Y-133611961D02*
X65188094Y-133516723D01*
X65188094Y-133516723D02*
X65235713Y-133326247D01*
X65235713Y-133326247D02*
X65235713Y-133183390D01*
X65235713Y-133183390D02*
X65188094Y-132992914D01*
X65188094Y-132992914D02*
X65140475Y-132897676D01*
X65140475Y-132897676D02*
X65045237Y-132802438D01*
X65045237Y-132802438D02*
X64902380Y-132754819D01*
X64902380Y-132754819D02*
X64807142Y-132754819D01*
X64807142Y-132754819D02*
X64664285Y-132802438D01*
X64664285Y-132802438D02*
X64616666Y-132850057D01*
X64235713Y-132850057D02*
X64188094Y-132802438D01*
X64188094Y-132802438D02*
X64092856Y-132754819D01*
X64092856Y-132754819D02*
X63854761Y-132754819D01*
X63854761Y-132754819D02*
X63759523Y-132802438D01*
X63759523Y-132802438D02*
X63711904Y-132850057D01*
X63711904Y-132850057D02*
X63664285Y-132945295D01*
X63664285Y-132945295D02*
X63664285Y-133040533D01*
X63664285Y-133040533D02*
X63711904Y-133183390D01*
X63711904Y-133183390D02*
X64283332Y-133754819D01*
X64283332Y-133754819D02*
X63664285Y-133754819D01*
X55711553Y-126859580D02*
X55759172Y-126907200D01*
X55759172Y-126907200D02*
X55902029Y-126954819D01*
X55902029Y-126954819D02*
X55997267Y-126954819D01*
X55997267Y-126954819D02*
X56140124Y-126907200D01*
X56140124Y-126907200D02*
X56235362Y-126811961D01*
X56235362Y-126811961D02*
X56282981Y-126716723D01*
X56282981Y-126716723D02*
X56330600Y-126526247D01*
X56330600Y-126526247D02*
X56330600Y-126383390D01*
X56330600Y-126383390D02*
X56282981Y-126192914D01*
X56282981Y-126192914D02*
X56235362Y-126097676D01*
X56235362Y-126097676D02*
X56140124Y-126002438D01*
X56140124Y-126002438D02*
X55997267Y-125954819D01*
X55997267Y-125954819D02*
X55902029Y-125954819D01*
X55902029Y-125954819D02*
X55759172Y-126002438D01*
X55759172Y-126002438D02*
X55711553Y-126050057D01*
X55378219Y-125954819D02*
X54759172Y-125954819D01*
X54759172Y-125954819D02*
X55092505Y-126335771D01*
X55092505Y-126335771D02*
X54949648Y-126335771D01*
X54949648Y-126335771D02*
X54854410Y-126383390D01*
X54854410Y-126383390D02*
X54806791Y-126431009D01*
X54806791Y-126431009D02*
X54759172Y-126526247D01*
X54759172Y-126526247D02*
X54759172Y-126764342D01*
X54759172Y-126764342D02*
X54806791Y-126859580D01*
X54806791Y-126859580D02*
X54854410Y-126907200D01*
X54854410Y-126907200D02*
X54949648Y-126954819D01*
X54949648Y-126954819D02*
X55235362Y-126954819D01*
X55235362Y-126954819D02*
X55330600Y-126907200D01*
X55330600Y-126907200D02*
X55378219Y-126859580D01*
X52166666Y-81859580D02*
X52214285Y-81907200D01*
X52214285Y-81907200D02*
X52357142Y-81954819D01*
X52357142Y-81954819D02*
X52452380Y-81954819D01*
X52452380Y-81954819D02*
X52595237Y-81907200D01*
X52595237Y-81907200D02*
X52690475Y-81811961D01*
X52690475Y-81811961D02*
X52738094Y-81716723D01*
X52738094Y-81716723D02*
X52785713Y-81526247D01*
X52785713Y-81526247D02*
X52785713Y-81383390D01*
X52785713Y-81383390D02*
X52738094Y-81192914D01*
X52738094Y-81192914D02*
X52690475Y-81097676D01*
X52690475Y-81097676D02*
X52595237Y-81002438D01*
X52595237Y-81002438D02*
X52452380Y-80954819D01*
X52452380Y-80954819D02*
X52357142Y-80954819D01*
X52357142Y-80954819D02*
X52214285Y-81002438D01*
X52214285Y-81002438D02*
X52166666Y-81050057D01*
X51309523Y-80954819D02*
X51499999Y-80954819D01*
X51499999Y-80954819D02*
X51595237Y-81002438D01*
X51595237Y-81002438D02*
X51642856Y-81050057D01*
X51642856Y-81050057D02*
X51738094Y-81192914D01*
X51738094Y-81192914D02*
X51785713Y-81383390D01*
X51785713Y-81383390D02*
X51785713Y-81764342D01*
X51785713Y-81764342D02*
X51738094Y-81859580D01*
X51738094Y-81859580D02*
X51690475Y-81907200D01*
X51690475Y-81907200D02*
X51595237Y-81954819D01*
X51595237Y-81954819D02*
X51404761Y-81954819D01*
X51404761Y-81954819D02*
X51309523Y-81907200D01*
X51309523Y-81907200D02*
X51261904Y-81859580D01*
X51261904Y-81859580D02*
X51214285Y-81764342D01*
X51214285Y-81764342D02*
X51214285Y-81526247D01*
X51214285Y-81526247D02*
X51261904Y-81431009D01*
X51261904Y-81431009D02*
X51309523Y-81383390D01*
X51309523Y-81383390D02*
X51404761Y-81335771D01*
X51404761Y-81335771D02*
X51595237Y-81335771D01*
X51595237Y-81335771D02*
X51690475Y-81383390D01*
X51690475Y-81383390D02*
X51738094Y-81431009D01*
X51738094Y-81431009D02*
X51785713Y-81526247D01*
X82138094Y-140454819D02*
X82138094Y-139454819D01*
X82138094Y-139454819D02*
X81899999Y-139454819D01*
X81899999Y-139454819D02*
X81757142Y-139502438D01*
X81757142Y-139502438D02*
X81661904Y-139597676D01*
X81661904Y-139597676D02*
X81614285Y-139692914D01*
X81614285Y-139692914D02*
X81566666Y-139883390D01*
X81566666Y-139883390D02*
X81566666Y-140026247D01*
X81566666Y-140026247D02*
X81614285Y-140216723D01*
X81614285Y-140216723D02*
X81661904Y-140311961D01*
X81661904Y-140311961D02*
X81757142Y-140407200D01*
X81757142Y-140407200D02*
X81899999Y-140454819D01*
X81899999Y-140454819D02*
X82138094Y-140454819D01*
X80614285Y-140454819D02*
X81185713Y-140454819D01*
X80899999Y-140454819D02*
X80899999Y-139454819D01*
X80899999Y-139454819D02*
X80995237Y-139597676D01*
X80995237Y-139597676D02*
X81090475Y-139692914D01*
X81090475Y-139692914D02*
X81185713Y-139740533D01*
X55533333Y-132431009D02*
X55866666Y-132431009D01*
X55866666Y-132954819D02*
X55866666Y-131954819D01*
X55866666Y-131954819D02*
X55390476Y-131954819D01*
X54676190Y-132431009D02*
X54533333Y-132478628D01*
X54533333Y-132478628D02*
X54485714Y-132526247D01*
X54485714Y-132526247D02*
X54438095Y-132621485D01*
X54438095Y-132621485D02*
X54438095Y-132764342D01*
X54438095Y-132764342D02*
X54485714Y-132859580D01*
X54485714Y-132859580D02*
X54533333Y-132907200D01*
X54533333Y-132907200D02*
X54628571Y-132954819D01*
X54628571Y-132954819D02*
X55009523Y-132954819D01*
X55009523Y-132954819D02*
X55009523Y-131954819D01*
X55009523Y-131954819D02*
X54676190Y-131954819D01*
X54676190Y-131954819D02*
X54580952Y-132002438D01*
X54580952Y-132002438D02*
X54533333Y-132050057D01*
X54533333Y-132050057D02*
X54485714Y-132145295D01*
X54485714Y-132145295D02*
X54485714Y-132240533D01*
X54485714Y-132240533D02*
X54533333Y-132335771D01*
X54533333Y-132335771D02*
X54580952Y-132383390D01*
X54580952Y-132383390D02*
X54676190Y-132431009D01*
X54676190Y-132431009D02*
X55009523Y-132431009D01*
X54057142Y-132050057D02*
X54009523Y-132002438D01*
X54009523Y-132002438D02*
X53914285Y-131954819D01*
X53914285Y-131954819D02*
X53676190Y-131954819D01*
X53676190Y-131954819D02*
X53580952Y-132002438D01*
X53580952Y-132002438D02*
X53533333Y-132050057D01*
X53533333Y-132050057D02*
X53485714Y-132145295D01*
X53485714Y-132145295D02*
X53485714Y-132240533D01*
X53485714Y-132240533D02*
X53533333Y-132383390D01*
X53533333Y-132383390D02*
X54104761Y-132954819D01*
X54104761Y-132954819D02*
X53485714Y-132954819D01*
X60333333Y-135254819D02*
X60333333Y-135969104D01*
X60333333Y-135969104D02*
X60380952Y-136111961D01*
X60380952Y-136111961D02*
X60476190Y-136207200D01*
X60476190Y-136207200D02*
X60619047Y-136254819D01*
X60619047Y-136254819D02*
X60714285Y-136254819D01*
X59380952Y-135254819D02*
X59857142Y-135254819D01*
X59857142Y-135254819D02*
X59904761Y-135731009D01*
X59904761Y-135731009D02*
X59857142Y-135683390D01*
X59857142Y-135683390D02*
X59761904Y-135635771D01*
X59761904Y-135635771D02*
X59523809Y-135635771D01*
X59523809Y-135635771D02*
X59428571Y-135683390D01*
X59428571Y-135683390D02*
X59380952Y-135731009D01*
X59380952Y-135731009D02*
X59333333Y-135826247D01*
X59333333Y-135826247D02*
X59333333Y-136064342D01*
X59333333Y-136064342D02*
X59380952Y-136159580D01*
X59380952Y-136159580D02*
X59428571Y-136207200D01*
X59428571Y-136207200D02*
X59523809Y-136254819D01*
X59523809Y-136254819D02*
X59761904Y-136254819D01*
X59761904Y-136254819D02*
X59857142Y-136207200D01*
X59857142Y-136207200D02*
X59904761Y-136159580D01*
X82815714Y-48169819D02*
X83149047Y-47693628D01*
X83387142Y-48169819D02*
X83387142Y-47169819D01*
X83387142Y-47169819D02*
X83006190Y-47169819D01*
X83006190Y-47169819D02*
X82910952Y-47217438D01*
X82910952Y-47217438D02*
X82863333Y-47265057D01*
X82863333Y-47265057D02*
X82815714Y-47360295D01*
X82815714Y-47360295D02*
X82815714Y-47503152D01*
X82815714Y-47503152D02*
X82863333Y-47598390D01*
X82863333Y-47598390D02*
X82910952Y-47646009D01*
X82910952Y-47646009D02*
X83006190Y-47693628D01*
X83006190Y-47693628D02*
X83387142Y-47693628D01*
X82006190Y-48122200D02*
X82101428Y-48169819D01*
X82101428Y-48169819D02*
X82291904Y-48169819D01*
X82291904Y-48169819D02*
X82387142Y-48122200D01*
X82387142Y-48122200D02*
X82434761Y-48026961D01*
X82434761Y-48026961D02*
X82434761Y-47646009D01*
X82434761Y-47646009D02*
X82387142Y-47550771D01*
X82387142Y-47550771D02*
X82291904Y-47503152D01*
X82291904Y-47503152D02*
X82101428Y-47503152D01*
X82101428Y-47503152D02*
X82006190Y-47550771D01*
X82006190Y-47550771D02*
X81958571Y-47646009D01*
X81958571Y-47646009D02*
X81958571Y-47741247D01*
X81958571Y-47741247D02*
X82434761Y-47836485D01*
X81577618Y-48122200D02*
X81482380Y-48169819D01*
X81482380Y-48169819D02*
X81291904Y-48169819D01*
X81291904Y-48169819D02*
X81196666Y-48122200D01*
X81196666Y-48122200D02*
X81149047Y-48026961D01*
X81149047Y-48026961D02*
X81149047Y-47979342D01*
X81149047Y-47979342D02*
X81196666Y-47884104D01*
X81196666Y-47884104D02*
X81291904Y-47836485D01*
X81291904Y-47836485D02*
X81434761Y-47836485D01*
X81434761Y-47836485D02*
X81529999Y-47788866D01*
X81529999Y-47788866D02*
X81577618Y-47693628D01*
X81577618Y-47693628D02*
X81577618Y-47646009D01*
X81577618Y-47646009D02*
X81529999Y-47550771D01*
X81529999Y-47550771D02*
X81434761Y-47503152D01*
X81434761Y-47503152D02*
X81291904Y-47503152D01*
X81291904Y-47503152D02*
X81196666Y-47550771D01*
X80244285Y-48169819D02*
X80720475Y-48169819D01*
X80720475Y-48169819D02*
X80720475Y-47169819D01*
X80006189Y-47503152D02*
X79768094Y-48169819D01*
X79768094Y-48169819D02*
X79529999Y-47503152D01*
X78625237Y-48169819D02*
X79196665Y-48169819D01*
X78910951Y-48169819D02*
X78910951Y-47169819D01*
X78910951Y-47169819D02*
X79006189Y-47312676D01*
X79006189Y-47312676D02*
X79101427Y-47407914D01*
X79101427Y-47407914D02*
X79196665Y-47455533D01*
X83172857Y-58709819D02*
X83506190Y-58233628D01*
X83744285Y-58709819D02*
X83744285Y-57709819D01*
X83744285Y-57709819D02*
X83363333Y-57709819D01*
X83363333Y-57709819D02*
X83268095Y-57757438D01*
X83268095Y-57757438D02*
X83220476Y-57805057D01*
X83220476Y-57805057D02*
X83172857Y-57900295D01*
X83172857Y-57900295D02*
X83172857Y-58043152D01*
X83172857Y-58043152D02*
X83220476Y-58138390D01*
X83220476Y-58138390D02*
X83268095Y-58186009D01*
X83268095Y-58186009D02*
X83363333Y-58233628D01*
X83363333Y-58233628D02*
X83744285Y-58233628D01*
X82363333Y-58662200D02*
X82458571Y-58709819D01*
X82458571Y-58709819D02*
X82649047Y-58709819D01*
X82649047Y-58709819D02*
X82744285Y-58662200D01*
X82744285Y-58662200D02*
X82791904Y-58566961D01*
X82791904Y-58566961D02*
X82791904Y-58186009D01*
X82791904Y-58186009D02*
X82744285Y-58090771D01*
X82744285Y-58090771D02*
X82649047Y-58043152D01*
X82649047Y-58043152D02*
X82458571Y-58043152D01*
X82458571Y-58043152D02*
X82363333Y-58090771D01*
X82363333Y-58090771D02*
X82315714Y-58186009D01*
X82315714Y-58186009D02*
X82315714Y-58281247D01*
X82315714Y-58281247D02*
X82791904Y-58376485D01*
X81934761Y-58662200D02*
X81839523Y-58709819D01*
X81839523Y-58709819D02*
X81649047Y-58709819D01*
X81649047Y-58709819D02*
X81553809Y-58662200D01*
X81553809Y-58662200D02*
X81506190Y-58566961D01*
X81506190Y-58566961D02*
X81506190Y-58519342D01*
X81506190Y-58519342D02*
X81553809Y-58424104D01*
X81553809Y-58424104D02*
X81649047Y-58376485D01*
X81649047Y-58376485D02*
X81791904Y-58376485D01*
X81791904Y-58376485D02*
X81887142Y-58328866D01*
X81887142Y-58328866D02*
X81934761Y-58233628D01*
X81934761Y-58233628D02*
X81934761Y-58186009D01*
X81934761Y-58186009D02*
X81887142Y-58090771D01*
X81887142Y-58090771D02*
X81791904Y-58043152D01*
X81791904Y-58043152D02*
X81649047Y-58043152D01*
X81649047Y-58043152D02*
X81553809Y-58090771D01*
X81220475Y-57709819D02*
X80887142Y-58709819D01*
X80887142Y-58709819D02*
X80553809Y-57709819D01*
X80077618Y-58709819D02*
X80172856Y-58662200D01*
X80172856Y-58662200D02*
X80220475Y-58614580D01*
X80220475Y-58614580D02*
X80268094Y-58519342D01*
X80268094Y-58519342D02*
X80268094Y-58233628D01*
X80268094Y-58233628D02*
X80220475Y-58138390D01*
X80220475Y-58138390D02*
X80172856Y-58090771D01*
X80172856Y-58090771D02*
X80077618Y-58043152D01*
X80077618Y-58043152D02*
X79934761Y-58043152D01*
X79934761Y-58043152D02*
X79839523Y-58090771D01*
X79839523Y-58090771D02*
X79791904Y-58138390D01*
X79791904Y-58138390D02*
X79744285Y-58233628D01*
X79744285Y-58233628D02*
X79744285Y-58519342D01*
X79744285Y-58519342D02*
X79791904Y-58614580D01*
X79791904Y-58614580D02*
X79839523Y-58662200D01*
X79839523Y-58662200D02*
X79934761Y-58709819D01*
X79934761Y-58709819D02*
X80077618Y-58709819D01*
X79172856Y-58709819D02*
X79268094Y-58662200D01*
X79268094Y-58662200D02*
X79315713Y-58566961D01*
X79315713Y-58566961D02*
X79315713Y-57709819D01*
X78268094Y-58709819D02*
X78839522Y-58709819D01*
X78553808Y-58709819D02*
X78553808Y-57709819D01*
X78553808Y-57709819D02*
X78649046Y-57852676D01*
X78649046Y-57852676D02*
X78744284Y-57947914D01*
X78744284Y-57947914D02*
X78839522Y-57995533D01*
X77354819Y-137313333D02*
X76878628Y-136980000D01*
X77354819Y-136741905D02*
X76354819Y-136741905D01*
X76354819Y-136741905D02*
X76354819Y-137122857D01*
X76354819Y-137122857D02*
X76402438Y-137218095D01*
X76402438Y-137218095D02*
X76450057Y-137265714D01*
X76450057Y-137265714D02*
X76545295Y-137313333D01*
X76545295Y-137313333D02*
X76688152Y-137313333D01*
X76688152Y-137313333D02*
X76783390Y-137265714D01*
X76783390Y-137265714D02*
X76831009Y-137218095D01*
X76831009Y-137218095D02*
X76878628Y-137122857D01*
X76878628Y-137122857D02*
X76878628Y-136741905D01*
X76688152Y-138170476D02*
X77354819Y-138170476D01*
X76307200Y-137932381D02*
X77021485Y-137694286D01*
X77021485Y-137694286D02*
X77021485Y-138313333D01*
X72931009Y-137866666D02*
X72931009Y-137533333D01*
X73454819Y-137533333D02*
X72454819Y-137533333D01*
X72454819Y-137533333D02*
X72454819Y-138009523D01*
X72931009Y-138723809D02*
X72978628Y-138866666D01*
X72978628Y-138866666D02*
X73026247Y-138914285D01*
X73026247Y-138914285D02*
X73121485Y-138961904D01*
X73121485Y-138961904D02*
X73264342Y-138961904D01*
X73264342Y-138961904D02*
X73359580Y-138914285D01*
X73359580Y-138914285D02*
X73407200Y-138866666D01*
X73407200Y-138866666D02*
X73454819Y-138771428D01*
X73454819Y-138771428D02*
X73454819Y-138390476D01*
X73454819Y-138390476D02*
X72454819Y-138390476D01*
X72454819Y-138390476D02*
X72454819Y-138723809D01*
X72454819Y-138723809D02*
X72502438Y-138819047D01*
X72502438Y-138819047D02*
X72550057Y-138866666D01*
X72550057Y-138866666D02*
X72645295Y-138914285D01*
X72645295Y-138914285D02*
X72740533Y-138914285D01*
X72740533Y-138914285D02*
X72835771Y-138866666D01*
X72835771Y-138866666D02*
X72883390Y-138819047D01*
X72883390Y-138819047D02*
X72931009Y-138723809D01*
X72931009Y-138723809D02*
X72931009Y-138390476D01*
X73454819Y-139914285D02*
X73454819Y-139342857D01*
X73454819Y-139628571D02*
X72454819Y-139628571D01*
X72454819Y-139628571D02*
X72597676Y-139533333D01*
X72597676Y-139533333D02*
X72692914Y-139438095D01*
X72692914Y-139438095D02*
X72740533Y-139342857D01*
X46761904Y-81354819D02*
X46761904Y-82164342D01*
X46761904Y-82164342D02*
X46714285Y-82259580D01*
X46714285Y-82259580D02*
X46666666Y-82307200D01*
X46666666Y-82307200D02*
X46571428Y-82354819D01*
X46571428Y-82354819D02*
X46380952Y-82354819D01*
X46380952Y-82354819D02*
X46285714Y-82307200D01*
X46285714Y-82307200D02*
X46238095Y-82259580D01*
X46238095Y-82259580D02*
X46190476Y-82164342D01*
X46190476Y-82164342D02*
X46190476Y-81354819D01*
X45190476Y-82354819D02*
X45761904Y-82354819D01*
X45476190Y-82354819D02*
X45476190Y-81354819D01*
X45476190Y-81354819D02*
X45571428Y-81497676D01*
X45571428Y-81497676D02*
X45666666Y-81592914D01*
X45666666Y-81592914D02*
X45761904Y-81640533D01*
X49666666Y-86359580D02*
X49714285Y-86407200D01*
X49714285Y-86407200D02*
X49857142Y-86454819D01*
X49857142Y-86454819D02*
X49952380Y-86454819D01*
X49952380Y-86454819D02*
X50095237Y-86407200D01*
X50095237Y-86407200D02*
X50190475Y-86311961D01*
X50190475Y-86311961D02*
X50238094Y-86216723D01*
X50238094Y-86216723D02*
X50285713Y-86026247D01*
X50285713Y-86026247D02*
X50285713Y-85883390D01*
X50285713Y-85883390D02*
X50238094Y-85692914D01*
X50238094Y-85692914D02*
X50190475Y-85597676D01*
X50190475Y-85597676D02*
X50095237Y-85502438D01*
X50095237Y-85502438D02*
X49952380Y-85454819D01*
X49952380Y-85454819D02*
X49857142Y-85454819D01*
X49857142Y-85454819D02*
X49714285Y-85502438D01*
X49714285Y-85502438D02*
X49666666Y-85550057D01*
X48761904Y-85454819D02*
X49238094Y-85454819D01*
X49238094Y-85454819D02*
X49285713Y-85931009D01*
X49285713Y-85931009D02*
X49238094Y-85883390D01*
X49238094Y-85883390D02*
X49142856Y-85835771D01*
X49142856Y-85835771D02*
X48904761Y-85835771D01*
X48904761Y-85835771D02*
X48809523Y-85883390D01*
X48809523Y-85883390D02*
X48761904Y-85931009D01*
X48761904Y-85931009D02*
X48714285Y-86026247D01*
X48714285Y-86026247D02*
X48714285Y-86264342D01*
X48714285Y-86264342D02*
X48761904Y-86359580D01*
X48761904Y-86359580D02*
X48809523Y-86407200D01*
X48809523Y-86407200D02*
X48904761Y-86454819D01*
X48904761Y-86454819D02*
X49142856Y-86454819D01*
X49142856Y-86454819D02*
X49238094Y-86407200D01*
X49238094Y-86407200D02*
X49285713Y-86359580D01*
X53859580Y-76433333D02*
X53907200Y-76385714D01*
X53907200Y-76385714D02*
X53954819Y-76242857D01*
X53954819Y-76242857D02*
X53954819Y-76147619D01*
X53954819Y-76147619D02*
X53907200Y-76004762D01*
X53907200Y-76004762D02*
X53811961Y-75909524D01*
X53811961Y-75909524D02*
X53716723Y-75861905D01*
X53716723Y-75861905D02*
X53526247Y-75814286D01*
X53526247Y-75814286D02*
X53383390Y-75814286D01*
X53383390Y-75814286D02*
X53192914Y-75861905D01*
X53192914Y-75861905D02*
X53097676Y-75909524D01*
X53097676Y-75909524D02*
X53002438Y-76004762D01*
X53002438Y-76004762D02*
X52954819Y-76147619D01*
X52954819Y-76147619D02*
X52954819Y-76242857D01*
X52954819Y-76242857D02*
X53002438Y-76385714D01*
X53002438Y-76385714D02*
X53050057Y-76433333D01*
X53954819Y-76909524D02*
X53954819Y-77100000D01*
X53954819Y-77100000D02*
X53907200Y-77195238D01*
X53907200Y-77195238D02*
X53859580Y-77242857D01*
X53859580Y-77242857D02*
X53716723Y-77338095D01*
X53716723Y-77338095D02*
X53526247Y-77385714D01*
X53526247Y-77385714D02*
X53145295Y-77385714D01*
X53145295Y-77385714D02*
X53050057Y-77338095D01*
X53050057Y-77338095D02*
X53002438Y-77290476D01*
X53002438Y-77290476D02*
X52954819Y-77195238D01*
X52954819Y-77195238D02*
X52954819Y-77004762D01*
X52954819Y-77004762D02*
X53002438Y-76909524D01*
X53002438Y-76909524D02*
X53050057Y-76861905D01*
X53050057Y-76861905D02*
X53145295Y-76814286D01*
X53145295Y-76814286D02*
X53383390Y-76814286D01*
X53383390Y-76814286D02*
X53478628Y-76861905D01*
X53478628Y-76861905D02*
X53526247Y-76909524D01*
X53526247Y-76909524D02*
X53573866Y-77004762D01*
X53573866Y-77004762D02*
X53573866Y-77195238D01*
X53573866Y-77195238D02*
X53526247Y-77290476D01*
X53526247Y-77290476D02*
X53478628Y-77338095D01*
X53478628Y-77338095D02*
X53383390Y-77385714D01*
X38559580Y-75957142D02*
X38607200Y-75909523D01*
X38607200Y-75909523D02*
X38654819Y-75766666D01*
X38654819Y-75766666D02*
X38654819Y-75671428D01*
X38654819Y-75671428D02*
X38607200Y-75528571D01*
X38607200Y-75528571D02*
X38511961Y-75433333D01*
X38511961Y-75433333D02*
X38416723Y-75385714D01*
X38416723Y-75385714D02*
X38226247Y-75338095D01*
X38226247Y-75338095D02*
X38083390Y-75338095D01*
X38083390Y-75338095D02*
X37892914Y-75385714D01*
X37892914Y-75385714D02*
X37797676Y-75433333D01*
X37797676Y-75433333D02*
X37702438Y-75528571D01*
X37702438Y-75528571D02*
X37654819Y-75671428D01*
X37654819Y-75671428D02*
X37654819Y-75766666D01*
X37654819Y-75766666D02*
X37702438Y-75909523D01*
X37702438Y-75909523D02*
X37750057Y-75957142D01*
X38654819Y-76909523D02*
X38654819Y-76338095D01*
X38654819Y-76623809D02*
X37654819Y-76623809D01*
X37654819Y-76623809D02*
X37797676Y-76528571D01*
X37797676Y-76528571D02*
X37892914Y-76433333D01*
X37892914Y-76433333D02*
X37940533Y-76338095D01*
X37654819Y-77528571D02*
X37654819Y-77623809D01*
X37654819Y-77623809D02*
X37702438Y-77719047D01*
X37702438Y-77719047D02*
X37750057Y-77766666D01*
X37750057Y-77766666D02*
X37845295Y-77814285D01*
X37845295Y-77814285D02*
X38035771Y-77861904D01*
X38035771Y-77861904D02*
X38273866Y-77861904D01*
X38273866Y-77861904D02*
X38464342Y-77814285D01*
X38464342Y-77814285D02*
X38559580Y-77766666D01*
X38559580Y-77766666D02*
X38607200Y-77719047D01*
X38607200Y-77719047D02*
X38654819Y-77623809D01*
X38654819Y-77623809D02*
X38654819Y-77528571D01*
X38654819Y-77528571D02*
X38607200Y-77433333D01*
X38607200Y-77433333D02*
X38559580Y-77385714D01*
X38559580Y-77385714D02*
X38464342Y-77338095D01*
X38464342Y-77338095D02*
X38273866Y-77290476D01*
X38273866Y-77290476D02*
X38035771Y-77290476D01*
X38035771Y-77290476D02*
X37845295Y-77338095D01*
X37845295Y-77338095D02*
X37750057Y-77385714D01*
X37750057Y-77385714D02*
X37702438Y-77433333D01*
X37702438Y-77433333D02*
X37654819Y-77528571D01*
D10*
X66534112Y-132040000D02*
X66534112Y-133414000D01*
X66174112Y-132040000D02*
X66174112Y-133247000D01*
X66654112Y-128545000D02*
X66654112Y-129960000D01*
X65494112Y-129301000D02*
X65494112Y-129960000D01*
X70009887Y-129275000D02*
X70009887Y-129775000D01*
X67255112Y-128427000D02*
X67255112Y-129960000D01*
X66014112Y-132040000D02*
X66014112Y-133149000D01*
X65094112Y-129902000D02*
X65094112Y-132098000D01*
X65374112Y-129446000D02*
X65374112Y-132554000D01*
X66374112Y-128652000D02*
X66374112Y-129960000D01*
X64974112Y-130195000D02*
X64974112Y-131805000D01*
X66855112Y-128489000D02*
X66855112Y-129960000D01*
X66614112Y-128558000D02*
X66614112Y-129960000D01*
X67015112Y-128457000D02*
X67015112Y-129960000D01*
X65534112Y-129257000D02*
X65534112Y-129960000D01*
X64894112Y-130482000D02*
X64894112Y-131518000D01*
X65454112Y-129347000D02*
X65454112Y-129960000D01*
X65574112Y-132040000D02*
X65574112Y-132785000D01*
X67015112Y-132040000D02*
X67015112Y-133543000D01*
X67455112Y-128420000D02*
X67455112Y-129960000D01*
X66454112Y-128618000D02*
X66454112Y-129960000D01*
X66294112Y-128690000D02*
X66294112Y-129960000D01*
X67095112Y-132040000D02*
X67095112Y-133556000D01*
X65454112Y-132040000D02*
X65454112Y-132653000D01*
X65254112Y-129617000D02*
X65254112Y-132383000D01*
X65854112Y-128965000D02*
X65854112Y-129960000D01*
X67415112Y-128420000D02*
X67415112Y-129960000D01*
X67415112Y-132040000D02*
X67415112Y-133580000D01*
X65294112Y-129557000D02*
X65294112Y-132443000D01*
X66254112Y-128710000D02*
X66254112Y-129960000D01*
X67295112Y-132040000D02*
X67295112Y-133576000D01*
X66334112Y-128671000D02*
X66334112Y-129960000D01*
X65534112Y-132040000D02*
X65534112Y-132743000D01*
X66815112Y-128499000D02*
X66815112Y-129960000D01*
X67295112Y-128424000D02*
X67295112Y-129960000D01*
X66574112Y-128572000D02*
X66574112Y-129960000D01*
X65774112Y-132040000D02*
X65774112Y-132971000D01*
X65334112Y-129500000D02*
X65334112Y-132500000D01*
X66895112Y-128480000D02*
X66895112Y-129960000D01*
X66895112Y-132040000D02*
X66895112Y-133520000D01*
X67215112Y-132040000D02*
X67215112Y-133569000D01*
X66775112Y-132040000D02*
X66775112Y-133491000D01*
X66374112Y-132040000D02*
X66374112Y-133348000D01*
X67175112Y-132040000D02*
X67175112Y-133565000D01*
X66134112Y-128776000D02*
X66134112Y-129960000D01*
X65934112Y-128905000D02*
X65934112Y-129960000D01*
X66134112Y-132040000D02*
X66134112Y-133224000D01*
X64854112Y-130716000D02*
X64854112Y-131284000D01*
X67055112Y-132040000D02*
X67055112Y-133550000D01*
X67335112Y-128422000D02*
X67335112Y-129960000D01*
X66734112Y-132040000D02*
X66734112Y-133480000D01*
X66694112Y-128532000D02*
X66694112Y-129960000D01*
X66054112Y-128825000D02*
X66054112Y-129960000D01*
X67135112Y-128439000D02*
X67135112Y-129960000D01*
X67375112Y-128421000D02*
X67375112Y-129960000D01*
X66654112Y-132040000D02*
X66654112Y-133455000D01*
X65174112Y-129749000D02*
X65174112Y-132251000D01*
X66014112Y-128851000D02*
X66014112Y-129960000D01*
X66174112Y-128753000D02*
X66174112Y-129960000D01*
X65134112Y-129822000D02*
X65134112Y-132178000D01*
X65774112Y-129029000D02*
X65774112Y-129960000D01*
X66414112Y-132040000D02*
X66414112Y-133365000D01*
X65894112Y-128935000D02*
X65894112Y-129960000D01*
X65694112Y-132040000D02*
X65694112Y-132901000D01*
X66414112Y-128635000D02*
X66414112Y-129960000D01*
X66935112Y-132040000D02*
X66935112Y-133528000D01*
X67255112Y-132040000D02*
X67255112Y-133573000D01*
X66094112Y-128800000D02*
X66094112Y-129960000D01*
X65214112Y-129681000D02*
X65214112Y-132319000D01*
X66214112Y-128732000D02*
X66214112Y-129960000D01*
X65654112Y-129136000D02*
X65654112Y-129960000D01*
X66494112Y-132040000D02*
X66494112Y-133398000D01*
X65614112Y-132040000D02*
X65614112Y-132826000D01*
X66454112Y-132040000D02*
X66454112Y-133382000D01*
X66815112Y-132040000D02*
X66815112Y-133501000D01*
X66574112Y-132040000D02*
X66574112Y-133428000D01*
X67095112Y-128444000D02*
X67095112Y-129960000D01*
X67135112Y-132040000D02*
X67135112Y-133561000D01*
X65494112Y-132040000D02*
X65494112Y-132699000D01*
X67055112Y-128450000D02*
X67055112Y-129960000D01*
X67335112Y-132040000D02*
X67335112Y-133578000D01*
X67455112Y-132040000D02*
X67455112Y-133580000D01*
X66334112Y-132040000D02*
X66334112Y-133329000D01*
X65614112Y-129174000D02*
X65614112Y-129960000D01*
X65934112Y-132040000D02*
X65934112Y-133095000D01*
X65894112Y-132040000D02*
X65894112Y-133065000D01*
X66054112Y-132040000D02*
X66054112Y-133175000D01*
X65974112Y-128878000D02*
X65974112Y-129960000D01*
X65974112Y-132040000D02*
X65974112Y-133122000D01*
X66094112Y-132040000D02*
X66094112Y-133200000D01*
X65854112Y-132040000D02*
X65854112Y-133035000D01*
X66855112Y-132040000D02*
X66855112Y-133511000D01*
X66214112Y-132040000D02*
X66214112Y-133268000D01*
X65574112Y-129215000D02*
X65574112Y-129960000D01*
X66734112Y-128520000D02*
X66734112Y-129960000D01*
X65414112Y-129395000D02*
X65414112Y-132605000D01*
X66494112Y-128602000D02*
X66494112Y-129960000D01*
X65054112Y-129989000D02*
X65054112Y-132011000D01*
X66975112Y-128464000D02*
X66975112Y-129960000D01*
X65814112Y-128996000D02*
X65814112Y-129960000D01*
X70259887Y-129525000D02*
X69759887Y-129525000D01*
X65654112Y-132040000D02*
X65654112Y-132864000D01*
X67175112Y-128435000D02*
X67175112Y-129960000D01*
X65734112Y-129063000D02*
X65734112Y-129960000D01*
X66254112Y-132040000D02*
X66254112Y-133290000D01*
X65734112Y-132040000D02*
X65734112Y-132937000D01*
X65014112Y-130085000D02*
X65014112Y-131915000D01*
X64934112Y-130323000D02*
X64934112Y-131677000D01*
X65814112Y-132040000D02*
X65814112Y-133004000D01*
X66935112Y-128472000D02*
X66935112Y-129960000D01*
X67215112Y-128431000D02*
X67215112Y-129960000D01*
X67375112Y-132040000D02*
X67375112Y-133579000D01*
X66534112Y-128586000D02*
X66534112Y-129960000D01*
X66614112Y-132040000D02*
X66614112Y-133442000D01*
X66975112Y-132040000D02*
X66975112Y-133536000D01*
X66694112Y-132040000D02*
X66694112Y-133468000D01*
X66294112Y-132040000D02*
X66294112Y-133310000D01*
X66775112Y-128509000D02*
X66775112Y-129960000D01*
X65694112Y-129099000D02*
X65694112Y-129960000D01*
X70075112Y-131000000D02*
G75*
G03*
X64835112Y-131000000I-2620000J0D01*
G01*
X64835112Y-131000000D02*
G75*
G03*
X70075112Y-131000000I2620000J0D01*
G01*
X51099000Y-125040000D02*
X51099000Y-126175000D01*
X52500000Y-125040000D02*
X52500000Y-126580000D01*
X50299000Y-122617000D02*
X50299000Y-125383000D01*
X52380000Y-121422000D02*
X52380000Y-122960000D01*
X52300000Y-121427000D02*
X52300000Y-122960000D01*
X51579000Y-125040000D02*
X51579000Y-126414000D01*
X50859000Y-121996000D02*
X50859000Y-122960000D01*
X50259000Y-122681000D02*
X50259000Y-125319000D01*
X50939000Y-125040000D02*
X50939000Y-126065000D01*
X50699000Y-122136000D02*
X50699000Y-122960000D01*
X49939000Y-123482000D02*
X49939000Y-124518000D01*
X51900000Y-125040000D02*
X51900000Y-126511000D01*
X51179000Y-121776000D02*
X51179000Y-122960000D01*
X50139000Y-122902000D02*
X50139000Y-125098000D01*
X51659000Y-121558000D02*
X51659000Y-122960000D01*
X51299000Y-125040000D02*
X51299000Y-126290000D01*
X51259000Y-121732000D02*
X51259000Y-122960000D01*
X52380000Y-125040000D02*
X52380000Y-126578000D01*
X50499000Y-122347000D02*
X50499000Y-122960000D01*
X51860000Y-121499000D02*
X51860000Y-122960000D01*
X50979000Y-125040000D02*
X50979000Y-126095000D01*
X50819000Y-125040000D02*
X50819000Y-125971000D01*
X50059000Y-123085000D02*
X50059000Y-124915000D01*
X51139000Y-125040000D02*
X51139000Y-126200000D01*
X50899000Y-121965000D02*
X50899000Y-122960000D01*
X52420000Y-125040000D02*
X52420000Y-126579000D01*
X50859000Y-125040000D02*
X50859000Y-126004000D01*
X50499000Y-125040000D02*
X50499000Y-125653000D01*
X52460000Y-125040000D02*
X52460000Y-126580000D01*
X52460000Y-121420000D02*
X52460000Y-122960000D01*
X51779000Y-121520000D02*
X51779000Y-122960000D01*
X51019000Y-125040000D02*
X51019000Y-126122000D01*
X50379000Y-122500000D02*
X50379000Y-125500000D01*
X50739000Y-125040000D02*
X50739000Y-125901000D01*
X52180000Y-121439000D02*
X52180000Y-122960000D01*
X51379000Y-125040000D02*
X51379000Y-126329000D01*
X50779000Y-122063000D02*
X50779000Y-122960000D01*
X51820000Y-121509000D02*
X51820000Y-122960000D01*
X50219000Y-122749000D02*
X50219000Y-125251000D01*
X50939000Y-121935000D02*
X50939000Y-122960000D01*
X51659000Y-125040000D02*
X51659000Y-126442000D01*
X50899000Y-125040000D02*
X50899000Y-126035000D01*
X50739000Y-122099000D02*
X50739000Y-122960000D01*
X50819000Y-122029000D02*
X50819000Y-122960000D01*
X51900000Y-121489000D02*
X51900000Y-122960000D01*
X52260000Y-121431000D02*
X52260000Y-122960000D01*
X50099000Y-122989000D02*
X50099000Y-125011000D01*
X52340000Y-125040000D02*
X52340000Y-126576000D01*
X49899000Y-123716000D02*
X49899000Y-124284000D01*
X52060000Y-125040000D02*
X52060000Y-126543000D01*
X52220000Y-125040000D02*
X52220000Y-126565000D01*
X55304775Y-122525000D02*
X54804775Y-122525000D01*
X51739000Y-121532000D02*
X51739000Y-122960000D01*
X50019000Y-123195000D02*
X50019000Y-124805000D01*
X50619000Y-125040000D02*
X50619000Y-125785000D01*
X51699000Y-125040000D02*
X51699000Y-126455000D01*
X52140000Y-121444000D02*
X52140000Y-122960000D01*
X51219000Y-121753000D02*
X51219000Y-122960000D01*
X50659000Y-122174000D02*
X50659000Y-122960000D01*
X50699000Y-125040000D02*
X50699000Y-125864000D01*
X51019000Y-121878000D02*
X51019000Y-122960000D01*
X50659000Y-125040000D02*
X50659000Y-125826000D01*
X50579000Y-125040000D02*
X50579000Y-125743000D01*
X51459000Y-125040000D02*
X51459000Y-126365000D01*
X52500000Y-121420000D02*
X52500000Y-122960000D01*
X51739000Y-125040000D02*
X51739000Y-126468000D01*
X52100000Y-121450000D02*
X52100000Y-122960000D01*
X51299000Y-121710000D02*
X51299000Y-122960000D01*
X52060000Y-121457000D02*
X52060000Y-122960000D01*
X51459000Y-121635000D02*
X51459000Y-122960000D01*
X51259000Y-125040000D02*
X51259000Y-126268000D01*
X55054775Y-122275000D02*
X55054775Y-122775000D01*
X51940000Y-125040000D02*
X51940000Y-126520000D01*
X52180000Y-125040000D02*
X52180000Y-126561000D01*
X52140000Y-125040000D02*
X52140000Y-126556000D01*
X51419000Y-125040000D02*
X51419000Y-126348000D01*
X51579000Y-121586000D02*
X51579000Y-122960000D01*
X50539000Y-122301000D02*
X50539000Y-122960000D01*
X50339000Y-122557000D02*
X50339000Y-125443000D01*
X50539000Y-125040000D02*
X50539000Y-125699000D01*
X50179000Y-122822000D02*
X50179000Y-125178000D01*
X51499000Y-121618000D02*
X51499000Y-122960000D01*
X51059000Y-125040000D02*
X51059000Y-126149000D01*
X51059000Y-121851000D02*
X51059000Y-122960000D01*
X50619000Y-122215000D02*
X50619000Y-122960000D01*
X52300000Y-125040000D02*
X52300000Y-126573000D01*
X51940000Y-121480000D02*
X51940000Y-122960000D01*
X50579000Y-122257000D02*
X50579000Y-122960000D01*
X51619000Y-125040000D02*
X51619000Y-126428000D01*
X51419000Y-121652000D02*
X51419000Y-122960000D01*
X51539000Y-121602000D02*
X51539000Y-122960000D01*
X50459000Y-122395000D02*
X50459000Y-125605000D01*
X51820000Y-125040000D02*
X51820000Y-126491000D01*
X52420000Y-121421000D02*
X52420000Y-122960000D01*
X52340000Y-121424000D02*
X52340000Y-122960000D01*
X49979000Y-123323000D02*
X49979000Y-124677000D01*
X50779000Y-125040000D02*
X50779000Y-125937000D01*
X51980000Y-121472000D02*
X51980000Y-122960000D01*
X51099000Y-121825000D02*
X51099000Y-122960000D01*
X51339000Y-125040000D02*
X51339000Y-126310000D01*
X52220000Y-121435000D02*
X52220000Y-122960000D01*
X51860000Y-125040000D02*
X51860000Y-126501000D01*
X52020000Y-125040000D02*
X52020000Y-126536000D01*
X52020000Y-121464000D02*
X52020000Y-122960000D01*
X52100000Y-125040000D02*
X52100000Y-126550000D01*
X50419000Y-122446000D02*
X50419000Y-125554000D01*
X51139000Y-121800000D02*
X51139000Y-122960000D01*
X51379000Y-121671000D02*
X51379000Y-122960000D01*
X51779000Y-125040000D02*
X51779000Y-126480000D01*
X52260000Y-125040000D02*
X52260000Y-126569000D01*
X51339000Y-121690000D02*
X51339000Y-122960000D01*
X50979000Y-121905000D02*
X50979000Y-122960000D01*
X51179000Y-125040000D02*
X51179000Y-126224000D01*
X51699000Y-121545000D02*
X51699000Y-122960000D01*
X51619000Y-121572000D02*
X51619000Y-122960000D01*
X51219000Y-125040000D02*
X51219000Y-126247000D01*
X51539000Y-125040000D02*
X51539000Y-126398000D01*
X51980000Y-125040000D02*
X51980000Y-126528000D01*
X51499000Y-125040000D02*
X51499000Y-126382000D01*
X55120000Y-124000000D02*
G75*
G03*
X49880000Y-124000000I-2620000J0D01*
G01*
X49880000Y-124000000D02*
G75*
G03*
X55120000Y-124000000I2620000J0D01*
G01*
X57345888Y-84675000D02*
X57345888Y-83540000D01*
X56104888Y-81460000D02*
X56104888Y-79924000D01*
X57825888Y-84285000D02*
X57825888Y-83540000D01*
X56304888Y-85056000D02*
X56304888Y-83540000D01*
X57025888Y-84848000D02*
X57025888Y-83540000D01*
X56584888Y-81460000D02*
X56584888Y-79999000D01*
X56544888Y-85011000D02*
X56544888Y-83540000D01*
X58545888Y-82784000D02*
X58545888Y-82216000D01*
X57705888Y-81460000D02*
X57705888Y-80599000D01*
X56344888Y-85050000D02*
X56344888Y-83540000D01*
X56464888Y-85028000D02*
X56464888Y-83540000D01*
X57505888Y-81460000D02*
X57505888Y-80435000D01*
X57825888Y-81460000D02*
X57825888Y-80715000D01*
X56825888Y-81460000D02*
X56825888Y-80072000D01*
X57225888Y-81460000D02*
X57225888Y-80253000D01*
X56424888Y-85036000D02*
X56424888Y-83540000D01*
X56945888Y-84882000D02*
X56945888Y-83540000D01*
X57185888Y-84768000D02*
X57185888Y-83540000D01*
X56504888Y-85020000D02*
X56504888Y-83540000D01*
X56985888Y-81460000D02*
X56985888Y-80135000D01*
X57145888Y-84790000D02*
X57145888Y-83540000D01*
X56104888Y-85076000D02*
X56104888Y-83540000D01*
X57345888Y-81460000D02*
X57345888Y-80325000D01*
X56264888Y-85061000D02*
X56264888Y-83540000D01*
X57065888Y-84829000D02*
X57065888Y-83540000D01*
X57025888Y-81460000D02*
X57025888Y-80152000D01*
X55984888Y-85080000D02*
X55984888Y-83540000D01*
X57785888Y-81460000D02*
X57785888Y-80674000D01*
X56785888Y-84942000D02*
X56785888Y-83540000D01*
X57665888Y-84437000D02*
X57665888Y-83540000D01*
X57265888Y-81460000D02*
X57265888Y-80276000D01*
X56905888Y-84898000D02*
X56905888Y-83540000D01*
X57385888Y-84649000D02*
X57385888Y-83540000D01*
X57265888Y-84724000D02*
X57265888Y-83540000D01*
X55944888Y-85080000D02*
X55944888Y-83540000D01*
X56464888Y-81460000D02*
X56464888Y-79972000D01*
X57905888Y-84199000D02*
X57905888Y-83540000D01*
X56624888Y-81460000D02*
X56624888Y-80009000D01*
X58185888Y-83819000D02*
X58185888Y-81181000D01*
X56905888Y-81460000D02*
X56905888Y-80102000D01*
X57785888Y-84326000D02*
X57785888Y-83540000D01*
X57985888Y-84105000D02*
X57985888Y-80895000D01*
X57905888Y-81460000D02*
X57905888Y-80801000D01*
X56264888Y-81460000D02*
X56264888Y-79939000D01*
X58265888Y-83678000D02*
X58265888Y-81322000D01*
X56024888Y-85079000D02*
X56024888Y-83540000D01*
X55944888Y-81460000D02*
X55944888Y-79920000D01*
X57865888Y-84243000D02*
X57865888Y-83540000D01*
X58145888Y-83883000D02*
X58145888Y-81117000D01*
X56184888Y-85069000D02*
X56184888Y-83540000D01*
X57425888Y-84622000D02*
X57425888Y-83540000D01*
X56865888Y-81460000D02*
X56865888Y-80086000D01*
X56384888Y-85043000D02*
X56384888Y-83540000D01*
X57585888Y-84504000D02*
X57585888Y-83540000D01*
X57465888Y-84595000D02*
X57465888Y-83540000D01*
X56064888Y-81460000D02*
X56064888Y-79922000D01*
X56184888Y-81460000D02*
X56184888Y-79931000D01*
X56224888Y-81460000D02*
X56224888Y-79935000D01*
X56665888Y-84980000D02*
X56665888Y-83540000D01*
X58465888Y-83177000D02*
X58465888Y-81823000D01*
X56424888Y-81460000D02*
X56424888Y-79964000D01*
X56544888Y-81460000D02*
X56544888Y-79989000D01*
X57425888Y-81460000D02*
X57425888Y-80378000D01*
X57945888Y-81460000D02*
X57945888Y-80847000D01*
X58065888Y-84000000D02*
X58065888Y-81000000D01*
X57065888Y-81460000D02*
X57065888Y-80171000D01*
X57745888Y-84364000D02*
X57745888Y-83540000D01*
X57185888Y-81460000D02*
X57185888Y-80232000D01*
X56304888Y-81460000D02*
X56304888Y-79944000D01*
X56504888Y-81460000D02*
X56504888Y-79980000D01*
X55984888Y-81460000D02*
X55984888Y-79920000D01*
X58425888Y-83305000D02*
X58425888Y-81695000D01*
X57545888Y-81460000D02*
X57545888Y-80465000D01*
X56144888Y-81460000D02*
X56144888Y-79927000D01*
X57625888Y-84471000D02*
X57625888Y-83540000D01*
X58025888Y-84054000D02*
X58025888Y-80946000D01*
X53140113Y-83975000D02*
X53640113Y-83975000D01*
X57745888Y-81460000D02*
X57745888Y-80636000D01*
X57145888Y-81460000D02*
X57145888Y-80210000D01*
X58385888Y-83415000D02*
X58385888Y-81585000D01*
X57545888Y-84535000D02*
X57545888Y-83540000D01*
X56064888Y-85078000D02*
X56064888Y-83540000D01*
X58305888Y-83598000D02*
X58305888Y-81402000D01*
X57505888Y-84565000D02*
X57505888Y-83540000D01*
X58105888Y-83943000D02*
X58105888Y-81057000D01*
X56785888Y-81460000D02*
X56785888Y-80058000D01*
X57625888Y-81460000D02*
X57625888Y-80529000D01*
X57665888Y-81460000D02*
X57665888Y-80563000D01*
X57705888Y-84401000D02*
X57705888Y-83540000D01*
X56144888Y-85073000D02*
X56144888Y-83540000D01*
X56945888Y-81460000D02*
X56945888Y-80118000D01*
X56985888Y-84865000D02*
X56985888Y-83540000D01*
X56584888Y-85001000D02*
X56584888Y-83540000D01*
X58225888Y-83751000D02*
X58225888Y-81249000D01*
X56865888Y-84914000D02*
X56865888Y-83540000D01*
X57225888Y-84747000D02*
X57225888Y-83540000D01*
X56384888Y-81460000D02*
X56384888Y-79957000D01*
X57305888Y-84700000D02*
X57305888Y-83540000D01*
X57465888Y-81460000D02*
X57465888Y-80405000D01*
X56665888Y-81460000D02*
X56665888Y-80020000D01*
X57585888Y-81460000D02*
X57585888Y-80496000D01*
X56624888Y-84991000D02*
X56624888Y-83540000D01*
X56344888Y-81460000D02*
X56344888Y-79950000D01*
X56825888Y-84928000D02*
X56825888Y-83540000D01*
X56745888Y-81460000D02*
X56745888Y-80045000D01*
X56224888Y-85065000D02*
X56224888Y-83540000D01*
X56024888Y-81460000D02*
X56024888Y-79921000D01*
X58505888Y-83018000D02*
X58505888Y-81982000D01*
X58345888Y-83511000D02*
X58345888Y-81489000D01*
X57385888Y-81460000D02*
X57385888Y-80351000D01*
X56705888Y-81460000D02*
X56705888Y-80032000D01*
X53390113Y-84225000D02*
X53390113Y-83725000D01*
X57945888Y-84153000D02*
X57945888Y-83540000D01*
X57105888Y-84810000D02*
X57105888Y-83540000D01*
X56705888Y-84968000D02*
X56705888Y-83540000D01*
X57305888Y-81460000D02*
X57305888Y-80300000D01*
X57105888Y-81460000D02*
X57105888Y-80190000D01*
X57865888Y-81460000D02*
X57865888Y-80757000D01*
X56745888Y-84955000D02*
X56745888Y-83540000D01*
X58564888Y-82500000D02*
G75*
G03*
X53324888Y-82500000I-2620000J0D01*
G01*
X53324888Y-82500000D02*
G75*
G03*
X58564888Y-82500000I2620000J0D01*
G01*
X82799000Y-145665000D02*
X82480000Y-145665000D01*
X80320000Y-145665000D02*
X80001000Y-145665000D01*
X82479999Y-145288329D02*
G75*
G03*
X82480960Y-141922288I-1079999J1683329D01*
G01*
X80319276Y-141361759D02*
G75*
G03*
X80001251Y-145664999I1080724J-2243241D01*
G01*
X82798749Y-145664999D02*
G75*
G03*
X82480724Y-141361759I-1398749J2059999D01*
G01*
X80319040Y-141922288D02*
G75*
G03*
X80320001Y-145288329I1080960J-1682712D01*
G01*
X49830000Y-134620000D02*
X49830000Y-130380000D01*
X49590000Y-132500000D02*
X49830000Y-132500000D01*
X59570000Y-130380000D02*
X59570000Y-134620000D01*
X59810000Y-132500000D02*
X59570000Y-132500000D01*
X49830000Y-130380000D02*
X59570000Y-130380000D01*
X59570000Y-134620000D02*
X49830000Y-134620000D01*
X49715000Y-146077500D02*
X70295000Y-146077500D01*
X54925000Y-136567500D02*
X54425000Y-135567500D01*
X51015000Y-144767500D02*
X68995000Y-144767500D01*
X68995000Y-144767500D02*
X68995000Y-138267500D01*
X49715000Y-136957500D02*
X49715000Y-146077500D01*
X54425000Y-135567500D02*
X55425000Y-135567500D01*
X70295000Y-136957500D02*
X49715000Y-136957500D01*
X70295000Y-146077500D02*
X70295000Y-136957500D01*
X55425000Y-135567500D02*
X54925000Y-136567500D01*
X57955000Y-138267500D02*
X51015000Y-138267500D01*
X57955000Y-136957500D02*
X57955000Y-138267500D01*
X51015000Y-138267500D02*
X51015000Y-144767500D01*
X62055000Y-138267500D02*
X62055000Y-138267500D01*
X68995000Y-138267500D02*
X62055000Y-138267500D01*
X62055000Y-138267500D02*
X62055000Y-136957500D01*
X78495000Y-46585000D02*
X83565000Y-46585000D01*
X78495000Y-36815000D02*
X83565000Y-36815000D01*
X78495000Y-46585000D02*
X78495000Y-36815000D01*
X83565000Y-46585000D02*
X83565000Y-36815000D01*
X78495000Y-57125000D02*
X78495000Y-47355000D01*
X83565000Y-57125000D02*
X83565000Y-47355000D01*
X78495000Y-47355000D02*
X83565000Y-47355000D01*
X78495000Y-57125000D02*
X83565000Y-57125000D01*
X75530000Y-134130000D02*
X78270000Y-134130000D01*
X78270000Y-134130000D02*
X78270000Y-140670000D01*
X78270000Y-140670000D02*
X75530000Y-140670000D01*
X76900000Y-141440000D02*
X76900000Y-140670000D01*
X75530000Y-140670000D02*
X75530000Y-134130000D01*
X76900000Y-133360000D02*
X76900000Y-134130000D01*
X75120000Y-133980000D02*
X75120000Y-143720000D01*
X70880000Y-143720000D02*
X70880000Y-133980000D01*
X73000000Y-133740000D02*
X73000000Y-133980000D01*
X70880000Y-133980000D02*
X75120000Y-133980000D01*
X75120000Y-143720000D02*
X70880000Y-143720000D01*
X73000000Y-143960000D02*
X73000000Y-143720000D01*
X46000000Y-81060000D02*
X42550000Y-81060000D01*
X46000000Y-70940000D02*
X47950000Y-70940000D01*
X46000000Y-70940000D02*
X44050000Y-70940000D01*
X46000000Y-81060000D02*
X47950000Y-81060000D01*
X45880000Y-84630000D02*
X53120000Y-84630000D01*
X45880000Y-87370000D02*
X45880000Y-84630000D01*
X45880000Y-87370000D02*
X53120000Y-87370000D01*
X53120000Y-87370000D02*
X53120000Y-84630000D01*
X49930000Y-72980000D02*
X49930000Y-80220000D01*
X52670000Y-72980000D02*
X52670000Y-80220000D01*
X49930000Y-72980000D02*
X52670000Y-72980000D01*
X49930000Y-80220000D02*
X52670000Y-80220000D01*
X42070000Y-72980000D02*
X39330000Y-72980000D01*
X42070000Y-80220000D02*
X42070000Y-72980000D01*
X42070000Y-80220000D02*
X39330000Y-80220000D01*
X39330000Y-80220000D02*
X39330000Y-72980000D01*
%LPC*%
D13*
X82900000Y-86800000D03*
X82900000Y-91800000D03*
D14*
X46400000Y-116050000D03*
X37600000Y-116050000D03*
D15*
X44500000Y-123050000D03*
X42000000Y-123050000D03*
X39500000Y-123050000D03*
D14*
X55600000Y-49050000D03*
X64400000Y-49050000D03*
D15*
X62500000Y-56050000D03*
X60000000Y-56050000D03*
X57500000Y-56050000D03*
D16*
X77700000Y-45460000D03*
D17*
X77700000Y-37840000D03*
D16*
X77700000Y-55860000D03*
D17*
X77700000Y-48240000D03*
D16*
X75100000Y-45460000D03*
D17*
X75100000Y-37840000D03*
D16*
X75100000Y-55860000D03*
D17*
X75100000Y-48240000D03*
D16*
X72500000Y-45460000D03*
D17*
X72500000Y-37840000D03*
D16*
X72500000Y-55860000D03*
D17*
X72500000Y-48240000D03*
D18*
X42000000Y-129500000D03*
D19*
X42000000Y-140900000D03*
X42000000Y-132600000D03*
D18*
X40000000Y-94720000D03*
D19*
X40000000Y-106120000D03*
X40000000Y-97820000D03*
D18*
X80000000Y-94600000D03*
D19*
X80000000Y-106000000D03*
X80000000Y-97700000D03*
D20*
X66800000Y-74840000D03*
D21*
X66800000Y-72300000D03*
X66800000Y-69760000D03*
D20*
X70900000Y-69760000D03*
D21*
X70900000Y-72300000D03*
X70900000Y-74840000D03*
D13*
X57500000Y-59840000D03*
D17*
X57500000Y-70000000D03*
D13*
X50000000Y-101660000D03*
D17*
X50000000Y-91500000D03*
D13*
X50560000Y-82800000D03*
D17*
X40400000Y-82800000D03*
D13*
X54000000Y-70000000D03*
D17*
X54000000Y-59840000D03*
D13*
X61000000Y-70000000D03*
D17*
X61000000Y-59840000D03*
D13*
X73980000Y-62200000D03*
D17*
X63820000Y-62200000D03*
D13*
X51080000Y-66000000D03*
D17*
X40920000Y-66000000D03*
D13*
X50560000Y-50500000D03*
D17*
X40400000Y-50500000D03*
D13*
X50560000Y-56700000D03*
D17*
X40400000Y-56700000D03*
D13*
X46580000Y-126000000D03*
D17*
X36420000Y-126000000D03*
D13*
X68300000Y-59300000D03*
D17*
X68300000Y-49140000D03*
D13*
X40400000Y-53600000D03*
D17*
X50560000Y-53600000D03*
D13*
X50560000Y-47400000D03*
D17*
X40400000Y-47400000D03*
D13*
X40400000Y-44300000D03*
D17*
X50560000Y-44300000D03*
D13*
X82600000Y-72280000D03*
D17*
X82600000Y-62120000D03*
D13*
X64580000Y-105100000D03*
D17*
X54420000Y-105100000D03*
D13*
X64580000Y-102000000D03*
D17*
X54420000Y-102000000D03*
D14*
X64400000Y-92050000D03*
X55600000Y-92050000D03*
D15*
X62500000Y-99050000D03*
X60000000Y-99050000D03*
X57500000Y-99050000D03*
D22*
X75600000Y-116300000D03*
X75600000Y-121000000D03*
X75600000Y-125700000D03*
X80400000Y-116300000D03*
X80400000Y-121000000D03*
X80400000Y-125700000D03*
D13*
X79600000Y-76220000D03*
D17*
X79600000Y-86380000D03*
D16*
X68800000Y-83800000D03*
D17*
X68800000Y-86340000D03*
X68800000Y-88880000D03*
X68800000Y-91420000D03*
X76420000Y-91420000D03*
X76420000Y-88880000D03*
X76420000Y-86340000D03*
X76420000Y-83800000D03*
D13*
X43500000Y-69200000D03*
X48500000Y-69200000D03*
X46900000Y-101660000D03*
D17*
X46900000Y-91500000D03*
D13*
X37100000Y-59800000D03*
D17*
X47260000Y-59800000D03*
D13*
X61000000Y-72920000D03*
D17*
X61000000Y-83080000D03*
D13*
X76700000Y-80600000D03*
X71700000Y-80600000D03*
X73500000Y-94600000D03*
X68500000Y-94600000D03*
D16*
X68455112Y-131000000D03*
D13*
X66455112Y-131000000D03*
D16*
X53500000Y-124000000D03*
D13*
X51500000Y-124000000D03*
D16*
X54944888Y-82500000D03*
D13*
X56944888Y-82500000D03*
D23*
X81400000Y-144875000D03*
D15*
X81400000Y-142335000D03*
D24*
X61050000Y-132500000D03*
D25*
X48350000Y-132500000D03*
G36*
G01*
X54325000Y-139397500D02*
X55525000Y-139397500D01*
G75*
G02*
X55775000Y-139647500I0J-250000D01*
G01*
X55775000Y-140847500D01*
G75*
G02*
X55525000Y-141097500I-250000J0D01*
G01*
X54325000Y-141097500D01*
G75*
G02*
X54075000Y-140847500I0J250000D01*
G01*
X54075000Y-139647500D01*
G75*
G02*
X54325000Y-139397500I250000J0D01*
G01*
G37*
D26*
X54925000Y-142787500D03*
X57465000Y-140247500D03*
X57465000Y-142787500D03*
X60005000Y-140247500D03*
X60005000Y-142787500D03*
X62545000Y-140247500D03*
X62545000Y-142787500D03*
X65085000Y-140247500D03*
X65085000Y-142787500D03*
D27*
X81030000Y-44240000D03*
X81030000Y-41700000D03*
X81030000Y-39160000D03*
X81030000Y-54780000D03*
X81030000Y-52240000D03*
X81030000Y-49700000D03*
D13*
X76900000Y-132320000D03*
D17*
X76900000Y-142480000D03*
D24*
X73000000Y-132500000D03*
D25*
X73000000Y-145200000D03*
G36*
G01*
X42550000Y-80595000D02*
X42550000Y-80295000D01*
G75*
G02*
X42700000Y-80145000I150000J0D01*
G01*
X44350000Y-80145000D01*
G75*
G02*
X44500000Y-80295000I0J-150000D01*
G01*
X44500000Y-80595000D01*
G75*
G02*
X44350000Y-80745000I-150000J0D01*
G01*
X42700000Y-80745000D01*
G75*
G02*
X42550000Y-80595000I0J150000D01*
G01*
G37*
G36*
G01*
X42550000Y-79325000D02*
X42550000Y-79025000D01*
G75*
G02*
X42700000Y-78875000I150000J0D01*
G01*
X44350000Y-78875000D01*
G75*
G02*
X44500000Y-79025000I0J-150000D01*
G01*
X44500000Y-79325000D01*
G75*
G02*
X44350000Y-79475000I-150000J0D01*
G01*
X42700000Y-79475000D01*
G75*
G02*
X42550000Y-79325000I0J150000D01*
G01*
G37*
G36*
G01*
X42550000Y-78055000D02*
X42550000Y-77755000D01*
G75*
G02*
X42700000Y-77605000I150000J0D01*
G01*
X44350000Y-77605000D01*
G75*
G02*
X44500000Y-77755000I0J-150000D01*
G01*
X44500000Y-78055000D01*
G75*
G02*
X44350000Y-78205000I-150000J0D01*
G01*
X42700000Y-78205000D01*
G75*
G02*
X42550000Y-78055000I0J150000D01*
G01*
G37*
G36*
G01*
X42550000Y-76785000D02*
X42550000Y-76485000D01*
G75*
G02*
X42700000Y-76335000I150000J0D01*
G01*
X44350000Y-76335000D01*
G75*
G02*
X44500000Y-76485000I0J-150000D01*
G01*
X44500000Y-76785000D01*
G75*
G02*
X44350000Y-76935000I-150000J0D01*
G01*
X42700000Y-76935000D01*
G75*
G02*
X42550000Y-76785000I0J150000D01*
G01*
G37*
G36*
G01*
X42550000Y-75515000D02*
X42550000Y-75215000D01*
G75*
G02*
X42700000Y-75065000I150000J0D01*
G01*
X44350000Y-75065000D01*
G75*
G02*
X44500000Y-75215000I0J-150000D01*
G01*
X44500000Y-75515000D01*
G75*
G02*
X44350000Y-75665000I-150000J0D01*
G01*
X42700000Y-75665000D01*
G75*
G02*
X42550000Y-75515000I0J150000D01*
G01*
G37*
G36*
G01*
X42550000Y-74245000D02*
X42550000Y-73945000D01*
G75*
G02*
X42700000Y-73795000I150000J0D01*
G01*
X44350000Y-73795000D01*
G75*
G02*
X44500000Y-73945000I0J-150000D01*
G01*
X44500000Y-74245000D01*
G75*
G02*
X44350000Y-74395000I-150000J0D01*
G01*
X42700000Y-74395000D01*
G75*
G02*
X42550000Y-74245000I0J150000D01*
G01*
G37*
G36*
G01*
X42550000Y-72975000D02*
X42550000Y-72675000D01*
G75*
G02*
X42700000Y-72525000I150000J0D01*
G01*
X44350000Y-72525000D01*
G75*
G02*
X44500000Y-72675000I0J-150000D01*
G01*
X44500000Y-72975000D01*
G75*
G02*
X44350000Y-73125000I-150000J0D01*
G01*
X42700000Y-73125000D01*
G75*
G02*
X42550000Y-72975000I0J150000D01*
G01*
G37*
G36*
G01*
X42550000Y-71705000D02*
X42550000Y-71405000D01*
G75*
G02*
X42700000Y-71255000I150000J0D01*
G01*
X44350000Y-71255000D01*
G75*
G02*
X44500000Y-71405000I0J-150000D01*
G01*
X44500000Y-71705000D01*
G75*
G02*
X44350000Y-71855000I-150000J0D01*
G01*
X42700000Y-71855000D01*
G75*
G02*
X42550000Y-71705000I0J150000D01*
G01*
G37*
G36*
G01*
X47500000Y-71705000D02*
X47500000Y-71405000D01*
G75*
G02*
X47650000Y-71255000I150000J0D01*
G01*
X49300000Y-71255000D01*
G75*
G02*
X49450000Y-71405000I0J-150000D01*
G01*
X49450000Y-71705000D01*
G75*
G02*
X49300000Y-71855000I-150000J0D01*
G01*
X47650000Y-71855000D01*
G75*
G02*
X47500000Y-71705000I0J150000D01*
G01*
G37*
G36*
G01*
X47500000Y-72975000D02*
X47500000Y-72675000D01*
G75*
G02*
X47650000Y-72525000I150000J0D01*
G01*
X49300000Y-72525000D01*
G75*
G02*
X49450000Y-72675000I0J-150000D01*
G01*
X49450000Y-72975000D01*
G75*
G02*
X49300000Y-73125000I-150000J0D01*
G01*
X47650000Y-73125000D01*
G75*
G02*
X47500000Y-72975000I0J150000D01*
G01*
G37*
G36*
G01*
X47500000Y-74245000D02*
X47500000Y-73945000D01*
G75*
G02*
X47650000Y-73795000I150000J0D01*
G01*
X49300000Y-73795000D01*
G75*
G02*
X49450000Y-73945000I0J-150000D01*
G01*
X49450000Y-74245000D01*
G75*
G02*
X49300000Y-74395000I-150000J0D01*
G01*
X47650000Y-74395000D01*
G75*
G02*
X47500000Y-74245000I0J150000D01*
G01*
G37*
G36*
G01*
X47500000Y-75515000D02*
X47500000Y-75215000D01*
G75*
G02*
X47650000Y-75065000I150000J0D01*
G01*
X49300000Y-75065000D01*
G75*
G02*
X49450000Y-75215000I0J-150000D01*
G01*
X49450000Y-75515000D01*
G75*
G02*
X49300000Y-75665000I-150000J0D01*
G01*
X47650000Y-75665000D01*
G75*
G02*
X47500000Y-75515000I0J150000D01*
G01*
G37*
G36*
G01*
X47500000Y-76785000D02*
X47500000Y-76485000D01*
G75*
G02*
X47650000Y-76335000I150000J0D01*
G01*
X49300000Y-76335000D01*
G75*
G02*
X49450000Y-76485000I0J-150000D01*
G01*
X49450000Y-76785000D01*
G75*
G02*
X49300000Y-76935000I-150000J0D01*
G01*
X47650000Y-76935000D01*
G75*
G02*
X47500000Y-76785000I0J150000D01*
G01*
G37*
G36*
G01*
X47500000Y-78055000D02*
X47500000Y-77755000D01*
G75*
G02*
X47650000Y-77605000I150000J0D01*
G01*
X49300000Y-77605000D01*
G75*
G02*
X49450000Y-77755000I0J-150000D01*
G01*
X49450000Y-78055000D01*
G75*
G02*
X49300000Y-78205000I-150000J0D01*
G01*
X47650000Y-78205000D01*
G75*
G02*
X47500000Y-78055000I0J150000D01*
G01*
G37*
G36*
G01*
X47500000Y-79325000D02*
X47500000Y-79025000D01*
G75*
G02*
X47650000Y-78875000I150000J0D01*
G01*
X49300000Y-78875000D01*
G75*
G02*
X49450000Y-79025000I0J-150000D01*
G01*
X49450000Y-79325000D01*
G75*
G02*
X49300000Y-79475000I-150000J0D01*
G01*
X47650000Y-79475000D01*
G75*
G02*
X47500000Y-79325000I0J150000D01*
G01*
G37*
G36*
G01*
X47500000Y-80595000D02*
X47500000Y-80295000D01*
G75*
G02*
X47650000Y-80145000I150000J0D01*
G01*
X49300000Y-80145000D01*
G75*
G02*
X49450000Y-80295000I0J-150000D01*
G01*
X49450000Y-80595000D01*
G75*
G02*
X49300000Y-80745000I-150000J0D01*
G01*
X47650000Y-80745000D01*
G75*
G02*
X47500000Y-80595000I0J150000D01*
G01*
G37*
D13*
X47000000Y-86000000D03*
X52000000Y-86000000D03*
X51300000Y-74100000D03*
X51300000Y-79100000D03*
X40700000Y-79100000D03*
X40700000Y-74100000D03*
%LPD*%
M02*
