%TF.GenerationSoftware,KiCad,Pcbnew,7.0.11-7.0.11~ubuntu22.04.1*%
%TF.CreationDate,2024-10-19T21:35:02+01:00*%
%TF.ProjectId,MS20-VCF,4d533230-2d56-4434-962e-6b696361645f,rev?*%
%TF.SameCoordinates,Original*%
%TF.FileFunction,Drillmap*%
%TF.FilePolarity,Positive*%
%FSLAX45Y45*%
G04 Gerber Fmt 4.5, Leading zero omitted, Abs format (unit mm)*
G04 Created by KiCad (PCBNEW 7.0.11-7.0.11~ubuntu22.04.1) date 2024-10-19 21:35:02*
%MOMM*%
%LPD*%
G01*
G04 APERTURE LIST*
%ADD10C,0.050000*%
%ADD11C,0.200000*%
G04 APERTURE END LIST*
D10*
X8500000Y-3650000D02*
X8500000Y-14650000D01*
X3500000Y-3650000D02*
X8500000Y-3650000D01*
X3500000Y-3650000D02*
X3500000Y-14650000D01*
X3500000Y-14650000D02*
X8500000Y-14650000D01*
D11*
X3660000Y-11505000D02*
X3860000Y-11705000D01*
X3860000Y-11505000D02*
X3660000Y-11705000D01*
X4540000Y-11505000D02*
X4740000Y-11705000D01*
X4740000Y-11505000D02*
X4540000Y-11705000D01*
X5460000Y-4805000D02*
X5660000Y-5005000D01*
X5660000Y-4805000D02*
X5460000Y-5005000D01*
X5460000Y-9105000D02*
X5660000Y-9305000D01*
X5660000Y-9105000D02*
X5460000Y-9305000D01*
X6340000Y-4805000D02*
X6540000Y-5005000D01*
X6540000Y-4805000D02*
X6340000Y-5005000D01*
X6340000Y-9105000D02*
X6540000Y-9305000D01*
X6540000Y-9105000D02*
X6340000Y-9305000D01*
X3758277Y-14963984D02*
X3758277Y-14763984D01*
X3758277Y-14763984D02*
X3805896Y-14763984D01*
X3805896Y-14763984D02*
X3834467Y-14773508D01*
X3834467Y-14773508D02*
X3853515Y-14792555D01*
X3853515Y-14792555D02*
X3863039Y-14811603D01*
X3863039Y-14811603D02*
X3872562Y-14849698D01*
X3872562Y-14849698D02*
X3872562Y-14878269D01*
X3872562Y-14878269D02*
X3863039Y-14916365D01*
X3863039Y-14916365D02*
X3853515Y-14935412D01*
X3853515Y-14935412D02*
X3834467Y-14954460D01*
X3834467Y-14954460D02*
X3805896Y-14963984D01*
X3805896Y-14963984D02*
X3758277Y-14963984D01*
X3958277Y-14963984D02*
X3958277Y-14830650D01*
X3958277Y-14868746D02*
X3967801Y-14849698D01*
X3967801Y-14849698D02*
X3977324Y-14840174D01*
X3977324Y-14840174D02*
X3996372Y-14830650D01*
X3996372Y-14830650D02*
X4015420Y-14830650D01*
X4082086Y-14963984D02*
X4082086Y-14830650D01*
X4082086Y-14763984D02*
X4072562Y-14773508D01*
X4072562Y-14773508D02*
X4082086Y-14783031D01*
X4082086Y-14783031D02*
X4091610Y-14773508D01*
X4091610Y-14773508D02*
X4082086Y-14763984D01*
X4082086Y-14763984D02*
X4082086Y-14783031D01*
X4205896Y-14963984D02*
X4186848Y-14954460D01*
X4186848Y-14954460D02*
X4177324Y-14935412D01*
X4177324Y-14935412D02*
X4177324Y-14763984D01*
X4310658Y-14963984D02*
X4291610Y-14954460D01*
X4291610Y-14954460D02*
X4282086Y-14935412D01*
X4282086Y-14935412D02*
X4282086Y-14763984D01*
X4539229Y-14963984D02*
X4539229Y-14763984D01*
X4539229Y-14763984D02*
X4605896Y-14906841D01*
X4605896Y-14906841D02*
X4672563Y-14763984D01*
X4672563Y-14763984D02*
X4672563Y-14963984D01*
X4853515Y-14963984D02*
X4853515Y-14859222D01*
X4853515Y-14859222D02*
X4843991Y-14840174D01*
X4843991Y-14840174D02*
X4824944Y-14830650D01*
X4824944Y-14830650D02*
X4786848Y-14830650D01*
X4786848Y-14830650D02*
X4767801Y-14840174D01*
X4853515Y-14954460D02*
X4834467Y-14963984D01*
X4834467Y-14963984D02*
X4786848Y-14963984D01*
X4786848Y-14963984D02*
X4767801Y-14954460D01*
X4767801Y-14954460D02*
X4758277Y-14935412D01*
X4758277Y-14935412D02*
X4758277Y-14916365D01*
X4758277Y-14916365D02*
X4767801Y-14897317D01*
X4767801Y-14897317D02*
X4786848Y-14887793D01*
X4786848Y-14887793D02*
X4834467Y-14887793D01*
X4834467Y-14887793D02*
X4853515Y-14878269D01*
X4948753Y-14830650D02*
X4948753Y-15030650D01*
X4948753Y-14840174D02*
X4967801Y-14830650D01*
X4967801Y-14830650D02*
X5005896Y-14830650D01*
X5005896Y-14830650D02*
X5024944Y-14840174D01*
X5024944Y-14840174D02*
X5034467Y-14849698D01*
X5034467Y-14849698D02*
X5043991Y-14868746D01*
X5043991Y-14868746D02*
X5043991Y-14925888D01*
X5043991Y-14925888D02*
X5034467Y-14944936D01*
X5034467Y-14944936D02*
X5024944Y-14954460D01*
X5024944Y-14954460D02*
X5005896Y-14963984D01*
X5005896Y-14963984D02*
X4967801Y-14963984D01*
X4967801Y-14963984D02*
X4948753Y-14954460D01*
X5129705Y-14944936D02*
X5139229Y-14954460D01*
X5139229Y-14954460D02*
X5129705Y-14963984D01*
X5129705Y-14963984D02*
X5120182Y-14954460D01*
X5120182Y-14954460D02*
X5129705Y-14944936D01*
X5129705Y-14944936D02*
X5129705Y-14963984D01*
X5129705Y-14840174D02*
X5139229Y-14849698D01*
X5139229Y-14849698D02*
X5129705Y-14859222D01*
X5129705Y-14859222D02*
X5120182Y-14849698D01*
X5120182Y-14849698D02*
X5129705Y-14840174D01*
X5129705Y-14840174D02*
X5129705Y-14859222D01*
X3297500Y-15192500D02*
X3497500Y-15392500D01*
X3497500Y-15192500D02*
X3297500Y-15392500D01*
X3748753Y-15203031D02*
X3758277Y-15193508D01*
X3758277Y-15193508D02*
X3777324Y-15183984D01*
X3777324Y-15183984D02*
X3824943Y-15183984D01*
X3824943Y-15183984D02*
X3843991Y-15193508D01*
X3843991Y-15193508D02*
X3853515Y-15203031D01*
X3853515Y-15203031D02*
X3863039Y-15222079D01*
X3863039Y-15222079D02*
X3863039Y-15241127D01*
X3863039Y-15241127D02*
X3853515Y-15269698D01*
X3853515Y-15269698D02*
X3739229Y-15383984D01*
X3739229Y-15383984D02*
X3863039Y-15383984D01*
X3948753Y-15364936D02*
X3958277Y-15374460D01*
X3958277Y-15374460D02*
X3948753Y-15383984D01*
X3948753Y-15383984D02*
X3939229Y-15374460D01*
X3939229Y-15374460D02*
X3948753Y-15364936D01*
X3948753Y-15364936D02*
X3948753Y-15383984D01*
X4082086Y-15183984D02*
X4101134Y-15183984D01*
X4101134Y-15183984D02*
X4120182Y-15193508D01*
X4120182Y-15193508D02*
X4129705Y-15203031D01*
X4129705Y-15203031D02*
X4139229Y-15222079D01*
X4139229Y-15222079D02*
X4148753Y-15260174D01*
X4148753Y-15260174D02*
X4148753Y-15307793D01*
X4148753Y-15307793D02*
X4139229Y-15345888D01*
X4139229Y-15345888D02*
X4129705Y-15364936D01*
X4129705Y-15364936D02*
X4120182Y-15374460D01*
X4120182Y-15374460D02*
X4101134Y-15383984D01*
X4101134Y-15383984D02*
X4082086Y-15383984D01*
X4082086Y-15383984D02*
X4063039Y-15374460D01*
X4063039Y-15374460D02*
X4053515Y-15364936D01*
X4053515Y-15364936D02*
X4043991Y-15345888D01*
X4043991Y-15345888D02*
X4034467Y-15307793D01*
X4034467Y-15307793D02*
X4034467Y-15260174D01*
X4034467Y-15260174D02*
X4043991Y-15222079D01*
X4043991Y-15222079D02*
X4053515Y-15203031D01*
X4053515Y-15203031D02*
X4063039Y-15193508D01*
X4063039Y-15193508D02*
X4082086Y-15183984D01*
X4272563Y-15183984D02*
X4291610Y-15183984D01*
X4291610Y-15183984D02*
X4310658Y-15193508D01*
X4310658Y-15193508D02*
X4320182Y-15203031D01*
X4320182Y-15203031D02*
X4329705Y-15222079D01*
X4329705Y-15222079D02*
X4339229Y-15260174D01*
X4339229Y-15260174D02*
X4339229Y-15307793D01*
X4339229Y-15307793D02*
X4329705Y-15345888D01*
X4329705Y-15345888D02*
X4320182Y-15364936D01*
X4320182Y-15364936D02*
X4310658Y-15374460D01*
X4310658Y-15374460D02*
X4291610Y-15383984D01*
X4291610Y-15383984D02*
X4272563Y-15383984D01*
X4272563Y-15383984D02*
X4253515Y-15374460D01*
X4253515Y-15374460D02*
X4243991Y-15364936D01*
X4243991Y-15364936D02*
X4234467Y-15345888D01*
X4234467Y-15345888D02*
X4224944Y-15307793D01*
X4224944Y-15307793D02*
X4224944Y-15260174D01*
X4224944Y-15260174D02*
X4234467Y-15222079D01*
X4234467Y-15222079D02*
X4243991Y-15203031D01*
X4243991Y-15203031D02*
X4253515Y-15193508D01*
X4253515Y-15193508D02*
X4272563Y-15183984D01*
X4463039Y-15183984D02*
X4482086Y-15183984D01*
X4482086Y-15183984D02*
X4501134Y-15193508D01*
X4501134Y-15193508D02*
X4510658Y-15203031D01*
X4510658Y-15203031D02*
X4520182Y-15222079D01*
X4520182Y-15222079D02*
X4529705Y-15260174D01*
X4529705Y-15260174D02*
X4529705Y-15307793D01*
X4529705Y-15307793D02*
X4520182Y-15345888D01*
X4520182Y-15345888D02*
X4510658Y-15364936D01*
X4510658Y-15364936D02*
X4501134Y-15374460D01*
X4501134Y-15374460D02*
X4482086Y-15383984D01*
X4482086Y-15383984D02*
X4463039Y-15383984D01*
X4463039Y-15383984D02*
X4443991Y-15374460D01*
X4443991Y-15374460D02*
X4434467Y-15364936D01*
X4434467Y-15364936D02*
X4424944Y-15345888D01*
X4424944Y-15345888D02*
X4415420Y-15307793D01*
X4415420Y-15307793D02*
X4415420Y-15260174D01*
X4415420Y-15260174D02*
X4424944Y-15222079D01*
X4424944Y-15222079D02*
X4434467Y-15203031D01*
X4434467Y-15203031D02*
X4443991Y-15193508D01*
X4443991Y-15193508D02*
X4463039Y-15183984D01*
X4615420Y-15383984D02*
X4615420Y-15250650D01*
X4615420Y-15269698D02*
X4624944Y-15260174D01*
X4624944Y-15260174D02*
X4643991Y-15250650D01*
X4643991Y-15250650D02*
X4672563Y-15250650D01*
X4672563Y-15250650D02*
X4691610Y-15260174D01*
X4691610Y-15260174D02*
X4701134Y-15279222D01*
X4701134Y-15279222D02*
X4701134Y-15383984D01*
X4701134Y-15279222D02*
X4710658Y-15260174D01*
X4710658Y-15260174D02*
X4729705Y-15250650D01*
X4729705Y-15250650D02*
X4758277Y-15250650D01*
X4758277Y-15250650D02*
X4777325Y-15260174D01*
X4777325Y-15260174D02*
X4786848Y-15279222D01*
X4786848Y-15279222D02*
X4786848Y-15383984D01*
X4882086Y-15383984D02*
X4882086Y-15250650D01*
X4882086Y-15269698D02*
X4891610Y-15260174D01*
X4891610Y-15260174D02*
X4910658Y-15250650D01*
X4910658Y-15250650D02*
X4939229Y-15250650D01*
X4939229Y-15250650D02*
X4958277Y-15260174D01*
X4958277Y-15260174D02*
X4967801Y-15279222D01*
X4967801Y-15279222D02*
X4967801Y-15383984D01*
X4967801Y-15279222D02*
X4977325Y-15260174D01*
X4977325Y-15260174D02*
X4996372Y-15250650D01*
X4996372Y-15250650D02*
X5024944Y-15250650D01*
X5024944Y-15250650D02*
X5043991Y-15260174D01*
X5043991Y-15260174D02*
X5053515Y-15279222D01*
X5053515Y-15279222D02*
X5053515Y-15383984D01*
X5443991Y-15174460D02*
X5272563Y-15431603D01*
X5701134Y-15183984D02*
X5720182Y-15183984D01*
X5720182Y-15183984D02*
X5739229Y-15193508D01*
X5739229Y-15193508D02*
X5748753Y-15203031D01*
X5748753Y-15203031D02*
X5758277Y-15222079D01*
X5758277Y-15222079D02*
X5767801Y-15260174D01*
X5767801Y-15260174D02*
X5767801Y-15307793D01*
X5767801Y-15307793D02*
X5758277Y-15345888D01*
X5758277Y-15345888D02*
X5748753Y-15364936D01*
X5748753Y-15364936D02*
X5739229Y-15374460D01*
X5739229Y-15374460D02*
X5720182Y-15383984D01*
X5720182Y-15383984D02*
X5701134Y-15383984D01*
X5701134Y-15383984D02*
X5682086Y-15374460D01*
X5682086Y-15374460D02*
X5672563Y-15364936D01*
X5672563Y-15364936D02*
X5663039Y-15345888D01*
X5663039Y-15345888D02*
X5653515Y-15307793D01*
X5653515Y-15307793D02*
X5653515Y-15260174D01*
X5653515Y-15260174D02*
X5663039Y-15222079D01*
X5663039Y-15222079D02*
X5672563Y-15203031D01*
X5672563Y-15203031D02*
X5682086Y-15193508D01*
X5682086Y-15193508D02*
X5701134Y-15183984D01*
X5853515Y-15364936D02*
X5863039Y-15374460D01*
X5863039Y-15374460D02*
X5853515Y-15383984D01*
X5853515Y-15383984D02*
X5843991Y-15374460D01*
X5843991Y-15374460D02*
X5853515Y-15364936D01*
X5853515Y-15364936D02*
X5853515Y-15383984D01*
X5986848Y-15183984D02*
X6005896Y-15183984D01*
X6005896Y-15183984D02*
X6024944Y-15193508D01*
X6024944Y-15193508D02*
X6034467Y-15203031D01*
X6034467Y-15203031D02*
X6043991Y-15222079D01*
X6043991Y-15222079D02*
X6053515Y-15260174D01*
X6053515Y-15260174D02*
X6053515Y-15307793D01*
X6053515Y-15307793D02*
X6043991Y-15345888D01*
X6043991Y-15345888D02*
X6034467Y-15364936D01*
X6034467Y-15364936D02*
X6024944Y-15374460D01*
X6024944Y-15374460D02*
X6005896Y-15383984D01*
X6005896Y-15383984D02*
X5986848Y-15383984D01*
X5986848Y-15383984D02*
X5967801Y-15374460D01*
X5967801Y-15374460D02*
X5958277Y-15364936D01*
X5958277Y-15364936D02*
X5948753Y-15345888D01*
X5948753Y-15345888D02*
X5939229Y-15307793D01*
X5939229Y-15307793D02*
X5939229Y-15260174D01*
X5939229Y-15260174D02*
X5948753Y-15222079D01*
X5948753Y-15222079D02*
X5958277Y-15203031D01*
X5958277Y-15203031D02*
X5967801Y-15193508D01*
X5967801Y-15193508D02*
X5986848Y-15183984D01*
X6120182Y-15183984D02*
X6253515Y-15183984D01*
X6253515Y-15183984D02*
X6167801Y-15383984D01*
X6358277Y-15269698D02*
X6339229Y-15260174D01*
X6339229Y-15260174D02*
X6329706Y-15250650D01*
X6329706Y-15250650D02*
X6320182Y-15231603D01*
X6320182Y-15231603D02*
X6320182Y-15222079D01*
X6320182Y-15222079D02*
X6329706Y-15203031D01*
X6329706Y-15203031D02*
X6339229Y-15193508D01*
X6339229Y-15193508D02*
X6358277Y-15183984D01*
X6358277Y-15183984D02*
X6396372Y-15183984D01*
X6396372Y-15183984D02*
X6415420Y-15193508D01*
X6415420Y-15193508D02*
X6424944Y-15203031D01*
X6424944Y-15203031D02*
X6434467Y-15222079D01*
X6434467Y-15222079D02*
X6434467Y-15231603D01*
X6434467Y-15231603D02*
X6424944Y-15250650D01*
X6424944Y-15250650D02*
X6415420Y-15260174D01*
X6415420Y-15260174D02*
X6396372Y-15269698D01*
X6396372Y-15269698D02*
X6358277Y-15269698D01*
X6358277Y-15269698D02*
X6339229Y-15279222D01*
X6339229Y-15279222D02*
X6329706Y-15288746D01*
X6329706Y-15288746D02*
X6320182Y-15307793D01*
X6320182Y-15307793D02*
X6320182Y-15345888D01*
X6320182Y-15345888D02*
X6329706Y-15364936D01*
X6329706Y-15364936D02*
X6339229Y-15374460D01*
X6339229Y-15374460D02*
X6358277Y-15383984D01*
X6358277Y-15383984D02*
X6396372Y-15383984D01*
X6396372Y-15383984D02*
X6415420Y-15374460D01*
X6415420Y-15374460D02*
X6424944Y-15364936D01*
X6424944Y-15364936D02*
X6434467Y-15345888D01*
X6434467Y-15345888D02*
X6434467Y-15307793D01*
X6434467Y-15307793D02*
X6424944Y-15288746D01*
X6424944Y-15288746D02*
X6415420Y-15279222D01*
X6415420Y-15279222D02*
X6396372Y-15269698D01*
X6501134Y-15183984D02*
X6634467Y-15183984D01*
X6634467Y-15183984D02*
X6548753Y-15383984D01*
X6701134Y-15183984D02*
X6701134Y-15222079D01*
X6777325Y-15183984D02*
X6777325Y-15222079D01*
X7072563Y-15460174D02*
X7063039Y-15450650D01*
X7063039Y-15450650D02*
X7043991Y-15422079D01*
X7043991Y-15422079D02*
X7034468Y-15403031D01*
X7034468Y-15403031D02*
X7024944Y-15374460D01*
X7024944Y-15374460D02*
X7015420Y-15326841D01*
X7015420Y-15326841D02*
X7015420Y-15288746D01*
X7015420Y-15288746D02*
X7024944Y-15241127D01*
X7024944Y-15241127D02*
X7034468Y-15212555D01*
X7034468Y-15212555D02*
X7043991Y-15193508D01*
X7043991Y-15193508D02*
X7063039Y-15164936D01*
X7063039Y-15164936D02*
X7072563Y-15155412D01*
X7234468Y-15183984D02*
X7196372Y-15183984D01*
X7196372Y-15183984D02*
X7177325Y-15193508D01*
X7177325Y-15193508D02*
X7167801Y-15203031D01*
X7167801Y-15203031D02*
X7148753Y-15231603D01*
X7148753Y-15231603D02*
X7139229Y-15269698D01*
X7139229Y-15269698D02*
X7139229Y-15345888D01*
X7139229Y-15345888D02*
X7148753Y-15364936D01*
X7148753Y-15364936D02*
X7158277Y-15374460D01*
X7158277Y-15374460D02*
X7177325Y-15383984D01*
X7177325Y-15383984D02*
X7215420Y-15383984D01*
X7215420Y-15383984D02*
X7234468Y-15374460D01*
X7234468Y-15374460D02*
X7243991Y-15364936D01*
X7243991Y-15364936D02*
X7253515Y-15345888D01*
X7253515Y-15345888D02*
X7253515Y-15298269D01*
X7253515Y-15298269D02*
X7243991Y-15279222D01*
X7243991Y-15279222D02*
X7234468Y-15269698D01*
X7234468Y-15269698D02*
X7215420Y-15260174D01*
X7215420Y-15260174D02*
X7177325Y-15260174D01*
X7177325Y-15260174D02*
X7158277Y-15269698D01*
X7158277Y-15269698D02*
X7148753Y-15279222D01*
X7148753Y-15279222D02*
X7139229Y-15298269D01*
X7491610Y-15383984D02*
X7491610Y-15183984D01*
X7577325Y-15383984D02*
X7577325Y-15279222D01*
X7577325Y-15279222D02*
X7567801Y-15260174D01*
X7567801Y-15260174D02*
X7548753Y-15250650D01*
X7548753Y-15250650D02*
X7520182Y-15250650D01*
X7520182Y-15250650D02*
X7501134Y-15260174D01*
X7501134Y-15260174D02*
X7491610Y-15269698D01*
X7701134Y-15383984D02*
X7682087Y-15374460D01*
X7682087Y-15374460D02*
X7672563Y-15364936D01*
X7672563Y-15364936D02*
X7663039Y-15345888D01*
X7663039Y-15345888D02*
X7663039Y-15288746D01*
X7663039Y-15288746D02*
X7672563Y-15269698D01*
X7672563Y-15269698D02*
X7682087Y-15260174D01*
X7682087Y-15260174D02*
X7701134Y-15250650D01*
X7701134Y-15250650D02*
X7729706Y-15250650D01*
X7729706Y-15250650D02*
X7748753Y-15260174D01*
X7748753Y-15260174D02*
X7758277Y-15269698D01*
X7758277Y-15269698D02*
X7767801Y-15288746D01*
X7767801Y-15288746D02*
X7767801Y-15345888D01*
X7767801Y-15345888D02*
X7758277Y-15364936D01*
X7758277Y-15364936D02*
X7748753Y-15374460D01*
X7748753Y-15374460D02*
X7729706Y-15383984D01*
X7729706Y-15383984D02*
X7701134Y-15383984D01*
X7882087Y-15383984D02*
X7863039Y-15374460D01*
X7863039Y-15374460D02*
X7853515Y-15355412D01*
X7853515Y-15355412D02*
X7853515Y-15183984D01*
X8034468Y-15374460D02*
X8015420Y-15383984D01*
X8015420Y-15383984D02*
X7977325Y-15383984D01*
X7977325Y-15383984D02*
X7958277Y-15374460D01*
X7958277Y-15374460D02*
X7948753Y-15355412D01*
X7948753Y-15355412D02*
X7948753Y-15279222D01*
X7948753Y-15279222D02*
X7958277Y-15260174D01*
X7958277Y-15260174D02*
X7977325Y-15250650D01*
X7977325Y-15250650D02*
X8015420Y-15250650D01*
X8015420Y-15250650D02*
X8034468Y-15260174D01*
X8034468Y-15260174D02*
X8043991Y-15279222D01*
X8043991Y-15279222D02*
X8043991Y-15298269D01*
X8043991Y-15298269D02*
X7948753Y-15317317D01*
X8120182Y-15374460D02*
X8139230Y-15383984D01*
X8139230Y-15383984D02*
X8177325Y-15383984D01*
X8177325Y-15383984D02*
X8196372Y-15374460D01*
X8196372Y-15374460D02*
X8205896Y-15355412D01*
X8205896Y-15355412D02*
X8205896Y-15345888D01*
X8205896Y-15345888D02*
X8196372Y-15326841D01*
X8196372Y-15326841D02*
X8177325Y-15317317D01*
X8177325Y-15317317D02*
X8148753Y-15317317D01*
X8148753Y-15317317D02*
X8129706Y-15307793D01*
X8129706Y-15307793D02*
X8120182Y-15288746D01*
X8120182Y-15288746D02*
X8120182Y-15279222D01*
X8120182Y-15279222D02*
X8129706Y-15260174D01*
X8129706Y-15260174D02*
X8148753Y-15250650D01*
X8148753Y-15250650D02*
X8177325Y-15250650D01*
X8177325Y-15250650D02*
X8196372Y-15260174D01*
X8272563Y-15460174D02*
X8282087Y-15450650D01*
X8282087Y-15450650D02*
X8301134Y-15422079D01*
X8301134Y-15422079D02*
X8310658Y-15403031D01*
X8310658Y-15403031D02*
X8320182Y-15374460D01*
X8320182Y-15374460D02*
X8329706Y-15326841D01*
X8329706Y-15326841D02*
X8329706Y-15288746D01*
X8329706Y-15288746D02*
X8320182Y-15241127D01*
X8320182Y-15241127D02*
X8310658Y-15212555D01*
X8310658Y-15212555D02*
X8301134Y-15193508D01*
X8301134Y-15193508D02*
X8282087Y-15164936D01*
X8282087Y-15164936D02*
X8272563Y-15155412D01*
X8634468Y-15460174D02*
X8624944Y-15450650D01*
X8624944Y-15450650D02*
X8605896Y-15422079D01*
X8605896Y-15422079D02*
X8596373Y-15403031D01*
X8596373Y-15403031D02*
X8586849Y-15374460D01*
X8586849Y-15374460D02*
X8577325Y-15326841D01*
X8577325Y-15326841D02*
X8577325Y-15288746D01*
X8577325Y-15288746D02*
X8586849Y-15241127D01*
X8586849Y-15241127D02*
X8596373Y-15212555D01*
X8596373Y-15212555D02*
X8605896Y-15193508D01*
X8605896Y-15193508D02*
X8624944Y-15164936D01*
X8624944Y-15164936D02*
X8634468Y-15155412D01*
X8710658Y-15250650D02*
X8710658Y-15383984D01*
X8710658Y-15269698D02*
X8720182Y-15260174D01*
X8720182Y-15260174D02*
X8739230Y-15250650D01*
X8739230Y-15250650D02*
X8767801Y-15250650D01*
X8767801Y-15250650D02*
X8786849Y-15260174D01*
X8786849Y-15260174D02*
X8796373Y-15279222D01*
X8796373Y-15279222D02*
X8796373Y-15383984D01*
X8920182Y-15383984D02*
X8901134Y-15374460D01*
X8901134Y-15374460D02*
X8891611Y-15364936D01*
X8891611Y-15364936D02*
X8882087Y-15345888D01*
X8882087Y-15345888D02*
X8882087Y-15288746D01*
X8882087Y-15288746D02*
X8891611Y-15269698D01*
X8891611Y-15269698D02*
X8901134Y-15260174D01*
X8901134Y-15260174D02*
X8920182Y-15250650D01*
X8920182Y-15250650D02*
X8948754Y-15250650D01*
X8948754Y-15250650D02*
X8967801Y-15260174D01*
X8967801Y-15260174D02*
X8977325Y-15269698D01*
X8977325Y-15269698D02*
X8986849Y-15288746D01*
X8986849Y-15288746D02*
X8986849Y-15345888D01*
X8986849Y-15345888D02*
X8977325Y-15364936D01*
X8977325Y-15364936D02*
X8967801Y-15374460D01*
X8967801Y-15374460D02*
X8948754Y-15383984D01*
X8948754Y-15383984D02*
X8920182Y-15383984D01*
X9043992Y-15250650D02*
X9120182Y-15250650D01*
X9072563Y-15183984D02*
X9072563Y-15355412D01*
X9072563Y-15355412D02*
X9082087Y-15374460D01*
X9082087Y-15374460D02*
X9101134Y-15383984D01*
X9101134Y-15383984D02*
X9120182Y-15383984D01*
X9339230Y-15250650D02*
X9339230Y-15450650D01*
X9339230Y-15260174D02*
X9358277Y-15250650D01*
X9358277Y-15250650D02*
X9396373Y-15250650D01*
X9396373Y-15250650D02*
X9415420Y-15260174D01*
X9415420Y-15260174D02*
X9424944Y-15269698D01*
X9424944Y-15269698D02*
X9434468Y-15288746D01*
X9434468Y-15288746D02*
X9434468Y-15345888D01*
X9434468Y-15345888D02*
X9424944Y-15364936D01*
X9424944Y-15364936D02*
X9415420Y-15374460D01*
X9415420Y-15374460D02*
X9396373Y-15383984D01*
X9396373Y-15383984D02*
X9358277Y-15383984D01*
X9358277Y-15383984D02*
X9339230Y-15374460D01*
X9548754Y-15383984D02*
X9529706Y-15374460D01*
X9529706Y-15374460D02*
X9520182Y-15355412D01*
X9520182Y-15355412D02*
X9520182Y-15183984D01*
X9710658Y-15383984D02*
X9710658Y-15279222D01*
X9710658Y-15279222D02*
X9701135Y-15260174D01*
X9701135Y-15260174D02*
X9682087Y-15250650D01*
X9682087Y-15250650D02*
X9643992Y-15250650D01*
X9643992Y-15250650D02*
X9624944Y-15260174D01*
X9710658Y-15374460D02*
X9691611Y-15383984D01*
X9691611Y-15383984D02*
X9643992Y-15383984D01*
X9643992Y-15383984D02*
X9624944Y-15374460D01*
X9624944Y-15374460D02*
X9615420Y-15355412D01*
X9615420Y-15355412D02*
X9615420Y-15336365D01*
X9615420Y-15336365D02*
X9624944Y-15317317D01*
X9624944Y-15317317D02*
X9643992Y-15307793D01*
X9643992Y-15307793D02*
X9691611Y-15307793D01*
X9691611Y-15307793D02*
X9710658Y-15298269D01*
X9777325Y-15250650D02*
X9853515Y-15250650D01*
X9805896Y-15183984D02*
X9805896Y-15355412D01*
X9805896Y-15355412D02*
X9815420Y-15374460D01*
X9815420Y-15374460D02*
X9834468Y-15383984D01*
X9834468Y-15383984D02*
X9853515Y-15383984D01*
X9996373Y-15374460D02*
X9977325Y-15383984D01*
X9977325Y-15383984D02*
X9939230Y-15383984D01*
X9939230Y-15383984D02*
X9920182Y-15374460D01*
X9920182Y-15374460D02*
X9910658Y-15355412D01*
X9910658Y-15355412D02*
X9910658Y-15279222D01*
X9910658Y-15279222D02*
X9920182Y-15260174D01*
X9920182Y-15260174D02*
X9939230Y-15250650D01*
X9939230Y-15250650D02*
X9977325Y-15250650D01*
X9977325Y-15250650D02*
X9996373Y-15260174D01*
X9996373Y-15260174D02*
X10005896Y-15279222D01*
X10005896Y-15279222D02*
X10005896Y-15298269D01*
X10005896Y-15298269D02*
X9910658Y-15317317D01*
X10177325Y-15383984D02*
X10177325Y-15183984D01*
X10177325Y-15374460D02*
X10158277Y-15383984D01*
X10158277Y-15383984D02*
X10120182Y-15383984D01*
X10120182Y-15383984D02*
X10101135Y-15374460D01*
X10101135Y-15374460D02*
X10091611Y-15364936D01*
X10091611Y-15364936D02*
X10082087Y-15345888D01*
X10082087Y-15345888D02*
X10082087Y-15288746D01*
X10082087Y-15288746D02*
X10091611Y-15269698D01*
X10091611Y-15269698D02*
X10101135Y-15260174D01*
X10101135Y-15260174D02*
X10120182Y-15250650D01*
X10120182Y-15250650D02*
X10158277Y-15250650D01*
X10158277Y-15250650D02*
X10177325Y-15260174D01*
X10253516Y-15460174D02*
X10263039Y-15450650D01*
X10263039Y-15450650D02*
X10282087Y-15422079D01*
X10282087Y-15422079D02*
X10291611Y-15403031D01*
X10291611Y-15403031D02*
X10301135Y-15374460D01*
X10301135Y-15374460D02*
X10310658Y-15326841D01*
X10310658Y-15326841D02*
X10310658Y-15288746D01*
X10310658Y-15288746D02*
X10301135Y-15241127D01*
X10301135Y-15241127D02*
X10291611Y-15212555D01*
X10291611Y-15212555D02*
X10282087Y-15193508D01*
X10282087Y-15193508D02*
X10263039Y-15164936D01*
X10263039Y-15164936D02*
X10253516Y-15155412D01*
M02*
