G04 #@! TF.GenerationSoftware,KiCad,Pcbnew,7.0.11-7.0.11~ubuntu22.04.1*
G04 #@! TF.CreationDate,2024-10-19T21:35:02+01:00*
G04 #@! TF.ProjectId,MS20-VCF,4d533230-2d56-4434-962e-6b696361645f,rev?*
G04 #@! TF.SameCoordinates,Original*
G04 #@! TF.FileFunction,Legend,Top*
G04 #@! TF.FilePolarity,Positive*
%FSLAX46Y46*%
G04 Gerber Fmt 4.6, Leading zero omitted, Abs format (unit mm)*
G04 Created by KiCad (PCBNEW 7.0.11-7.0.11~ubuntu22.04.1) date 2024-10-19 21:35:02*
%MOMM*%
%LPD*%
G01*
G04 APERTURE LIST*
%ADD10C,0.150000*%
%ADD11C,0.120000*%
%ADD12C,1.600000*%
%ADD13C,4.000000*%
%ADD14C,1.800000*%
%ADD15R,1.600000X1.600000*%
%ADD16O,1.600000X1.600000*%
%ADD17R,1.930000X1.830000*%
%ADD18C,2.130000*%
%ADD19R,1.500000X1.500000*%
%ADD20C,1.500000*%
%ADD21O,3.700000X2.400000*%
%ADD22R,1.800000X1.800000*%
%ADD23C,2.000000*%
%ADD24O,2.000000X2.000000*%
%ADD25C,1.700000*%
%ADD26C,1.440000*%
G04 APERTURE END LIST*
D10*
X37880952Y-38344819D02*
X37880952Y-37344819D01*
X37880952Y-37344819D02*
X38214285Y-38059104D01*
X38214285Y-38059104D02*
X38547618Y-37344819D01*
X38547618Y-37344819D02*
X38547618Y-38344819D01*
X38976190Y-38297200D02*
X39119047Y-38344819D01*
X39119047Y-38344819D02*
X39357142Y-38344819D01*
X39357142Y-38344819D02*
X39452380Y-38297200D01*
X39452380Y-38297200D02*
X39499999Y-38249580D01*
X39499999Y-38249580D02*
X39547618Y-38154342D01*
X39547618Y-38154342D02*
X39547618Y-38059104D01*
X39547618Y-38059104D02*
X39499999Y-37963866D01*
X39499999Y-37963866D02*
X39452380Y-37916247D01*
X39452380Y-37916247D02*
X39357142Y-37868628D01*
X39357142Y-37868628D02*
X39166666Y-37821009D01*
X39166666Y-37821009D02*
X39071428Y-37773390D01*
X39071428Y-37773390D02*
X39023809Y-37725771D01*
X39023809Y-37725771D02*
X38976190Y-37630533D01*
X38976190Y-37630533D02*
X38976190Y-37535295D01*
X38976190Y-37535295D02*
X39023809Y-37440057D01*
X39023809Y-37440057D02*
X39071428Y-37392438D01*
X39071428Y-37392438D02*
X39166666Y-37344819D01*
X39166666Y-37344819D02*
X39404761Y-37344819D01*
X39404761Y-37344819D02*
X39547618Y-37392438D01*
X39976190Y-37963866D02*
X40738095Y-37963866D01*
X41166666Y-37440057D02*
X41214285Y-37392438D01*
X41214285Y-37392438D02*
X41309523Y-37344819D01*
X41309523Y-37344819D02*
X41547618Y-37344819D01*
X41547618Y-37344819D02*
X41642856Y-37392438D01*
X41642856Y-37392438D02*
X41690475Y-37440057D01*
X41690475Y-37440057D02*
X41738094Y-37535295D01*
X41738094Y-37535295D02*
X41738094Y-37630533D01*
X41738094Y-37630533D02*
X41690475Y-37773390D01*
X41690475Y-37773390D02*
X41119047Y-38344819D01*
X41119047Y-38344819D02*
X41738094Y-38344819D01*
X42357142Y-37344819D02*
X42452380Y-37344819D01*
X42452380Y-37344819D02*
X42547618Y-37392438D01*
X42547618Y-37392438D02*
X42595237Y-37440057D01*
X42595237Y-37440057D02*
X42642856Y-37535295D01*
X42642856Y-37535295D02*
X42690475Y-37725771D01*
X42690475Y-37725771D02*
X42690475Y-37963866D01*
X42690475Y-37963866D02*
X42642856Y-38154342D01*
X42642856Y-38154342D02*
X42595237Y-38249580D01*
X42595237Y-38249580D02*
X42547618Y-38297200D01*
X42547618Y-38297200D02*
X42452380Y-38344819D01*
X42452380Y-38344819D02*
X42357142Y-38344819D01*
X42357142Y-38344819D02*
X42261904Y-38297200D01*
X42261904Y-38297200D02*
X42214285Y-38249580D01*
X42214285Y-38249580D02*
X42166666Y-38154342D01*
X42166666Y-38154342D02*
X42119047Y-37963866D01*
X42119047Y-37963866D02*
X42119047Y-37725771D01*
X42119047Y-37725771D02*
X42166666Y-37535295D01*
X42166666Y-37535295D02*
X42214285Y-37440057D01*
X42214285Y-37440057D02*
X42261904Y-37392438D01*
X42261904Y-37392438D02*
X42357142Y-37344819D01*
X43738095Y-37344819D02*
X44071428Y-38344819D01*
X44071428Y-38344819D02*
X44404761Y-37344819D01*
X45309523Y-38249580D02*
X45261904Y-38297200D01*
X45261904Y-38297200D02*
X45119047Y-38344819D01*
X45119047Y-38344819D02*
X45023809Y-38344819D01*
X45023809Y-38344819D02*
X44880952Y-38297200D01*
X44880952Y-38297200D02*
X44785714Y-38201961D01*
X44785714Y-38201961D02*
X44738095Y-38106723D01*
X44738095Y-38106723D02*
X44690476Y-37916247D01*
X44690476Y-37916247D02*
X44690476Y-37773390D01*
X44690476Y-37773390D02*
X44738095Y-37582914D01*
X44738095Y-37582914D02*
X44785714Y-37487676D01*
X44785714Y-37487676D02*
X44880952Y-37392438D01*
X44880952Y-37392438D02*
X45023809Y-37344819D01*
X45023809Y-37344819D02*
X45119047Y-37344819D01*
X45119047Y-37344819D02*
X45261904Y-37392438D01*
X45261904Y-37392438D02*
X45309523Y-37440057D01*
X46071428Y-37821009D02*
X45738095Y-37821009D01*
X45738095Y-38344819D02*
X45738095Y-37344819D01*
X45738095Y-37344819D02*
X46214285Y-37344819D01*
X35738095Y-38954819D02*
X36071428Y-39954819D01*
X36071428Y-39954819D02*
X36404761Y-38954819D01*
X37261904Y-39954819D02*
X36690476Y-39954819D01*
X36976190Y-39954819D02*
X36976190Y-38954819D01*
X36976190Y-38954819D02*
X36880952Y-39097676D01*
X36880952Y-39097676D02*
X36785714Y-39192914D01*
X36785714Y-39192914D02*
X36690476Y-39240533D01*
X37690476Y-39859580D02*
X37738095Y-39907200D01*
X37738095Y-39907200D02*
X37690476Y-39954819D01*
X37690476Y-39954819D02*
X37642857Y-39907200D01*
X37642857Y-39907200D02*
X37690476Y-39859580D01*
X37690476Y-39859580D02*
X37690476Y-39954819D01*
X38119047Y-39050057D02*
X38166666Y-39002438D01*
X38166666Y-39002438D02*
X38261904Y-38954819D01*
X38261904Y-38954819D02*
X38499999Y-38954819D01*
X38499999Y-38954819D02*
X38595237Y-39002438D01*
X38595237Y-39002438D02*
X38642856Y-39050057D01*
X38642856Y-39050057D02*
X38690475Y-39145295D01*
X38690475Y-39145295D02*
X38690475Y-39240533D01*
X38690475Y-39240533D02*
X38642856Y-39383390D01*
X38642856Y-39383390D02*
X38071428Y-39954819D01*
X38071428Y-39954819D02*
X38690475Y-39954819D01*
X40214285Y-39431009D02*
X40357142Y-39478628D01*
X40357142Y-39478628D02*
X40404761Y-39526247D01*
X40404761Y-39526247D02*
X40452380Y-39621485D01*
X40452380Y-39621485D02*
X40452380Y-39764342D01*
X40452380Y-39764342D02*
X40404761Y-39859580D01*
X40404761Y-39859580D02*
X40357142Y-39907200D01*
X40357142Y-39907200D02*
X40261904Y-39954819D01*
X40261904Y-39954819D02*
X39880952Y-39954819D01*
X39880952Y-39954819D02*
X39880952Y-38954819D01*
X39880952Y-38954819D02*
X40214285Y-38954819D01*
X40214285Y-38954819D02*
X40309523Y-39002438D01*
X40309523Y-39002438D02*
X40357142Y-39050057D01*
X40357142Y-39050057D02*
X40404761Y-39145295D01*
X40404761Y-39145295D02*
X40404761Y-39240533D01*
X40404761Y-39240533D02*
X40357142Y-39335771D01*
X40357142Y-39335771D02*
X40309523Y-39383390D01*
X40309523Y-39383390D02*
X40214285Y-39431009D01*
X40214285Y-39431009D02*
X39880952Y-39431009D01*
X41023809Y-39954819D02*
X40928571Y-39907200D01*
X40928571Y-39907200D02*
X40880952Y-39811961D01*
X40880952Y-39811961D02*
X40880952Y-38954819D01*
X41785714Y-39907200D02*
X41690476Y-39954819D01*
X41690476Y-39954819D02*
X41500000Y-39954819D01*
X41500000Y-39954819D02*
X41404762Y-39907200D01*
X41404762Y-39907200D02*
X41357143Y-39811961D01*
X41357143Y-39811961D02*
X41357143Y-39431009D01*
X41357143Y-39431009D02*
X41404762Y-39335771D01*
X41404762Y-39335771D02*
X41500000Y-39288152D01*
X41500000Y-39288152D02*
X41690476Y-39288152D01*
X41690476Y-39288152D02*
X41785714Y-39335771D01*
X41785714Y-39335771D02*
X41833333Y-39431009D01*
X41833333Y-39431009D02*
X41833333Y-39526247D01*
X41833333Y-39526247D02*
X41357143Y-39621485D01*
X42642857Y-39907200D02*
X42547619Y-39954819D01*
X42547619Y-39954819D02*
X42357143Y-39954819D01*
X42357143Y-39954819D02*
X42261905Y-39907200D01*
X42261905Y-39907200D02*
X42214286Y-39811961D01*
X42214286Y-39811961D02*
X42214286Y-39431009D01*
X42214286Y-39431009D02*
X42261905Y-39335771D01*
X42261905Y-39335771D02*
X42357143Y-39288152D01*
X42357143Y-39288152D02*
X42547619Y-39288152D01*
X42547619Y-39288152D02*
X42642857Y-39335771D01*
X42642857Y-39335771D02*
X42690476Y-39431009D01*
X42690476Y-39431009D02*
X42690476Y-39526247D01*
X42690476Y-39526247D02*
X42214286Y-39621485D01*
X43119048Y-39288152D02*
X43119048Y-40288152D01*
X43119048Y-39335771D02*
X43214286Y-39288152D01*
X43214286Y-39288152D02*
X43404762Y-39288152D01*
X43404762Y-39288152D02*
X43500000Y-39335771D01*
X43500000Y-39335771D02*
X43547619Y-39383390D01*
X43547619Y-39383390D02*
X43595238Y-39478628D01*
X43595238Y-39478628D02*
X43595238Y-39764342D01*
X43595238Y-39764342D02*
X43547619Y-39859580D01*
X43547619Y-39859580D02*
X43500000Y-39907200D01*
X43500000Y-39907200D02*
X43404762Y-39954819D01*
X43404762Y-39954819D02*
X43214286Y-39954819D01*
X43214286Y-39954819D02*
X43119048Y-39907200D01*
X43976191Y-39907200D02*
X44119048Y-39954819D01*
X44119048Y-39954819D02*
X44357143Y-39954819D01*
X44357143Y-39954819D02*
X44452381Y-39907200D01*
X44452381Y-39907200D02*
X44500000Y-39859580D01*
X44500000Y-39859580D02*
X44547619Y-39764342D01*
X44547619Y-39764342D02*
X44547619Y-39669104D01*
X44547619Y-39669104D02*
X44500000Y-39573866D01*
X44500000Y-39573866D02*
X44452381Y-39526247D01*
X44452381Y-39526247D02*
X44357143Y-39478628D01*
X44357143Y-39478628D02*
X44166667Y-39431009D01*
X44166667Y-39431009D02*
X44071429Y-39383390D01*
X44071429Y-39383390D02*
X44023810Y-39335771D01*
X44023810Y-39335771D02*
X43976191Y-39240533D01*
X43976191Y-39240533D02*
X43976191Y-39145295D01*
X43976191Y-39145295D02*
X44023810Y-39050057D01*
X44023810Y-39050057D02*
X44071429Y-39002438D01*
X44071429Y-39002438D02*
X44166667Y-38954819D01*
X44166667Y-38954819D02*
X44404762Y-38954819D01*
X44404762Y-38954819D02*
X44547619Y-39002438D01*
X45119048Y-39954819D02*
X45023810Y-39907200D01*
X45023810Y-39907200D02*
X44976191Y-39859580D01*
X44976191Y-39859580D02*
X44928572Y-39764342D01*
X44928572Y-39764342D02*
X44928572Y-39478628D01*
X44928572Y-39478628D02*
X44976191Y-39383390D01*
X44976191Y-39383390D02*
X45023810Y-39335771D01*
X45023810Y-39335771D02*
X45119048Y-39288152D01*
X45119048Y-39288152D02*
X45261905Y-39288152D01*
X45261905Y-39288152D02*
X45357143Y-39335771D01*
X45357143Y-39335771D02*
X45404762Y-39383390D01*
X45404762Y-39383390D02*
X45452381Y-39478628D01*
X45452381Y-39478628D02*
X45452381Y-39764342D01*
X45452381Y-39764342D02*
X45404762Y-39859580D01*
X45404762Y-39859580D02*
X45357143Y-39907200D01*
X45357143Y-39907200D02*
X45261905Y-39954819D01*
X45261905Y-39954819D02*
X45119048Y-39954819D01*
X46309524Y-39288152D02*
X46309524Y-39954819D01*
X45880953Y-39288152D02*
X45880953Y-39811961D01*
X45880953Y-39811961D02*
X45928572Y-39907200D01*
X45928572Y-39907200D02*
X46023810Y-39954819D01*
X46023810Y-39954819D02*
X46166667Y-39954819D01*
X46166667Y-39954819D02*
X46261905Y-39907200D01*
X46261905Y-39907200D02*
X46309524Y-39859580D01*
X46785715Y-39288152D02*
X46785715Y-39954819D01*
X46785715Y-39383390D02*
X46833334Y-39335771D01*
X46833334Y-39335771D02*
X46928572Y-39288152D01*
X46928572Y-39288152D02*
X47071429Y-39288152D01*
X47071429Y-39288152D02*
X47166667Y-39335771D01*
X47166667Y-39335771D02*
X47214286Y-39431009D01*
X47214286Y-39431009D02*
X47214286Y-39954819D01*
X48119048Y-39954819D02*
X48119048Y-38954819D01*
X48119048Y-39907200D02*
X48023810Y-39954819D01*
X48023810Y-39954819D02*
X47833334Y-39954819D01*
X47833334Y-39954819D02*
X47738096Y-39907200D01*
X47738096Y-39907200D02*
X47690477Y-39859580D01*
X47690477Y-39859580D02*
X47642858Y-39764342D01*
X47642858Y-39764342D02*
X47642858Y-39478628D01*
X47642858Y-39478628D02*
X47690477Y-39383390D01*
X47690477Y-39383390D02*
X47738096Y-39335771D01*
X47738096Y-39335771D02*
X47833334Y-39288152D01*
X47833334Y-39288152D02*
X48023810Y-39288152D01*
X48023810Y-39288152D02*
X48119048Y-39335771D01*
X40285714Y-40660057D02*
X40333333Y-40612438D01*
X40333333Y-40612438D02*
X40428571Y-40564819D01*
X40428571Y-40564819D02*
X40666666Y-40564819D01*
X40666666Y-40564819D02*
X40761904Y-40612438D01*
X40761904Y-40612438D02*
X40809523Y-40660057D01*
X40809523Y-40660057D02*
X40857142Y-40755295D01*
X40857142Y-40755295D02*
X40857142Y-40850533D01*
X40857142Y-40850533D02*
X40809523Y-40993390D01*
X40809523Y-40993390D02*
X40238095Y-41564819D01*
X40238095Y-41564819D02*
X40857142Y-41564819D01*
X41476190Y-40564819D02*
X41571428Y-40564819D01*
X41571428Y-40564819D02*
X41666666Y-40612438D01*
X41666666Y-40612438D02*
X41714285Y-40660057D01*
X41714285Y-40660057D02*
X41761904Y-40755295D01*
X41761904Y-40755295D02*
X41809523Y-40945771D01*
X41809523Y-40945771D02*
X41809523Y-41183866D01*
X41809523Y-41183866D02*
X41761904Y-41374342D01*
X41761904Y-41374342D02*
X41714285Y-41469580D01*
X41714285Y-41469580D02*
X41666666Y-41517200D01*
X41666666Y-41517200D02*
X41571428Y-41564819D01*
X41571428Y-41564819D02*
X41476190Y-41564819D01*
X41476190Y-41564819D02*
X41380952Y-41517200D01*
X41380952Y-41517200D02*
X41333333Y-41469580D01*
X41333333Y-41469580D02*
X41285714Y-41374342D01*
X41285714Y-41374342D02*
X41238095Y-41183866D01*
X41238095Y-41183866D02*
X41238095Y-40945771D01*
X41238095Y-40945771D02*
X41285714Y-40755295D01*
X41285714Y-40755295D02*
X41333333Y-40660057D01*
X41333333Y-40660057D02*
X41380952Y-40612438D01*
X41380952Y-40612438D02*
X41476190Y-40564819D01*
X42190476Y-40660057D02*
X42238095Y-40612438D01*
X42238095Y-40612438D02*
X42333333Y-40564819D01*
X42333333Y-40564819D02*
X42571428Y-40564819D01*
X42571428Y-40564819D02*
X42666666Y-40612438D01*
X42666666Y-40612438D02*
X42714285Y-40660057D01*
X42714285Y-40660057D02*
X42761904Y-40755295D01*
X42761904Y-40755295D02*
X42761904Y-40850533D01*
X42761904Y-40850533D02*
X42714285Y-40993390D01*
X42714285Y-40993390D02*
X42142857Y-41564819D01*
X42142857Y-41564819D02*
X42761904Y-41564819D01*
X43095238Y-40564819D02*
X43714285Y-40564819D01*
X43714285Y-40564819D02*
X43380952Y-40945771D01*
X43380952Y-40945771D02*
X43523809Y-40945771D01*
X43523809Y-40945771D02*
X43619047Y-40993390D01*
X43619047Y-40993390D02*
X43666666Y-41041009D01*
X43666666Y-41041009D02*
X43714285Y-41136247D01*
X43714285Y-41136247D02*
X43714285Y-41374342D01*
X43714285Y-41374342D02*
X43666666Y-41469580D01*
X43666666Y-41469580D02*
X43619047Y-41517200D01*
X43619047Y-41517200D02*
X43523809Y-41564819D01*
X43523809Y-41564819D02*
X43238095Y-41564819D01*
X43238095Y-41564819D02*
X43142857Y-41517200D01*
X43142857Y-41517200D02*
X43095238Y-41469580D01*
X83259580Y-89466666D02*
X83307200Y-89514285D01*
X83307200Y-89514285D02*
X83354819Y-89657142D01*
X83354819Y-89657142D02*
X83354819Y-89752380D01*
X83354819Y-89752380D02*
X83307200Y-89895237D01*
X83307200Y-89895237D02*
X83211961Y-89990475D01*
X83211961Y-89990475D02*
X83116723Y-90038094D01*
X83116723Y-90038094D02*
X82926247Y-90085713D01*
X82926247Y-90085713D02*
X82783390Y-90085713D01*
X82783390Y-90085713D02*
X82592914Y-90038094D01*
X82592914Y-90038094D02*
X82497676Y-89990475D01*
X82497676Y-89990475D02*
X82402438Y-89895237D01*
X82402438Y-89895237D02*
X82354819Y-89752380D01*
X82354819Y-89752380D02*
X82354819Y-89657142D01*
X82354819Y-89657142D02*
X82402438Y-89514285D01*
X82402438Y-89514285D02*
X82450057Y-89466666D01*
X82688152Y-88609523D02*
X83354819Y-88609523D01*
X82307200Y-88847618D02*
X83021485Y-89085713D01*
X83021485Y-89085713D02*
X83021485Y-88466666D01*
X49859580Y-117500000D02*
X49907200Y-117547619D01*
X49907200Y-117547619D02*
X49954819Y-117690476D01*
X49954819Y-117690476D02*
X49954819Y-117785714D01*
X49954819Y-117785714D02*
X49907200Y-117928571D01*
X49907200Y-117928571D02*
X49811961Y-118023809D01*
X49811961Y-118023809D02*
X49716723Y-118071428D01*
X49716723Y-118071428D02*
X49526247Y-118119047D01*
X49526247Y-118119047D02*
X49383390Y-118119047D01*
X49383390Y-118119047D02*
X49192914Y-118071428D01*
X49192914Y-118071428D02*
X49097676Y-118023809D01*
X49097676Y-118023809D02*
X49002438Y-117928571D01*
X49002438Y-117928571D02*
X48954819Y-117785714D01*
X48954819Y-117785714D02*
X48954819Y-117690476D01*
X48954819Y-117690476D02*
X49002438Y-117547619D01*
X49002438Y-117547619D02*
X49050057Y-117500000D01*
X48954819Y-117071428D02*
X49764342Y-117071428D01*
X49764342Y-117071428D02*
X49859580Y-117023809D01*
X49859580Y-117023809D02*
X49907200Y-116976190D01*
X49907200Y-116976190D02*
X49954819Y-116880952D01*
X49954819Y-116880952D02*
X49954819Y-116690476D01*
X49954819Y-116690476D02*
X49907200Y-116595238D01*
X49907200Y-116595238D02*
X49859580Y-116547619D01*
X49859580Y-116547619D02*
X49764342Y-116500000D01*
X49764342Y-116500000D02*
X48954819Y-116500000D01*
X48954819Y-116166666D02*
X48954819Y-115595238D01*
X49954819Y-115880952D02*
X48954819Y-115880952D01*
X49859580Y-114690476D02*
X49907200Y-114738095D01*
X49907200Y-114738095D02*
X49954819Y-114880952D01*
X49954819Y-114880952D02*
X49954819Y-114976190D01*
X49954819Y-114976190D02*
X49907200Y-115119047D01*
X49907200Y-115119047D02*
X49811961Y-115214285D01*
X49811961Y-115214285D02*
X49716723Y-115261904D01*
X49716723Y-115261904D02*
X49526247Y-115309523D01*
X49526247Y-115309523D02*
X49383390Y-115309523D01*
X49383390Y-115309523D02*
X49192914Y-115261904D01*
X49192914Y-115261904D02*
X49097676Y-115214285D01*
X49097676Y-115214285D02*
X49002438Y-115119047D01*
X49002438Y-115119047D02*
X48954819Y-114976190D01*
X48954819Y-114976190D02*
X48954819Y-114880952D01*
X48954819Y-114880952D02*
X49002438Y-114738095D01*
X49002438Y-114738095D02*
X49050057Y-114690476D01*
X48954819Y-114404761D02*
X49954819Y-114071428D01*
X49954819Y-114071428D02*
X48954819Y-113738095D01*
X49954819Y-112880952D02*
X49954819Y-113452380D01*
X49954819Y-113166666D02*
X48954819Y-113166666D01*
X48954819Y-113166666D02*
X49097676Y-113261904D01*
X49097676Y-113261904D02*
X49192914Y-113357142D01*
X49192914Y-113357142D02*
X49240533Y-113452380D01*
X52709580Y-52452381D02*
X52757200Y-52500000D01*
X52757200Y-52500000D02*
X52804819Y-52642857D01*
X52804819Y-52642857D02*
X52804819Y-52738095D01*
X52804819Y-52738095D02*
X52757200Y-52880952D01*
X52757200Y-52880952D02*
X52661961Y-52976190D01*
X52661961Y-52976190D02*
X52566723Y-53023809D01*
X52566723Y-53023809D02*
X52376247Y-53071428D01*
X52376247Y-53071428D02*
X52233390Y-53071428D01*
X52233390Y-53071428D02*
X52042914Y-53023809D01*
X52042914Y-53023809D02*
X51947676Y-52976190D01*
X51947676Y-52976190D02*
X51852438Y-52880952D01*
X51852438Y-52880952D02*
X51804819Y-52738095D01*
X51804819Y-52738095D02*
X51804819Y-52642857D01*
X51804819Y-52642857D02*
X51852438Y-52500000D01*
X51852438Y-52500000D02*
X51900057Y-52452381D01*
X51804819Y-52023809D02*
X52614342Y-52023809D01*
X52614342Y-52023809D02*
X52709580Y-51976190D01*
X52709580Y-51976190D02*
X52757200Y-51928571D01*
X52757200Y-51928571D02*
X52804819Y-51833333D01*
X52804819Y-51833333D02*
X52804819Y-51642857D01*
X52804819Y-51642857D02*
X52757200Y-51547619D01*
X52757200Y-51547619D02*
X52709580Y-51500000D01*
X52709580Y-51500000D02*
X52614342Y-51452381D01*
X52614342Y-51452381D02*
X51804819Y-51452381D01*
X51804819Y-51119047D02*
X51804819Y-50547619D01*
X52804819Y-50833333D02*
X51804819Y-50833333D01*
X51804819Y-50023809D02*
X51804819Y-49833333D01*
X51804819Y-49833333D02*
X51852438Y-49738095D01*
X51852438Y-49738095D02*
X51947676Y-49642857D01*
X51947676Y-49642857D02*
X52138152Y-49595238D01*
X52138152Y-49595238D02*
X52471485Y-49595238D01*
X52471485Y-49595238D02*
X52661961Y-49642857D01*
X52661961Y-49642857D02*
X52757200Y-49738095D01*
X52757200Y-49738095D02*
X52804819Y-49833333D01*
X52804819Y-49833333D02*
X52804819Y-50023809D01*
X52804819Y-50023809D02*
X52757200Y-50119047D01*
X52757200Y-50119047D02*
X52661961Y-50214285D01*
X52661961Y-50214285D02*
X52471485Y-50261904D01*
X52471485Y-50261904D02*
X52138152Y-50261904D01*
X52138152Y-50261904D02*
X51947676Y-50214285D01*
X51947676Y-50214285D02*
X51852438Y-50119047D01*
X51852438Y-50119047D02*
X51804819Y-50023809D01*
X52281009Y-48833333D02*
X52281009Y-49166666D01*
X52804819Y-49166666D02*
X51804819Y-49166666D01*
X51804819Y-49166666D02*
X51804819Y-48690476D01*
X52281009Y-47976190D02*
X52281009Y-48309523D01*
X52804819Y-48309523D02*
X51804819Y-48309523D01*
X51804819Y-48309523D02*
X51804819Y-47833333D01*
X52804819Y-46928571D02*
X52804819Y-47499999D01*
X52804819Y-47214285D02*
X51804819Y-47214285D01*
X51804819Y-47214285D02*
X51947676Y-47309523D01*
X51947676Y-47309523D02*
X52042914Y-47404761D01*
X52042914Y-47404761D02*
X52090533Y-47499999D01*
X78154819Y-42388094D02*
X77154819Y-42388094D01*
X77154819Y-42388094D02*
X77154819Y-42149999D01*
X77154819Y-42149999D02*
X77202438Y-42007142D01*
X77202438Y-42007142D02*
X77297676Y-41911904D01*
X77297676Y-41911904D02*
X77392914Y-41864285D01*
X77392914Y-41864285D02*
X77583390Y-41816666D01*
X77583390Y-41816666D02*
X77726247Y-41816666D01*
X77726247Y-41816666D02*
X77916723Y-41864285D01*
X77916723Y-41864285D02*
X78011961Y-41911904D01*
X78011961Y-41911904D02*
X78107200Y-42007142D01*
X78107200Y-42007142D02*
X78154819Y-42149999D01*
X78154819Y-42149999D02*
X78154819Y-42388094D01*
X77250057Y-41435713D02*
X77202438Y-41388094D01*
X77202438Y-41388094D02*
X77154819Y-41292856D01*
X77154819Y-41292856D02*
X77154819Y-41054761D01*
X77154819Y-41054761D02*
X77202438Y-40959523D01*
X77202438Y-40959523D02*
X77250057Y-40911904D01*
X77250057Y-40911904D02*
X77345295Y-40864285D01*
X77345295Y-40864285D02*
X77440533Y-40864285D01*
X77440533Y-40864285D02*
X77583390Y-40911904D01*
X77583390Y-40911904D02*
X78154819Y-41483332D01*
X78154819Y-41483332D02*
X78154819Y-40864285D01*
X78154819Y-47161904D02*
X77154819Y-47161904D01*
X78154819Y-46590476D02*
X77583390Y-47019047D01*
X77154819Y-46590476D02*
X77726247Y-47161904D01*
X78154819Y-52788094D02*
X77154819Y-52788094D01*
X77154819Y-52788094D02*
X77154819Y-52549999D01*
X77154819Y-52549999D02*
X77202438Y-52407142D01*
X77202438Y-52407142D02*
X77297676Y-52311904D01*
X77297676Y-52311904D02*
X77392914Y-52264285D01*
X77392914Y-52264285D02*
X77583390Y-52216666D01*
X77583390Y-52216666D02*
X77726247Y-52216666D01*
X77726247Y-52216666D02*
X77916723Y-52264285D01*
X77916723Y-52264285D02*
X78011961Y-52311904D01*
X78011961Y-52311904D02*
X78107200Y-52407142D01*
X78107200Y-52407142D02*
X78154819Y-52549999D01*
X78154819Y-52549999D02*
X78154819Y-52788094D01*
X77154819Y-51883332D02*
X77154819Y-51264285D01*
X77154819Y-51264285D02*
X77535771Y-51597618D01*
X77535771Y-51597618D02*
X77535771Y-51454761D01*
X77535771Y-51454761D02*
X77583390Y-51359523D01*
X77583390Y-51359523D02*
X77631009Y-51311904D01*
X77631009Y-51311904D02*
X77726247Y-51264285D01*
X77726247Y-51264285D02*
X77964342Y-51264285D01*
X77964342Y-51264285D02*
X78059580Y-51311904D01*
X78059580Y-51311904D02*
X78107200Y-51359523D01*
X78107200Y-51359523D02*
X78154819Y-51454761D01*
X78154819Y-51454761D02*
X78154819Y-51740475D01*
X78154819Y-51740475D02*
X78107200Y-51835713D01*
X78107200Y-51835713D02*
X78059580Y-51883332D01*
X78154819Y-57561904D02*
X77154819Y-57561904D01*
X78154819Y-56990476D02*
X77583390Y-57419047D01*
X77154819Y-56990476D02*
X77726247Y-57561904D01*
X75554819Y-42388094D02*
X74554819Y-42388094D01*
X74554819Y-42388094D02*
X74554819Y-42149999D01*
X74554819Y-42149999D02*
X74602438Y-42007142D01*
X74602438Y-42007142D02*
X74697676Y-41911904D01*
X74697676Y-41911904D02*
X74792914Y-41864285D01*
X74792914Y-41864285D02*
X74983390Y-41816666D01*
X74983390Y-41816666D02*
X75126247Y-41816666D01*
X75126247Y-41816666D02*
X75316723Y-41864285D01*
X75316723Y-41864285D02*
X75411961Y-41911904D01*
X75411961Y-41911904D02*
X75507200Y-42007142D01*
X75507200Y-42007142D02*
X75554819Y-42149999D01*
X75554819Y-42149999D02*
X75554819Y-42388094D01*
X74888152Y-40959523D02*
X75554819Y-40959523D01*
X74507200Y-41197618D02*
X75221485Y-41435713D01*
X75221485Y-41435713D02*
X75221485Y-40816666D01*
X75554819Y-47161904D02*
X74554819Y-47161904D01*
X75554819Y-46590476D02*
X74983390Y-47019047D01*
X74554819Y-46590476D02*
X75126247Y-47161904D01*
X75554819Y-52598094D02*
X74554819Y-52598094D01*
X74554819Y-52598094D02*
X74554819Y-52359999D01*
X74554819Y-52359999D02*
X74602438Y-52217142D01*
X74602438Y-52217142D02*
X74697676Y-52121904D01*
X74697676Y-52121904D02*
X74792914Y-52074285D01*
X74792914Y-52074285D02*
X74983390Y-52026666D01*
X74983390Y-52026666D02*
X75126247Y-52026666D01*
X75126247Y-52026666D02*
X75316723Y-52074285D01*
X75316723Y-52074285D02*
X75411961Y-52121904D01*
X75411961Y-52121904D02*
X75507200Y-52217142D01*
X75507200Y-52217142D02*
X75554819Y-52359999D01*
X75554819Y-52359999D02*
X75554819Y-52598094D01*
X74554819Y-51121904D02*
X74554819Y-51598094D01*
X74554819Y-51598094D02*
X75031009Y-51645713D01*
X75031009Y-51645713D02*
X74983390Y-51598094D01*
X74983390Y-51598094D02*
X74935771Y-51502856D01*
X74935771Y-51502856D02*
X74935771Y-51264761D01*
X74935771Y-51264761D02*
X74983390Y-51169523D01*
X74983390Y-51169523D02*
X75031009Y-51121904D01*
X75031009Y-51121904D02*
X75126247Y-51074285D01*
X75126247Y-51074285D02*
X75364342Y-51074285D01*
X75364342Y-51074285D02*
X75459580Y-51121904D01*
X75459580Y-51121904D02*
X75507200Y-51169523D01*
X75507200Y-51169523D02*
X75554819Y-51264761D01*
X75554819Y-51264761D02*
X75554819Y-51502856D01*
X75554819Y-51502856D02*
X75507200Y-51598094D01*
X75507200Y-51598094D02*
X75459580Y-51645713D01*
X75554819Y-57661904D02*
X74554819Y-57661904D01*
X75554819Y-57090476D02*
X74983390Y-57519047D01*
X74554819Y-57090476D02*
X75126247Y-57661904D01*
X73054819Y-42388094D02*
X72054819Y-42388094D01*
X72054819Y-42388094D02*
X72054819Y-42149999D01*
X72054819Y-42149999D02*
X72102438Y-42007142D01*
X72102438Y-42007142D02*
X72197676Y-41911904D01*
X72197676Y-41911904D02*
X72292914Y-41864285D01*
X72292914Y-41864285D02*
X72483390Y-41816666D01*
X72483390Y-41816666D02*
X72626247Y-41816666D01*
X72626247Y-41816666D02*
X72816723Y-41864285D01*
X72816723Y-41864285D02*
X72911961Y-41911904D01*
X72911961Y-41911904D02*
X73007200Y-42007142D01*
X73007200Y-42007142D02*
X73054819Y-42149999D01*
X73054819Y-42149999D02*
X73054819Y-42388094D01*
X72054819Y-40959523D02*
X72054819Y-41149999D01*
X72054819Y-41149999D02*
X72102438Y-41245237D01*
X72102438Y-41245237D02*
X72150057Y-41292856D01*
X72150057Y-41292856D02*
X72292914Y-41388094D01*
X72292914Y-41388094D02*
X72483390Y-41435713D01*
X72483390Y-41435713D02*
X72864342Y-41435713D01*
X72864342Y-41435713D02*
X72959580Y-41388094D01*
X72959580Y-41388094D02*
X73007200Y-41340475D01*
X73007200Y-41340475D02*
X73054819Y-41245237D01*
X73054819Y-41245237D02*
X73054819Y-41054761D01*
X73054819Y-41054761D02*
X73007200Y-40959523D01*
X73007200Y-40959523D02*
X72959580Y-40911904D01*
X72959580Y-40911904D02*
X72864342Y-40864285D01*
X72864342Y-40864285D02*
X72626247Y-40864285D01*
X72626247Y-40864285D02*
X72531009Y-40911904D01*
X72531009Y-40911904D02*
X72483390Y-40959523D01*
X72483390Y-40959523D02*
X72435771Y-41054761D01*
X72435771Y-41054761D02*
X72435771Y-41245237D01*
X72435771Y-41245237D02*
X72483390Y-41340475D01*
X72483390Y-41340475D02*
X72531009Y-41388094D01*
X72531009Y-41388094D02*
X72626247Y-41435713D01*
X72954819Y-47161904D02*
X71954819Y-47161904D01*
X72954819Y-46590476D02*
X72383390Y-47019047D01*
X71954819Y-46590476D02*
X72526247Y-47161904D01*
X72954819Y-52788094D02*
X71954819Y-52788094D01*
X71954819Y-52788094D02*
X71954819Y-52549999D01*
X71954819Y-52549999D02*
X72002438Y-52407142D01*
X72002438Y-52407142D02*
X72097676Y-52311904D01*
X72097676Y-52311904D02*
X72192914Y-52264285D01*
X72192914Y-52264285D02*
X72383390Y-52216666D01*
X72383390Y-52216666D02*
X72526247Y-52216666D01*
X72526247Y-52216666D02*
X72716723Y-52264285D01*
X72716723Y-52264285D02*
X72811961Y-52311904D01*
X72811961Y-52311904D02*
X72907200Y-52407142D01*
X72907200Y-52407142D02*
X72954819Y-52549999D01*
X72954819Y-52549999D02*
X72954819Y-52788094D01*
X71954819Y-51883332D02*
X71954819Y-51216666D01*
X71954819Y-51216666D02*
X72954819Y-51645237D01*
X72954819Y-57661904D02*
X71954819Y-57661904D01*
X72954819Y-57090476D02*
X72383390Y-57519047D01*
X71954819Y-57090476D02*
X72526247Y-57661904D01*
X37636666Y-130034819D02*
X37636666Y-130749104D01*
X37636666Y-130749104D02*
X37589047Y-130891961D01*
X37589047Y-130891961D02*
X37493809Y-130987200D01*
X37493809Y-130987200D02*
X37350952Y-131034819D01*
X37350952Y-131034819D02*
X37255714Y-131034819D01*
X38541428Y-130034819D02*
X38350952Y-130034819D01*
X38350952Y-130034819D02*
X38255714Y-130082438D01*
X38255714Y-130082438D02*
X38208095Y-130130057D01*
X38208095Y-130130057D02*
X38112857Y-130272914D01*
X38112857Y-130272914D02*
X38065238Y-130463390D01*
X38065238Y-130463390D02*
X38065238Y-130844342D01*
X38065238Y-130844342D02*
X38112857Y-130939580D01*
X38112857Y-130939580D02*
X38160476Y-130987200D01*
X38160476Y-130987200D02*
X38255714Y-131034819D01*
X38255714Y-131034819D02*
X38446190Y-131034819D01*
X38446190Y-131034819D02*
X38541428Y-130987200D01*
X38541428Y-130987200D02*
X38589047Y-130939580D01*
X38589047Y-130939580D02*
X38636666Y-130844342D01*
X38636666Y-130844342D02*
X38636666Y-130606247D01*
X38636666Y-130606247D02*
X38589047Y-130511009D01*
X38589047Y-130511009D02*
X38541428Y-130463390D01*
X38541428Y-130463390D02*
X38446190Y-130415771D01*
X38446190Y-130415771D02*
X38255714Y-130415771D01*
X38255714Y-130415771D02*
X38160476Y-130463390D01*
X38160476Y-130463390D02*
X38112857Y-130511009D01*
X38112857Y-130511009D02*
X38065238Y-130606247D01*
X35636666Y-95254819D02*
X35636666Y-95969104D01*
X35636666Y-95969104D02*
X35589047Y-96111961D01*
X35589047Y-96111961D02*
X35493809Y-96207200D01*
X35493809Y-96207200D02*
X35350952Y-96254819D01*
X35350952Y-96254819D02*
X35255714Y-96254819D01*
X36017619Y-95254819D02*
X36684285Y-95254819D01*
X36684285Y-95254819D02*
X36255714Y-96254819D01*
X75636666Y-95134819D02*
X75636666Y-95849104D01*
X75636666Y-95849104D02*
X75589047Y-95991961D01*
X75589047Y-95991961D02*
X75493809Y-96087200D01*
X75493809Y-96087200D02*
X75350952Y-96134819D01*
X75350952Y-96134819D02*
X75255714Y-96134819D01*
X76255714Y-95563390D02*
X76160476Y-95515771D01*
X76160476Y-95515771D02*
X76112857Y-95468152D01*
X76112857Y-95468152D02*
X76065238Y-95372914D01*
X76065238Y-95372914D02*
X76065238Y-95325295D01*
X76065238Y-95325295D02*
X76112857Y-95230057D01*
X76112857Y-95230057D02*
X76160476Y-95182438D01*
X76160476Y-95182438D02*
X76255714Y-95134819D01*
X76255714Y-95134819D02*
X76446190Y-95134819D01*
X76446190Y-95134819D02*
X76541428Y-95182438D01*
X76541428Y-95182438D02*
X76589047Y-95230057D01*
X76589047Y-95230057D02*
X76636666Y-95325295D01*
X76636666Y-95325295D02*
X76636666Y-95372914D01*
X76636666Y-95372914D02*
X76589047Y-95468152D01*
X76589047Y-95468152D02*
X76541428Y-95515771D01*
X76541428Y-95515771D02*
X76446190Y-95563390D01*
X76446190Y-95563390D02*
X76255714Y-95563390D01*
X76255714Y-95563390D02*
X76160476Y-95611009D01*
X76160476Y-95611009D02*
X76112857Y-95658628D01*
X76112857Y-95658628D02*
X76065238Y-95753866D01*
X76065238Y-95753866D02*
X76065238Y-95944342D01*
X76065238Y-95944342D02*
X76112857Y-96039580D01*
X76112857Y-96039580D02*
X76160476Y-96087200D01*
X76160476Y-96087200D02*
X76255714Y-96134819D01*
X76255714Y-96134819D02*
X76446190Y-96134819D01*
X76446190Y-96134819D02*
X76541428Y-96087200D01*
X76541428Y-96087200D02*
X76589047Y-96039580D01*
X76589047Y-96039580D02*
X76636666Y-95944342D01*
X76636666Y-95944342D02*
X76636666Y-95753866D01*
X76636666Y-95753866D02*
X76589047Y-95658628D01*
X76589047Y-95658628D02*
X76541428Y-95611009D01*
X76541428Y-95611009D02*
X76446190Y-95563390D01*
X63790057Y-72395238D02*
X63742438Y-72490476D01*
X63742438Y-72490476D02*
X63647200Y-72585714D01*
X63647200Y-72585714D02*
X63504342Y-72728571D01*
X63504342Y-72728571D02*
X63456723Y-72823809D01*
X63456723Y-72823809D02*
X63456723Y-72919047D01*
X63694819Y-72871428D02*
X63647200Y-72966666D01*
X63647200Y-72966666D02*
X63551961Y-73061904D01*
X63551961Y-73061904D02*
X63361485Y-73109523D01*
X63361485Y-73109523D02*
X63028152Y-73109523D01*
X63028152Y-73109523D02*
X62837676Y-73061904D01*
X62837676Y-73061904D02*
X62742438Y-72966666D01*
X62742438Y-72966666D02*
X62694819Y-72871428D01*
X62694819Y-72871428D02*
X62694819Y-72680952D01*
X62694819Y-72680952D02*
X62742438Y-72585714D01*
X62742438Y-72585714D02*
X62837676Y-72490476D01*
X62837676Y-72490476D02*
X63028152Y-72442857D01*
X63028152Y-72442857D02*
X63361485Y-72442857D01*
X63361485Y-72442857D02*
X63551961Y-72490476D01*
X63551961Y-72490476D02*
X63647200Y-72585714D01*
X63647200Y-72585714D02*
X63694819Y-72680952D01*
X63694819Y-72680952D02*
X63694819Y-72871428D01*
X63694819Y-71490476D02*
X63694819Y-72061904D01*
X63694819Y-71776190D02*
X62694819Y-71776190D01*
X62694819Y-71776190D02*
X62837676Y-71871428D01*
X62837676Y-71871428D02*
X62932914Y-71966666D01*
X62932914Y-71966666D02*
X62980533Y-72061904D01*
X75010057Y-72395238D02*
X74962438Y-72490476D01*
X74962438Y-72490476D02*
X74867200Y-72585714D01*
X74867200Y-72585714D02*
X74724342Y-72728571D01*
X74724342Y-72728571D02*
X74676723Y-72823809D01*
X74676723Y-72823809D02*
X74676723Y-72919047D01*
X74914819Y-72871428D02*
X74867200Y-72966666D01*
X74867200Y-72966666D02*
X74771961Y-73061904D01*
X74771961Y-73061904D02*
X74581485Y-73109523D01*
X74581485Y-73109523D02*
X74248152Y-73109523D01*
X74248152Y-73109523D02*
X74057676Y-73061904D01*
X74057676Y-73061904D02*
X73962438Y-72966666D01*
X73962438Y-72966666D02*
X73914819Y-72871428D01*
X73914819Y-72871428D02*
X73914819Y-72680952D01*
X73914819Y-72680952D02*
X73962438Y-72585714D01*
X73962438Y-72585714D02*
X74057676Y-72490476D01*
X74057676Y-72490476D02*
X74248152Y-72442857D01*
X74248152Y-72442857D02*
X74581485Y-72442857D01*
X74581485Y-72442857D02*
X74771961Y-72490476D01*
X74771961Y-72490476D02*
X74867200Y-72585714D01*
X74867200Y-72585714D02*
X74914819Y-72680952D01*
X74914819Y-72680952D02*
X74914819Y-72871428D01*
X74010057Y-72061904D02*
X73962438Y-72014285D01*
X73962438Y-72014285D02*
X73914819Y-71919047D01*
X73914819Y-71919047D02*
X73914819Y-71680952D01*
X73914819Y-71680952D02*
X73962438Y-71585714D01*
X73962438Y-71585714D02*
X74010057Y-71538095D01*
X74010057Y-71538095D02*
X74105295Y-71490476D01*
X74105295Y-71490476D02*
X74200533Y-71490476D01*
X74200533Y-71490476D02*
X74343390Y-71538095D01*
X74343390Y-71538095D02*
X74914819Y-72109523D01*
X74914819Y-72109523D02*
X74914819Y-71490476D01*
X57954819Y-65086666D02*
X57478628Y-65419999D01*
X57954819Y-65658094D02*
X56954819Y-65658094D01*
X56954819Y-65658094D02*
X56954819Y-65277142D01*
X56954819Y-65277142D02*
X57002438Y-65181904D01*
X57002438Y-65181904D02*
X57050057Y-65134285D01*
X57050057Y-65134285D02*
X57145295Y-65086666D01*
X57145295Y-65086666D02*
X57288152Y-65086666D01*
X57288152Y-65086666D02*
X57383390Y-65134285D01*
X57383390Y-65134285D02*
X57431009Y-65181904D01*
X57431009Y-65181904D02*
X57478628Y-65277142D01*
X57478628Y-65277142D02*
X57478628Y-65658094D01*
X57954819Y-64134285D02*
X57954819Y-64705713D01*
X57954819Y-64419999D02*
X56954819Y-64419999D01*
X56954819Y-64419999D02*
X57097676Y-64515237D01*
X57097676Y-64515237D02*
X57192914Y-64610475D01*
X57192914Y-64610475D02*
X57240533Y-64705713D01*
X50454819Y-96746666D02*
X49978628Y-97079999D01*
X50454819Y-97318094D02*
X49454819Y-97318094D01*
X49454819Y-97318094D02*
X49454819Y-96937142D01*
X49454819Y-96937142D02*
X49502438Y-96841904D01*
X49502438Y-96841904D02*
X49550057Y-96794285D01*
X49550057Y-96794285D02*
X49645295Y-96746666D01*
X49645295Y-96746666D02*
X49788152Y-96746666D01*
X49788152Y-96746666D02*
X49883390Y-96794285D01*
X49883390Y-96794285D02*
X49931009Y-96841904D01*
X49931009Y-96841904D02*
X49978628Y-96937142D01*
X49978628Y-96937142D02*
X49978628Y-97318094D01*
X49454819Y-96413332D02*
X49454819Y-95794285D01*
X49454819Y-95794285D02*
X49835771Y-96127618D01*
X49835771Y-96127618D02*
X49835771Y-95984761D01*
X49835771Y-95984761D02*
X49883390Y-95889523D01*
X49883390Y-95889523D02*
X49931009Y-95841904D01*
X49931009Y-95841904D02*
X50026247Y-95794285D01*
X50026247Y-95794285D02*
X50264342Y-95794285D01*
X50264342Y-95794285D02*
X50359580Y-95841904D01*
X50359580Y-95841904D02*
X50407200Y-95889523D01*
X50407200Y-95889523D02*
X50454819Y-95984761D01*
X50454819Y-95984761D02*
X50454819Y-96270475D01*
X50454819Y-96270475D02*
X50407200Y-96365713D01*
X50407200Y-96365713D02*
X50359580Y-96413332D01*
X45313333Y-83254819D02*
X44980000Y-82778628D01*
X44741905Y-83254819D02*
X44741905Y-82254819D01*
X44741905Y-82254819D02*
X45122857Y-82254819D01*
X45122857Y-82254819D02*
X45218095Y-82302438D01*
X45218095Y-82302438D02*
X45265714Y-82350057D01*
X45265714Y-82350057D02*
X45313333Y-82445295D01*
X45313333Y-82445295D02*
X45313333Y-82588152D01*
X45313333Y-82588152D02*
X45265714Y-82683390D01*
X45265714Y-82683390D02*
X45218095Y-82731009D01*
X45218095Y-82731009D02*
X45122857Y-82778628D01*
X45122857Y-82778628D02*
X44741905Y-82778628D01*
X46218095Y-82254819D02*
X45741905Y-82254819D01*
X45741905Y-82254819D02*
X45694286Y-82731009D01*
X45694286Y-82731009D02*
X45741905Y-82683390D01*
X45741905Y-82683390D02*
X45837143Y-82635771D01*
X45837143Y-82635771D02*
X46075238Y-82635771D01*
X46075238Y-82635771D02*
X46170476Y-82683390D01*
X46170476Y-82683390D02*
X46218095Y-82731009D01*
X46218095Y-82731009D02*
X46265714Y-82826247D01*
X46265714Y-82826247D02*
X46265714Y-83064342D01*
X46265714Y-83064342D02*
X46218095Y-83159580D01*
X46218095Y-83159580D02*
X46170476Y-83207200D01*
X46170476Y-83207200D02*
X46075238Y-83254819D01*
X46075238Y-83254819D02*
X45837143Y-83254819D01*
X45837143Y-83254819D02*
X45741905Y-83207200D01*
X45741905Y-83207200D02*
X45694286Y-83159580D01*
X54454819Y-65086666D02*
X53978628Y-65419999D01*
X54454819Y-65658094D02*
X53454819Y-65658094D01*
X53454819Y-65658094D02*
X53454819Y-65277142D01*
X53454819Y-65277142D02*
X53502438Y-65181904D01*
X53502438Y-65181904D02*
X53550057Y-65134285D01*
X53550057Y-65134285D02*
X53645295Y-65086666D01*
X53645295Y-65086666D02*
X53788152Y-65086666D01*
X53788152Y-65086666D02*
X53883390Y-65134285D01*
X53883390Y-65134285D02*
X53931009Y-65181904D01*
X53931009Y-65181904D02*
X53978628Y-65277142D01*
X53978628Y-65277142D02*
X53978628Y-65658094D01*
X53454819Y-64229523D02*
X53454819Y-64419999D01*
X53454819Y-64419999D02*
X53502438Y-64515237D01*
X53502438Y-64515237D02*
X53550057Y-64562856D01*
X53550057Y-64562856D02*
X53692914Y-64658094D01*
X53692914Y-64658094D02*
X53883390Y-64705713D01*
X53883390Y-64705713D02*
X54264342Y-64705713D01*
X54264342Y-64705713D02*
X54359580Y-64658094D01*
X54359580Y-64658094D02*
X54407200Y-64610475D01*
X54407200Y-64610475D02*
X54454819Y-64515237D01*
X54454819Y-64515237D02*
X54454819Y-64324761D01*
X54454819Y-64324761D02*
X54407200Y-64229523D01*
X54407200Y-64229523D02*
X54359580Y-64181904D01*
X54359580Y-64181904D02*
X54264342Y-64134285D01*
X54264342Y-64134285D02*
X54026247Y-64134285D01*
X54026247Y-64134285D02*
X53931009Y-64181904D01*
X53931009Y-64181904D02*
X53883390Y-64229523D01*
X53883390Y-64229523D02*
X53835771Y-64324761D01*
X53835771Y-64324761D02*
X53835771Y-64515237D01*
X53835771Y-64515237D02*
X53883390Y-64610475D01*
X53883390Y-64610475D02*
X53931009Y-64658094D01*
X53931009Y-64658094D02*
X54026247Y-64705713D01*
X61454819Y-65086666D02*
X60978628Y-65419999D01*
X61454819Y-65658094D02*
X60454819Y-65658094D01*
X60454819Y-65658094D02*
X60454819Y-65277142D01*
X60454819Y-65277142D02*
X60502438Y-65181904D01*
X60502438Y-65181904D02*
X60550057Y-65134285D01*
X60550057Y-65134285D02*
X60645295Y-65086666D01*
X60645295Y-65086666D02*
X60788152Y-65086666D01*
X60788152Y-65086666D02*
X60883390Y-65134285D01*
X60883390Y-65134285D02*
X60931009Y-65181904D01*
X60931009Y-65181904D02*
X60978628Y-65277142D01*
X60978628Y-65277142D02*
X60978628Y-65658094D01*
X60454819Y-64753332D02*
X60454819Y-64086666D01*
X60454819Y-64086666D02*
X61454819Y-64515237D01*
X68813333Y-62654819D02*
X68480000Y-62178628D01*
X68241905Y-62654819D02*
X68241905Y-61654819D01*
X68241905Y-61654819D02*
X68622857Y-61654819D01*
X68622857Y-61654819D02*
X68718095Y-61702438D01*
X68718095Y-61702438D02*
X68765714Y-61750057D01*
X68765714Y-61750057D02*
X68813333Y-61845295D01*
X68813333Y-61845295D02*
X68813333Y-61988152D01*
X68813333Y-61988152D02*
X68765714Y-62083390D01*
X68765714Y-62083390D02*
X68718095Y-62131009D01*
X68718095Y-62131009D02*
X68622857Y-62178628D01*
X68622857Y-62178628D02*
X68241905Y-62178628D01*
X69289524Y-62654819D02*
X69480000Y-62654819D01*
X69480000Y-62654819D02*
X69575238Y-62607200D01*
X69575238Y-62607200D02*
X69622857Y-62559580D01*
X69622857Y-62559580D02*
X69718095Y-62416723D01*
X69718095Y-62416723D02*
X69765714Y-62226247D01*
X69765714Y-62226247D02*
X69765714Y-61845295D01*
X69765714Y-61845295D02*
X69718095Y-61750057D01*
X69718095Y-61750057D02*
X69670476Y-61702438D01*
X69670476Y-61702438D02*
X69575238Y-61654819D01*
X69575238Y-61654819D02*
X69384762Y-61654819D01*
X69384762Y-61654819D02*
X69289524Y-61702438D01*
X69289524Y-61702438D02*
X69241905Y-61750057D01*
X69241905Y-61750057D02*
X69194286Y-61845295D01*
X69194286Y-61845295D02*
X69194286Y-62083390D01*
X69194286Y-62083390D02*
X69241905Y-62178628D01*
X69241905Y-62178628D02*
X69289524Y-62226247D01*
X69289524Y-62226247D02*
X69384762Y-62273866D01*
X69384762Y-62273866D02*
X69575238Y-62273866D01*
X69575238Y-62273866D02*
X69670476Y-62226247D01*
X69670476Y-62226247D02*
X69718095Y-62178628D01*
X69718095Y-62178628D02*
X69765714Y-62083390D01*
X45357142Y-66454819D02*
X45023809Y-65978628D01*
X44785714Y-66454819D02*
X44785714Y-65454819D01*
X44785714Y-65454819D02*
X45166666Y-65454819D01*
X45166666Y-65454819D02*
X45261904Y-65502438D01*
X45261904Y-65502438D02*
X45309523Y-65550057D01*
X45309523Y-65550057D02*
X45357142Y-65645295D01*
X45357142Y-65645295D02*
X45357142Y-65788152D01*
X45357142Y-65788152D02*
X45309523Y-65883390D01*
X45309523Y-65883390D02*
X45261904Y-65931009D01*
X45261904Y-65931009D02*
X45166666Y-65978628D01*
X45166666Y-65978628D02*
X44785714Y-65978628D01*
X46309523Y-66454819D02*
X45738095Y-66454819D01*
X46023809Y-66454819D02*
X46023809Y-65454819D01*
X46023809Y-65454819D02*
X45928571Y-65597676D01*
X45928571Y-65597676D02*
X45833333Y-65692914D01*
X45833333Y-65692914D02*
X45738095Y-65740533D01*
X47261904Y-66454819D02*
X46690476Y-66454819D01*
X46976190Y-66454819D02*
X46976190Y-65454819D01*
X46976190Y-65454819D02*
X46880952Y-65597676D01*
X46880952Y-65597676D02*
X46785714Y-65692914D01*
X46785714Y-65692914D02*
X46690476Y-65740533D01*
X44757142Y-50954819D02*
X44423809Y-50478628D01*
X44185714Y-50954819D02*
X44185714Y-49954819D01*
X44185714Y-49954819D02*
X44566666Y-49954819D01*
X44566666Y-49954819D02*
X44661904Y-50002438D01*
X44661904Y-50002438D02*
X44709523Y-50050057D01*
X44709523Y-50050057D02*
X44757142Y-50145295D01*
X44757142Y-50145295D02*
X44757142Y-50288152D01*
X44757142Y-50288152D02*
X44709523Y-50383390D01*
X44709523Y-50383390D02*
X44661904Y-50431009D01*
X44661904Y-50431009D02*
X44566666Y-50478628D01*
X44566666Y-50478628D02*
X44185714Y-50478628D01*
X45709523Y-50954819D02*
X45138095Y-50954819D01*
X45423809Y-50954819D02*
X45423809Y-49954819D01*
X45423809Y-49954819D02*
X45328571Y-50097676D01*
X45328571Y-50097676D02*
X45233333Y-50192914D01*
X45233333Y-50192914D02*
X45138095Y-50240533D01*
X46090476Y-50050057D02*
X46138095Y-50002438D01*
X46138095Y-50002438D02*
X46233333Y-49954819D01*
X46233333Y-49954819D02*
X46471428Y-49954819D01*
X46471428Y-49954819D02*
X46566666Y-50002438D01*
X46566666Y-50002438D02*
X46614285Y-50050057D01*
X46614285Y-50050057D02*
X46661904Y-50145295D01*
X46661904Y-50145295D02*
X46661904Y-50240533D01*
X46661904Y-50240533D02*
X46614285Y-50383390D01*
X46614285Y-50383390D02*
X46042857Y-50954819D01*
X46042857Y-50954819D02*
X46661904Y-50954819D01*
X44837142Y-57154819D02*
X44503809Y-56678628D01*
X44265714Y-57154819D02*
X44265714Y-56154819D01*
X44265714Y-56154819D02*
X44646666Y-56154819D01*
X44646666Y-56154819D02*
X44741904Y-56202438D01*
X44741904Y-56202438D02*
X44789523Y-56250057D01*
X44789523Y-56250057D02*
X44837142Y-56345295D01*
X44837142Y-56345295D02*
X44837142Y-56488152D01*
X44837142Y-56488152D02*
X44789523Y-56583390D01*
X44789523Y-56583390D02*
X44741904Y-56631009D01*
X44741904Y-56631009D02*
X44646666Y-56678628D01*
X44646666Y-56678628D02*
X44265714Y-56678628D01*
X45789523Y-57154819D02*
X45218095Y-57154819D01*
X45503809Y-57154819D02*
X45503809Y-56154819D01*
X45503809Y-56154819D02*
X45408571Y-56297676D01*
X45408571Y-56297676D02*
X45313333Y-56392914D01*
X45313333Y-56392914D02*
X45218095Y-56440533D01*
X46122857Y-56154819D02*
X46741904Y-56154819D01*
X46741904Y-56154819D02*
X46408571Y-56535771D01*
X46408571Y-56535771D02*
X46551428Y-56535771D01*
X46551428Y-56535771D02*
X46646666Y-56583390D01*
X46646666Y-56583390D02*
X46694285Y-56631009D01*
X46694285Y-56631009D02*
X46741904Y-56726247D01*
X46741904Y-56726247D02*
X46741904Y-56964342D01*
X46741904Y-56964342D02*
X46694285Y-57059580D01*
X46694285Y-57059580D02*
X46646666Y-57107200D01*
X46646666Y-57107200D02*
X46551428Y-57154819D01*
X46551428Y-57154819D02*
X46265714Y-57154819D01*
X46265714Y-57154819D02*
X46170476Y-57107200D01*
X46170476Y-57107200D02*
X46122857Y-57059580D01*
X40857142Y-126454819D02*
X40523809Y-125978628D01*
X40285714Y-126454819D02*
X40285714Y-125454819D01*
X40285714Y-125454819D02*
X40666666Y-125454819D01*
X40666666Y-125454819D02*
X40761904Y-125502438D01*
X40761904Y-125502438D02*
X40809523Y-125550057D01*
X40809523Y-125550057D02*
X40857142Y-125645295D01*
X40857142Y-125645295D02*
X40857142Y-125788152D01*
X40857142Y-125788152D02*
X40809523Y-125883390D01*
X40809523Y-125883390D02*
X40761904Y-125931009D01*
X40761904Y-125931009D02*
X40666666Y-125978628D01*
X40666666Y-125978628D02*
X40285714Y-125978628D01*
X41809523Y-126454819D02*
X41238095Y-126454819D01*
X41523809Y-126454819D02*
X41523809Y-125454819D01*
X41523809Y-125454819D02*
X41428571Y-125597676D01*
X41428571Y-125597676D02*
X41333333Y-125692914D01*
X41333333Y-125692914D02*
X41238095Y-125740533D01*
X42666666Y-125788152D02*
X42666666Y-126454819D01*
X42428571Y-125407200D02*
X42190476Y-126121485D01*
X42190476Y-126121485D02*
X42809523Y-126121485D01*
X68754819Y-54862857D02*
X68278628Y-55196190D01*
X68754819Y-55434285D02*
X67754819Y-55434285D01*
X67754819Y-55434285D02*
X67754819Y-55053333D01*
X67754819Y-55053333D02*
X67802438Y-54958095D01*
X67802438Y-54958095D02*
X67850057Y-54910476D01*
X67850057Y-54910476D02*
X67945295Y-54862857D01*
X67945295Y-54862857D02*
X68088152Y-54862857D01*
X68088152Y-54862857D02*
X68183390Y-54910476D01*
X68183390Y-54910476D02*
X68231009Y-54958095D01*
X68231009Y-54958095D02*
X68278628Y-55053333D01*
X68278628Y-55053333D02*
X68278628Y-55434285D01*
X68754819Y-53910476D02*
X68754819Y-54481904D01*
X68754819Y-54196190D02*
X67754819Y-54196190D01*
X67754819Y-54196190D02*
X67897676Y-54291428D01*
X67897676Y-54291428D02*
X67992914Y-54386666D01*
X67992914Y-54386666D02*
X68040533Y-54481904D01*
X67754819Y-53005714D02*
X67754819Y-53481904D01*
X67754819Y-53481904D02*
X68231009Y-53529523D01*
X68231009Y-53529523D02*
X68183390Y-53481904D01*
X68183390Y-53481904D02*
X68135771Y-53386666D01*
X68135771Y-53386666D02*
X68135771Y-53148571D01*
X68135771Y-53148571D02*
X68183390Y-53053333D01*
X68183390Y-53053333D02*
X68231009Y-53005714D01*
X68231009Y-53005714D02*
X68326247Y-52958095D01*
X68326247Y-52958095D02*
X68564342Y-52958095D01*
X68564342Y-52958095D02*
X68659580Y-53005714D01*
X68659580Y-53005714D02*
X68707200Y-53053333D01*
X68707200Y-53053333D02*
X68754819Y-53148571D01*
X68754819Y-53148571D02*
X68754819Y-53386666D01*
X68754819Y-53386666D02*
X68707200Y-53481904D01*
X68707200Y-53481904D02*
X68659580Y-53529523D01*
X44837142Y-54054819D02*
X44503809Y-53578628D01*
X44265714Y-54054819D02*
X44265714Y-53054819D01*
X44265714Y-53054819D02*
X44646666Y-53054819D01*
X44646666Y-53054819D02*
X44741904Y-53102438D01*
X44741904Y-53102438D02*
X44789523Y-53150057D01*
X44789523Y-53150057D02*
X44837142Y-53245295D01*
X44837142Y-53245295D02*
X44837142Y-53388152D01*
X44837142Y-53388152D02*
X44789523Y-53483390D01*
X44789523Y-53483390D02*
X44741904Y-53531009D01*
X44741904Y-53531009D02*
X44646666Y-53578628D01*
X44646666Y-53578628D02*
X44265714Y-53578628D01*
X45789523Y-54054819D02*
X45218095Y-54054819D01*
X45503809Y-54054819D02*
X45503809Y-53054819D01*
X45503809Y-53054819D02*
X45408571Y-53197676D01*
X45408571Y-53197676D02*
X45313333Y-53292914D01*
X45313333Y-53292914D02*
X45218095Y-53340533D01*
X46646666Y-53054819D02*
X46456190Y-53054819D01*
X46456190Y-53054819D02*
X46360952Y-53102438D01*
X46360952Y-53102438D02*
X46313333Y-53150057D01*
X46313333Y-53150057D02*
X46218095Y-53292914D01*
X46218095Y-53292914D02*
X46170476Y-53483390D01*
X46170476Y-53483390D02*
X46170476Y-53864342D01*
X46170476Y-53864342D02*
X46218095Y-53959580D01*
X46218095Y-53959580D02*
X46265714Y-54007200D01*
X46265714Y-54007200D02*
X46360952Y-54054819D01*
X46360952Y-54054819D02*
X46551428Y-54054819D01*
X46551428Y-54054819D02*
X46646666Y-54007200D01*
X46646666Y-54007200D02*
X46694285Y-53959580D01*
X46694285Y-53959580D02*
X46741904Y-53864342D01*
X46741904Y-53864342D02*
X46741904Y-53626247D01*
X46741904Y-53626247D02*
X46694285Y-53531009D01*
X46694285Y-53531009D02*
X46646666Y-53483390D01*
X46646666Y-53483390D02*
X46551428Y-53435771D01*
X46551428Y-53435771D02*
X46360952Y-53435771D01*
X46360952Y-53435771D02*
X46265714Y-53483390D01*
X46265714Y-53483390D02*
X46218095Y-53531009D01*
X46218095Y-53531009D02*
X46170476Y-53626247D01*
X44917142Y-47854819D02*
X44583809Y-47378628D01*
X44345714Y-47854819D02*
X44345714Y-46854819D01*
X44345714Y-46854819D02*
X44726666Y-46854819D01*
X44726666Y-46854819D02*
X44821904Y-46902438D01*
X44821904Y-46902438D02*
X44869523Y-46950057D01*
X44869523Y-46950057D02*
X44917142Y-47045295D01*
X44917142Y-47045295D02*
X44917142Y-47188152D01*
X44917142Y-47188152D02*
X44869523Y-47283390D01*
X44869523Y-47283390D02*
X44821904Y-47331009D01*
X44821904Y-47331009D02*
X44726666Y-47378628D01*
X44726666Y-47378628D02*
X44345714Y-47378628D01*
X45869523Y-47854819D02*
X45298095Y-47854819D01*
X45583809Y-47854819D02*
X45583809Y-46854819D01*
X45583809Y-46854819D02*
X45488571Y-46997676D01*
X45488571Y-46997676D02*
X45393333Y-47092914D01*
X45393333Y-47092914D02*
X45298095Y-47140533D01*
X46202857Y-46854819D02*
X46869523Y-46854819D01*
X46869523Y-46854819D02*
X46440952Y-47854819D01*
X44757142Y-44754819D02*
X44423809Y-44278628D01*
X44185714Y-44754819D02*
X44185714Y-43754819D01*
X44185714Y-43754819D02*
X44566666Y-43754819D01*
X44566666Y-43754819D02*
X44661904Y-43802438D01*
X44661904Y-43802438D02*
X44709523Y-43850057D01*
X44709523Y-43850057D02*
X44757142Y-43945295D01*
X44757142Y-43945295D02*
X44757142Y-44088152D01*
X44757142Y-44088152D02*
X44709523Y-44183390D01*
X44709523Y-44183390D02*
X44661904Y-44231009D01*
X44661904Y-44231009D02*
X44566666Y-44278628D01*
X44566666Y-44278628D02*
X44185714Y-44278628D01*
X45709523Y-44754819D02*
X45138095Y-44754819D01*
X45423809Y-44754819D02*
X45423809Y-43754819D01*
X45423809Y-43754819D02*
X45328571Y-43897676D01*
X45328571Y-43897676D02*
X45233333Y-43992914D01*
X45233333Y-43992914D02*
X45138095Y-44040533D01*
X46280952Y-44183390D02*
X46185714Y-44135771D01*
X46185714Y-44135771D02*
X46138095Y-44088152D01*
X46138095Y-44088152D02*
X46090476Y-43992914D01*
X46090476Y-43992914D02*
X46090476Y-43945295D01*
X46090476Y-43945295D02*
X46138095Y-43850057D01*
X46138095Y-43850057D02*
X46185714Y-43802438D01*
X46185714Y-43802438D02*
X46280952Y-43754819D01*
X46280952Y-43754819D02*
X46471428Y-43754819D01*
X46471428Y-43754819D02*
X46566666Y-43802438D01*
X46566666Y-43802438D02*
X46614285Y-43850057D01*
X46614285Y-43850057D02*
X46661904Y-43945295D01*
X46661904Y-43945295D02*
X46661904Y-43992914D01*
X46661904Y-43992914D02*
X46614285Y-44088152D01*
X46614285Y-44088152D02*
X46566666Y-44135771D01*
X46566666Y-44135771D02*
X46471428Y-44183390D01*
X46471428Y-44183390D02*
X46280952Y-44183390D01*
X46280952Y-44183390D02*
X46185714Y-44231009D01*
X46185714Y-44231009D02*
X46138095Y-44278628D01*
X46138095Y-44278628D02*
X46090476Y-44373866D01*
X46090476Y-44373866D02*
X46090476Y-44564342D01*
X46090476Y-44564342D02*
X46138095Y-44659580D01*
X46138095Y-44659580D02*
X46185714Y-44707200D01*
X46185714Y-44707200D02*
X46280952Y-44754819D01*
X46280952Y-44754819D02*
X46471428Y-44754819D01*
X46471428Y-44754819D02*
X46566666Y-44707200D01*
X46566666Y-44707200D02*
X46614285Y-44659580D01*
X46614285Y-44659580D02*
X46661904Y-44564342D01*
X46661904Y-44564342D02*
X46661904Y-44373866D01*
X46661904Y-44373866D02*
X46614285Y-44278628D01*
X46614285Y-44278628D02*
X46566666Y-44231009D01*
X46566666Y-44231009D02*
X46471428Y-44183390D01*
X83054819Y-67842857D02*
X82578628Y-68176190D01*
X83054819Y-68414285D02*
X82054819Y-68414285D01*
X82054819Y-68414285D02*
X82054819Y-68033333D01*
X82054819Y-68033333D02*
X82102438Y-67938095D01*
X82102438Y-67938095D02*
X82150057Y-67890476D01*
X82150057Y-67890476D02*
X82245295Y-67842857D01*
X82245295Y-67842857D02*
X82388152Y-67842857D01*
X82388152Y-67842857D02*
X82483390Y-67890476D01*
X82483390Y-67890476D02*
X82531009Y-67938095D01*
X82531009Y-67938095D02*
X82578628Y-68033333D01*
X82578628Y-68033333D02*
X82578628Y-68414285D01*
X82150057Y-67461904D02*
X82102438Y-67414285D01*
X82102438Y-67414285D02*
X82054819Y-67319047D01*
X82054819Y-67319047D02*
X82054819Y-67080952D01*
X82054819Y-67080952D02*
X82102438Y-66985714D01*
X82102438Y-66985714D02*
X82150057Y-66938095D01*
X82150057Y-66938095D02*
X82245295Y-66890476D01*
X82245295Y-66890476D02*
X82340533Y-66890476D01*
X82340533Y-66890476D02*
X82483390Y-66938095D01*
X82483390Y-66938095D02*
X83054819Y-67509523D01*
X83054819Y-67509523D02*
X83054819Y-66890476D01*
X82054819Y-66271428D02*
X82054819Y-66176190D01*
X82054819Y-66176190D02*
X82102438Y-66080952D01*
X82102438Y-66080952D02*
X82150057Y-66033333D01*
X82150057Y-66033333D02*
X82245295Y-65985714D01*
X82245295Y-65985714D02*
X82435771Y-65938095D01*
X82435771Y-65938095D02*
X82673866Y-65938095D01*
X82673866Y-65938095D02*
X82864342Y-65985714D01*
X82864342Y-65985714D02*
X82959580Y-66033333D01*
X82959580Y-66033333D02*
X83007200Y-66080952D01*
X83007200Y-66080952D02*
X83054819Y-66176190D01*
X83054819Y-66176190D02*
X83054819Y-66271428D01*
X83054819Y-66271428D02*
X83007200Y-66366666D01*
X83007200Y-66366666D02*
X82959580Y-66414285D01*
X82959580Y-66414285D02*
X82864342Y-66461904D01*
X82864342Y-66461904D02*
X82673866Y-66509523D01*
X82673866Y-66509523D02*
X82435771Y-66509523D01*
X82435771Y-66509523D02*
X82245295Y-66461904D01*
X82245295Y-66461904D02*
X82150057Y-66414285D01*
X82150057Y-66414285D02*
X82102438Y-66366666D01*
X82102438Y-66366666D02*
X82054819Y-66271428D01*
X58857142Y-105554819D02*
X58523809Y-105078628D01*
X58285714Y-105554819D02*
X58285714Y-104554819D01*
X58285714Y-104554819D02*
X58666666Y-104554819D01*
X58666666Y-104554819D02*
X58761904Y-104602438D01*
X58761904Y-104602438D02*
X58809523Y-104650057D01*
X58809523Y-104650057D02*
X58857142Y-104745295D01*
X58857142Y-104745295D02*
X58857142Y-104888152D01*
X58857142Y-104888152D02*
X58809523Y-104983390D01*
X58809523Y-104983390D02*
X58761904Y-105031009D01*
X58761904Y-105031009D02*
X58666666Y-105078628D01*
X58666666Y-105078628D02*
X58285714Y-105078628D01*
X59238095Y-104650057D02*
X59285714Y-104602438D01*
X59285714Y-104602438D02*
X59380952Y-104554819D01*
X59380952Y-104554819D02*
X59619047Y-104554819D01*
X59619047Y-104554819D02*
X59714285Y-104602438D01*
X59714285Y-104602438D02*
X59761904Y-104650057D01*
X59761904Y-104650057D02*
X59809523Y-104745295D01*
X59809523Y-104745295D02*
X59809523Y-104840533D01*
X59809523Y-104840533D02*
X59761904Y-104983390D01*
X59761904Y-104983390D02*
X59190476Y-105554819D01*
X59190476Y-105554819D02*
X59809523Y-105554819D01*
X60761904Y-105554819D02*
X60190476Y-105554819D01*
X60476190Y-105554819D02*
X60476190Y-104554819D01*
X60476190Y-104554819D02*
X60380952Y-104697676D01*
X60380952Y-104697676D02*
X60285714Y-104792914D01*
X60285714Y-104792914D02*
X60190476Y-104840533D01*
X58857142Y-102454819D02*
X58523809Y-101978628D01*
X58285714Y-102454819D02*
X58285714Y-101454819D01*
X58285714Y-101454819D02*
X58666666Y-101454819D01*
X58666666Y-101454819D02*
X58761904Y-101502438D01*
X58761904Y-101502438D02*
X58809523Y-101550057D01*
X58809523Y-101550057D02*
X58857142Y-101645295D01*
X58857142Y-101645295D02*
X58857142Y-101788152D01*
X58857142Y-101788152D02*
X58809523Y-101883390D01*
X58809523Y-101883390D02*
X58761904Y-101931009D01*
X58761904Y-101931009D02*
X58666666Y-101978628D01*
X58666666Y-101978628D02*
X58285714Y-101978628D01*
X59238095Y-101550057D02*
X59285714Y-101502438D01*
X59285714Y-101502438D02*
X59380952Y-101454819D01*
X59380952Y-101454819D02*
X59619047Y-101454819D01*
X59619047Y-101454819D02*
X59714285Y-101502438D01*
X59714285Y-101502438D02*
X59761904Y-101550057D01*
X59761904Y-101550057D02*
X59809523Y-101645295D01*
X59809523Y-101645295D02*
X59809523Y-101740533D01*
X59809523Y-101740533D02*
X59761904Y-101883390D01*
X59761904Y-101883390D02*
X59190476Y-102454819D01*
X59190476Y-102454819D02*
X59809523Y-102454819D01*
X60190476Y-101550057D02*
X60238095Y-101502438D01*
X60238095Y-101502438D02*
X60333333Y-101454819D01*
X60333333Y-101454819D02*
X60571428Y-101454819D01*
X60571428Y-101454819D02*
X60666666Y-101502438D01*
X60666666Y-101502438D02*
X60714285Y-101550057D01*
X60714285Y-101550057D02*
X60761904Y-101645295D01*
X60761904Y-101645295D02*
X60761904Y-101740533D01*
X60761904Y-101740533D02*
X60714285Y-101883390D01*
X60714285Y-101883390D02*
X60142857Y-102454819D01*
X60142857Y-102454819D02*
X60761904Y-102454819D01*
X52804819Y-94000000D02*
X52328628Y-94333333D01*
X52804819Y-94571428D02*
X51804819Y-94571428D01*
X51804819Y-94571428D02*
X51804819Y-94190476D01*
X51804819Y-94190476D02*
X51852438Y-94095238D01*
X51852438Y-94095238D02*
X51900057Y-94047619D01*
X51900057Y-94047619D02*
X51995295Y-94000000D01*
X51995295Y-94000000D02*
X52138152Y-94000000D01*
X52138152Y-94000000D02*
X52233390Y-94047619D01*
X52233390Y-94047619D02*
X52281009Y-94095238D01*
X52281009Y-94095238D02*
X52328628Y-94190476D01*
X52328628Y-94190476D02*
X52328628Y-94571428D01*
X52757200Y-93190476D02*
X52804819Y-93285714D01*
X52804819Y-93285714D02*
X52804819Y-93476190D01*
X52804819Y-93476190D02*
X52757200Y-93571428D01*
X52757200Y-93571428D02*
X52661961Y-93619047D01*
X52661961Y-93619047D02*
X52281009Y-93619047D01*
X52281009Y-93619047D02*
X52185771Y-93571428D01*
X52185771Y-93571428D02*
X52138152Y-93476190D01*
X52138152Y-93476190D02*
X52138152Y-93285714D01*
X52138152Y-93285714D02*
X52185771Y-93190476D01*
X52185771Y-93190476D02*
X52281009Y-93142857D01*
X52281009Y-93142857D02*
X52376247Y-93142857D01*
X52376247Y-93142857D02*
X52471485Y-93619047D01*
X52757200Y-92761904D02*
X52804819Y-92666666D01*
X52804819Y-92666666D02*
X52804819Y-92476190D01*
X52804819Y-92476190D02*
X52757200Y-92380952D01*
X52757200Y-92380952D02*
X52661961Y-92333333D01*
X52661961Y-92333333D02*
X52614342Y-92333333D01*
X52614342Y-92333333D02*
X52519104Y-92380952D01*
X52519104Y-92380952D02*
X52471485Y-92476190D01*
X52471485Y-92476190D02*
X52471485Y-92619047D01*
X52471485Y-92619047D02*
X52423866Y-92714285D01*
X52423866Y-92714285D02*
X52328628Y-92761904D01*
X52328628Y-92761904D02*
X52281009Y-92761904D01*
X52281009Y-92761904D02*
X52185771Y-92714285D01*
X52185771Y-92714285D02*
X52138152Y-92619047D01*
X52138152Y-92619047D02*
X52138152Y-92476190D01*
X52138152Y-92476190D02*
X52185771Y-92380952D01*
X52804819Y-91380952D02*
X52804819Y-91952380D01*
X52804819Y-91666666D02*
X51804819Y-91666666D01*
X51804819Y-91666666D02*
X51947676Y-91761904D01*
X51947676Y-91761904D02*
X52042914Y-91857142D01*
X52042914Y-91857142D02*
X52090533Y-91952380D01*
X71007200Y-122333332D02*
X71054819Y-122190475D01*
X71054819Y-122190475D02*
X71054819Y-121952380D01*
X71054819Y-121952380D02*
X71007200Y-121857142D01*
X71007200Y-121857142D02*
X70959580Y-121809523D01*
X70959580Y-121809523D02*
X70864342Y-121761904D01*
X70864342Y-121761904D02*
X70769104Y-121761904D01*
X70769104Y-121761904D02*
X70673866Y-121809523D01*
X70673866Y-121809523D02*
X70626247Y-121857142D01*
X70626247Y-121857142D02*
X70578628Y-121952380D01*
X70578628Y-121952380D02*
X70531009Y-122142856D01*
X70531009Y-122142856D02*
X70483390Y-122238094D01*
X70483390Y-122238094D02*
X70435771Y-122285713D01*
X70435771Y-122285713D02*
X70340533Y-122333332D01*
X70340533Y-122333332D02*
X70245295Y-122333332D01*
X70245295Y-122333332D02*
X70150057Y-122285713D01*
X70150057Y-122285713D02*
X70102438Y-122238094D01*
X70102438Y-122238094D02*
X70054819Y-122142856D01*
X70054819Y-122142856D02*
X70054819Y-121904761D01*
X70054819Y-121904761D02*
X70102438Y-121761904D01*
X70054819Y-121428570D02*
X71054819Y-121190475D01*
X71054819Y-121190475D02*
X70340533Y-120999999D01*
X70340533Y-120999999D02*
X71054819Y-120809523D01*
X71054819Y-120809523D02*
X70054819Y-120571428D01*
X71054819Y-119666666D02*
X71054819Y-120238094D01*
X71054819Y-119952380D02*
X70054819Y-119952380D01*
X70054819Y-119952380D02*
X70197676Y-120047618D01*
X70197676Y-120047618D02*
X70292914Y-120142856D01*
X70292914Y-120142856D02*
X70340533Y-120238094D01*
X80054819Y-81466666D02*
X79578628Y-81799999D01*
X80054819Y-82038094D02*
X79054819Y-82038094D01*
X79054819Y-82038094D02*
X79054819Y-81657142D01*
X79054819Y-81657142D02*
X79102438Y-81561904D01*
X79102438Y-81561904D02*
X79150057Y-81514285D01*
X79150057Y-81514285D02*
X79245295Y-81466666D01*
X79245295Y-81466666D02*
X79388152Y-81466666D01*
X79388152Y-81466666D02*
X79483390Y-81514285D01*
X79483390Y-81514285D02*
X79531009Y-81561904D01*
X79531009Y-81561904D02*
X79578628Y-81657142D01*
X79578628Y-81657142D02*
X79578628Y-82038094D01*
X79483390Y-80895237D02*
X79435771Y-80990475D01*
X79435771Y-80990475D02*
X79388152Y-81038094D01*
X79388152Y-81038094D02*
X79292914Y-81085713D01*
X79292914Y-81085713D02*
X79245295Y-81085713D01*
X79245295Y-81085713D02*
X79150057Y-81038094D01*
X79150057Y-81038094D02*
X79102438Y-80990475D01*
X79102438Y-80990475D02*
X79054819Y-80895237D01*
X79054819Y-80895237D02*
X79054819Y-80704761D01*
X79054819Y-80704761D02*
X79102438Y-80609523D01*
X79102438Y-80609523D02*
X79150057Y-80561904D01*
X79150057Y-80561904D02*
X79245295Y-80514285D01*
X79245295Y-80514285D02*
X79292914Y-80514285D01*
X79292914Y-80514285D02*
X79388152Y-80561904D01*
X79388152Y-80561904D02*
X79435771Y-80609523D01*
X79435771Y-80609523D02*
X79483390Y-80704761D01*
X79483390Y-80704761D02*
X79483390Y-80895237D01*
X79483390Y-80895237D02*
X79531009Y-80990475D01*
X79531009Y-80990475D02*
X79578628Y-81038094D01*
X79578628Y-81038094D02*
X79673866Y-81085713D01*
X79673866Y-81085713D02*
X79864342Y-81085713D01*
X79864342Y-81085713D02*
X79959580Y-81038094D01*
X79959580Y-81038094D02*
X80007200Y-80990475D01*
X80007200Y-80990475D02*
X80054819Y-80895237D01*
X80054819Y-80895237D02*
X80054819Y-80704761D01*
X80054819Y-80704761D02*
X80007200Y-80609523D01*
X80007200Y-80609523D02*
X79959580Y-80561904D01*
X79959580Y-80561904D02*
X79864342Y-80514285D01*
X79864342Y-80514285D02*
X79673866Y-80514285D01*
X79673866Y-80514285D02*
X79578628Y-80561904D01*
X79578628Y-80561904D02*
X79531009Y-80609523D01*
X79531009Y-80609523D02*
X79483390Y-80704761D01*
X72038095Y-87254819D02*
X72038095Y-88064342D01*
X72038095Y-88064342D02*
X72085714Y-88159580D01*
X72085714Y-88159580D02*
X72133333Y-88207200D01*
X72133333Y-88207200D02*
X72228571Y-88254819D01*
X72228571Y-88254819D02*
X72419047Y-88254819D01*
X72419047Y-88254819D02*
X72514285Y-88207200D01*
X72514285Y-88207200D02*
X72561904Y-88159580D01*
X72561904Y-88159580D02*
X72609523Y-88064342D01*
X72609523Y-88064342D02*
X72609523Y-87254819D01*
X73038095Y-87350057D02*
X73085714Y-87302438D01*
X73085714Y-87302438D02*
X73180952Y-87254819D01*
X73180952Y-87254819D02*
X73419047Y-87254819D01*
X73419047Y-87254819D02*
X73514285Y-87302438D01*
X73514285Y-87302438D02*
X73561904Y-87350057D01*
X73561904Y-87350057D02*
X73609523Y-87445295D01*
X73609523Y-87445295D02*
X73609523Y-87540533D01*
X73609523Y-87540533D02*
X73561904Y-87683390D01*
X73561904Y-87683390D02*
X72990476Y-88254819D01*
X72990476Y-88254819D02*
X73609523Y-88254819D01*
X45833333Y-69559580D02*
X45785714Y-69607200D01*
X45785714Y-69607200D02*
X45642857Y-69654819D01*
X45642857Y-69654819D02*
X45547619Y-69654819D01*
X45547619Y-69654819D02*
X45404762Y-69607200D01*
X45404762Y-69607200D02*
X45309524Y-69511961D01*
X45309524Y-69511961D02*
X45261905Y-69416723D01*
X45261905Y-69416723D02*
X45214286Y-69226247D01*
X45214286Y-69226247D02*
X45214286Y-69083390D01*
X45214286Y-69083390D02*
X45261905Y-68892914D01*
X45261905Y-68892914D02*
X45309524Y-68797676D01*
X45309524Y-68797676D02*
X45404762Y-68702438D01*
X45404762Y-68702438D02*
X45547619Y-68654819D01*
X45547619Y-68654819D02*
X45642857Y-68654819D01*
X45642857Y-68654819D02*
X45785714Y-68702438D01*
X45785714Y-68702438D02*
X45833333Y-68750057D01*
X46785714Y-69654819D02*
X46214286Y-69654819D01*
X46500000Y-69654819D02*
X46500000Y-68654819D01*
X46500000Y-68654819D02*
X46404762Y-68797676D01*
X46404762Y-68797676D02*
X46309524Y-68892914D01*
X46309524Y-68892914D02*
X46214286Y-68940533D01*
X47354819Y-96746666D02*
X46878628Y-97079999D01*
X47354819Y-97318094D02*
X46354819Y-97318094D01*
X46354819Y-97318094D02*
X46354819Y-96937142D01*
X46354819Y-96937142D02*
X46402438Y-96841904D01*
X46402438Y-96841904D02*
X46450057Y-96794285D01*
X46450057Y-96794285D02*
X46545295Y-96746666D01*
X46545295Y-96746666D02*
X46688152Y-96746666D01*
X46688152Y-96746666D02*
X46783390Y-96794285D01*
X46783390Y-96794285D02*
X46831009Y-96841904D01*
X46831009Y-96841904D02*
X46878628Y-96937142D01*
X46878628Y-96937142D02*
X46878628Y-97318094D01*
X46450057Y-96365713D02*
X46402438Y-96318094D01*
X46402438Y-96318094D02*
X46354819Y-96222856D01*
X46354819Y-96222856D02*
X46354819Y-95984761D01*
X46354819Y-95984761D02*
X46402438Y-95889523D01*
X46402438Y-95889523D02*
X46450057Y-95841904D01*
X46450057Y-95841904D02*
X46545295Y-95794285D01*
X46545295Y-95794285D02*
X46640533Y-95794285D01*
X46640533Y-95794285D02*
X46783390Y-95841904D01*
X46783390Y-95841904D02*
X47354819Y-96413332D01*
X47354819Y-96413332D02*
X47354819Y-95794285D01*
X41537142Y-60254819D02*
X41203809Y-59778628D01*
X40965714Y-60254819D02*
X40965714Y-59254819D01*
X40965714Y-59254819D02*
X41346666Y-59254819D01*
X41346666Y-59254819D02*
X41441904Y-59302438D01*
X41441904Y-59302438D02*
X41489523Y-59350057D01*
X41489523Y-59350057D02*
X41537142Y-59445295D01*
X41537142Y-59445295D02*
X41537142Y-59588152D01*
X41537142Y-59588152D02*
X41489523Y-59683390D01*
X41489523Y-59683390D02*
X41441904Y-59731009D01*
X41441904Y-59731009D02*
X41346666Y-59778628D01*
X41346666Y-59778628D02*
X40965714Y-59778628D01*
X42489523Y-60254819D02*
X41918095Y-60254819D01*
X42203809Y-60254819D02*
X42203809Y-59254819D01*
X42203809Y-59254819D02*
X42108571Y-59397676D01*
X42108571Y-59397676D02*
X42013333Y-59492914D01*
X42013333Y-59492914D02*
X41918095Y-59540533D01*
X43108571Y-59254819D02*
X43203809Y-59254819D01*
X43203809Y-59254819D02*
X43299047Y-59302438D01*
X43299047Y-59302438D02*
X43346666Y-59350057D01*
X43346666Y-59350057D02*
X43394285Y-59445295D01*
X43394285Y-59445295D02*
X43441904Y-59635771D01*
X43441904Y-59635771D02*
X43441904Y-59873866D01*
X43441904Y-59873866D02*
X43394285Y-60064342D01*
X43394285Y-60064342D02*
X43346666Y-60159580D01*
X43346666Y-60159580D02*
X43299047Y-60207200D01*
X43299047Y-60207200D02*
X43203809Y-60254819D01*
X43203809Y-60254819D02*
X43108571Y-60254819D01*
X43108571Y-60254819D02*
X43013333Y-60207200D01*
X43013333Y-60207200D02*
X42965714Y-60159580D01*
X42965714Y-60159580D02*
X42918095Y-60064342D01*
X42918095Y-60064342D02*
X42870476Y-59873866D01*
X42870476Y-59873866D02*
X42870476Y-59635771D01*
X42870476Y-59635771D02*
X42918095Y-59445295D01*
X42918095Y-59445295D02*
X42965714Y-59350057D01*
X42965714Y-59350057D02*
X43013333Y-59302438D01*
X43013333Y-59302438D02*
X43108571Y-59254819D01*
X61454819Y-78642857D02*
X60978628Y-78976190D01*
X61454819Y-79214285D02*
X60454819Y-79214285D01*
X60454819Y-79214285D02*
X60454819Y-78833333D01*
X60454819Y-78833333D02*
X60502438Y-78738095D01*
X60502438Y-78738095D02*
X60550057Y-78690476D01*
X60550057Y-78690476D02*
X60645295Y-78642857D01*
X60645295Y-78642857D02*
X60788152Y-78642857D01*
X60788152Y-78642857D02*
X60883390Y-78690476D01*
X60883390Y-78690476D02*
X60931009Y-78738095D01*
X60931009Y-78738095D02*
X60978628Y-78833333D01*
X60978628Y-78833333D02*
X60978628Y-79214285D01*
X61454819Y-77690476D02*
X61454819Y-78261904D01*
X61454819Y-77976190D02*
X60454819Y-77976190D01*
X60454819Y-77976190D02*
X60597676Y-78071428D01*
X60597676Y-78071428D02*
X60692914Y-78166666D01*
X60692914Y-78166666D02*
X60740533Y-78261904D01*
X61454819Y-77214285D02*
X61454819Y-77023809D01*
X61454819Y-77023809D02*
X61407200Y-76928571D01*
X61407200Y-76928571D02*
X61359580Y-76880952D01*
X61359580Y-76880952D02*
X61216723Y-76785714D01*
X61216723Y-76785714D02*
X61026247Y-76738095D01*
X61026247Y-76738095D02*
X60645295Y-76738095D01*
X60645295Y-76738095D02*
X60550057Y-76785714D01*
X60550057Y-76785714D02*
X60502438Y-76833333D01*
X60502438Y-76833333D02*
X60454819Y-76928571D01*
X60454819Y-76928571D02*
X60454819Y-77119047D01*
X60454819Y-77119047D02*
X60502438Y-77214285D01*
X60502438Y-77214285D02*
X60550057Y-77261904D01*
X60550057Y-77261904D02*
X60645295Y-77309523D01*
X60645295Y-77309523D02*
X60883390Y-77309523D01*
X60883390Y-77309523D02*
X60978628Y-77261904D01*
X60978628Y-77261904D02*
X61026247Y-77214285D01*
X61026247Y-77214285D02*
X61073866Y-77119047D01*
X61073866Y-77119047D02*
X61073866Y-76928571D01*
X61073866Y-76928571D02*
X61026247Y-76833333D01*
X61026247Y-76833333D02*
X60978628Y-76785714D01*
X60978628Y-76785714D02*
X60883390Y-76738095D01*
X74133333Y-80959580D02*
X74085714Y-81007200D01*
X74085714Y-81007200D02*
X73942857Y-81054819D01*
X73942857Y-81054819D02*
X73847619Y-81054819D01*
X73847619Y-81054819D02*
X73704762Y-81007200D01*
X73704762Y-81007200D02*
X73609524Y-80911961D01*
X73609524Y-80911961D02*
X73561905Y-80816723D01*
X73561905Y-80816723D02*
X73514286Y-80626247D01*
X73514286Y-80626247D02*
X73514286Y-80483390D01*
X73514286Y-80483390D02*
X73561905Y-80292914D01*
X73561905Y-80292914D02*
X73609524Y-80197676D01*
X73609524Y-80197676D02*
X73704762Y-80102438D01*
X73704762Y-80102438D02*
X73847619Y-80054819D01*
X73847619Y-80054819D02*
X73942857Y-80054819D01*
X73942857Y-80054819D02*
X74085714Y-80102438D01*
X74085714Y-80102438D02*
X74133333Y-80150057D01*
X74466667Y-80054819D02*
X75133333Y-80054819D01*
X75133333Y-80054819D02*
X74704762Y-81054819D01*
X70833333Y-94959580D02*
X70785714Y-95007200D01*
X70785714Y-95007200D02*
X70642857Y-95054819D01*
X70642857Y-95054819D02*
X70547619Y-95054819D01*
X70547619Y-95054819D02*
X70404762Y-95007200D01*
X70404762Y-95007200D02*
X70309524Y-94911961D01*
X70309524Y-94911961D02*
X70261905Y-94816723D01*
X70261905Y-94816723D02*
X70214286Y-94626247D01*
X70214286Y-94626247D02*
X70214286Y-94483390D01*
X70214286Y-94483390D02*
X70261905Y-94292914D01*
X70261905Y-94292914D02*
X70309524Y-94197676D01*
X70309524Y-94197676D02*
X70404762Y-94102438D01*
X70404762Y-94102438D02*
X70547619Y-94054819D01*
X70547619Y-94054819D02*
X70642857Y-94054819D01*
X70642857Y-94054819D02*
X70785714Y-94102438D01*
X70785714Y-94102438D02*
X70833333Y-94150057D01*
X71404762Y-94483390D02*
X71309524Y-94435771D01*
X71309524Y-94435771D02*
X71261905Y-94388152D01*
X71261905Y-94388152D02*
X71214286Y-94292914D01*
X71214286Y-94292914D02*
X71214286Y-94245295D01*
X71214286Y-94245295D02*
X71261905Y-94150057D01*
X71261905Y-94150057D02*
X71309524Y-94102438D01*
X71309524Y-94102438D02*
X71404762Y-94054819D01*
X71404762Y-94054819D02*
X71595238Y-94054819D01*
X71595238Y-94054819D02*
X71690476Y-94102438D01*
X71690476Y-94102438D02*
X71738095Y-94150057D01*
X71738095Y-94150057D02*
X71785714Y-94245295D01*
X71785714Y-94245295D02*
X71785714Y-94292914D01*
X71785714Y-94292914D02*
X71738095Y-94388152D01*
X71738095Y-94388152D02*
X71690476Y-94435771D01*
X71690476Y-94435771D02*
X71595238Y-94483390D01*
X71595238Y-94483390D02*
X71404762Y-94483390D01*
X71404762Y-94483390D02*
X71309524Y-94531009D01*
X71309524Y-94531009D02*
X71261905Y-94578628D01*
X71261905Y-94578628D02*
X71214286Y-94673866D01*
X71214286Y-94673866D02*
X71214286Y-94864342D01*
X71214286Y-94864342D02*
X71261905Y-94959580D01*
X71261905Y-94959580D02*
X71309524Y-95007200D01*
X71309524Y-95007200D02*
X71404762Y-95054819D01*
X71404762Y-95054819D02*
X71595238Y-95054819D01*
X71595238Y-95054819D02*
X71690476Y-95007200D01*
X71690476Y-95007200D02*
X71738095Y-94959580D01*
X71738095Y-94959580D02*
X71785714Y-94864342D01*
X71785714Y-94864342D02*
X71785714Y-94673866D01*
X71785714Y-94673866D02*
X71738095Y-94578628D01*
X71738095Y-94578628D02*
X71690476Y-94531009D01*
X71690476Y-94531009D02*
X71595238Y-94483390D01*
D11*
X84270000Y-92920000D02*
X81530000Y-92920000D01*
X81530000Y-85680000D02*
X81530000Y-92920000D01*
X84270000Y-85680000D02*
X81530000Y-85680000D01*
X84270000Y-85680000D02*
X84270000Y-92920000D01*
X37030000Y-122170000D02*
X38629000Y-122170000D01*
X46970000Y-122170000D02*
X46970000Y-118305000D01*
X45370000Y-122170000D02*
X46970000Y-122170000D01*
X37030000Y-109930000D02*
X46970000Y-109930000D01*
X37030000Y-122170000D02*
X37030000Y-118305000D01*
X42871000Y-122170000D02*
X43630000Y-122170000D01*
X40371000Y-122170000D02*
X41130000Y-122170000D01*
X46970000Y-113795000D02*
X46970000Y-109930000D01*
X37030000Y-113795000D02*
X37030000Y-109930000D01*
X60871000Y-55170000D02*
X61630000Y-55170000D01*
X55030000Y-42930000D02*
X64970000Y-42930000D01*
X55030000Y-55170000D02*
X55030000Y-51305000D01*
X64970000Y-55170000D02*
X64970000Y-51305000D01*
X55030000Y-46795000D02*
X55030000Y-42930000D01*
X63370000Y-55170000D02*
X64970000Y-55170000D01*
X58371000Y-55170000D02*
X59130000Y-55170000D01*
X64970000Y-46795000D02*
X64970000Y-42930000D01*
X55030000Y-55170000D02*
X56629000Y-55170000D01*
X78820000Y-43770000D02*
X78820000Y-39530000D01*
X78820000Y-39530000D02*
X76580000Y-39530000D01*
X76580000Y-42930000D02*
X78820000Y-42930000D01*
X77700000Y-38880000D02*
X77700000Y-39530000D01*
X77700000Y-44420000D02*
X77700000Y-43770000D01*
X76580000Y-43170000D02*
X78820000Y-43170000D01*
X76580000Y-43770000D02*
X78820000Y-43770000D01*
X76580000Y-43050000D02*
X78820000Y-43050000D01*
X76580000Y-39530000D02*
X76580000Y-43770000D01*
X76580000Y-53450000D02*
X78820000Y-53450000D01*
X78820000Y-49930000D02*
X76580000Y-49930000D01*
X76580000Y-53330000D02*
X78820000Y-53330000D01*
X76580000Y-54170000D02*
X78820000Y-54170000D01*
X77700000Y-49280000D02*
X77700000Y-49930000D01*
X77700000Y-54820000D02*
X77700000Y-54170000D01*
X76580000Y-53570000D02*
X78820000Y-53570000D01*
X78820000Y-54170000D02*
X78820000Y-49930000D01*
X76580000Y-49930000D02*
X76580000Y-54170000D01*
X73980000Y-43770000D02*
X76220000Y-43770000D01*
X76220000Y-39530000D02*
X73980000Y-39530000D01*
X73980000Y-43170000D02*
X76220000Y-43170000D01*
X73980000Y-43050000D02*
X76220000Y-43050000D01*
X75100000Y-38880000D02*
X75100000Y-39530000D01*
X73980000Y-39530000D02*
X73980000Y-43770000D01*
X75100000Y-44420000D02*
X75100000Y-43770000D01*
X76220000Y-43770000D02*
X76220000Y-39530000D01*
X73980000Y-42930000D02*
X76220000Y-42930000D01*
X73980000Y-53570000D02*
X76220000Y-53570000D01*
X73980000Y-49930000D02*
X73980000Y-54170000D01*
X76220000Y-54170000D02*
X76220000Y-49930000D01*
X73980000Y-53450000D02*
X76220000Y-53450000D01*
X75100000Y-49280000D02*
X75100000Y-49930000D01*
X75100000Y-54820000D02*
X75100000Y-54170000D01*
X73980000Y-54170000D02*
X76220000Y-54170000D01*
X73980000Y-53330000D02*
X76220000Y-53330000D01*
X76220000Y-49930000D02*
X73980000Y-49930000D01*
X71380000Y-43170000D02*
X73620000Y-43170000D01*
X71380000Y-39530000D02*
X71380000Y-43770000D01*
X71380000Y-42930000D02*
X73620000Y-42930000D01*
X73620000Y-43770000D02*
X73620000Y-39530000D01*
X72500000Y-44420000D02*
X72500000Y-43770000D01*
X71380000Y-43050000D02*
X73620000Y-43050000D01*
X73620000Y-39530000D02*
X71380000Y-39530000D01*
X71380000Y-43770000D02*
X73620000Y-43770000D01*
X72500000Y-38880000D02*
X72500000Y-39530000D01*
X71380000Y-53450000D02*
X73620000Y-53450000D01*
X71380000Y-49930000D02*
X71380000Y-54170000D01*
X73620000Y-54170000D02*
X73620000Y-49930000D01*
X71380000Y-53330000D02*
X73620000Y-53330000D01*
X71380000Y-54170000D02*
X73620000Y-54170000D01*
X72500000Y-54820000D02*
X72500000Y-54170000D01*
X73620000Y-49930000D02*
X71380000Y-49930000D01*
X72500000Y-49280000D02*
X72500000Y-49930000D01*
X71380000Y-53570000D02*
X73620000Y-53570000D01*
X41650000Y-131480000D02*
X37500000Y-131480000D01*
X41500000Y-141980000D02*
X37500000Y-141980000D01*
X46500000Y-131480000D02*
X42350000Y-131480000D01*
X40940000Y-128500000D02*
X40940000Y-129300000D01*
X40940000Y-128500000D02*
X41800000Y-128500000D01*
X37500000Y-131480000D02*
X37500000Y-141980000D01*
X46500000Y-131480000D02*
X46500000Y-141980000D01*
X46500000Y-141980000D02*
X42500000Y-141980000D01*
X43800000Y-135980000D02*
G75*
G03*
X40200000Y-135980000I-1800000J0D01*
G01*
X40200000Y-135980000D02*
G75*
G03*
X43800000Y-135980000I1800000J0D01*
G01*
X39650000Y-96700000D02*
X35500000Y-96700000D01*
X44500000Y-96700000D02*
X44500000Y-107200000D01*
X35500000Y-96700000D02*
X35500000Y-107200000D01*
X39500000Y-107200000D02*
X35500000Y-107200000D01*
X38940000Y-93720000D02*
X39800000Y-93720000D01*
X38940000Y-93720000D02*
X38940000Y-94520000D01*
X44500000Y-96700000D02*
X40350000Y-96700000D01*
X44500000Y-107200000D02*
X40500000Y-107200000D01*
X41800000Y-101200000D02*
G75*
G03*
X38200000Y-101200000I-1800000J0D01*
G01*
X38200000Y-101200000D02*
G75*
G03*
X41800000Y-101200000I1800000J0D01*
G01*
X84500000Y-96580000D02*
X84500000Y-107080000D01*
X78940000Y-93600000D02*
X79800000Y-93600000D01*
X84500000Y-96580000D02*
X80350000Y-96580000D01*
X79650000Y-96580000D02*
X75500000Y-96580000D01*
X79500000Y-107080000D02*
X75500000Y-107080000D01*
X84500000Y-107080000D02*
X80500000Y-107080000D01*
X78940000Y-93600000D02*
X78940000Y-94400000D01*
X75500000Y-96580000D02*
X75500000Y-107080000D01*
X81800000Y-101080000D02*
G75*
G03*
X78200000Y-101080000I-1800000J0D01*
G01*
X78200000Y-101080000D02*
G75*
G03*
X81800000Y-101080000I1800000J0D01*
G01*
X68650000Y-74100000D02*
X68650000Y-70500000D01*
X65701193Y-69943600D02*
G75*
G03*
X64200000Y-72300000I1098807J-2356400D01*
G01*
X64200001Y-72300000D02*
G75*
G03*
X65701193Y-74656399I2599999J0D01*
G01*
X68649999Y-70500001D02*
G75*
G03*
X67922795Y-69975817I-1849999J-1799999D01*
G01*
X67922795Y-74624183D02*
G75*
G03*
X68649999Y-74099999I-1122795J2324183D01*
G01*
X69050000Y-70500000D02*
X69050000Y-74100000D01*
X73499999Y-72300000D02*
G75*
G03*
X71998807Y-69943601I-2599999J0D01*
G01*
X71998807Y-74656400D02*
G75*
G03*
X73500000Y-72300000I-1098807J2356400D01*
G01*
X69050001Y-74099999D02*
G75*
G03*
X69777205Y-74624183I1849999J1799999D01*
G01*
X69777205Y-69975817D02*
G75*
G03*
X69050001Y-70500001I1122795J-2324183D01*
G01*
X58870000Y-61650000D02*
X56130000Y-61650000D01*
X56130000Y-61650000D02*
X56130000Y-68190000D01*
X57500000Y-60880000D02*
X57500000Y-61650000D01*
X58870000Y-68190000D02*
X58870000Y-61650000D01*
X57500000Y-68960000D02*
X57500000Y-68190000D01*
X56130000Y-68190000D02*
X58870000Y-68190000D01*
X50000000Y-92540000D02*
X50000000Y-93310000D01*
X51370000Y-93310000D02*
X48630000Y-93310000D01*
X48630000Y-93310000D02*
X48630000Y-99850000D01*
X51370000Y-99850000D02*
X51370000Y-93310000D01*
X50000000Y-100620000D02*
X50000000Y-99850000D01*
X48630000Y-99850000D02*
X51370000Y-99850000D01*
X42210000Y-84170000D02*
X48750000Y-84170000D01*
X48750000Y-84170000D02*
X48750000Y-81430000D01*
X42210000Y-81430000D02*
X42210000Y-84170000D01*
X49520000Y-82800000D02*
X48750000Y-82800000D01*
X48750000Y-81430000D02*
X42210000Y-81430000D01*
X41440000Y-82800000D02*
X42210000Y-82800000D01*
X55370000Y-68190000D02*
X55370000Y-61650000D01*
X54000000Y-68960000D02*
X54000000Y-68190000D01*
X55370000Y-61650000D02*
X52630000Y-61650000D01*
X52630000Y-61650000D02*
X52630000Y-68190000D01*
X52630000Y-68190000D02*
X55370000Y-68190000D01*
X54000000Y-60880000D02*
X54000000Y-61650000D01*
X61000000Y-60880000D02*
X61000000Y-61650000D01*
X59630000Y-61650000D02*
X59630000Y-68190000D01*
X62370000Y-68190000D02*
X62370000Y-61650000D01*
X61000000Y-68960000D02*
X61000000Y-68190000D01*
X62370000Y-61650000D02*
X59630000Y-61650000D01*
X59630000Y-68190000D02*
X62370000Y-68190000D01*
X72940000Y-62200000D02*
X72170000Y-62200000D01*
X64860000Y-62200000D02*
X65630000Y-62200000D01*
X72170000Y-63570000D02*
X72170000Y-60830000D01*
X72170000Y-60830000D02*
X65630000Y-60830000D01*
X65630000Y-60830000D02*
X65630000Y-63570000D01*
X65630000Y-63570000D02*
X72170000Y-63570000D01*
X50040000Y-66000000D02*
X49270000Y-66000000D01*
X42730000Y-64630000D02*
X42730000Y-67370000D01*
X42730000Y-67370000D02*
X49270000Y-67370000D01*
X41960000Y-66000000D02*
X42730000Y-66000000D01*
X49270000Y-64630000D02*
X42730000Y-64630000D01*
X49270000Y-67370000D02*
X49270000Y-64630000D01*
X49520000Y-50500000D02*
X48750000Y-50500000D01*
X42210000Y-51870000D02*
X48750000Y-51870000D01*
X48750000Y-49130000D02*
X42210000Y-49130000D01*
X48750000Y-51870000D02*
X48750000Y-49130000D01*
X41440000Y-50500000D02*
X42210000Y-50500000D01*
X42210000Y-49130000D02*
X42210000Y-51870000D01*
X48750000Y-55330000D02*
X42210000Y-55330000D01*
X42210000Y-55330000D02*
X42210000Y-58070000D01*
X48750000Y-58070000D02*
X48750000Y-55330000D01*
X49520000Y-56700000D02*
X48750000Y-56700000D01*
X41440000Y-56700000D02*
X42210000Y-56700000D01*
X42210000Y-58070000D02*
X48750000Y-58070000D01*
X38230000Y-124630000D02*
X38230000Y-127370000D01*
X38230000Y-127370000D02*
X44770000Y-127370000D01*
X44770000Y-124630000D02*
X38230000Y-124630000D01*
X37460000Y-126000000D02*
X38230000Y-126000000D01*
X45540000Y-126000000D02*
X44770000Y-126000000D01*
X44770000Y-127370000D02*
X44770000Y-124630000D01*
X68300000Y-50180000D02*
X68300000Y-50950000D01*
X69670000Y-57490000D02*
X69670000Y-50950000D01*
X68300000Y-58260000D02*
X68300000Y-57490000D01*
X66930000Y-57490000D02*
X69670000Y-57490000D01*
X66930000Y-50950000D02*
X66930000Y-57490000D01*
X69670000Y-50950000D02*
X66930000Y-50950000D01*
X48750000Y-54970000D02*
X48750000Y-52230000D01*
X42210000Y-52230000D02*
X42210000Y-54970000D01*
X48750000Y-52230000D02*
X42210000Y-52230000D01*
X49520000Y-53600000D02*
X48750000Y-53600000D01*
X41440000Y-53600000D02*
X42210000Y-53600000D01*
X42210000Y-54970000D02*
X48750000Y-54970000D01*
X48750000Y-46030000D02*
X42210000Y-46030000D01*
X49520000Y-47400000D02*
X48750000Y-47400000D01*
X42210000Y-46030000D02*
X42210000Y-48770000D01*
X48750000Y-48770000D02*
X48750000Y-46030000D01*
X41440000Y-47400000D02*
X42210000Y-47400000D01*
X42210000Y-48770000D02*
X48750000Y-48770000D01*
X41440000Y-44300000D02*
X42210000Y-44300000D01*
X42210000Y-42930000D02*
X42210000Y-45670000D01*
X48750000Y-45670000D02*
X48750000Y-42930000D01*
X42210000Y-45670000D02*
X48750000Y-45670000D01*
X48750000Y-42930000D02*
X42210000Y-42930000D01*
X49520000Y-44300000D02*
X48750000Y-44300000D01*
X81230000Y-70470000D02*
X83970000Y-70470000D01*
X83970000Y-70470000D02*
X83970000Y-63930000D01*
X83970000Y-63930000D02*
X81230000Y-63930000D01*
X82600000Y-63160000D02*
X82600000Y-63930000D01*
X82600000Y-71240000D02*
X82600000Y-70470000D01*
X81230000Y-63930000D02*
X81230000Y-70470000D01*
X62770000Y-103730000D02*
X56230000Y-103730000D01*
X56230000Y-106470000D02*
X62770000Y-106470000D01*
X55460000Y-105100000D02*
X56230000Y-105100000D01*
X63540000Y-105100000D02*
X62770000Y-105100000D01*
X56230000Y-103730000D02*
X56230000Y-106470000D01*
X62770000Y-106470000D02*
X62770000Y-103730000D01*
X63540000Y-102000000D02*
X62770000Y-102000000D01*
X56230000Y-100630000D02*
X56230000Y-103370000D01*
X56230000Y-103370000D02*
X62770000Y-103370000D01*
X62770000Y-100630000D02*
X56230000Y-100630000D01*
X62770000Y-103370000D02*
X62770000Y-100630000D01*
X55460000Y-102000000D02*
X56230000Y-102000000D01*
X58371000Y-98170000D02*
X59130000Y-98170000D01*
X63370000Y-98170000D02*
X64970000Y-98170000D01*
X55030000Y-89795000D02*
X55030000Y-85930000D01*
X64970000Y-89795000D02*
X64970000Y-85930000D01*
X64970000Y-98170000D02*
X64970000Y-94305000D01*
X60871000Y-98170000D02*
X61630000Y-98170000D01*
X55030000Y-98170000D02*
X55030000Y-94305000D01*
X55030000Y-98170000D02*
X56629000Y-98170000D01*
X55030000Y-85930000D02*
X64970000Y-85930000D01*
X84350000Y-114400000D02*
X81350000Y-114400000D01*
X71650000Y-127400000D02*
X71650000Y-127600000D01*
X71650000Y-121000000D02*
X71650000Y-114400000D01*
X84350000Y-127600000D02*
X81350000Y-127600000D01*
X84350000Y-114400000D02*
X84350000Y-127600000D01*
X71650000Y-114400000D02*
X81350000Y-114400000D01*
X71650000Y-121000000D02*
X71650000Y-127000000D01*
X81350000Y-127600000D02*
X71650000Y-127600000D01*
X71650000Y-127000000D02*
X71650000Y-127400000D01*
X80970000Y-78030000D02*
X78230000Y-78030000D01*
X78230000Y-84570000D02*
X80970000Y-84570000D01*
X79600000Y-85340000D02*
X79600000Y-84570000D01*
X78230000Y-78030000D02*
X78230000Y-84570000D01*
X79600000Y-77260000D02*
X79600000Y-78030000D01*
X80970000Y-84570000D02*
X80970000Y-78030000D01*
X75260000Y-92750000D02*
X75260000Y-82470000D01*
X67470000Y-92810000D02*
X77750000Y-92810000D01*
X67470000Y-82410000D02*
X67470000Y-92810000D01*
X75260000Y-82470000D02*
X73610000Y-82470000D01*
X69960000Y-92750000D02*
X75260000Y-92750000D01*
X77750000Y-92810000D02*
X77750000Y-82410000D01*
X69960000Y-82470000D02*
X69960000Y-92750000D01*
X77750000Y-82410000D02*
X67470000Y-82410000D01*
X71610000Y-82470000D02*
X69960000Y-82470000D01*
X71610000Y-82470000D02*
G75*
G03*
X73610000Y-82470000I1000000J0D01*
G01*
X42380000Y-67830000D02*
X42380000Y-70570000D01*
X49620000Y-67830000D02*
X49620000Y-70570000D01*
X42380000Y-70570000D02*
X49620000Y-70570000D01*
X42380000Y-67830000D02*
X49620000Y-67830000D01*
X45530000Y-99850000D02*
X48270000Y-99850000D01*
X48270000Y-93310000D02*
X45530000Y-93310000D01*
X46900000Y-100620000D02*
X46900000Y-99850000D01*
X46900000Y-92540000D02*
X46900000Y-93310000D01*
X45530000Y-93310000D02*
X45530000Y-99850000D01*
X48270000Y-99850000D02*
X48270000Y-93310000D01*
X46220000Y-59800000D02*
X45450000Y-59800000D01*
X45450000Y-58430000D02*
X38910000Y-58430000D01*
X38910000Y-61170000D02*
X45450000Y-61170000D01*
X45450000Y-61170000D02*
X45450000Y-58430000D01*
X38140000Y-59800000D02*
X38910000Y-59800000D01*
X38910000Y-58430000D02*
X38910000Y-61170000D01*
X62370000Y-81270000D02*
X62370000Y-74730000D01*
X61000000Y-82040000D02*
X61000000Y-81270000D01*
X62370000Y-74730000D02*
X59630000Y-74730000D01*
X61000000Y-73960000D02*
X61000000Y-74730000D01*
X59630000Y-74730000D02*
X59630000Y-81270000D01*
X59630000Y-81270000D02*
X62370000Y-81270000D01*
X77820000Y-81970000D02*
X77820000Y-79230000D01*
X70580000Y-81970000D02*
X70580000Y-79230000D01*
X77820000Y-81970000D02*
X70580000Y-81970000D01*
X77820000Y-79230000D02*
X70580000Y-79230000D01*
X74620000Y-93230000D02*
X67380000Y-93230000D01*
X67380000Y-95970000D02*
X67380000Y-93230000D01*
X74620000Y-95970000D02*
X67380000Y-95970000D01*
X74620000Y-95970000D02*
X74620000Y-93230000D01*
%LPC*%
D12*
X82900000Y-86800000D03*
X82900000Y-91800000D03*
D13*
X46400000Y-116050000D03*
X37600000Y-116050000D03*
D14*
X44500000Y-123050000D03*
X42000000Y-123050000D03*
X39500000Y-123050000D03*
D13*
X55600000Y-49050000D03*
X64400000Y-49050000D03*
D14*
X62500000Y-56050000D03*
X60000000Y-56050000D03*
X57500000Y-56050000D03*
D15*
X77700000Y-45460000D03*
D16*
X77700000Y-37840000D03*
D15*
X77700000Y-55860000D03*
D16*
X77700000Y-48240000D03*
D15*
X75100000Y-45460000D03*
D16*
X75100000Y-37840000D03*
D15*
X75100000Y-55860000D03*
D16*
X75100000Y-48240000D03*
D15*
X72500000Y-45460000D03*
D16*
X72500000Y-37840000D03*
D15*
X72500000Y-55860000D03*
D16*
X72500000Y-48240000D03*
D17*
X42000000Y-129500000D03*
D18*
X42000000Y-140900000D03*
X42000000Y-132600000D03*
D17*
X40000000Y-94720000D03*
D18*
X40000000Y-106120000D03*
X40000000Y-97820000D03*
D17*
X80000000Y-94600000D03*
D18*
X80000000Y-106000000D03*
X80000000Y-97700000D03*
D19*
X66800000Y-74840000D03*
D20*
X66800000Y-72300000D03*
X66800000Y-69760000D03*
D19*
X70900000Y-69760000D03*
D20*
X70900000Y-72300000D03*
X70900000Y-74840000D03*
D12*
X57500000Y-59840000D03*
D16*
X57500000Y-70000000D03*
D12*
X50000000Y-101660000D03*
D16*
X50000000Y-91500000D03*
D12*
X50560000Y-82800000D03*
D16*
X40400000Y-82800000D03*
D12*
X54000000Y-70000000D03*
D16*
X54000000Y-59840000D03*
D12*
X61000000Y-70000000D03*
D16*
X61000000Y-59840000D03*
D12*
X73980000Y-62200000D03*
D16*
X63820000Y-62200000D03*
D12*
X51080000Y-66000000D03*
D16*
X40920000Y-66000000D03*
D12*
X50560000Y-50500000D03*
D16*
X40400000Y-50500000D03*
D12*
X50560000Y-56700000D03*
D16*
X40400000Y-56700000D03*
D12*
X46580000Y-126000000D03*
D16*
X36420000Y-126000000D03*
D12*
X68300000Y-59300000D03*
D16*
X68300000Y-49140000D03*
D12*
X40400000Y-53600000D03*
D16*
X50560000Y-53600000D03*
D12*
X50560000Y-47400000D03*
D16*
X40400000Y-47400000D03*
D12*
X40400000Y-44300000D03*
D16*
X50560000Y-44300000D03*
D12*
X82600000Y-72280000D03*
D16*
X82600000Y-62120000D03*
D12*
X64580000Y-105100000D03*
D16*
X54420000Y-105100000D03*
D12*
X64580000Y-102000000D03*
D16*
X54420000Y-102000000D03*
D13*
X64400000Y-92050000D03*
X55600000Y-92050000D03*
D14*
X62500000Y-99050000D03*
X60000000Y-99050000D03*
X57500000Y-99050000D03*
D21*
X75600000Y-116300000D03*
X75600000Y-121000000D03*
X75600000Y-125700000D03*
X80400000Y-116300000D03*
X80400000Y-121000000D03*
X80400000Y-125700000D03*
D12*
X79600000Y-76220000D03*
D16*
X79600000Y-86380000D03*
D15*
X68800000Y-83800000D03*
D16*
X68800000Y-86340000D03*
X68800000Y-88880000D03*
X68800000Y-91420000D03*
X76420000Y-91420000D03*
X76420000Y-88880000D03*
X76420000Y-86340000D03*
X76420000Y-83800000D03*
D12*
X43500000Y-69200000D03*
X48500000Y-69200000D03*
X46900000Y-101660000D03*
D16*
X46900000Y-91500000D03*
D12*
X37100000Y-59800000D03*
D16*
X47260000Y-59800000D03*
D12*
X61000000Y-72920000D03*
D16*
X61000000Y-83080000D03*
D12*
X76700000Y-80600000D03*
X71700000Y-80600000D03*
X73500000Y-94600000D03*
X68500000Y-94600000D03*
D15*
X68455112Y-131000000D03*
D12*
X66455112Y-131000000D03*
D15*
X53500000Y-124000000D03*
D12*
X51500000Y-124000000D03*
D15*
X54944888Y-82500000D03*
D12*
X56944888Y-82500000D03*
D22*
X81400000Y-144875000D03*
D14*
X81400000Y-142335000D03*
D23*
X61050000Y-132500000D03*
D24*
X48350000Y-132500000D03*
G36*
G01*
X54325000Y-139397500D02*
X55525000Y-139397500D01*
G75*
G02*
X55775000Y-139647500I0J-250000D01*
G01*
X55775000Y-140847500D01*
G75*
G02*
X55525000Y-141097500I-250000J0D01*
G01*
X54325000Y-141097500D01*
G75*
G02*
X54075000Y-140847500I0J250000D01*
G01*
X54075000Y-139647500D01*
G75*
G02*
X54325000Y-139397500I250000J0D01*
G01*
G37*
D25*
X54925000Y-142787500D03*
X57465000Y-140247500D03*
X57465000Y-142787500D03*
X60005000Y-140247500D03*
X60005000Y-142787500D03*
X62545000Y-140247500D03*
X62545000Y-142787500D03*
X65085000Y-140247500D03*
X65085000Y-142787500D03*
D26*
X81030000Y-44240000D03*
X81030000Y-41700000D03*
X81030000Y-39160000D03*
X81030000Y-54780000D03*
X81030000Y-52240000D03*
X81030000Y-49700000D03*
D12*
X76900000Y-132320000D03*
D16*
X76900000Y-142480000D03*
D23*
X73000000Y-132500000D03*
D24*
X73000000Y-145200000D03*
D12*
X47000000Y-86000000D03*
X52000000Y-86000000D03*
X51300000Y-74100000D03*
X51300000Y-79100000D03*
X40700000Y-79100000D03*
X40700000Y-74100000D03*
%LPD*%
M02*
