G04 #@! TF.GenerationSoftware,KiCad,Pcbnew,7.0.11-7.0.11~ubuntu22.04.1*
G04 #@! TF.CreationDate,2024-10-19T21:34:47+01:00*
G04 #@! TF.ProjectId,MS20-VCF,4d533230-2d56-4434-962e-6b696361645f,rev?*
G04 #@! TF.SameCoordinates,Original*
G04 #@! TF.FileFunction,Legend,Bot*
G04 #@! TF.FilePolarity,Positive*
%FSLAX46Y46*%
G04 Gerber Fmt 4.6, Leading zero omitted, Abs format (unit mm)*
G04 Created by KiCad (PCBNEW 7.0.11-7.0.11~ubuntu22.04.1) date 2024-10-19 21:34:47*
%MOMM*%
%LPD*%
G01*
G04 APERTURE LIST*
%ADD10C,0.300000*%
%ADD11C,0.150000*%
%ADD12O,6.700000X4.200000*%
G04 APERTURE END LIST*
D10*
X104178328Y-67071428D02*
X105249757Y-67071428D01*
X105249757Y-67071428D02*
X105464042Y-66999999D01*
X105464042Y-66999999D02*
X105606900Y-66857142D01*
X105606900Y-66857142D02*
X105678328Y-66642856D01*
X105678328Y-66642856D02*
X105678328Y-66499999D01*
X105678328Y-68499999D02*
X105678328Y-67785713D01*
X105678328Y-67785713D02*
X104178328Y-67785713D01*
X105535471Y-69857142D02*
X105606900Y-69785714D01*
X105606900Y-69785714D02*
X105678328Y-69571428D01*
X105678328Y-69571428D02*
X105678328Y-69428571D01*
X105678328Y-69428571D02*
X105606900Y-69214285D01*
X105606900Y-69214285D02*
X105464042Y-69071428D01*
X105464042Y-69071428D02*
X105321185Y-68999999D01*
X105321185Y-68999999D02*
X105035471Y-68928571D01*
X105035471Y-68928571D02*
X104821185Y-68928571D01*
X104821185Y-68928571D02*
X104535471Y-68999999D01*
X104535471Y-68999999D02*
X104392614Y-69071428D01*
X104392614Y-69071428D02*
X104249757Y-69214285D01*
X104249757Y-69214285D02*
X104178328Y-69428571D01*
X104178328Y-69428571D02*
X104178328Y-69571428D01*
X104178328Y-69571428D02*
X104249757Y-69785714D01*
X104249757Y-69785714D02*
X104321185Y-69857142D01*
X104178328Y-70928571D02*
X105249757Y-70928571D01*
X105249757Y-70928571D02*
X105464042Y-70857142D01*
X105464042Y-70857142D02*
X105606900Y-70714285D01*
X105606900Y-70714285D02*
X105678328Y-70499999D01*
X105678328Y-70499999D02*
X105678328Y-70357142D01*
X105678328Y-72357142D02*
X105678328Y-71642856D01*
X105678328Y-71642856D02*
X104178328Y-71642856D01*
X105535471Y-73714285D02*
X105606900Y-73642857D01*
X105606900Y-73642857D02*
X105678328Y-73428571D01*
X105678328Y-73428571D02*
X105678328Y-73285714D01*
X105678328Y-73285714D02*
X105606900Y-73071428D01*
X105606900Y-73071428D02*
X105464042Y-72928571D01*
X105464042Y-72928571D02*
X105321185Y-72857142D01*
X105321185Y-72857142D02*
X105035471Y-72785714D01*
X105035471Y-72785714D02*
X104821185Y-72785714D01*
X104821185Y-72785714D02*
X104535471Y-72857142D01*
X104535471Y-72857142D02*
X104392614Y-72928571D01*
X104392614Y-72928571D02*
X104249757Y-73071428D01*
X104249757Y-73071428D02*
X104178328Y-73285714D01*
X104178328Y-73285714D02*
X104178328Y-73428571D01*
X104178328Y-73428571D02*
X104249757Y-73642857D01*
X104249757Y-73642857D02*
X104321185Y-73714285D01*
X104178328Y-74785714D02*
X105249757Y-74785714D01*
X105249757Y-74785714D02*
X105464042Y-74714285D01*
X105464042Y-74714285D02*
X105606900Y-74571428D01*
X105606900Y-74571428D02*
X105678328Y-74357142D01*
X105678328Y-74357142D02*
X105678328Y-74214285D01*
X105678328Y-76214285D02*
X105678328Y-75499999D01*
X105678328Y-75499999D02*
X104178328Y-75499999D01*
X105535471Y-77571428D02*
X105606900Y-77500000D01*
X105606900Y-77500000D02*
X105678328Y-77285714D01*
X105678328Y-77285714D02*
X105678328Y-77142857D01*
X105678328Y-77142857D02*
X105606900Y-76928571D01*
X105606900Y-76928571D02*
X105464042Y-76785714D01*
X105464042Y-76785714D02*
X105321185Y-76714285D01*
X105321185Y-76714285D02*
X105035471Y-76642857D01*
X105035471Y-76642857D02*
X104821185Y-76642857D01*
X104821185Y-76642857D02*
X104535471Y-76714285D01*
X104535471Y-76714285D02*
X104392614Y-76785714D01*
X104392614Y-76785714D02*
X104249757Y-76928571D01*
X104249757Y-76928571D02*
X104178328Y-77142857D01*
X104178328Y-77142857D02*
X104178328Y-77285714D01*
X104178328Y-77285714D02*
X104249757Y-77500000D01*
X104249757Y-77500000D02*
X104321185Y-77571428D01*
X104178328Y-78642857D02*
X105249757Y-78642857D01*
X105249757Y-78642857D02*
X105464042Y-78571428D01*
X105464042Y-78571428D02*
X105606900Y-78428571D01*
X105606900Y-78428571D02*
X105678328Y-78214285D01*
X105678328Y-78214285D02*
X105678328Y-78071428D01*
X105678328Y-80071428D02*
X105678328Y-79357142D01*
X105678328Y-79357142D02*
X104178328Y-79357142D01*
X105535471Y-81428571D02*
X105606900Y-81357143D01*
X105606900Y-81357143D02*
X105678328Y-81142857D01*
X105678328Y-81142857D02*
X105678328Y-81000000D01*
X105678328Y-81000000D02*
X105606900Y-80785714D01*
X105606900Y-80785714D02*
X105464042Y-80642857D01*
X105464042Y-80642857D02*
X105321185Y-80571428D01*
X105321185Y-80571428D02*
X105035471Y-80500000D01*
X105035471Y-80500000D02*
X104821185Y-80500000D01*
X104821185Y-80500000D02*
X104535471Y-80571428D01*
X104535471Y-80571428D02*
X104392614Y-80642857D01*
X104392614Y-80642857D02*
X104249757Y-80785714D01*
X104249757Y-80785714D02*
X104178328Y-81000000D01*
X104178328Y-81000000D02*
X104178328Y-81142857D01*
X104178328Y-81142857D02*
X104249757Y-81357143D01*
X104249757Y-81357143D02*
X104321185Y-81428571D01*
D11*
X132119047Y-29039819D02*
X132119047Y-28039819D01*
X132119047Y-28039819D02*
X131785714Y-28754104D01*
X131785714Y-28754104D02*
X131452381Y-28039819D01*
X131452381Y-28039819D02*
X131452381Y-29039819D01*
X131023809Y-28992200D02*
X130880952Y-29039819D01*
X130880952Y-29039819D02*
X130642857Y-29039819D01*
X130642857Y-29039819D02*
X130547619Y-28992200D01*
X130547619Y-28992200D02*
X130500000Y-28944580D01*
X130500000Y-28944580D02*
X130452381Y-28849342D01*
X130452381Y-28849342D02*
X130452381Y-28754104D01*
X130452381Y-28754104D02*
X130500000Y-28658866D01*
X130500000Y-28658866D02*
X130547619Y-28611247D01*
X130547619Y-28611247D02*
X130642857Y-28563628D01*
X130642857Y-28563628D02*
X130833333Y-28516009D01*
X130833333Y-28516009D02*
X130928571Y-28468390D01*
X130928571Y-28468390D02*
X130976190Y-28420771D01*
X130976190Y-28420771D02*
X131023809Y-28325533D01*
X131023809Y-28325533D02*
X131023809Y-28230295D01*
X131023809Y-28230295D02*
X130976190Y-28135057D01*
X130976190Y-28135057D02*
X130928571Y-28087438D01*
X130928571Y-28087438D02*
X130833333Y-28039819D01*
X130833333Y-28039819D02*
X130595238Y-28039819D01*
X130595238Y-28039819D02*
X130452381Y-28087438D01*
X130023809Y-28658866D02*
X129261905Y-28658866D01*
X128833333Y-28135057D02*
X128785714Y-28087438D01*
X128785714Y-28087438D02*
X128690476Y-28039819D01*
X128690476Y-28039819D02*
X128452381Y-28039819D01*
X128452381Y-28039819D02*
X128357143Y-28087438D01*
X128357143Y-28087438D02*
X128309524Y-28135057D01*
X128309524Y-28135057D02*
X128261905Y-28230295D01*
X128261905Y-28230295D02*
X128261905Y-28325533D01*
X128261905Y-28325533D02*
X128309524Y-28468390D01*
X128309524Y-28468390D02*
X128880952Y-29039819D01*
X128880952Y-29039819D02*
X128261905Y-29039819D01*
X127642857Y-28039819D02*
X127547619Y-28039819D01*
X127547619Y-28039819D02*
X127452381Y-28087438D01*
X127452381Y-28087438D02*
X127404762Y-28135057D01*
X127404762Y-28135057D02*
X127357143Y-28230295D01*
X127357143Y-28230295D02*
X127309524Y-28420771D01*
X127309524Y-28420771D02*
X127309524Y-28658866D01*
X127309524Y-28658866D02*
X127357143Y-28849342D01*
X127357143Y-28849342D02*
X127404762Y-28944580D01*
X127404762Y-28944580D02*
X127452381Y-28992200D01*
X127452381Y-28992200D02*
X127547619Y-29039819D01*
X127547619Y-29039819D02*
X127642857Y-29039819D01*
X127642857Y-29039819D02*
X127738095Y-28992200D01*
X127738095Y-28992200D02*
X127785714Y-28944580D01*
X127785714Y-28944580D02*
X127833333Y-28849342D01*
X127833333Y-28849342D02*
X127880952Y-28658866D01*
X127880952Y-28658866D02*
X127880952Y-28420771D01*
X127880952Y-28420771D02*
X127833333Y-28230295D01*
X127833333Y-28230295D02*
X127785714Y-28135057D01*
X127785714Y-28135057D02*
X127738095Y-28087438D01*
X127738095Y-28087438D02*
X127642857Y-28039819D01*
X126261904Y-28039819D02*
X125928571Y-29039819D01*
X125928571Y-29039819D02*
X125595238Y-28039819D01*
X124690476Y-28944580D02*
X124738095Y-28992200D01*
X124738095Y-28992200D02*
X124880952Y-29039819D01*
X124880952Y-29039819D02*
X124976190Y-29039819D01*
X124976190Y-29039819D02*
X125119047Y-28992200D01*
X125119047Y-28992200D02*
X125214285Y-28896961D01*
X125214285Y-28896961D02*
X125261904Y-28801723D01*
X125261904Y-28801723D02*
X125309523Y-28611247D01*
X125309523Y-28611247D02*
X125309523Y-28468390D01*
X125309523Y-28468390D02*
X125261904Y-28277914D01*
X125261904Y-28277914D02*
X125214285Y-28182676D01*
X125214285Y-28182676D02*
X125119047Y-28087438D01*
X125119047Y-28087438D02*
X124976190Y-28039819D01*
X124976190Y-28039819D02*
X124880952Y-28039819D01*
X124880952Y-28039819D02*
X124738095Y-28087438D01*
X124738095Y-28087438D02*
X124690476Y-28135057D01*
X123928571Y-28516009D02*
X124261904Y-28516009D01*
X124261904Y-29039819D02*
X124261904Y-28039819D01*
X124261904Y-28039819D02*
X123785714Y-28039819D01*
X131428572Y-30126009D02*
X131761905Y-30126009D01*
X131761905Y-30649819D02*
X131761905Y-29649819D01*
X131761905Y-29649819D02*
X131285715Y-29649819D01*
X130476191Y-30649819D02*
X130476191Y-30126009D01*
X130476191Y-30126009D02*
X130523810Y-30030771D01*
X130523810Y-30030771D02*
X130619048Y-29983152D01*
X130619048Y-29983152D02*
X130809524Y-29983152D01*
X130809524Y-29983152D02*
X130904762Y-30030771D01*
X130476191Y-30602200D02*
X130571429Y-30649819D01*
X130571429Y-30649819D02*
X130809524Y-30649819D01*
X130809524Y-30649819D02*
X130904762Y-30602200D01*
X130904762Y-30602200D02*
X130952381Y-30506961D01*
X130952381Y-30506961D02*
X130952381Y-30411723D01*
X130952381Y-30411723D02*
X130904762Y-30316485D01*
X130904762Y-30316485D02*
X130809524Y-30268866D01*
X130809524Y-30268866D02*
X130571429Y-30268866D01*
X130571429Y-30268866D02*
X130476191Y-30221247D01*
X129571429Y-30602200D02*
X129666667Y-30649819D01*
X129666667Y-30649819D02*
X129857143Y-30649819D01*
X129857143Y-30649819D02*
X129952381Y-30602200D01*
X129952381Y-30602200D02*
X130000000Y-30554580D01*
X130000000Y-30554580D02*
X130047619Y-30459342D01*
X130047619Y-30459342D02*
X130047619Y-30173628D01*
X130047619Y-30173628D02*
X130000000Y-30078390D01*
X130000000Y-30078390D02*
X129952381Y-30030771D01*
X129952381Y-30030771D02*
X129857143Y-29983152D01*
X129857143Y-29983152D02*
X129666667Y-29983152D01*
X129666667Y-29983152D02*
X129571429Y-30030771D01*
X128761905Y-30602200D02*
X128857143Y-30649819D01*
X128857143Y-30649819D02*
X129047619Y-30649819D01*
X129047619Y-30649819D02*
X129142857Y-30602200D01*
X129142857Y-30602200D02*
X129190476Y-30506961D01*
X129190476Y-30506961D02*
X129190476Y-30126009D01*
X129190476Y-30126009D02*
X129142857Y-30030771D01*
X129142857Y-30030771D02*
X129047619Y-29983152D01*
X129047619Y-29983152D02*
X128857143Y-29983152D01*
X128857143Y-29983152D02*
X128761905Y-30030771D01*
X128761905Y-30030771D02*
X128714286Y-30126009D01*
X128714286Y-30126009D02*
X128714286Y-30221247D01*
X128714286Y-30221247D02*
X129190476Y-30316485D01*
X127523809Y-29983152D02*
X127523809Y-30983152D01*
X127523809Y-30030771D02*
X127428571Y-29983152D01*
X127428571Y-29983152D02*
X127238095Y-29983152D01*
X127238095Y-29983152D02*
X127142857Y-30030771D01*
X127142857Y-30030771D02*
X127095238Y-30078390D01*
X127095238Y-30078390D02*
X127047619Y-30173628D01*
X127047619Y-30173628D02*
X127047619Y-30459342D01*
X127047619Y-30459342D02*
X127095238Y-30554580D01*
X127095238Y-30554580D02*
X127142857Y-30602200D01*
X127142857Y-30602200D02*
X127238095Y-30649819D01*
X127238095Y-30649819D02*
X127428571Y-30649819D01*
X127428571Y-30649819D02*
X127523809Y-30602200D01*
X126476190Y-30649819D02*
X126571428Y-30602200D01*
X126571428Y-30602200D02*
X126619047Y-30506961D01*
X126619047Y-30506961D02*
X126619047Y-29649819D01*
X125666666Y-30649819D02*
X125666666Y-30126009D01*
X125666666Y-30126009D02*
X125714285Y-30030771D01*
X125714285Y-30030771D02*
X125809523Y-29983152D01*
X125809523Y-29983152D02*
X125999999Y-29983152D01*
X125999999Y-29983152D02*
X126095237Y-30030771D01*
X125666666Y-30602200D02*
X125761904Y-30649819D01*
X125761904Y-30649819D02*
X125999999Y-30649819D01*
X125999999Y-30649819D02*
X126095237Y-30602200D01*
X126095237Y-30602200D02*
X126142856Y-30506961D01*
X126142856Y-30506961D02*
X126142856Y-30411723D01*
X126142856Y-30411723D02*
X126095237Y-30316485D01*
X126095237Y-30316485D02*
X125999999Y-30268866D01*
X125999999Y-30268866D02*
X125761904Y-30268866D01*
X125761904Y-30268866D02*
X125666666Y-30221247D01*
X125333332Y-29983152D02*
X124952380Y-29983152D01*
X125190475Y-29649819D02*
X125190475Y-30506961D01*
X125190475Y-30506961D02*
X125142856Y-30602200D01*
X125142856Y-30602200D02*
X125047618Y-30649819D01*
X125047618Y-30649819D02*
X124952380Y-30649819D01*
X124238094Y-30602200D02*
X124333332Y-30649819D01*
X124333332Y-30649819D02*
X124523808Y-30649819D01*
X124523808Y-30649819D02*
X124619046Y-30602200D01*
X124619046Y-30602200D02*
X124666665Y-30506961D01*
X124666665Y-30506961D02*
X124666665Y-30126009D01*
X124666665Y-30126009D02*
X124619046Y-30030771D01*
X124619046Y-30030771D02*
X124523808Y-29983152D01*
X124523808Y-29983152D02*
X124333332Y-29983152D01*
X124333332Y-29983152D02*
X124238094Y-30030771D01*
X124238094Y-30030771D02*
X124190475Y-30126009D01*
X124190475Y-30126009D02*
X124190475Y-30221247D01*
X124190475Y-30221247D02*
X124666665Y-30316485D01*
X134261904Y-31259819D02*
X133928571Y-32259819D01*
X133928571Y-32259819D02*
X133595238Y-31259819D01*
X132738095Y-32259819D02*
X133309523Y-32259819D01*
X133023809Y-32259819D02*
X133023809Y-31259819D01*
X133023809Y-31259819D02*
X133119047Y-31402676D01*
X133119047Y-31402676D02*
X133214285Y-31497914D01*
X133214285Y-31497914D02*
X133309523Y-31545533D01*
X132309523Y-32164580D02*
X132261904Y-32212200D01*
X132261904Y-32212200D02*
X132309523Y-32259819D01*
X132309523Y-32259819D02*
X132357142Y-32212200D01*
X132357142Y-32212200D02*
X132309523Y-32164580D01*
X132309523Y-32164580D02*
X132309523Y-32259819D01*
X131880952Y-31355057D02*
X131833333Y-31307438D01*
X131833333Y-31307438D02*
X131738095Y-31259819D01*
X131738095Y-31259819D02*
X131500000Y-31259819D01*
X131500000Y-31259819D02*
X131404762Y-31307438D01*
X131404762Y-31307438D02*
X131357143Y-31355057D01*
X131357143Y-31355057D02*
X131309524Y-31450295D01*
X131309524Y-31450295D02*
X131309524Y-31545533D01*
X131309524Y-31545533D02*
X131357143Y-31688390D01*
X131357143Y-31688390D02*
X131928571Y-32259819D01*
X131928571Y-32259819D02*
X131309524Y-32259819D01*
X129785714Y-31736009D02*
X129642857Y-31783628D01*
X129642857Y-31783628D02*
X129595238Y-31831247D01*
X129595238Y-31831247D02*
X129547619Y-31926485D01*
X129547619Y-31926485D02*
X129547619Y-32069342D01*
X129547619Y-32069342D02*
X129595238Y-32164580D01*
X129595238Y-32164580D02*
X129642857Y-32212200D01*
X129642857Y-32212200D02*
X129738095Y-32259819D01*
X129738095Y-32259819D02*
X130119047Y-32259819D01*
X130119047Y-32259819D02*
X130119047Y-31259819D01*
X130119047Y-31259819D02*
X129785714Y-31259819D01*
X129785714Y-31259819D02*
X129690476Y-31307438D01*
X129690476Y-31307438D02*
X129642857Y-31355057D01*
X129642857Y-31355057D02*
X129595238Y-31450295D01*
X129595238Y-31450295D02*
X129595238Y-31545533D01*
X129595238Y-31545533D02*
X129642857Y-31640771D01*
X129642857Y-31640771D02*
X129690476Y-31688390D01*
X129690476Y-31688390D02*
X129785714Y-31736009D01*
X129785714Y-31736009D02*
X130119047Y-31736009D01*
X128976190Y-32259819D02*
X129071428Y-32212200D01*
X129071428Y-32212200D02*
X129119047Y-32116961D01*
X129119047Y-32116961D02*
X129119047Y-31259819D01*
X128214285Y-32212200D02*
X128309523Y-32259819D01*
X128309523Y-32259819D02*
X128499999Y-32259819D01*
X128499999Y-32259819D02*
X128595237Y-32212200D01*
X128595237Y-32212200D02*
X128642856Y-32116961D01*
X128642856Y-32116961D02*
X128642856Y-31736009D01*
X128642856Y-31736009D02*
X128595237Y-31640771D01*
X128595237Y-31640771D02*
X128499999Y-31593152D01*
X128499999Y-31593152D02*
X128309523Y-31593152D01*
X128309523Y-31593152D02*
X128214285Y-31640771D01*
X128214285Y-31640771D02*
X128166666Y-31736009D01*
X128166666Y-31736009D02*
X128166666Y-31831247D01*
X128166666Y-31831247D02*
X128642856Y-31926485D01*
X127357142Y-32212200D02*
X127452380Y-32259819D01*
X127452380Y-32259819D02*
X127642856Y-32259819D01*
X127642856Y-32259819D02*
X127738094Y-32212200D01*
X127738094Y-32212200D02*
X127785713Y-32116961D01*
X127785713Y-32116961D02*
X127785713Y-31736009D01*
X127785713Y-31736009D02*
X127738094Y-31640771D01*
X127738094Y-31640771D02*
X127642856Y-31593152D01*
X127642856Y-31593152D02*
X127452380Y-31593152D01*
X127452380Y-31593152D02*
X127357142Y-31640771D01*
X127357142Y-31640771D02*
X127309523Y-31736009D01*
X127309523Y-31736009D02*
X127309523Y-31831247D01*
X127309523Y-31831247D02*
X127785713Y-31926485D01*
X126880951Y-31593152D02*
X126880951Y-32593152D01*
X126880951Y-31640771D02*
X126785713Y-31593152D01*
X126785713Y-31593152D02*
X126595237Y-31593152D01*
X126595237Y-31593152D02*
X126499999Y-31640771D01*
X126499999Y-31640771D02*
X126452380Y-31688390D01*
X126452380Y-31688390D02*
X126404761Y-31783628D01*
X126404761Y-31783628D02*
X126404761Y-32069342D01*
X126404761Y-32069342D02*
X126452380Y-32164580D01*
X126452380Y-32164580D02*
X126499999Y-32212200D01*
X126499999Y-32212200D02*
X126595237Y-32259819D01*
X126595237Y-32259819D02*
X126785713Y-32259819D01*
X126785713Y-32259819D02*
X126880951Y-32212200D01*
X126023808Y-32212200D02*
X125880951Y-32259819D01*
X125880951Y-32259819D02*
X125642856Y-32259819D01*
X125642856Y-32259819D02*
X125547618Y-32212200D01*
X125547618Y-32212200D02*
X125499999Y-32164580D01*
X125499999Y-32164580D02*
X125452380Y-32069342D01*
X125452380Y-32069342D02*
X125452380Y-31974104D01*
X125452380Y-31974104D02*
X125499999Y-31878866D01*
X125499999Y-31878866D02*
X125547618Y-31831247D01*
X125547618Y-31831247D02*
X125642856Y-31783628D01*
X125642856Y-31783628D02*
X125833332Y-31736009D01*
X125833332Y-31736009D02*
X125928570Y-31688390D01*
X125928570Y-31688390D02*
X125976189Y-31640771D01*
X125976189Y-31640771D02*
X126023808Y-31545533D01*
X126023808Y-31545533D02*
X126023808Y-31450295D01*
X126023808Y-31450295D02*
X125976189Y-31355057D01*
X125976189Y-31355057D02*
X125928570Y-31307438D01*
X125928570Y-31307438D02*
X125833332Y-31259819D01*
X125833332Y-31259819D02*
X125595237Y-31259819D01*
X125595237Y-31259819D02*
X125452380Y-31307438D01*
X124880951Y-32259819D02*
X124976189Y-32212200D01*
X124976189Y-32212200D02*
X125023808Y-32164580D01*
X125023808Y-32164580D02*
X125071427Y-32069342D01*
X125071427Y-32069342D02*
X125071427Y-31783628D01*
X125071427Y-31783628D02*
X125023808Y-31688390D01*
X125023808Y-31688390D02*
X124976189Y-31640771D01*
X124976189Y-31640771D02*
X124880951Y-31593152D01*
X124880951Y-31593152D02*
X124738094Y-31593152D01*
X124738094Y-31593152D02*
X124642856Y-31640771D01*
X124642856Y-31640771D02*
X124595237Y-31688390D01*
X124595237Y-31688390D02*
X124547618Y-31783628D01*
X124547618Y-31783628D02*
X124547618Y-32069342D01*
X124547618Y-32069342D02*
X124595237Y-32164580D01*
X124595237Y-32164580D02*
X124642856Y-32212200D01*
X124642856Y-32212200D02*
X124738094Y-32259819D01*
X124738094Y-32259819D02*
X124880951Y-32259819D01*
X123690475Y-31593152D02*
X123690475Y-32259819D01*
X124119046Y-31593152D02*
X124119046Y-32116961D01*
X124119046Y-32116961D02*
X124071427Y-32212200D01*
X124071427Y-32212200D02*
X123976189Y-32259819D01*
X123976189Y-32259819D02*
X123833332Y-32259819D01*
X123833332Y-32259819D02*
X123738094Y-32212200D01*
X123738094Y-32212200D02*
X123690475Y-32164580D01*
X123214284Y-31593152D02*
X123214284Y-32259819D01*
X123214284Y-31688390D02*
X123166665Y-31640771D01*
X123166665Y-31640771D02*
X123071427Y-31593152D01*
X123071427Y-31593152D02*
X122928570Y-31593152D01*
X122928570Y-31593152D02*
X122833332Y-31640771D01*
X122833332Y-31640771D02*
X122785713Y-31736009D01*
X122785713Y-31736009D02*
X122785713Y-32259819D01*
X121880951Y-32259819D02*
X121880951Y-31259819D01*
X121880951Y-32212200D02*
X121976189Y-32259819D01*
X121976189Y-32259819D02*
X122166665Y-32259819D01*
X122166665Y-32259819D02*
X122261903Y-32212200D01*
X122261903Y-32212200D02*
X122309522Y-32164580D01*
X122309522Y-32164580D02*
X122357141Y-32069342D01*
X122357141Y-32069342D02*
X122357141Y-31783628D01*
X122357141Y-31783628D02*
X122309522Y-31688390D01*
X122309522Y-31688390D02*
X122261903Y-31640771D01*
X122261903Y-31640771D02*
X122166665Y-31593152D01*
X122166665Y-31593152D02*
X121976189Y-31593152D01*
X121976189Y-31593152D02*
X121880951Y-31640771D01*
X129714285Y-32965057D02*
X129666666Y-32917438D01*
X129666666Y-32917438D02*
X129571428Y-32869819D01*
X129571428Y-32869819D02*
X129333333Y-32869819D01*
X129333333Y-32869819D02*
X129238095Y-32917438D01*
X129238095Y-32917438D02*
X129190476Y-32965057D01*
X129190476Y-32965057D02*
X129142857Y-33060295D01*
X129142857Y-33060295D02*
X129142857Y-33155533D01*
X129142857Y-33155533D02*
X129190476Y-33298390D01*
X129190476Y-33298390D02*
X129761904Y-33869819D01*
X129761904Y-33869819D02*
X129142857Y-33869819D01*
X128523809Y-32869819D02*
X128428571Y-32869819D01*
X128428571Y-32869819D02*
X128333333Y-32917438D01*
X128333333Y-32917438D02*
X128285714Y-32965057D01*
X128285714Y-32965057D02*
X128238095Y-33060295D01*
X128238095Y-33060295D02*
X128190476Y-33250771D01*
X128190476Y-33250771D02*
X128190476Y-33488866D01*
X128190476Y-33488866D02*
X128238095Y-33679342D01*
X128238095Y-33679342D02*
X128285714Y-33774580D01*
X128285714Y-33774580D02*
X128333333Y-33822200D01*
X128333333Y-33822200D02*
X128428571Y-33869819D01*
X128428571Y-33869819D02*
X128523809Y-33869819D01*
X128523809Y-33869819D02*
X128619047Y-33822200D01*
X128619047Y-33822200D02*
X128666666Y-33774580D01*
X128666666Y-33774580D02*
X128714285Y-33679342D01*
X128714285Y-33679342D02*
X128761904Y-33488866D01*
X128761904Y-33488866D02*
X128761904Y-33250771D01*
X128761904Y-33250771D02*
X128714285Y-33060295D01*
X128714285Y-33060295D02*
X128666666Y-32965057D01*
X128666666Y-32965057D02*
X128619047Y-32917438D01*
X128619047Y-32917438D02*
X128523809Y-32869819D01*
X127809523Y-32965057D02*
X127761904Y-32917438D01*
X127761904Y-32917438D02*
X127666666Y-32869819D01*
X127666666Y-32869819D02*
X127428571Y-32869819D01*
X127428571Y-32869819D02*
X127333333Y-32917438D01*
X127333333Y-32917438D02*
X127285714Y-32965057D01*
X127285714Y-32965057D02*
X127238095Y-33060295D01*
X127238095Y-33060295D02*
X127238095Y-33155533D01*
X127238095Y-33155533D02*
X127285714Y-33298390D01*
X127285714Y-33298390D02*
X127857142Y-33869819D01*
X127857142Y-33869819D02*
X127238095Y-33869819D01*
X126904761Y-32869819D02*
X126285714Y-32869819D01*
X126285714Y-32869819D02*
X126619047Y-33250771D01*
X126619047Y-33250771D02*
X126476190Y-33250771D01*
X126476190Y-33250771D02*
X126380952Y-33298390D01*
X126380952Y-33298390D02*
X126333333Y-33346009D01*
X126333333Y-33346009D02*
X126285714Y-33441247D01*
X126285714Y-33441247D02*
X126285714Y-33679342D01*
X126285714Y-33679342D02*
X126333333Y-33774580D01*
X126333333Y-33774580D02*
X126380952Y-33822200D01*
X126380952Y-33822200D02*
X126476190Y-33869819D01*
X126476190Y-33869819D02*
X126761904Y-33869819D01*
X126761904Y-33869819D02*
X126857142Y-33822200D01*
X126857142Y-33822200D02*
X126904761Y-33774580D01*
%LPC*%
D12*
X111000000Y-30000000D03*
X145000000Y-30000000D03*
X145000000Y-152500000D03*
X111000000Y-152500000D03*
%LPD*%
M02*
