%TF.GenerationSoftware,KiCad,Pcbnew,7.0.11-7.0.11~ubuntu22.04.1*%
%TF.CreationDate,2024-10-19T21:34:47+01:00*%
%TF.ProjectId,MS20-VCF,4d533230-2d56-4434-962e-6b696361645f,rev?*%
%TF.SameCoordinates,Original*%
%TF.FileFunction,Drillmap*%
%TF.FilePolarity,Positive*%
%FSLAX45Y45*%
G04 Gerber Fmt 4.5, Leading zero omitted, Abs format (unit mm)*
G04 Created by KiCad (PCBNEW 7.0.11-7.0.11~ubuntu22.04.1) date 2024-10-19 21:34:47*
%MOMM*%
%LPD*%
G01*
G04 APERTURE LIST*
%ADD10C,0.050000*%
%ADD11C,0.200000*%
G04 APERTURE END LIST*
D10*
X15300000Y-2700000D02*
X15300000Y-15550000D01*
X10300000Y-2700000D02*
X10300000Y-15550000D01*
X15300000Y-15550000D02*
X10300000Y-15550000D01*
X10300000Y-2700000D02*
X15300000Y-2700000D01*
D11*
X10558277Y-15863984D02*
X10558277Y-15663984D01*
X10558277Y-15663984D02*
X10605896Y-15663984D01*
X10605896Y-15663984D02*
X10634467Y-15673508D01*
X10634467Y-15673508D02*
X10653515Y-15692555D01*
X10653515Y-15692555D02*
X10663039Y-15711603D01*
X10663039Y-15711603D02*
X10672562Y-15749698D01*
X10672562Y-15749698D02*
X10672562Y-15778269D01*
X10672562Y-15778269D02*
X10663039Y-15816365D01*
X10663039Y-15816365D02*
X10653515Y-15835412D01*
X10653515Y-15835412D02*
X10634467Y-15854460D01*
X10634467Y-15854460D02*
X10605896Y-15863984D01*
X10605896Y-15863984D02*
X10558277Y-15863984D01*
X10758277Y-15863984D02*
X10758277Y-15730650D01*
X10758277Y-15768746D02*
X10767801Y-15749698D01*
X10767801Y-15749698D02*
X10777324Y-15740174D01*
X10777324Y-15740174D02*
X10796372Y-15730650D01*
X10796372Y-15730650D02*
X10815420Y-15730650D01*
X10882086Y-15863984D02*
X10882086Y-15730650D01*
X10882086Y-15663984D02*
X10872562Y-15673508D01*
X10872562Y-15673508D02*
X10882086Y-15683031D01*
X10882086Y-15683031D02*
X10891610Y-15673508D01*
X10891610Y-15673508D02*
X10882086Y-15663984D01*
X10882086Y-15663984D02*
X10882086Y-15683031D01*
X11005896Y-15863984D02*
X10986848Y-15854460D01*
X10986848Y-15854460D02*
X10977324Y-15835412D01*
X10977324Y-15835412D02*
X10977324Y-15663984D01*
X11110658Y-15863984D02*
X11091610Y-15854460D01*
X11091610Y-15854460D02*
X11082086Y-15835412D01*
X11082086Y-15835412D02*
X11082086Y-15663984D01*
X11339229Y-15863984D02*
X11339229Y-15663984D01*
X11339229Y-15663984D02*
X11405896Y-15806841D01*
X11405896Y-15806841D02*
X11472562Y-15663984D01*
X11472562Y-15663984D02*
X11472562Y-15863984D01*
X11653515Y-15863984D02*
X11653515Y-15759222D01*
X11653515Y-15759222D02*
X11643991Y-15740174D01*
X11643991Y-15740174D02*
X11624943Y-15730650D01*
X11624943Y-15730650D02*
X11586848Y-15730650D01*
X11586848Y-15730650D02*
X11567800Y-15740174D01*
X11653515Y-15854460D02*
X11634467Y-15863984D01*
X11634467Y-15863984D02*
X11586848Y-15863984D01*
X11586848Y-15863984D02*
X11567800Y-15854460D01*
X11567800Y-15854460D02*
X11558277Y-15835412D01*
X11558277Y-15835412D02*
X11558277Y-15816365D01*
X11558277Y-15816365D02*
X11567800Y-15797317D01*
X11567800Y-15797317D02*
X11586848Y-15787793D01*
X11586848Y-15787793D02*
X11634467Y-15787793D01*
X11634467Y-15787793D02*
X11653515Y-15778269D01*
X11748753Y-15730650D02*
X11748753Y-15930650D01*
X11748753Y-15740174D02*
X11767800Y-15730650D01*
X11767800Y-15730650D02*
X11805896Y-15730650D01*
X11805896Y-15730650D02*
X11824943Y-15740174D01*
X11824943Y-15740174D02*
X11834467Y-15749698D01*
X11834467Y-15749698D02*
X11843991Y-15768746D01*
X11843991Y-15768746D02*
X11843991Y-15825888D01*
X11843991Y-15825888D02*
X11834467Y-15844936D01*
X11834467Y-15844936D02*
X11824943Y-15854460D01*
X11824943Y-15854460D02*
X11805896Y-15863984D01*
X11805896Y-15863984D02*
X11767800Y-15863984D01*
X11767800Y-15863984D02*
X11748753Y-15854460D01*
X11929705Y-15844936D02*
X11939229Y-15854460D01*
X11939229Y-15854460D02*
X11929705Y-15863984D01*
X11929705Y-15863984D02*
X11920181Y-15854460D01*
X11920181Y-15854460D02*
X11929705Y-15844936D01*
X11929705Y-15844936D02*
X11929705Y-15863984D01*
X11929705Y-15740174D02*
X11939229Y-15749698D01*
X11939229Y-15749698D02*
X11929705Y-15759222D01*
X11929705Y-15759222D02*
X11920181Y-15749698D01*
X11920181Y-15749698D02*
X11929705Y-15740174D01*
X11929705Y-15740174D02*
X11929705Y-15759222D01*
M02*
