G04 #@! TF.GenerationSoftware,KiCad,Pcbnew,6.0.9+dfsg-1~bpo11+1*
G04 #@! TF.CreationDate,2022-12-28T23:15:26+00:00*
G04 #@! TF.ProjectId,MS20-VCF,4d533230-2d56-4434-962e-6b696361645f,rev?*
G04 #@! TF.SameCoordinates,Original*
G04 #@! TF.FileFunction,Paste,Bot*
G04 #@! TF.FilePolarity,Positive*
%FSLAX46Y46*%
G04 Gerber Fmt 4.6, Leading zero omitted, Abs format (unit mm)*
G04 Created by KiCad (PCBNEW 6.0.9+dfsg-1~bpo11+1) date 2022-12-28 23:15:26*
%MOMM*%
%LPD*%
G01*
G04 APERTURE LIST*
G04 APERTURE END LIST*
G36*
G01*
X42550000Y-80595000D02*
X42550000Y-80295000D01*
G75*
G02*
X42700000Y-80145000I150000J0D01*
G01*
X44350000Y-80145000D01*
G75*
G02*
X44500000Y-80295000I0J-150000D01*
G01*
X44500000Y-80595000D01*
G75*
G02*
X44350000Y-80745000I-150000J0D01*
G01*
X42700000Y-80745000D01*
G75*
G02*
X42550000Y-80595000I0J150000D01*
G01*
G37*
G36*
G01*
X42550000Y-79325000D02*
X42550000Y-79025000D01*
G75*
G02*
X42700000Y-78875000I150000J0D01*
G01*
X44350000Y-78875000D01*
G75*
G02*
X44500000Y-79025000I0J-150000D01*
G01*
X44500000Y-79325000D01*
G75*
G02*
X44350000Y-79475000I-150000J0D01*
G01*
X42700000Y-79475000D01*
G75*
G02*
X42550000Y-79325000I0J150000D01*
G01*
G37*
G36*
G01*
X42550000Y-78055000D02*
X42550000Y-77755000D01*
G75*
G02*
X42700000Y-77605000I150000J0D01*
G01*
X44350000Y-77605000D01*
G75*
G02*
X44500000Y-77755000I0J-150000D01*
G01*
X44500000Y-78055000D01*
G75*
G02*
X44350000Y-78205000I-150000J0D01*
G01*
X42700000Y-78205000D01*
G75*
G02*
X42550000Y-78055000I0J150000D01*
G01*
G37*
G36*
G01*
X42550000Y-76785000D02*
X42550000Y-76485000D01*
G75*
G02*
X42700000Y-76335000I150000J0D01*
G01*
X44350000Y-76335000D01*
G75*
G02*
X44500000Y-76485000I0J-150000D01*
G01*
X44500000Y-76785000D01*
G75*
G02*
X44350000Y-76935000I-150000J0D01*
G01*
X42700000Y-76935000D01*
G75*
G02*
X42550000Y-76785000I0J150000D01*
G01*
G37*
G36*
G01*
X42550000Y-75515000D02*
X42550000Y-75215000D01*
G75*
G02*
X42700000Y-75065000I150000J0D01*
G01*
X44350000Y-75065000D01*
G75*
G02*
X44500000Y-75215000I0J-150000D01*
G01*
X44500000Y-75515000D01*
G75*
G02*
X44350000Y-75665000I-150000J0D01*
G01*
X42700000Y-75665000D01*
G75*
G02*
X42550000Y-75515000I0J150000D01*
G01*
G37*
G36*
G01*
X42550000Y-74245000D02*
X42550000Y-73945000D01*
G75*
G02*
X42700000Y-73795000I150000J0D01*
G01*
X44350000Y-73795000D01*
G75*
G02*
X44500000Y-73945000I0J-150000D01*
G01*
X44500000Y-74245000D01*
G75*
G02*
X44350000Y-74395000I-150000J0D01*
G01*
X42700000Y-74395000D01*
G75*
G02*
X42550000Y-74245000I0J150000D01*
G01*
G37*
G36*
G01*
X42550000Y-72975000D02*
X42550000Y-72675000D01*
G75*
G02*
X42700000Y-72525000I150000J0D01*
G01*
X44350000Y-72525000D01*
G75*
G02*
X44500000Y-72675000I0J-150000D01*
G01*
X44500000Y-72975000D01*
G75*
G02*
X44350000Y-73125000I-150000J0D01*
G01*
X42700000Y-73125000D01*
G75*
G02*
X42550000Y-72975000I0J150000D01*
G01*
G37*
G36*
G01*
X42550000Y-71705000D02*
X42550000Y-71405000D01*
G75*
G02*
X42700000Y-71255000I150000J0D01*
G01*
X44350000Y-71255000D01*
G75*
G02*
X44500000Y-71405000I0J-150000D01*
G01*
X44500000Y-71705000D01*
G75*
G02*
X44350000Y-71855000I-150000J0D01*
G01*
X42700000Y-71855000D01*
G75*
G02*
X42550000Y-71705000I0J150000D01*
G01*
G37*
G36*
G01*
X47500000Y-71705000D02*
X47500000Y-71405000D01*
G75*
G02*
X47650000Y-71255000I150000J0D01*
G01*
X49300000Y-71255000D01*
G75*
G02*
X49450000Y-71405000I0J-150000D01*
G01*
X49450000Y-71705000D01*
G75*
G02*
X49300000Y-71855000I-150000J0D01*
G01*
X47650000Y-71855000D01*
G75*
G02*
X47500000Y-71705000I0J150000D01*
G01*
G37*
G36*
G01*
X47500000Y-72975000D02*
X47500000Y-72675000D01*
G75*
G02*
X47650000Y-72525000I150000J0D01*
G01*
X49300000Y-72525000D01*
G75*
G02*
X49450000Y-72675000I0J-150000D01*
G01*
X49450000Y-72975000D01*
G75*
G02*
X49300000Y-73125000I-150000J0D01*
G01*
X47650000Y-73125000D01*
G75*
G02*
X47500000Y-72975000I0J150000D01*
G01*
G37*
G36*
G01*
X47500000Y-74245000D02*
X47500000Y-73945000D01*
G75*
G02*
X47650000Y-73795000I150000J0D01*
G01*
X49300000Y-73795000D01*
G75*
G02*
X49450000Y-73945000I0J-150000D01*
G01*
X49450000Y-74245000D01*
G75*
G02*
X49300000Y-74395000I-150000J0D01*
G01*
X47650000Y-74395000D01*
G75*
G02*
X47500000Y-74245000I0J150000D01*
G01*
G37*
G36*
G01*
X47500000Y-75515000D02*
X47500000Y-75215000D01*
G75*
G02*
X47650000Y-75065000I150000J0D01*
G01*
X49300000Y-75065000D01*
G75*
G02*
X49450000Y-75215000I0J-150000D01*
G01*
X49450000Y-75515000D01*
G75*
G02*
X49300000Y-75665000I-150000J0D01*
G01*
X47650000Y-75665000D01*
G75*
G02*
X47500000Y-75515000I0J150000D01*
G01*
G37*
G36*
G01*
X47500000Y-76785000D02*
X47500000Y-76485000D01*
G75*
G02*
X47650000Y-76335000I150000J0D01*
G01*
X49300000Y-76335000D01*
G75*
G02*
X49450000Y-76485000I0J-150000D01*
G01*
X49450000Y-76785000D01*
G75*
G02*
X49300000Y-76935000I-150000J0D01*
G01*
X47650000Y-76935000D01*
G75*
G02*
X47500000Y-76785000I0J150000D01*
G01*
G37*
G36*
G01*
X47500000Y-78055000D02*
X47500000Y-77755000D01*
G75*
G02*
X47650000Y-77605000I150000J0D01*
G01*
X49300000Y-77605000D01*
G75*
G02*
X49450000Y-77755000I0J-150000D01*
G01*
X49450000Y-78055000D01*
G75*
G02*
X49300000Y-78205000I-150000J0D01*
G01*
X47650000Y-78205000D01*
G75*
G02*
X47500000Y-78055000I0J150000D01*
G01*
G37*
G36*
G01*
X47500000Y-79325000D02*
X47500000Y-79025000D01*
G75*
G02*
X47650000Y-78875000I150000J0D01*
G01*
X49300000Y-78875000D01*
G75*
G02*
X49450000Y-79025000I0J-150000D01*
G01*
X49450000Y-79325000D01*
G75*
G02*
X49300000Y-79475000I-150000J0D01*
G01*
X47650000Y-79475000D01*
G75*
G02*
X47500000Y-79325000I0J150000D01*
G01*
G37*
G36*
G01*
X47500000Y-80595000D02*
X47500000Y-80295000D01*
G75*
G02*
X47650000Y-80145000I150000J0D01*
G01*
X49300000Y-80145000D01*
G75*
G02*
X49450000Y-80295000I0J-150000D01*
G01*
X49450000Y-80595000D01*
G75*
G02*
X49300000Y-80745000I-150000J0D01*
G01*
X47650000Y-80745000D01*
G75*
G02*
X47500000Y-80595000I0J150000D01*
G01*
G37*
M02*
