G04 #@! TF.GenerationSoftware,KiCad,Pcbnew,6.0.9+dfsg-1~bpo11+1*
G04 #@! TF.CreationDate,2022-12-28T23:15:26+00:00*
G04 #@! TF.ProjectId,MS20-VCF,4d533230-2d56-4434-962e-6b696361645f,rev?*
G04 #@! TF.SameCoordinates,Original*
G04 #@! TF.FileFunction,Soldermask,Bot*
G04 #@! TF.FilePolarity,Negative*
%FSLAX46Y46*%
G04 Gerber Fmt 4.6, Leading zero omitted, Abs format (unit mm)*
G04 Created by KiCad (PCBNEW 6.0.9+dfsg-1~bpo11+1) date 2022-12-28 23:15:26*
%MOMM*%
%LPD*%
G01*
G04 APERTURE LIST*
%ADD10C,1.600000*%
%ADD11C,4.000000*%
%ADD12C,1.800000*%
%ADD13R,1.600000X1.600000*%
%ADD14O,1.600000X1.600000*%
%ADD15R,1.930000X1.830000*%
%ADD16C,2.130000*%
%ADD17R,1.500000X1.500000*%
%ADD18C,1.500000*%
%ADD19O,3.700000X2.400000*%
%ADD20R,1.800000X1.800000*%
%ADD21C,2.000000*%
%ADD22O,2.000000X2.000000*%
%ADD23C,1.700000*%
%ADD24C,1.440000*%
G04 APERTURE END LIST*
D10*
X82900000Y-86800000D03*
X82900000Y-91800000D03*
D11*
X46400000Y-116050000D03*
X37600000Y-116050000D03*
D12*
X44500000Y-123050000D03*
X42000000Y-123050000D03*
X39500000Y-123050000D03*
D11*
X55600000Y-49050000D03*
X64400000Y-49050000D03*
D12*
X62500000Y-56050000D03*
X60000000Y-56050000D03*
X57500000Y-56050000D03*
D13*
X77700000Y-45460000D03*
D14*
X77700000Y-37840000D03*
D13*
X77700000Y-55860000D03*
D14*
X77700000Y-48240000D03*
D13*
X75100000Y-45460000D03*
D14*
X75100000Y-37840000D03*
D13*
X75100000Y-55860000D03*
D14*
X75100000Y-48240000D03*
D13*
X72500000Y-45460000D03*
D14*
X72500000Y-37840000D03*
D13*
X72500000Y-55860000D03*
D14*
X72500000Y-48240000D03*
D15*
X42000000Y-129500000D03*
D16*
X42000000Y-140900000D03*
X42000000Y-132600000D03*
D15*
X40000000Y-94720000D03*
D16*
X40000000Y-106120000D03*
X40000000Y-97820000D03*
D15*
X80000000Y-94600000D03*
D16*
X80000000Y-106000000D03*
X80000000Y-97700000D03*
D17*
X66800000Y-74840000D03*
D18*
X66800000Y-72300000D03*
X66800000Y-69760000D03*
D17*
X70900000Y-69760000D03*
D18*
X70900000Y-72300000D03*
X70900000Y-74840000D03*
D10*
X57500000Y-59840000D03*
D14*
X57500000Y-70000000D03*
D10*
X50000000Y-101660000D03*
D14*
X50000000Y-91500000D03*
D10*
X50560000Y-82800000D03*
D14*
X40400000Y-82800000D03*
D10*
X54000000Y-70000000D03*
D14*
X54000000Y-59840000D03*
D10*
X61000000Y-70000000D03*
D14*
X61000000Y-59840000D03*
D10*
X73980000Y-62200000D03*
D14*
X63820000Y-62200000D03*
D10*
X51080000Y-66000000D03*
D14*
X40920000Y-66000000D03*
D10*
X50560000Y-50500000D03*
D14*
X40400000Y-50500000D03*
D10*
X50560000Y-56700000D03*
D14*
X40400000Y-56700000D03*
D10*
X46580000Y-126000000D03*
D14*
X36420000Y-126000000D03*
D10*
X68300000Y-59300000D03*
D14*
X68300000Y-49140000D03*
D10*
X40400000Y-53600000D03*
D14*
X50560000Y-53600000D03*
D10*
X50560000Y-47400000D03*
D14*
X40400000Y-47400000D03*
D10*
X40400000Y-44300000D03*
D14*
X50560000Y-44300000D03*
D10*
X82600000Y-72280000D03*
D14*
X82600000Y-62120000D03*
D10*
X64580000Y-105100000D03*
D14*
X54420000Y-105100000D03*
D10*
X64580000Y-102000000D03*
D14*
X54420000Y-102000000D03*
D11*
X64400000Y-92050000D03*
X55600000Y-92050000D03*
D12*
X62500000Y-99050000D03*
X60000000Y-99050000D03*
X57500000Y-99050000D03*
D19*
X75600000Y-116300000D03*
X75600000Y-121000000D03*
X75600000Y-125700000D03*
X80400000Y-116300000D03*
X80400000Y-121000000D03*
X80400000Y-125700000D03*
D10*
X79600000Y-76220000D03*
D14*
X79600000Y-86380000D03*
D13*
X68800000Y-83800000D03*
D14*
X68800000Y-86340000D03*
X68800000Y-88880000D03*
X68800000Y-91420000D03*
X76420000Y-91420000D03*
X76420000Y-88880000D03*
X76420000Y-86340000D03*
X76420000Y-83800000D03*
D10*
X43500000Y-69200000D03*
X48500000Y-69200000D03*
X46900000Y-101660000D03*
D14*
X46900000Y-91500000D03*
D10*
X37100000Y-59800000D03*
D14*
X47260000Y-59800000D03*
D10*
X61000000Y-72920000D03*
D14*
X61000000Y-83080000D03*
D10*
X76700000Y-80600000D03*
X71700000Y-80600000D03*
X73500000Y-94600000D03*
X68500000Y-94600000D03*
D13*
X68455112Y-131000000D03*
D10*
X66455112Y-131000000D03*
D13*
X53500000Y-124000000D03*
D10*
X51500000Y-124000000D03*
D13*
X54944888Y-82500000D03*
D10*
X56944888Y-82500000D03*
D20*
X81400000Y-144875000D03*
D12*
X81400000Y-142335000D03*
D21*
X61050000Y-132500000D03*
D22*
X48350000Y-132500000D03*
G36*
G01*
X54325000Y-139397500D02*
X55525000Y-139397500D01*
G75*
G02*
X55775000Y-139647500I0J-250000D01*
G01*
X55775000Y-140847500D01*
G75*
G02*
X55525000Y-141097500I-250000J0D01*
G01*
X54325000Y-141097500D01*
G75*
G02*
X54075000Y-140847500I0J250000D01*
G01*
X54075000Y-139647500D01*
G75*
G02*
X54325000Y-139397500I250000J0D01*
G01*
G37*
D23*
X54925000Y-142787500D03*
X57465000Y-140247500D03*
X57465000Y-142787500D03*
X60005000Y-140247500D03*
X60005000Y-142787500D03*
X62545000Y-140247500D03*
X62545000Y-142787500D03*
X65085000Y-140247500D03*
X65085000Y-142787500D03*
D24*
X82200000Y-44180000D03*
X82200000Y-41640000D03*
X82200000Y-39100000D03*
X82200000Y-54720000D03*
X82200000Y-52180000D03*
X82200000Y-49640000D03*
D10*
X76900000Y-132320000D03*
D14*
X76900000Y-142480000D03*
D21*
X73000000Y-132500000D03*
D22*
X73000000Y-145200000D03*
G36*
G01*
X42550000Y-80595000D02*
X42550000Y-80295000D01*
G75*
G02*
X42700000Y-80145000I150000J0D01*
G01*
X44350000Y-80145000D01*
G75*
G02*
X44500000Y-80295000I0J-150000D01*
G01*
X44500000Y-80595000D01*
G75*
G02*
X44350000Y-80745000I-150000J0D01*
G01*
X42700000Y-80745000D01*
G75*
G02*
X42550000Y-80595000I0J150000D01*
G01*
G37*
G36*
G01*
X42550000Y-79325000D02*
X42550000Y-79025000D01*
G75*
G02*
X42700000Y-78875000I150000J0D01*
G01*
X44350000Y-78875000D01*
G75*
G02*
X44500000Y-79025000I0J-150000D01*
G01*
X44500000Y-79325000D01*
G75*
G02*
X44350000Y-79475000I-150000J0D01*
G01*
X42700000Y-79475000D01*
G75*
G02*
X42550000Y-79325000I0J150000D01*
G01*
G37*
G36*
G01*
X42550000Y-78055000D02*
X42550000Y-77755000D01*
G75*
G02*
X42700000Y-77605000I150000J0D01*
G01*
X44350000Y-77605000D01*
G75*
G02*
X44500000Y-77755000I0J-150000D01*
G01*
X44500000Y-78055000D01*
G75*
G02*
X44350000Y-78205000I-150000J0D01*
G01*
X42700000Y-78205000D01*
G75*
G02*
X42550000Y-78055000I0J150000D01*
G01*
G37*
G36*
G01*
X42550000Y-76785000D02*
X42550000Y-76485000D01*
G75*
G02*
X42700000Y-76335000I150000J0D01*
G01*
X44350000Y-76335000D01*
G75*
G02*
X44500000Y-76485000I0J-150000D01*
G01*
X44500000Y-76785000D01*
G75*
G02*
X44350000Y-76935000I-150000J0D01*
G01*
X42700000Y-76935000D01*
G75*
G02*
X42550000Y-76785000I0J150000D01*
G01*
G37*
G36*
G01*
X42550000Y-75515000D02*
X42550000Y-75215000D01*
G75*
G02*
X42700000Y-75065000I150000J0D01*
G01*
X44350000Y-75065000D01*
G75*
G02*
X44500000Y-75215000I0J-150000D01*
G01*
X44500000Y-75515000D01*
G75*
G02*
X44350000Y-75665000I-150000J0D01*
G01*
X42700000Y-75665000D01*
G75*
G02*
X42550000Y-75515000I0J150000D01*
G01*
G37*
G36*
G01*
X42550000Y-74245000D02*
X42550000Y-73945000D01*
G75*
G02*
X42700000Y-73795000I150000J0D01*
G01*
X44350000Y-73795000D01*
G75*
G02*
X44500000Y-73945000I0J-150000D01*
G01*
X44500000Y-74245000D01*
G75*
G02*
X44350000Y-74395000I-150000J0D01*
G01*
X42700000Y-74395000D01*
G75*
G02*
X42550000Y-74245000I0J150000D01*
G01*
G37*
G36*
G01*
X42550000Y-72975000D02*
X42550000Y-72675000D01*
G75*
G02*
X42700000Y-72525000I150000J0D01*
G01*
X44350000Y-72525000D01*
G75*
G02*
X44500000Y-72675000I0J-150000D01*
G01*
X44500000Y-72975000D01*
G75*
G02*
X44350000Y-73125000I-150000J0D01*
G01*
X42700000Y-73125000D01*
G75*
G02*
X42550000Y-72975000I0J150000D01*
G01*
G37*
G36*
G01*
X42550000Y-71705000D02*
X42550000Y-71405000D01*
G75*
G02*
X42700000Y-71255000I150000J0D01*
G01*
X44350000Y-71255000D01*
G75*
G02*
X44500000Y-71405000I0J-150000D01*
G01*
X44500000Y-71705000D01*
G75*
G02*
X44350000Y-71855000I-150000J0D01*
G01*
X42700000Y-71855000D01*
G75*
G02*
X42550000Y-71705000I0J150000D01*
G01*
G37*
G36*
G01*
X47500000Y-71705000D02*
X47500000Y-71405000D01*
G75*
G02*
X47650000Y-71255000I150000J0D01*
G01*
X49300000Y-71255000D01*
G75*
G02*
X49450000Y-71405000I0J-150000D01*
G01*
X49450000Y-71705000D01*
G75*
G02*
X49300000Y-71855000I-150000J0D01*
G01*
X47650000Y-71855000D01*
G75*
G02*
X47500000Y-71705000I0J150000D01*
G01*
G37*
G36*
G01*
X47500000Y-72975000D02*
X47500000Y-72675000D01*
G75*
G02*
X47650000Y-72525000I150000J0D01*
G01*
X49300000Y-72525000D01*
G75*
G02*
X49450000Y-72675000I0J-150000D01*
G01*
X49450000Y-72975000D01*
G75*
G02*
X49300000Y-73125000I-150000J0D01*
G01*
X47650000Y-73125000D01*
G75*
G02*
X47500000Y-72975000I0J150000D01*
G01*
G37*
G36*
G01*
X47500000Y-74245000D02*
X47500000Y-73945000D01*
G75*
G02*
X47650000Y-73795000I150000J0D01*
G01*
X49300000Y-73795000D01*
G75*
G02*
X49450000Y-73945000I0J-150000D01*
G01*
X49450000Y-74245000D01*
G75*
G02*
X49300000Y-74395000I-150000J0D01*
G01*
X47650000Y-74395000D01*
G75*
G02*
X47500000Y-74245000I0J150000D01*
G01*
G37*
G36*
G01*
X47500000Y-75515000D02*
X47500000Y-75215000D01*
G75*
G02*
X47650000Y-75065000I150000J0D01*
G01*
X49300000Y-75065000D01*
G75*
G02*
X49450000Y-75215000I0J-150000D01*
G01*
X49450000Y-75515000D01*
G75*
G02*
X49300000Y-75665000I-150000J0D01*
G01*
X47650000Y-75665000D01*
G75*
G02*
X47500000Y-75515000I0J150000D01*
G01*
G37*
G36*
G01*
X47500000Y-76785000D02*
X47500000Y-76485000D01*
G75*
G02*
X47650000Y-76335000I150000J0D01*
G01*
X49300000Y-76335000D01*
G75*
G02*
X49450000Y-76485000I0J-150000D01*
G01*
X49450000Y-76785000D01*
G75*
G02*
X49300000Y-76935000I-150000J0D01*
G01*
X47650000Y-76935000D01*
G75*
G02*
X47500000Y-76785000I0J150000D01*
G01*
G37*
G36*
G01*
X47500000Y-78055000D02*
X47500000Y-77755000D01*
G75*
G02*
X47650000Y-77605000I150000J0D01*
G01*
X49300000Y-77605000D01*
G75*
G02*
X49450000Y-77755000I0J-150000D01*
G01*
X49450000Y-78055000D01*
G75*
G02*
X49300000Y-78205000I-150000J0D01*
G01*
X47650000Y-78205000D01*
G75*
G02*
X47500000Y-78055000I0J150000D01*
G01*
G37*
G36*
G01*
X47500000Y-79325000D02*
X47500000Y-79025000D01*
G75*
G02*
X47650000Y-78875000I150000J0D01*
G01*
X49300000Y-78875000D01*
G75*
G02*
X49450000Y-79025000I0J-150000D01*
G01*
X49450000Y-79325000D01*
G75*
G02*
X49300000Y-79475000I-150000J0D01*
G01*
X47650000Y-79475000D01*
G75*
G02*
X47500000Y-79325000I0J150000D01*
G01*
G37*
G36*
G01*
X47500000Y-80595000D02*
X47500000Y-80295000D01*
G75*
G02*
X47650000Y-80145000I150000J0D01*
G01*
X49300000Y-80145000D01*
G75*
G02*
X49450000Y-80295000I0J-150000D01*
G01*
X49450000Y-80595000D01*
G75*
G02*
X49300000Y-80745000I-150000J0D01*
G01*
X47650000Y-80745000D01*
G75*
G02*
X47500000Y-80595000I0J150000D01*
G01*
G37*
D10*
X47000000Y-86000000D03*
X52000000Y-86000000D03*
X51300000Y-74100000D03*
X51300000Y-79100000D03*
X40700000Y-79100000D03*
X40700000Y-74100000D03*
M02*
